<?xml version="1.0" encoding="UTF-8"?>
<svg id="Layer_1" data-name="Layer 1" xmlns="http://www.w3.org/2000/svg" xmlns:xlink="http://www.w3.org/1999/xlink" viewBox="0 0 5043.13 4376.07">
  <defs>
    <style>
      .cls-1, .cls-2 {
        fill: #fff;
      }

      .cls-3 {
        fill: #90b5df;
      }

      .cls-4 {
        opacity: .5;
      }

      .cls-2 {
        fill-rule: evenodd;
      }

      .cls-5 {
        opacity: .6;
      }

      .cls-6 {
        opacity: .2;
      }

      .cls-7 {
        fill: #ff9eba;
      }

      .cls-8 {
        fill: #e0e0e0;
      }

      .cls-9 {
        opacity: .35;
      }

      .cls-10 {
        opacity: .3;
      }

      .cls-11 {
        fill: #ff8a8e;
      }

      .cls-12 {
        fill: #000072;
      }

      .cls-13 {
        fill: #040056;
      }

      .cls-14 {
        fill: url(#Adsýz_degrade_36);
      }

      .cls-15 {
        fill: #f2f2f2;
      }
    </style>
    <radialGradient id="Adsýz_degrade_36" data-name="Adsýz degrade 36" cx="4610.39" cy="794.3" fx="4610.39" fy="794.3" r="176.73" gradientUnits="userSpaceOnUse">
      <stop offset="0" stop-color="#00f872"/>
      <stop offset="1" stop-color="#00b85d"/>
    </radialGradient>
  </defs>
  <g class="cls-6">
    <ellipse class="cls-12" cx="3523.5" cy="3589.23" rx="1514.41" ry="174.35"/>
  </g>
  <g>
    <path class="cls-3" d="m4724.69,3160.17v1.07c0,2.26-.07,4.58-.13,6.9-.07,1.07-.07,2.13-.07,3.26-.07,2.07-.2,4.27-.27,6.4-.14,2.57-.34,5.15-.47,7.72,0,.38-.07.75-.07,1.13-.27,4.02-.68,8.03-1.02,12.05-.61,5.15-1.22,10.23-1.83,15.37-.47,3.01-.88,6.02-1.42,9.1-.34,2.2-.68,4.33-1.09,6.46-.48,2.64-.95,5.27-1.42,7.91-1.63,8.22-3.46,16.38-5.57,24.54-.34,1.38-.75,2.76-1.15,4.2-.95,3.7-1.97,7.34-3.05,10.98-1.09,3.83-2.24,7.72-3.53,11.48-1.22,3.89-2.58,7.72-3.87,11.55-.14.38-.27.75-.41,1.13-1.36,3.77-2.78,7.66-4.27,11.42-.27.75-.54,1.51-.88,2.26-1.36,3.39-2.71,6.78-4.14,10.17-.34.75-.68,1.51-.95,2.26-1.56,3.64-3.19,7.22-4.89,10.86-1.83,4.02-3.73,7.97-5.77,11.92-1.9,3.95-4,7.91-6.11,11.8-2.31,4.33-4.75,8.66-7.26,12.93-1.83,3.14-3.73,6.21-5.63,9.29-10.59,17.01-22.39,33.07-35.29,47.88-1.42,1.63-2.92,3.2-4.34,4.83-4.34,4.83-8.75,9.48-13.37,13.93-2.92,3.01-5.97,5.9-9.03,8.66-20.7,18.76-43.5,34.58-68.33,46.56,0,0-.07,0-.2.13-21.31,10.23-44.11,17.57-68.27,21.59-207.11,34.14-424.2-97.71-424.2-97.71-4.14,1.88-8.28,3.7-12.42,5.46-118.21,51.21-262.89,82.52-413.41,93.76-240.63,18.01-496.13-15.06-682.07-99.22,0,0-217.09,131.85-424.2,97.71-24.16-4.02-46.96-11.36-68.27-21.59-.14-.13-.2-.13-.2-.13-24.84-11.99-47.64-27.8-68.27-46.56-3.05-2.76-6.11-5.65-9.09-8.66-4.61-4.46-9.03-9.1-13.37-13.93-1.42-1.63-2.92-3.2-4.34-4.83-12.89-14.81-24.7-30.88-35.29-47.88-1.9-3.07-3.8-6.15-5.63-9.29-2.51-4.27-4.95-8.6-7.26-12.93-2.1-3.89-4.21-7.84-6.11-11.8-2.04-3.95-3.94-7.91-5.77-11.92-1.7-3.64-3.33-7.22-4.89-10.86-.27-.75-.61-1.51-.95-2.26-1.42-3.39-2.78-6.78-4.14-10.17-.34-.75-.61-1.51-.88-2.26-1.49-3.77-2.92-7.66-4.27-11.42-.14-.38-.27-.75-.41-1.13-1.29-3.83-2.65-7.66-3.87-11.55-1.29-3.77-2.44-7.66-3.53-11.48-1.09-3.64-2.1-7.28-3.05-10.98-.41-1.44-.81-2.82-1.15-4.2-2.1-8.16-3.94-16.32-5.5-24.54-.54-2.64-1.02-5.27-1.49-7.91-.34-2.13-.75-4.27-1.09-6.46-.48-3.07-.95-6.09-1.43-9.1-.61-5.15-1.22-10.23-1.83-15.37-.34-4.02-.75-8.03-1.02-12.05,0-.38-.07-.75-.07-1.13-.14-2.57-.34-5.15-.41-7.72-.14-2.13-.27-4.33-.34-6.4,0-1.13,0-2.2-.07-3.26-.07-2.32-.14-4.64-.14-6.9v-1.07c0-3.77,0-7.59.2-11.36.07-5.84.34-11.61.81-17.45.2-2.95.48-5.96.75-8.85.27-3.01.61-5.96,1.02-8.85.34-2.51.68-5.02,1.09-7.53.27-2.07.61-4.14.95-6.21.27-1.63.61-3.33.88-4.96.54-3.01,1.15-6.02,1.83-8.97.54-2.26,1.02-4.52,1.56-6.78.68-2.76,1.42-5.59,2.17-8.35.75-2.76,1.56-5.46,2.38-8.22.75-2.45,1.56-4.83,2.37-7.22.68-2.13,1.43-4.14,2.24-6.21.88-2.45,1.83-4.9,2.71-7.28.14-.25.2-.44.34-.63.75-1.95,1.49-3.89,2.38-5.77.34-.75.68-1.51.95-2.32,1.09-2.2,2.1-4.39,3.12-6.53.81-1.69,1.56-3.26,2.37-4.83,2.44-4.77,5.16-9.54,7.87-14.12,4.28-7.03,8.89-13.74,13.98-20.21,1.15-1.57,2.44-3.14,3.73-4.64.2-.31.48-.63.75-.94,1.36-1.63,2.78-3.33,4.28-4.89.14-.19.27-.38.54-.63.2-.25.47-.5.75-.82.75-.82,1.49-1.63,2.24-2.45.81-.88,1.63-1.69,2.44-2.51.14-.13.2-.25.41-.44,1.56-1.63,3.19-3.26,4.95-4.83,4.55-4.33,9.3-8.47,14.39-12.36,1.49-1.26,2.99-2.38,4.55-3.45,1.56-1.19,3.19-2.32,4.82-3.39,1.76-1.19,3.6-2.38,5.43-3.58,1.83-1.19,3.73-2.38,5.63-3.45,1.7-1,3.39-2.01,5.23-2.95,2.99-1.69,6.04-3.26,9.16-4.77,7.6-3.7,15-6.84,22.33-9.6,2.38-.88,4.61-1.69,6.99-2.51,2.04-.69,4-1.38,6.11-2.01,4.28-1.38,8.55-2.57,12.83-3.64,1.22-.31,2.51-.63,3.8-.94,1.83-.44,3.6-.82,5.36-1.19,1.63-.38,3.33-.69,4.95-1,1.15-.19,2.37-.38,3.53-.56,1.7-.31,3.46-.63,5.23-.88,1.15-.19,2.31-.31,3.46-.44,1.83-.25,3.66-.44,5.43-.69,1.36-.13,2.78-.25,4.07-.31,1.49-.19,2.99-.25,4.48-.38.88-.06,1.76-.13,2.65-.13,3.66-.19,7.26-.31,10.86-.31,2.51,0,5.09.06,7.53.19h.41c4.14.13,8.21.38,12.15.82,1.36.13,2.72.25,4.07.44.95.06,1.9.25,2.85.31.34.06.61.06.88.13,1.36.13,2.71.38,4,.56.34.06.75.13,1.09.13,2.92.44,5.77.94,8.62,1.51,1.02.19,2.1.44,3.05.69,3.66.75,7.19,1.57,10.65,2.51,1.56.38,3.05.82,4.55,1.19,5.29,1.51,10.52,3.2,15.68,5.08,5.02,1.82,9.98,3.77,14.73,5.9,3.19,1.32,6.31,2.76,9.36,4.27.2.06.34.19.54.25,2.85,1.38,5.63,2.82,8.35,4.27,16.02,8.47,29.79,17.82,41.12,26.55,1.09.82,2.04,1.57,3.05,2.38,1.02.75,1.97,1.57,2.92,2.32,11.27,9.16,19.54,17.19,24.43,22.34,3.53,3.58,5.29,5.77,5.29,5.77,0,0,11.54-10.67,37.73-29.24,13.64-9.66,31.28-21.52,53.34-35.14,0,0,33.52-114.84,97.52-253.59,37.53-81.46,85.57-171.13,143.46-250.64l501.56-96.64,501.56,96.64c50.69,69.66,93.85,147.16,129,220.02,73.36,152.06,111.97,284.22,111.97,284.22,22.12,13.62,39.7,25.48,53.34,35.14,26.19,18.58,37.73,29.24,37.73,29.24,0,0,1.76-2.2,5.29-5.77,4.89-5.15,13.16-13.18,24.43-22.34.95-.75,1.9-1.57,2.92-2.32,1.02-.82,2.04-1.57,3.05-2.38,11.33-8.72,25.11-18.07,41.12-26.55,2.71-1.44,5.5-2.89,8.35-4.27.2-.06.34-.19.54-.25,3.05-1.51,6.17-2.95,9.36-4.27,4.75-2.13,9.7-4.08,14.79-5.9,5.09-1.88,10.31-3.58,15.61-5.08,1.49-.38,2.99-.82,4.55-1.19,3.46-.94,7.06-1.76,10.65-2.51.95-.25,2.04-.5,3.12-.69,2.78-.56,5.63-1.07,8.55-1.51.34,0,.75-.06,1.09-.13,1.36-.19,2.65-.44,4-.56.27-.06.54-.06.88-.13.95-.06,1.9-.25,2.85-.31,1.36-.19,2.71-.31,4.07-.44,3.94-.44,8.01-.69,12.15-.82h.41c2.44-.13,5.02-.19,7.53-.19,3.6,0,7.19.13,10.86.31.88,0,1.76.06,2.65.13,1.49.13,2.99.19,4.48.38,1.29.06,2.72.19,4.07.31,1.83.25,3.66.44,5.5.69,1.09.13,2.24.25,3.39.44,1.76.25,3.53.56,5.23.88,1.15.19,2.37.38,3.6.56,1.56.31,3.26.63,4.89,1,1.76.38,3.53.75,5.36,1.19,1.29.31,2.58.63,3.8.94,4.28,1.07,8.55,2.26,12.83,3.64,2.1.63,4.07,1.32,6.11,2.01,2.38.82,4.61,1.63,6.99,2.51,7.33,2.76,14.73,5.9,22.33,9.6,3.12,1.51,6.17,3.07,9.23,4.77,1.76.94,3.46,1.95,5.16,2.95,1.9,1.07,3.8,2.26,5.63,3.45,1.83,1.19,3.66,2.38,5.43,3.58,1.63,1.07,3.26,2.2,4.82,3.39,1.56,1.07,3.05,2.2,4.55,3.45,5.09,3.89,9.84,8.03,14.46,12.36,1.7,1.57,3.33,3.2,4.89,4.83.2.19.27.31.41.44.81.82,1.63,1.63,2.44,2.51.75.82,1.49,1.63,2.24,2.45.27.31.54.56.75.82.27.25.41.44.54.63,1.49,1.57,2.92,3.26,4.28,4.89.27.31.54.63.75.94,1.29,1.51,2.58,3.07,3.73,4.64,5.09,6.46,9.7,13.18,13.98,20.21,2.71,4.58,5.43,9.35,7.87,14.12.81,1.57,1.56,3.14,2.38,4.83,1.02,2.13,2.04,4.33,3.12,6.53.27.82.61,1.57.95,2.32.88,1.88,1.63,3.83,2.38,5.77.14.19.2.38.34.63.95,2.38,1.83,4.83,2.78,7.28.48,1.32.95,2.57,1.36,3.89.27.75.54,1.51.82,2.32.88,2.38,1.63,4.77,2.37,7.22.82,2.76,1.63,5.46,2.38,8.22.75,2.76,1.49,5.59,2.17,8.35.54,2.26,1.02,4.52,1.56,6.78,1.02,4.58,1.9,9.22,2.71,13.93.34,2.07.68,4.14.95,6.21.41,2.51.75,5.02,1.09,7.53.41,2.89.75,5.84,1.02,8.85.27,2.89.54,5.9.75,8.85.48,5.84.75,11.61.81,17.45.2,3.77.2,7.59.2,11.36Z"/>
    <g class="cls-6">
      <path class="cls-13" d="m4113,2645.83c-196.73,75.68-430.51,119.49-681.32,119.49-214.78,0-417.07-32.13-594.26-88.86,37.53-81.46,85.57-171.13,143.46-250.64l501.56-96.64,501.56,96.64c50.69,69.66,93.85,147.16,129,220.02Z"/>
    </g>
    <path class="cls-12" d="m2539.41,3548.38c-52.68,0-95.85-12.77-111.71-18.16l-.64-.21c-.71-.24-1.44-.51-2.16-.81-.55-.22-1.1-.46-1.63-.73-26.54-12.79-51.71-29.93-74.8-50.95-3.71-3.37-6.95-6.45-9.86-9.39-4.75-4.61-9.47-9.54-14.43-15.07-1.43-1.58-2.96-3.26-4.49-5-13.73-15.76-26.41-32.94-37.78-51.17-2.08-3.39-4.06-6.62-5.97-9.89-2.66-4.54-5.26-9.13-7.74-13.78-2.19-4.05-4.39-8.23-6.48-12.46-2.03-4.02-4.1-8.29-6.06-12.57-1.73-3.74-3.44-7.56-5.09-11.44l-1.36-3.13c-1.3-3.19-2.61-6.38-3.86-9.57-.41-.97-.78-1.91-1.13-2.88-1.5-3.79-2.93-7.62-4.26-11.4-.29-.73-.54-1.45-.77-2.17l-.07-.2c-1.33-3.84-2.65-7.68-3.87-11.52-1.27-3.76-2.54-7.94-3.74-12.13-1.11-3.85-2.23-7.73-3.23-11.66l-.16-.59c-.36-1.33-.72-2.63-1.03-3.94-2.09-8.06-4.06-16.78-5.77-25.54-.55-2.87-1.07-5.65-1.55-8.43-.38-2.08-.8-4.44-1.17-6.79-.5-3.07-.96-6.2-1.42-9.35-.73-5.68-1.37-10.93-1.94-16.23l-.08-.83c-.39-4.02-.77-8.05-1.06-12.08-.02-.29-.03-.57-.04-.86-.02-.28-.03-.56-.04-.84-.17-2.59-.34-5.19-.44-7.79-.12-2.04-.23-4.31-.29-6.54-.05-1.18-.07-2.37-.07-3.56-.11-2.49-.17-4.98-.17-7.43v-1.08c0-4.05,0-8.09.18-12.08.12-6.15.42-12.38.89-18.5.23-3.1.52-6.23.81-9.31.3-3.24.67-6.46,1.1-9.68.35-2.68.71-5.4,1.13-8.06.26-2.01.65-4.46,1.11-6.92.84-5.1,1.83-10.15,2.93-14.91.48-2.2,1.03-4.64,1.62-7.09.69-2.9,1.48-5.96,2.32-8.92.79-3,1.69-5.95,2.58-8.89.75-2.55,1.63-5.26,2.59-8.03.79-2.3,1.59-4.57,2.44-6.85.87-2.41,1.91-5.07,2.95-7.67.16-.43.34-.85.52-1.28.81-2.01,1.61-3.96,2.48-5.93l.96-2.22c.11-.25.23-.5.34-.74l1.13-2.41c.69-1.49,1.39-2.96,2.1-4.42.75-1.59,1.68-3.48,2.66-5.37,2.37-4.63,5.18-9.68,8.49-15.25,5.03-8.28,10.1-15.62,15.59-22.61,1.31-1.76,2.7-3.47,4.12-5.18.38-.48.79-.97,1.21-1.46,1.4-1.71,2.9-3.42,4.41-5.1.49-.57,1-1.14,1.57-1.71.1-.11.21-.22.29-.31l1.78-1.98c.24-.27.48-.54.73-.8,1.01-1.06,1.8-1.88,2.59-2.68.16-.17.33-.34.5-.51h0c1.96-2,3.84-3.88,5.81-5.66,5.15-4.91,10.39-9.41,16.01-13.73,1.8-1.46,3.6-2.82,5.45-4.12,1.83-1.37,3.7-2.69,5.57-3.95,1.69-1.17,3.72-2.48,5.76-3.8,2.36-1.52,4.67-2.96,6.98-4.28,1.58-.95,3.59-2.09,5.67-3.23,3.36-1.84,6.82-3.64,10.4-5.38,8.13-3.93,16.42-7.49,24.68-10.61,2.74-1.03,5.35-1.97,8.02-2.86,2.09-.73,4.49-1.53,6.96-2.26,4.57-1.47,9.26-2.8,13.82-3.93,1.43-.39,2.86-.74,4.29-1.09l1.46-.33c1.7-.38,3.37-.76,5.03-1.1,1.2-.27,2.99-.61,4.74-.95.1-.02.69-.13.79-.15l3.56-.62c2.03-.36,4.08-.71,6.09-.97,1.46-.24,2.9-.43,4.3-.57,1.85-.25,3.69-.46,5.48-.66,1.77-.2,3.41-.33,5-.45,1.04-.11,2.62-.23,4.15-.35l3.69-.22c7.92-.34,14.37-.41,20.85-.15.32,0,.65,0,.85.02,4.94.19,9.41.49,13.63.91,1.63.13,3.22.31,4.81.49.43.04,1.25.15,2.06.26.27.03.67.08,1.08.13.21.02.43.05.65.07h0c1.54.18,3.1.41,4.65.65l1.06.16c3.52.49,6.9,1.1,10.29,1.77,1.24.23,2.61.52,3.95.84,3.95.85,7.83,1.76,11.6,2.77l4.72,1.28c5.95,1.71,11.75,3.58,17.6,5.64,6.35,2.32,11.73,4.47,16.78,6.7,3.17,1.33,6.67,2.94,10.11,4.62.21.1.42.19.62.29,3.21,1.54,6.28,3.13,9.31,4.72,15.51,8.22,30.64,17.99,45.02,29.08.03.02.49.38.52.41.98.76,1.93,1.5,2.87,2.26,1.07.83,2.1,1.67,3.11,2.5,12.26,9.94,21.36,18.81,26.84,24.49,3.45,3.55,5.59,6.04,6.33,6.92.69.8,3.48,4.07,7.83,9.48,46.39,57.97,189.8,260.24,88.65,430.8h0c-61.91,104.36-153.8,129.21-227.25,129.21Zm-92.4-65.09c43.76,14.75,189.63,50.67,272.05-88.27,87.85-148.13-55.11-339.82-84.65-376.75-4.11-5.11-6.58-7.98-6.75-8.17-.13-.15-.26-.31-.39-.46-.2-.24-1.54-1.79-3.89-4.2-4.54-4.72-11.99-11.97-22.19-20.25-.85-.69-1.59-1.3-2.36-1.9-.23-.18-.46-.36-.68-.54-.67-.55-1.34-1.07-2.04-1.61-12.31-9.49-24.83-17.58-37.55-24.33-2.26-1.19-4.6-2.41-7.04-3.59-.46-.21-.91-.42-1.32-.63-2.79-1.35-5.21-2.46-7.68-3.5-4.34-1.91-8.62-3.61-13.49-5.4-4.49-1.58-9.22-3.1-13.77-4.41l-3.93-1.06c-3.06-.82-6.12-1.53-9.23-2.19-.39-.08-.78-.17-1.16-.27-.44-.11-.92-.19-1.4-.28-2.47-.49-4.75-.91-7.12-1.24-.21-.03-.42-.06-.64-.1l-.97-.14c-1.05-.16-1.92-.3-2.78-.4-.02,0-.05,0-.07,0-.35-.04-.7-.07-1.06-.12-.53-.06-1.06-.13-1.6-.2l-.64-.08c-1.33-.15-2.25-.27-3.22-.34-.3-.02-.6-.05-.9-.08-2.93-.3-6.12-.52-9.74-.67-.36,0-.75-.01-.98-.02-5.08-.21-10.5-.12-15.97.11l-2.38.15c-.95.07-1.93.13-2.9.23-.27.03-.53.05-.8.07-1.19.09-2.13.16-3.07.26-1.52.18-3.08.35-4.66.57-.46.06-.91.12-1.37.16-.35.03-.73.09-1.1.15-.5.09-1,.16-1.5.22-1.2.15-2.44.38-3.64.59l-3.51.61c-1.35.26-2.54.48-3.7.73-1.78.37-3.02.65-4.27.93l-1.04.23c-.46.12-1.42.34-2.36.61-.32.09-.65.18-.98.26-3.34.81-6.89,1.82-10.84,3.09-2.19.66-3.8,1.2-5.44,1.77-2.36.79-4.3,1.49-6.29,2.23-6.64,2.51-13.37,5.41-19.96,8.6-2.69,1.3-5.34,2.69-7.94,4.11-1.52.83-2.94,1.64-4.37,2.49-1.9,1.1-3.36,2.01-4.79,2.93-1.65,1.07-3.21,2.07-4.73,3.11-1.46.98-2.65,1.81-3.78,2.68-.32.24-.64.48-.97.71-.95.66-1.87,1.35-2.79,2.1-.24.2-.49.39-.73.58-4.29,3.27-8.27,6.7-12.2,10.46-.22.21-.44.42-.67.63-1.22,1.1-2.36,2.27-3.51,3.43-.3.33-.59.63-.88.91-.56.56-1.09,1.11-1.64,1.69l-1.76,1.94c-.25.28-.78.85-1.13,1.22-.06.07-.13.14-.19.21-.1.12-.2.23-.29.33-1.14,1.26-2.28,2.55-3.33,3.84-.2.25-.41.5-.62.74-.1.13-.21.26-.31.39-.96,1.15-1.92,2.28-2.78,3.47-.18.24-.36.48-.55.72-4.31,5.46-8.32,11.27-12.25,17.73-2.66,4.47-4.97,8.62-6.96,12.51-.77,1.48-1.4,2.77-2.03,4.11-.75,1.53-1.31,2.72-1.87,3.93l-1.89,4.18c-.82,1.87-1.49,3.51-2.16,5.2-.1.26-.21.51-.32.76l-.12.29c-.69,1.73-1.54,3.9-2.34,6.12-.8,2.14-1.44,3.97-2.09,5.85-.72,2.09-1.39,4.1-2,6.21-.82,2.68-1.56,5.09-2.2,7.54-.05.19-.1.37-.15.56-.69,2.39-1.32,4.87-1.9,7.31-.54,2.2-1,4.27-1.46,6.35-.93,4.04-1.73,8.13-2.5,12.76-.4,2.17-.66,3.82-.9,5.52-.43,2.78-.73,5.1-1.04,7.42-.35,2.66-.65,5.29-.9,7.96-.27,2.82-.53,5.65-.75,8.49-.41,5.36-.67,10.78-.77,16.14,0,.2,0,.4-.02.6-.15,3.41-.14,6.86-.14,10.32v1.08c0,1.9.05,3.84.14,5.78.02.37.02.73.02,1.1,0,.66-.01,1.32.02,1.98.01.23.02.45.03.68.05,1.89.14,3.82.25,5.75.12,2.64.28,5.04.43,7.43.01.26.03.51.03.77.02.26.03.51.04.76.25,3.46.58,6.92.92,10.37l.05.58c.51,4.71,1.1,9.63,1.75,14.6.38,2.53.8,5.45,1.28,8.42.32,2.08.68,4.04,1.03,6,.46,2.72.93,5.18,1.4,7.64,1.52,7.77,3.28,15.57,5.23,23.1.3,1.24.54,2.12.79,3.01l.26.96c.96,3.74,1.95,7.15,2.93,10.57,1.02,3.56,2.09,7.08,3.25,10.54,1.23,3.85,2.43,7.32,3.63,10.8l.2.58s.03.1.05.15c.11.27.21.55.31.83,1.22,3.5,2.56,7.06,3.95,10.57.09.22.17.45.25.67l.32.82c.12.27.23.54.34.82,1.21,3.09,2.48,6.19,3.75,9.28l1.02,2.33c1.53,3.6,3.04,6.97,4.6,10.34,1.74,3.81,3.56,7.54,5.42,11.22,1.92,3.89,3.82,7.51,5.79,11.14,2.25,4.21,4.54,8.25,6.87,12.23,1.75,2.99,3.55,5.93,5.35,8.87,9.87,15.82,20.96,30.84,32.85,44.5,1.27,1.44,2.63,2.93,3.99,4.43,4.32,4.81,8.28,8.95,12.22,12.77.14.14.28.28.42.42,2.6,2.64,5.3,5.18,8.01,7.63,18.88,17.18,39.22,31.16,60.49,41.58Zm295.85-76.2h.06-.06Zm-424.39-410.32c-.14.19-.27.37-.42.56.14-.18.28-.37.42-.56Zm2.1-2.54c-.06.06-.13.12-.2.18.07-.06.13-.12.2-.18Zm.03-.03s-.02.02-.03.03c.01,0,.02-.02.03-.03Zm.03-.03s0,0,0,.01c0,0,0,0,0-.01Zm255.64-85.61c.09.05.16.09.22.12-.07-.04-.14-.07-.22-.12Zm-4.53-1.75s.01,0,.02,0c0,0-.01,0-.02,0Zm-.04-.01s.02,0,.03.01c-.01,0-.02,0-.03-.01Zm-77.3-23.06c.14.02.28.04.4.06h0c-.13-.02-.27-.04-.4-.06Z"/>
    <ellipse class="cls-15" cx="2507.34" cy="3248.18" rx="118.46" ry="109.55"/>
    <g>
      <path class="cls-15" d="m2352.58,3057.12c0,51.1-44.76,92.44-99.96,92.44-4.16,0-8.27-.26-12.27-.72.11-5.85.39-11.66.83-17.46.22-2.98.5-5.96.78-8.88.28-2.98.61-5.91,1-8.83.33-2.52.67-5.03,1.05-7.5.28-2.11.61-4.16,1-6.21.78-4.72,1.67-9.4,2.72-13.97.5-2.26,1-4.52,1.56-6.78.67-2.77,1.39-5.6,2.17-8.32.72-2.77,1.55-5.5,2.39-8.22.72-2.46,1.5-4.83,2.33-7.24.72-2.11,1.44-4.16,2.22-6.21.89-2.46,1.83-4.88,2.78-7.24.11-.26.17-.46.28-.67.78-1.95,1.55-3.85,2.39-5.75.33-.77.67-1.54,1-2.31,1.05-2.21,2.05-4.42,3.11-6.57.78-1.64,1.55-3.24,2.39-4.83,2.44-4.78,5.11-9.5,7.83-14.07,4.28-7.04,8.89-13.76,13.99-20.23,1.17-1.59,2.44-3.13,3.72-4.67.22-.31.5-.62.78-.92,1.33-1.64,2.78-3.29,4.22-4.88.17-.21.33-.41.56-.62,2.72,1.39,5.33,2.93,7.89,4.52v.05c11.05,6.98,20.44,16.02,27.65,26.5,9.88,14.33,15.6,31.38,15.6,49.61Z"/>
      <path class="cls-15" d="m2493.57,2931.35c0,51.1-44.76,92.44-99.96,92.44-21.05,0-40.54-6.01-56.64-16.28-11.05-6.98-20.49-16.02-27.65-26.5-1.78-2.52-3.39-5.14-4.89-7.86.83-.87,1.61-1.69,2.44-2.52.11-.1.22-.26.39-.41,1.61-1.64,3.22-3.29,4.94-4.83,4.55-4.37,9.33-8.47,14.44-12.38,1.5-1.23,3-2.36,4.55-3.44,1.56-1.18,3.17-2.31,4.78-3.39,1.78-1.23,3.61-2.41,5.44-3.59,1.83-1.18,3.72-2.36,5.61-3.44,1.72-1.03,3.44-2,5.22-2.98,3-1.64,6.05-3.24,9.22-4.78,7.55-3.65,14.99-6.83,22.32-9.6,2.33-.87,4.61-1.69,6.94-2.46,2.06-.72,4.05-1.39,6.11-2,4.33-1.39,8.61-2.62,12.83-3.65,1.28-.36,2.55-.67,3.83-.98,1.83-.41,3.61-.82,5.39-1.18,1.61-.36,3.28-.67,4.89-.98,1.17-.21,2.39-.41,3.55-.62,1.72-.31,3.5-.62,5.22-.82,1.17-.21,2.33-.36,3.44-.46,1.83-.26,3.66-.46,5.44-.67,1.39-.15,2.78-.26,4.11-.36,1.5-.15,3-.26,4.44-.36.89-.05,1.78-.1,2.67-.15,3.66-.15,7.27-.26,10.83-.26,2.55,0,5.11.05,7.55.15h.44c4.11.15,8.16.41,12.11.82,1.39.1,2.72.26,4.05.41,1,.1,1.94.26,2.89.36,2,7.29,3.05,14.89,3.05,22.75Z"/>
      <path class="cls-15" d="m2686.55,2965.19c-6.39,15.05-16.94,28.19-30.32,38.16-17.16,12.79-38.93,20.44-62.7,20.44-55.2,0-99.96-41.34-99.96-92.44,0-7.55,1-14.89,2.89-21.93,2.94.41,5.78.92,8.61,1.49,1.05.21,2.11.41,3.11.67,3.61.77,7.16,1.59,10.61,2.52,1.56.41,3.05.82,4.55,1.23,5.33,1.49,10.55,3.18,15.66,5.03,5.05,1.85,10,3.8,14.77,5.91,3.17,1.34,6.28,2.77,9.33,4.26.22.1.39.21.56.26,2.89,1.39,5.66,2.82,8.39,4.26,15.99,8.47,29.76,17.82,41.09,26.55,1.06.82,2.06,1.59,3.05,2.41,1,.77,1.94,1.54,2.89,2.31,11.27,9.14,19.55,17.2,24.49,22.34,3.5,3.59,5.28,5.75,5.28,5.75,0,0,11.55-10.63,37.71-29.22Z"/>
    </g>
    <g>
      <path class="cls-12" d="m2252.62,3174.66c-5.16,0-10.43-.31-15.66-.92-13.75-1.6-24-12.52-23.75-25.34.12-6.25.42-12.57.9-18.8.23-3.1.52-6.23.81-9.31.3-3.24.67-6.46,1.1-9.68.35-2.68.71-5.4,1.13-8.06.26-2.01.65-4.46,1.11-6.92.84-5.1,1.83-10.15,2.93-14.91.48-2.2,1.03-4.64,1.62-7.09.69-2.9,1.48-5.96,2.32-8.92.79-3,1.69-5.95,2.58-8.89.75-2.55,1.63-5.26,2.59-8.03.79-2.3,1.59-4.57,2.44-6.85.87-2.41,1.91-5.07,2.95-7.67.16-.43.34-.85.52-1.28.81-2,1.61-3.96,2.48-5.93l.96-2.22c.11-.25.23-.5.34-.74l1.13-2.41c.69-1.49,1.39-2.96,2.1-4.42.75-1.59,1.68-3.48,2.66-5.37,2.37-4.63,5.18-9.68,8.49-15.25,5.03-8.28,10.1-15.62,15.59-22.61,1.31-1.75,2.7-3.46,4.11-5.17.38-.49.79-.97,1.21-1.46,1.41-1.71,2.91-3.43,4.41-5.1.82-.96,1.71-1.91,2.78-2.87,8.55-7.71,21.55-9.34,32.02-4.02,3.09,1.57,6.26,3.39,9.98,5.71.53.33,1.03.67,1.53,1.03,13.49,8.78,24.87,19.82,33.84,32.85,12.99,18.81,19.86,40.64,19.86,63.09,0,64.81-57.01,117.54-127.1,117.54Zm33.97-123.9l-.12.29c-.69,1.73-1.54,3.9-2.34,6.12-.8,2.14-1.44,3.97-2.09,5.85-.72,2.09-1.39,4.1-2,6.21-.82,2.68-1.56,5.09-2.2,7.54-.05.19-.1.37-.15.56-.69,2.39-1.32,4.87-1.9,7.31-.54,2.2-1,4.27-1.46,6.35-.93,4.04-1.73,8.13-2.5,12.76-.4,2.17-.66,3.82-.9,5.52-.43,2.78-.73,5.1-1.04,7.42-.27,2.01-.5,4.01-.71,6.02,32.19-6.96,56.24-33.72,56.24-65.58,0-12.86-3.92-25.35-11.34-36.1-2.17-3.15-4.58-6.1-7.21-8.82-1.71,2.52-3.39,5.14-5.04,7.87-2.66,4.47-4.97,8.62-6.96,12.51-.77,1.47-1.4,2.77-2.03,4.11-.75,1.53-1.31,2.72-1.87,3.93l-1.89,4.18c-.82,1.87-1.49,3.51-2.16,5.2-.1.26-.21.51-.32.77Z"/>
      <path class="cls-12" d="m2393.61,3048.89c-25.89,0-50.81-7.16-72.06-20.72-14.12-8.93-25.99-20.3-35.18-33.75-2-2.83-4.08-6.17-6.12-9.87-5.07-9.18-3.54-20.29,3.84-28.02,1.01-1.06,1.8-1.88,2.59-2.68.16-.17.33-.34.5-.51h0c1.96-2,3.84-3.88,5.81-5.66,5.15-4.91,10.39-9.41,16.01-13.73,1.8-1.46,3.59-2.82,5.45-4.12,1.83-1.37,3.7-2.69,5.57-3.95,1.69-1.17,3.72-2.48,5.76-3.8,2.36-1.52,4.67-2.96,6.98-4.28,1.58-.95,3.59-2.09,5.67-3.23,3.36-1.84,6.82-3.64,10.4-5.38,8.13-3.93,16.42-7.49,24.68-10.61,2.74-1.03,5.35-1.97,8.02-2.86,2.09-.73,4.49-1.53,6.96-2.26,4.57-1.47,9.25-2.8,13.81-3.93,1.43-.39,2.87-.74,4.3-1.09l1.46-.33c1.7-.38,3.37-.76,5.03-1.1,1.2-.27,2.99-.61,4.74-.95.1-.02.69-.13.79-.15l3.56-.62c2.03-.36,4.08-.71,6.09-.97,1.45-.24,2.9-.43,4.3-.57,1.85-.25,3.69-.46,5.48-.66,1.77-.2,3.41-.33,5-.45,1.05-.11,2.62-.23,4.15-.35l3.69-.22c7.92-.34,14.37-.41,20.85-.15.32,0,.65,0,.85.02,4.94.19,9.41.49,13.63.91,1.63.13,3.22.31,4.81.49.43.04,1.25.15,2.06.26,11.19,1.2,20.99,8.74,23.76,18.84,2.58,9.41,3.89,19.15,3.89,28.92,0,64.81-57.02,117.54-127.11,117.54Zm-54.38-72.76c3.91,4.07,8.29,7.65,13.05,10.66,12.23,7.8,26.49,11.9,41.32,11.9,39.92,0,72.45-29.87,72.81-66.7-4.11-.07-8.31.04-12.59.21l-2.38.15c-.95.07-1.93.13-2.9.23-.27.03-.53.05-.8.07-1.19.09-2.13.15-3.07.26-1.52.18-3.08.35-4.66.57-.46.06-.91.12-1.37.16-.35.03-.73.09-1.1.15-.5.09-1,.16-1.5.22-1.2.15-2.44.38-3.64.59l-3.51.61c-1.35.26-2.54.48-3.7.73-1.78.37-3.02.65-4.27.93l-1.04.23c-.46.12-1.42.34-2.36.61-.32.09-.65.18-.98.26-3.34.81-6.89,1.82-10.84,3.09-2.19.66-3.79,1.2-5.44,1.77-2.36.79-4.3,1.49-6.29,2.23-6.64,2.51-13.37,5.41-19.96,8.6-2.69,1.3-5.34,2.69-7.94,4.11-1.52.83-2.94,1.64-4.37,2.49-1.9,1.1-3.36,2.01-4.79,2.93-1.65,1.07-3.21,2.07-4.73,3.11-1.46.98-2.65,1.81-3.78,2.68-.32.24-.64.48-.97.71-.95.66-1.87,1.35-2.79,2.1-.24.2-.49.39-.73.58-1.61,1.23-3.17,2.48-4.71,3.76Z"/>
      <path class="cls-12" d="m2593.53,3048.89c-70.09,0-127.1-52.72-127.1-117.54,0-9.43,1.24-18.84,3.68-27.96,3.36-12.59,16.5-20.76,30.4-18.79,3.52.49,6.9,1.1,10.29,1.77,1.24.23,2.61.52,3.95.84,3.95.85,7.83,1.76,11.6,2.77l4.72,1.28c5.85,1.63,11.81,3.54,17.82,5.72,6.12,2.24,11.51,4.39,16.56,6.62,3.17,1.33,6.66,2.94,10.11,4.62.21.1.42.19.62.29,3.21,1.54,6.28,3.13,9.31,4.72,15.51,8.22,30.64,17.99,45.02,29.08.03.02.49.38.52.41.98.76,1.93,1.5,2.87,2.26,1.07.83,2.1,1.67,3.11,2.5,5.19,4.21,9.82,8.23,13.85,11.89,5.31-4.06,11.68-8.78,19.14-14.09,9.67-6.86,23.11-6.93,32.86-.16,9.75,6.77,13.41,18.73,8.96,29.23-8.05,18.96-21.38,35.75-38.58,48.55-22.47,16.75-50.79,25.98-79.71,25.98Zm-72.04-107.74c5.15,32.51,35.49,57.54,72.04,57.54,6.97,0,13.75-.88,20.25-2.61-3.58-3.29-7.78-6.97-12.59-10.87-.85-.69-1.59-1.3-2.36-1.9-.23-.18-.46-.36-.68-.54-.67-.55-1.34-1.07-2.04-1.61-12.31-9.49-24.83-17.58-37.55-24.33-2.26-1.19-4.6-2.41-7.04-3.59-.46-.21-.9-.42-1.32-.63-2.8-1.35-5.22-2.46-7.68-3.5-4.34-1.9-8.62-3.61-13.49-5.4-2.52-.91-5.04-1.77-7.53-2.56Zm54.79-32.57c.08.04.14.07.2.1-.06-.03-.13-.06-.2-.1Zm-4.53-1.76s.01,0,.02,0c0,0-.01,0-.02,0Zm-.04-.01s.02,0,.03.01c-.01,0-.02,0-.03-.01Z"/>
    </g>
    <path class="cls-12" d="m3482.43,3559.3c-206.77,0-402.12-35.63-552.23-100.51-51.57,28.62-242.67,124.84-430.68,93.86-26.21-4.35-51.71-12.41-75.8-23.96-.14-.06-.29-.14-.44-.21-26.54-12.79-51.71-29.93-74.8-50.95-3.71-3.37-6.95-6.45-9.86-9.39-4.75-4.61-9.47-9.54-14.43-15.07-1.43-1.58-2.96-3.26-4.49-5-13.73-15.76-26.41-32.94-37.78-51.17-2.08-3.39-4.06-6.62-5.97-9.89-2.66-4.54-5.26-9.13-7.74-13.78-2.19-4.05-4.39-8.23-6.48-12.46-2.03-4.02-4.1-8.29-6.06-12.57-1.73-3.74-3.44-7.56-5.09-11.44l-1.36-3.13c-1.31-3.19-2.62-6.38-3.87-9.57-.41-.97-.78-1.91-1.14-2.89-1.49-3.78-2.92-7.61-4.26-11.39-.29-.73-.54-1.45-.77-2.17l-.07-.2c-1.33-3.84-2.65-7.68-3.87-11.52-1.27-3.76-2.54-7.94-3.74-12.13-1.11-3.85-2.23-7.73-3.23-11.66l-.16-.59c-.36-1.33-.72-2.63-1.03-3.94-2.09-8.06-4.06-16.78-5.77-25.54-.55-2.87-1.07-5.65-1.55-8.43-.38-2.08-.8-4.44-1.17-6.79-.5-3.07-.96-6.2-1.42-9.35-.74-5.68-1.37-10.93-1.94-16.23l-.08-.83c-.39-4.02-.77-8.05-1.05-12.08-.02-.28-.03-.57-.05-.85-.02-.29-.03-.57-.04-.85-.17-2.6-.34-5.19-.44-7.79-.12-2.05-.23-4.31-.29-6.54-.03-.62-.05-1.24-.06-1.86l-.03-1c-.02-.24-.02-.48-.03-.72l-.02-.65c-.05-2.27-.1-4.53-.1-6.75v-1.08c0-4.05,0-8.09.18-12.08.12-6.15.42-12.38.89-18.5.23-3.1.52-6.23.81-9.31.3-3.24.67-6.46,1.1-9.68.35-2.68.71-5.4,1.13-8.06.26-2.01.65-4.46,1.11-6.92.84-5.1,1.83-10.15,2.93-14.91.48-2.2,1.03-4.64,1.62-7.09.69-2.9,1.48-5.97,2.33-8.93.79-3,1.68-5.94,2.58-8.88.75-2.55,1.63-5.26,2.59-8.03.79-2.3,1.59-4.57,2.44-6.85.87-2.41,1.91-5.07,2.95-7.67.16-.43.34-.85.52-1.27.8-2.01,1.61-3.97,2.48-5.93l.96-2.22c.11-.25.23-.5.34-.74l1.13-2.41c.69-1.49,1.39-2.96,2.1-4.42.75-1.59,1.68-3.48,2.66-5.37,2.37-4.63,5.18-9.68,8.49-15.25,5.03-8.28,10.1-15.62,15.59-22.61,1.3-1.75,2.7-3.46,4.11-5.17.38-.48.79-.97,1.21-1.46,1.41-1.71,2.91-3.43,4.41-5.1.49-.57,1-1.14,1.57-1.71.1-.11.21-.22.29-.31l1.78-1.98c.24-.27.49-.54.73-.8,1.01-1.06,1.8-1.88,2.59-2.68.16-.17.33-.34.5-.51h0c1.96-2,3.84-3.88,5.81-5.66,5.15-4.91,10.39-9.41,16.01-13.73,1.8-1.46,3.6-2.82,5.46-4.12,1.82-1.37,3.7-2.69,5.57-3.95,1.69-1.17,3.72-2.48,5.76-3.8,2.36-1.52,4.67-2.96,6.98-4.28,1.58-.95,3.59-2.09,5.67-3.23,3.36-1.84,6.82-3.64,10.4-5.38,8.13-3.93,16.42-7.49,24.68-10.61,2.74-1.03,5.35-1.97,8.02-2.86,2.1-.73,4.49-1.53,6.96-2.26,4.57-1.47,9.26-2.81,13.82-3.93,1.43-.39,2.86-.74,4.29-1.09l1.46-.33c1.7-.38,3.37-.76,5.03-1.1,1.2-.27,2.99-.61,4.74-.95.1-.02.69-.13.79-.15l3.56-.62c2.03-.36,4.08-.71,6.09-.97,1.45-.24,2.89-.43,4.29-.57,1.85-.25,3.69-.46,5.48-.66,1.77-.2,3.41-.33,5-.45,1.05-.11,2.62-.23,4.15-.35l3.69-.22c7.92-.34,14.37-.41,20.85-.15.32,0,.65,0,.85.02,4.94.19,9.4.49,13.63.91,1.64.13,3.23.31,4.81.49.43.04,1.25.15,2.06.26.27.03.68.08,1.08.13.21.02.43.05.65.07h0c1.54.18,3.1.41,4.65.65l1.06.16c3.52.49,6.9,1.1,10.29,1.77,1.24.23,2.61.52,3.95.84,3.95.85,7.83,1.76,11.6,2.77l4.72,1.28c5.85,1.63,11.81,3.54,17.82,5.72,6.12,2.24,11.51,4.39,16.56,6.62,3.17,1.33,6.66,2.94,10.11,4.62.21.1.42.19.62.29,3.21,1.54,6.28,3.13,9.31,4.72,15.51,8.22,30.64,17.99,45.02,29.08.03.02.49.38.52.41.98.76,1.93,1.5,2.87,2.26,1.07.83,2.1,1.67,3.11,2.5,5.19,4.21,9.82,8.23,13.85,11.89,5.31-4.06,11.68-8.78,19.14-14.09,14.58-10.3,30.16-20.66,46.45-30.88,15.96-51.88,98.42-305.51,241.9-502.6,3.95-5.43,10.05-9.22,16.98-10.56l501.57-96.65c3.66-.71,7.42-.71,11.08,0l501.57,96.65c6.93,1.34,13.03,5.12,16.98,10.56,143.48,197.09,225.94,450.72,241.9,502.6,16.29,10.22,31.86,20.57,46.39,30.84,7.5,5.33,13.88,10.06,19.21,14.13,4.01-3.66,8.65-7.69,13.88-11.92,1.24-1.02,2.16-1.76,3.07-2.47.94-.76,1.89-1.5,2.87-2.26.03-.03.49-.38.52-.41,14.38-11.08,29.52-20.86,44.98-29.05,3.06-1.61,6.15-3.21,9.36-4.75.21-.1.42-.2.62-.29,3.44-1.68,6.95-3.3,10.52-4.8,4.66-2.06,10.04-4.21,16.05-6.41,6.21-2.24,12.01-4.11,17.81-5.72l4.91-1.34c3.67-.98,7.56-1.89,11.5-2.74,1.36-.33,2.76-.61,4.17-.89,3.16-.64,6.55-1.24,10.07-1.73l4.86,24.7-4.22-24.8c1.92-.29,3.5-.53,5.08-.72h0c.24-.03.48-.05.7-.08.14-.02.28-.03.42-.05,1.39-.18,2.22-.29,3.08-.37,1.18-.14,2.74-.32,4.38-.45,4.23-.43,8.69-.73,13.62-.91.32-.01.64-.02.96-.02,6.45-.25,13.27-.15,20.17.12l4.26.26c1.39.1,2.81.21,4.23.35,1.74.13,3.26.26,4.78.43,1.91.22,3.77.43,5.61.68,1.4.14,2.84.33,4.28.57,2,.27,4.06.61,6.05.97l3.6.63c.09.02.53.1.63.12,1.8.34,3.65.69,5.45,1.1,1.06.21,2.69.57,4.35.95l1.09.25c1.88.45,3.36.81,4.79,1.21,4.57,1.12,9.28,2.47,14.37,4.1,1.93.57,4.32,1.37,6.78,2.22,2.29.76,4.91,1.69,7.59,2.7,8.31,3.14,16.6,6.7,24.68,10.61,3.65,1.77,7.11,3.57,10.5,5.44,2.04,1.12,4.06,2.26,6.07,3.46,1.88,1.06,4.19,2.51,6.43,3.95,2.33,1.51,4.27,2.77,6.16,4.08,1.6,1.07,3.47,2.38,5.31,3.77,1.85,1.3,3.63,2.64,5.42,4.1,5.59,4.29,10.84,8.79,16.02,13.73,1.92,1.74,3.75,3.58,5.57,5.43h0c.28.28.55.56.8.82.73.73,1.43,1.46,2.15,2.21.24.26.87.92,1.1,1.19l1.78,1.98c.07.07.14.15.22.23.58.58,1.11,1.16,1.61,1.74,1.5,1.67,3,3.38,4.4,5.09.46.52.9,1.04,1.3,1.55,1.45,1.76,2.8,3.42,4.07,5.12,5.49,6.98,10.57,14.32,15.49,22.42,3.4,5.72,6.21,10.77,8.7,15.63.89,1.71,1.82,3.6,2.74,5.55.51,1.04,1.18,2.45,1.84,3.88l1.2,2.54c.13.26.25.53.36.79l1,2.31c.88,2.01,1.72,4.05,2.55,6.14.17.41.34.8.47,1.17,1.09,2.73,2.06,5.23,2.98,7.77.74,1.94,1.55,4.23,2.35,6.58.95,2.74,1.83,5.45,2.66,8.28.84,2.72,1.77,5.79,2.58,8.89.72,2.51,1.52,5.64,2.27,8.72.53,2.14,1.02,4.36,1.51,6.59l.14.61c1.05,4.51,2.03,9.56,2.96,15.24.36,1.89.75,4.24,1.07,6.67.4,2.56.75,5.16,1.09,7.76.43,3.24.8,6.46,1.1,9.74.29,3.05.58,6.19.81,9.34.47,6.05.76,12.28.88,18.43.17,3.99.18,8.03.18,12.08v1.08c0,2.45-.05,4.95-.12,7.46,0,.22-.02.44-.03.66l-.1,3.11c-.04,1.79-.16,4.11-.28,6.44-.1,2.46-.27,5.05-.44,7.65-.01.32-.03.64-.05.96,0,.25-.02.49-.04.73-.29,4.21-.69,8.43-1.1,12.65-.61,5.58-1.23,10.83-1.92,16.13l-.16,1.11c-.43,2.91-.85,5.81-1.33,8.77-.34,2.16-.76,4.5-1.17,6.83-.39,2.28-.86,4.76-1.33,7.26l-.16.82c-1.8,9.16-3.72,17.64-5.9,26.06-.2.84-.55,2.15-.91,3.48l-.25.95c-.92,3.63-2.05,7.53-3.18,11.42-1.2,4.15-2.47,8.33-3.85,12.46-1.12,3.56-2.48,7.49-3.85,11.44-.23.71-.47,1.4-.74,2.09-1.34,3.78-2.77,7.6-4.25,11.38-.36.98-.73,1.93-1.15,2.91-1.33,3.38-2.72,6.77-4.11,10.15l-1.19,2.72c-1.58,3.7-3.29,7.52-5.05,11.34-1.91,4.19-4,8.47-6.13,12.71-1.96,3.99-4.16,8.17-6.42,12.35-2.44,4.56-5.04,9.16-7.71,13.7-1.9,3.25-3.88,6.47-5.85,9.7-11.47,18.39-24.15,35.57-37.79,51.23-1.62,1.84-3.15,3.53-4.68,5.21-4.86,5.43-9.65,10.43-14.53,15.16-2.88,2.93-6.28,6.12-9.67,9.2-23.09,21.01-48.26,38.15-74.79,50.94-.19.09-.38.18-.58.27-24.06,11.52-49.51,19.56-75.65,23.89-25.56,4.21-51.2,6.08-76.51,6.08-160.9.01-309.63-75.2-354.19-99.93-150.11,64.88-345.47,100.51-552.24,100.51Zm-553.92-154.19c4.07,0,8.14.84,11.92,2.55,298.85,135.26,785.13,135.26,1084,0,8.62-3.89,18.81-3.31,26.84,1.57,2.06,1.26,210.82,125.93,404.54,94,20.84-3.46,41.21-9.91,60.5-19.18.17-.08.34-.15.5-.24,21.64-10.47,42.34-24.63,61.51-42.07,2.72-2.47,5.43-5.02,8.05-7.67,4.39-4.26,8.35-8.41,12.52-13.05,1.46-1.62,2.82-3.11,4.18-4.66,11.8-13.55,22.88-28.57,32.86-44.56,1.7-2.77,3.5-5.71,5.25-8.7,2.35-4.01,4.64-8.04,6.82-12.13,2-3.71,3.92-7.33,5.72-11.01,1.98-3.92,3.79-7.64,5.49-11.36,1.61-3.48,3.12-6.85,4.57-10.27l1.02-2.3c1.21-2.95,2.55-6.24,3.85-9.52.1-.26.21-.52.32-.79l.32-.82c.08-.21.16-.43.24-.64,1.39-3.53,2.73-7.1,3.97-10.63.08-.23.17-.47.26-.71.03-.1.06-.2.09-.28,1.27-3.65,2.53-7.3,3.69-10.95,1.3-3.87,2.36-7.39,3.37-10.91,1-3.44,1.99-6.84,2.87-10.29l.38-1.4c.23-.82.45-1.62.64-2.43,2.06-7.98,3.78-15.56,5.36-23.65l.13-.68c.42-2.2.83-4.39,1.21-6.59.39-2.2.75-4.17,1.06-6.15.47-2.87.85-5.53,1.24-8.19l.11-.75c.6-4.61,1.19-9.53,1.73-14.5.32-3.38.68-7.02.94-10.67.01-.3.03-.59.05-.89,0-.21.02-.43.03-.64.16-2.39.32-4.79.42-7.18.11-2.18.21-4.15.26-6.06l.05-1.49c.02-.66.03-1.32.06-1.98.05-2.02.1-4.04.1-6.02v-1.08c0-3.46,0-6.91-.14-10.32-.01-.2-.02-.4-.02-.6-.1-5.36-.36-10.78-.77-16.12-.21-2.88-.48-5.71-.74-8.47-.25-2.71-.55-5.34-.9-7.98-.31-2.31-.62-4.65-.98-6.94-.03-.19-.06-.37-.09-.57-.22-1.67-.49-3.31-.8-4.94-.86-5.2-1.66-9.29-2.52-13.03l-.18-.81c-.42-1.89-.83-3.77-1.3-5.66-.61-2.55-1.25-5.06-1.94-7.48-.77-2.95-1.51-5.34-2.25-7.73-.72-2.43-1.38-4.44-2.09-6.5-.65-1.89-1.29-3.7-1.98-5.52-.92-2.55-1.77-4.71-2.62-6.81,0-.02-.02-.04-.02-.07-.1-.23-.2-.46-.29-.7-.66-1.69-1.34-3.33-2.06-4.97l-2.04-4.5c-.54-1.15-1.07-2.29-1.63-3.42-.8-1.7-1.43-3-2.11-4.28-2.11-4.12-4.42-8.27-7.17-12.9-3.81-6.27-7.82-12.07-12.13-17.52-.19-.24-.38-.48-.55-.73-.84-1.15-1.78-2.26-2.7-3.38-.1-.13-.22-.27-.34-.41-.25-.28-.52-.6-.72-.84-1.03-1.28-2.16-2.56-3.29-3.8-.11-.12-.21-.24-.32-.36-.01-.01-.03-.03-.04-.04-.38-.38-.73-.76-1.09-1.16l-1.88-2.09c-.09-.1-.18-.19-.18-.2-.49-.51-.95-1-1.45-1.5h0c-.29-.29-.6-.6-.88-.91-1.29-1.32-2.38-2.44-3.55-3.48-.22-.2-.44-.41-.66-.61-3.96-3.79-7.95-7.21-12.21-10.46-.25-.19-.5-.39-.74-.59-.93-.76-1.86-1.46-2.82-2.13-.31-.22-.62-.45-.93-.68-1.13-.85-2.3-1.67-3.47-2.46-1.77-1.22-3.26-2.18-4.75-3.15-1.72-1.11-3.18-2.02-4.64-2.86-1.86-1.11-3.29-1.92-4.77-2.72-2.64-1.45-5.29-2.84-8.04-4.17-6.54-3.16-13.28-6.06-19.97-8.6-1.92-.72-3.85-1.42-5.83-2.07-2.05-.71-3.66-1.25-5.3-1.75-4.46-1.42-8.01-2.43-11.37-3.25-.33-.08-.65-.17-.97-.26-.95-.27-1.9-.49-2.85-.72l-.68-.15c-1.21-.27-2.4-.54-3.59-.78-1.76-.38-3-.61-4.2-.84l-3.62-.64c-1.16-.2-2.4-.43-3.6-.58-.5-.06-1-.13-1.5-.22-.37-.06-.75-.12-1.1-.15-.46-.04-.93-.1-1.39-.16-1.57-.22-3.13-.39-4.64-.57-.92-.1-1.85-.17-2.74-.24-.27-.02-.85-.07-1.11-.1-.98-.1-1.96-.17-2.91-.23l-2.95-.18c-4.52-.17-10.32-.28-15.41-.07-.36.02-.72.03-1.09.03-3.58.14-6.74.36-9.65.67-.29.03-.59.05-.9.07-.96.07-1.88.19-2.8.29l-2.41.3c-.38.05-.79.1-1.17.14-.08,0-.14.02-.22.03-.88.1-1.76.24-2.64.37l-1.18.18c-2.93.41-5.2.83-7.47,1.29-.7.13-1.18.22-1.64.33-.34.09-.77.19-1.11.26-3.11.66-6.18,1.37-9.14,2.16l-4,1.08c-4.7,1.3-9.15,2.74-13.9,4.46-4.75,1.74-9.03,3.45-12.98,5.18-3.1,1.31-5.74,2.53-8.32,3.8-.02.01-.04.02-.06.03-.29.14-.7.35-1.22.58-2.36,1.15-4.63,2.33-6.87,3.51-12.69,6.72-25.21,14.81-37.18,24.03-1.05.81-1.72,1.33-2.39,1.88-.22.18-.45.36-.68.54-.64.49-1.25.99-1.87,1.49l-.48.39c-10.26,8.33-17.68,15.56-22.11,20.15-2.44,2.51-3.76,4.04-4.04,4.37-4.77,5.68-11.99,9.25-19.75,9.71-7.8.52-15.41-2.14-20.92-7.21-.06-.06-11.04-10.01-35.1-27.11-16.02-11.32-33.49-22.82-51.87-34.13-5.48-3.38-9.44-8.48-11.16-14.35-.83-2.82-82.95-280.28-231.18-488.32l-485.14-93.48-485.14,93.48c-148.23,208.04-230.35,485.5-231.18,488.32-1.72,5.87-5.68,10.97-11.16,14.35-18.38,11.31-35.85,22.81-51.93,34.17-24,17.06-34.98,27.01-35.08,27.11-5.55,5.05-13.13,7.62-20.98,7.18-7.77-.5-14.96-4.05-19.69-9.78-.2-.24-1.54-1.79-3.89-4.2-4.54-4.72-11.99-11.97-22.19-20.25-.85-.69-1.59-1.3-2.36-1.9-.23-.18-.46-.36-.68-.54-.67-.55-1.34-1.07-2.04-1.61-12.31-9.49-24.83-17.58-37.55-24.33-2.26-1.19-4.6-2.41-7.05-3.59-.46-.21-.9-.42-1.31-.63-2.79-1.35-5.22-2.46-7.68-3.5-4.34-1.9-8.62-3.61-13.49-5.4-4.57-1.66-9.14-3.12-13.51-4.34l-4.19-1.13c-3.06-.82-6.12-1.53-9.23-2.19-.39-.08-.78-.17-1.16-.27-.44-.11-.92-.19-1.4-.28-2.47-.49-4.75-.91-7.12-1.24-.21-.03-.42-.06-.64-.1l-.97-.14c-1.05-.16-1.92-.3-2.78-.4-.02,0-.04,0-.06,0-.35-.04-.7-.07-1.07-.12-.53-.06-1.06-.13-1.59-.2l-.64-.08c-1.33-.15-2.25-.27-3.22-.34-.3-.02-.6-.05-.9-.08-2.93-.3-6.12-.52-9.74-.67-.36,0-.75-.01-.98-.02-5.08-.21-10.5-.12-15.97.11l-2.38.15c-.95.07-1.93.13-2.9.23-.27.03-.53.05-.8.07-1.19.09-2.13.15-3.07.26-1.52.18-3.08.35-4.66.57-.46.06-.91.12-1.37.16-.35.03-.73.09-1.1.15-.5.09-1,.16-1.5.22-1.2.15-2.44.38-3.64.59l-3.51.61c-1.35.26-2.54.48-3.7.73-1.78.37-3.02.65-4.27.93l-1.04.23c-.46.12-1.42.34-2.36.61-.32.09-.65.18-.98.26-3.34.81-6.89,1.82-10.84,3.09-2.19.66-3.8,1.2-5.44,1.77-2.36.79-4.3,1.49-6.29,2.23-6.64,2.51-13.37,5.41-19.96,8.6-2.69,1.3-5.34,2.69-7.94,4.11-1.52.83-2.94,1.64-4.37,2.49-1.9,1.1-3.36,2.01-4.79,2.93-1.65,1.07-3.21,2.07-4.73,3.11-1.46.98-2.65,1.81-3.78,2.68-.32.24-.64.48-.97.71-.95.66-1.87,1.35-2.79,2.1-.24.2-.49.39-.73.58-4.29,3.27-8.27,6.7-12.2,10.46-.22.21-.44.42-.67.63-1.22,1.1-2.36,2.27-3.51,3.43-.3.33-.59.63-.88.91-.56.56-1.09,1.11-1.64,1.69l-1.76,1.94c-.24.28-.77.85-1.12,1.22-.06.07-.13.13-.19.2-.1.12-.2.23-.29.33-1.14,1.26-2.28,2.55-3.33,3.84-.2.25-.41.5-.62.74-.1.13-.21.26-.31.39-.96,1.15-1.92,2.28-2.78,3.47-.18.24-.36.48-.55.72-4.31,5.46-8.32,11.27-12.25,17.73-2.66,4.47-4.97,8.62-6.96,12.51-.77,1.47-1.4,2.77-2.03,4.11-.75,1.53-1.31,2.72-1.87,3.93l-1.89,4.18c-.82,1.87-1.49,3.51-2.16,5.2-.1.26-.21.51-.32.77l-.12.29c-.69,1.73-1.54,3.9-2.34,6.12-.8,2.14-1.44,3.97-2.09,5.85-.72,2.09-1.39,4.1-2,6.21-.82,2.68-1.56,5.09-2.2,7.54-.05.19-.1.37-.15.56-.69,2.39-1.32,4.87-1.9,7.31-.54,2.2-1,4.27-1.46,6.35-.93,4.04-1.73,8.13-2.5,12.76-.4,2.17-.66,3.82-.9,5.52-.43,2.78-.73,5.1-1.04,7.42-.35,2.66-.65,5.29-.9,7.96-.27,2.82-.53,5.65-.75,8.49-.41,5.36-.67,10.78-.77,16.14,0,.2,0,.4-.02.6-.15,3.41-.14,6.86-.14,10.32v1.08c0,1.88.05,3.78.09,5.7v.35c.03.61.05,1.22.07,1.82l.03.99c.01.22.02.45.03.67.05,1.89.14,3.82.25,5.75.12,2.64.28,5.04.43,7.43.01.26.03.51.03.77.02.25.03.5.04.75.25,3.46.58,6.92.92,10.37l.05.58c.51,4.71,1.11,9.63,1.75,14.6.38,2.53.8,5.45,1.28,8.42.32,2.08.68,4.04,1.03,6,.46,2.72.93,5.18,1.4,7.64,1.52,7.77,3.28,15.57,5.23,23.1.3,1.24.54,2.12.79,3.01l.26.96c.96,3.74,1.95,7.15,2.93,10.57,1.02,3.56,2.09,7.08,3.25,10.54,1.23,3.85,2.43,7.32,3.63,10.8l.2.58s.03.1.05.15c.11.27.21.55.31.83,1.22,3.5,2.56,7.06,3.95,10.57.09.22.17.45.25.67l.32.82c.12.27.23.54.34.82,1.21,3.09,2.48,6.19,3.75,9.28l1.02,2.33c1.53,3.6,3.04,6.97,4.6,10.34,1.75,3.81,3.56,7.54,5.42,11.22,1.92,3.89,3.82,7.51,5.79,11.14,2.25,4.21,4.54,8.25,6.87,12.23,1.75,2.99,3.55,5.93,5.35,8.87,9.87,15.82,20.96,30.84,32.85,44.5,1.27,1.44,2.63,2.93,3.99,4.43,4.32,4.81,8.28,8.95,12.22,12.77.14.14.28.28.42.42,2.6,2.64,5.3,5.18,8.01,7.63,19.23,17.5,39.96,31.67,61.66,42.15.12.06.25.12.37.18h0c19.29,9.27,39.66,15.73,60.53,19.19,193.65,31.92,402.45-92.75,404.53-94.01,4.5-2.72,9.69-4.11,14.9-4.11Zm-637.95-113.46s.01.03.02.04c0-.01-.01-.03-.02-.04Zm-.1-.21c.03.07.06.14.1.2-.03-.06-.06-.13-.1-.2Zm2383.86.15s-.01.02-.02.03c0-.01.01-.02.02-.03Zm.06-.15s-.04.09-.06.13c.02-.04.04-.09.06-.13Zm50.18-123.29h.06-.06Zm-45.93-116.58c.23.48.48.95.75,1.43-.27-.47-.52-.95-.75-1.43Zm-.71-1.66s.03.07.04.11c-.01-.04-.03-.08-.04-.11Zm-31.52-53.1c.17.24.36.49.55.73-.2-.25-.39-.51-.55-.73Zm-2328.02.06c-.1.14-.21.29-.32.43.1-.14.21-.28.32-.43Zm.03-.04s-.02.02-.03.03c.01-.01.02-.02.03-.03Zm.03-.05s-.02.03-.03.04c.01-.01.02-.03.03-.04Zm2.29-2.71c-.12.12-.25.23-.38.35.13-.12.26-.23.38-.35Zm2323.43.07s.04.04.06.05c-.02-.02-.03-.04-.06-.05Zm-.06-.05s.03.03.05.05c-.02-.02-.03-.03-.05-.05Zm-.05-.05s.02.03.04.04c-.02-.01-.03-.03-.04-.04Zm-2323.27-.01s-.02.03-.04.04c.02-.01.03-.03.04-.04Zm255.44-85.46c.1.05.19.1.25.13-.08-.04-.17-.09-.25-.13Zm-4.46-1.73s.02,0,.02,0c0,0-.01,0-.02,0Zm-.09-.03s.04.01.06.02c-.02,0-.04-.01-.06-.02Zm-77.28-23.05c.13.02.26.04.38.05h0c-.13-.02-.25-.04-.38-.05Zm1975.66.05h0Z"/>
    <path class="cls-12" d="m4425.45,3548.38c-73.45,0-165.33-24.83-227.24-129.21h0c-101.16-170.56,42.25-372.83,88.61-430.75,4.35-5.42,7.15-8.69,7.87-9.52.77-.92,2.92-3.42,6.44-7.03,5.33-5.54,14.41-14.4,26.76-24.42,1.24-1.01,2.16-1.75,3.07-2.46.95-.77,1.89-1.51,2.88-2.27.03-.03.49-.38.52-.41,14.38-11.08,29.52-20.86,44.98-29.05,3.06-1.61,6.15-3.21,9.36-4.75.21-.1.42-.2.62-.29,3.44-1.68,6.95-3.3,10.52-4.8,4.66-2.06,10.04-4.21,16.05-6.41,6.28-2.21,11.92-4.02,17.55-5.65.13-.04.66-.18.79-.22l4.38-1.19c3.67-.98,7.56-1.9,11.51-2.74,1.35-.33,2.76-.61,4.16-.89,3.16-.64,6.55-1.24,10.07-1.73l4.86,24.7-4.22-24.8c1.92-.29,3.5-.53,5.08-.72h0c.24-.03.49-.05.72-.08.14-.02.27-.03.41-.05,1.39-.18,2.22-.29,3.08-.37,1.17-.14,2.73-.32,4.37-.45,4.22-.43,8.69-.73,13.62-.91.32-.01.64-.02.96-.02,6.45-.25,13.27-.15,20.17.12l4.26.26c1.39.1,2.81.21,4.23.35,1.74.13,3.26.26,4.78.43,1.91.22,3.76.43,5.61.68,1.4.14,2.84.34,4.29.57,2,.27,4.06.61,6.05.97l3.6.63c.09.02.54.1.63.12,1.8.34,3.65.69,5.45,1.1,1.06.21,2.69.57,4.35.95l1.09.25c1.88.45,3.36.82,4.8,1.21,4.57,1.13,9.28,2.47,14.36,4.1,1.93.57,4.32,1.37,6.78,2.22,2.29.76,4.91,1.69,7.59,2.7,8.31,3.14,16.6,6.7,24.68,10.61,3.65,1.77,7.11,3.57,10.5,5.44,2.04,1.12,4.06,2.26,6.07,3.46,1.88,1.06,4.19,2.51,6.43,3.95,2.33,1.51,4.27,2.77,6.16,4.08,1.59,1.07,3.47,2.38,5.3,3.76,1.85,1.3,3.64,2.65,5.43,4.11,5.59,4.29,10.84,8.79,16.02,13.73,1.93,1.75,3.76,3.58,5.57,5.43h0c.28.28.55.56.8.82.73.73,1.43,1.46,2.15,2.21.24.26.87.92,1.1,1.19l1.79,1.98c.07.07.14.15.22.23.58.59,1.11,1.17,1.61,1.76,1.5,1.66,2.99,3.37,4.4,5.07.45.52.89,1.04,1.29,1.55,1.45,1.75,2.8,3.42,4.07,5.12,5.5,6.98,10.57,14.32,15.49,22.42,3.4,5.72,6.21,10.77,8.7,15.63.89,1.71,1.82,3.6,2.74,5.55.51,1.04,1.18,2.45,1.84,3.88l1.2,2.54c.13.26.25.53.36.79l1,2.31c.88,2.01,1.72,4.04,2.55,6.14.17.41.34.81.47,1.17,1.09,2.73,2.06,5.23,2.98,7.78.74,1.94,1.55,4.23,2.35,6.58.95,2.74,1.83,5.45,2.66,8.28.84,2.72,1.77,5.79,2.58,8.89.72,2.51,1.52,5.64,2.27,8.72.53,2.14,1.02,4.36,1.51,6.59l.14.61c1.05,4.51,2.03,9.56,2.96,15.24.36,1.89.75,4.24,1.07,6.68.4,2.55.75,5.15,1.09,7.76.43,3.24.8,6.46,1.1,9.74.29,3.05.58,6.19.81,9.34.47,6.06.76,12.28.88,18.43.17,4,.18,8.03.18,12.08v1.08c0,2.45-.05,4.95-.17,7.45,0,1.26-.02,2.53-.08,3.78-.04,1.79-.16,4.11-.28,6.44-.1,2.46-.27,5.05-.44,7.65-.01.33-.03.64-.05.96,0,.25-.02.49-.03.74-.29,4.21-.7,8.43-1.11,12.65-.61,5.58-1.23,10.83-1.92,16.13l-.16,1.11c-.43,2.91-.85,5.82-1.33,8.77-.34,2.16-.76,4.5-1.17,6.83-.39,2.28-.86,4.76-1.33,7.26l-.16.82c-1.8,9.16-3.72,17.64-5.9,26.06-.2.84-.55,2.15-.91,3.48l-.25.95c-.92,3.63-2.05,7.53-3.18,11.42-1.2,4.15-2.47,8.33-3.85,12.46-1.12,3.55-2.48,7.49-3.84,11.43-.23.71-.47,1.41-.75,2.11-1.33,3.78-2.77,7.6-4.25,11.38-.36.98-.73,1.93-1.14,2.91-1.33,3.38-2.72,6.77-4.11,10.15l-1.19,2.72c-1.58,3.7-3.29,7.52-5.05,11.34-1.91,4.19-4,8.47-6.13,12.71-1.96,3.99-4.16,8.17-6.42,12.35-2.44,4.56-5.04,9.16-7.71,13.7-1.9,3.25-3.88,6.47-5.85,9.7-11.47,18.39-24.15,35.57-37.79,51.23-1.62,1.84-3.15,3.53-4.68,5.21-4.86,5.43-9.65,10.43-14.53,15.16-2.88,2.93-6.28,6.12-9.67,9.2-23.09,21.01-48.26,38.15-74.79,50.94-.25.12-.51.24-.77.36-1.02.46-2.07.87-3.15,1.21l-.52.18c-15.84,5.39-59.04,18.16-111.71,18.16Zm-179.64-153.35c82.42,138.95,228.32,103,272.06,88.26,21.26-10.42,41.59-24.4,60.44-41.55,2.72-2.47,5.44-5.02,8.05-7.67,4.39-4.26,8.35-8.41,12.52-13.05,1.46-1.62,2.82-3.11,4.18-4.66,11.8-13.55,22.88-28.57,32.86-44.56,1.7-2.77,3.5-5.71,5.25-8.7,2.35-4.01,4.64-8.04,6.82-12.13,2-3.71,3.92-7.33,5.72-11.01,1.98-3.92,3.79-7.64,5.49-11.36,1.61-3.48,3.12-6.85,4.57-10.27l1.02-2.3c1.21-2.96,2.55-6.24,3.85-9.52.1-.26.21-.52.32-.79l.32-.82c.08-.21.16-.43.24-.64,1.39-3.53,2.73-7.1,3.97-10.63.08-.23.17-.47.26-.71.03-.1.06-.2.09-.28,1.27-3.65,2.53-7.3,3.69-10.95,1.3-3.87,2.36-7.39,3.37-10.91,1-3.44,1.99-6.84,2.87-10.29l.38-1.4c.23-.82.45-1.62.64-2.43,2.06-7.98,3.78-15.56,5.36-23.65l.13-.68c.42-2.2.83-4.39,1.21-6.59.39-2.2.75-4.17,1.06-6.15.47-2.87.85-5.53,1.24-8.19l.11-.75c.6-4.61,1.19-9.53,1.73-14.5.32-3.38.68-7.02.94-10.67.01-.3.03-.59.05-.88,0-.21.02-.43.03-.64.16-2.39.32-4.79.42-7.18.11-2.19.21-4.15.26-6.07.05-1.19.05-1.89.05-2.6,0-.38.01-.77.03-1.16.1-1.92.14-3.84.14-5.72v-1.08c0-3.46,0-6.91-.14-10.32-.01-.2-.02-.4-.02-.6-.1-5.36-.36-10.78-.77-16.12-.21-2.88-.48-5.71-.74-8.47-.25-2.71-.55-5.34-.9-7.98-.31-2.31-.62-4.65-.98-6.94-.03-.19-.06-.37-.09-.57-.22-1.67-.49-3.31-.8-4.94-.86-5.2-1.66-9.29-2.52-13.03l-.18-.81c-.42-1.89-.83-3.77-1.3-5.66-.61-2.55-1.25-5.06-1.94-7.48-.77-2.95-1.51-5.34-2.25-7.73-.72-2.43-1.38-4.44-2.09-6.5-.65-1.89-1.29-3.7-1.98-5.52-.92-2.55-1.77-4.71-2.62-6.81,0-.02-.02-.04-.02-.07-.1-.24-.2-.46-.29-.7-.66-1.69-1.34-3.33-2.06-4.97l-2.04-4.5c-.54-1.15-1.07-2.29-1.63-3.42-.8-1.7-1.43-2.99-2.11-4.28-2.11-4.12-4.42-8.27-7.17-12.9-3.81-6.27-7.82-12.07-12.13-17.52-.19-.24-.38-.48-.55-.73-.84-1.15-1.78-2.26-2.7-3.38-.1-.13-.22-.27-.34-.41-.25-.28-.52-.6-.72-.84-1.03-1.28-2.16-2.56-3.29-3.8-.11-.12-.21-.24-.32-.35-.01-.02-.03-.03-.05-.05-.37-.38-.73-.76-1.09-1.16l-1.88-2.09c-.09-.1-.18-.19-.18-.2-.49-.51-.95-1-1.45-1.5h0c-.29-.29-.6-.6-.88-.91-1.3-1.32-2.38-2.44-3.55-3.48-.22-.2-.44-.41-.66-.61-3.96-3.79-7.95-7.21-12.21-10.46-.25-.19-.5-.39-.74-.59-.93-.76-1.86-1.46-2.82-2.13-.31-.22-.62-.45-.93-.68-1.13-.85-2.3-1.67-3.47-2.46-1.77-1.22-3.26-2.18-4.75-3.15-1.72-1.11-3.18-2.02-4.64-2.86-1.86-1.11-3.29-1.92-4.77-2.72-2.64-1.45-5.29-2.84-8.04-4.17-6.54-3.16-13.28-6.06-19.97-8.6-1.92-.72-3.85-1.42-5.83-2.07-2.05-.71-3.66-1.25-5.3-1.75-4.46-1.42-8.01-2.43-11.37-3.25-.33-.08-.65-.17-.97-.26-.95-.27-1.9-.49-2.85-.72l-.68-.15c-1.21-.27-2.4-.54-3.59-.78-1.76-.38-3-.61-4.2-.84l-3.62-.63c-1.16-.2-2.4-.43-3.6-.58-.5-.06-1-.13-1.5-.22-.37-.06-.75-.12-1.1-.15-.46-.04-.93-.1-1.39-.16-1.56-.22-3.12-.39-4.63-.57-.92-.1-1.85-.17-2.74-.24-.27-.02-.85-.07-1.11-.1-.98-.1-1.96-.17-2.91-.23l-2.95-.18c-4.52-.17-10.32-.28-15.41-.07-.36.02-.72.03-1.09.03-3.58.14-6.74.36-9.65.67-.29.03-.59.05-.9.07-.96.07-1.88.19-2.8.29l-2.42.3c-.23.03-.48.06-.72.09h0c-.14.02-.29.04-.43.05-.08,0-.14.02-.22.03-.88.1-1.76.24-2.64.37l-1.18.18c-2.93.41-5.2.83-7.47,1.29-.7.13-1.18.22-1.64.33-.33.09-.77.19-1.11.26-3.11.66-6.18,1.37-9.14,2.16l-4,1.08c-4.6,1.32-9.21,2.8-14.12,4.54-4.53,1.66-8.81,3.37-12.75,5.1-3.1,1.31-5.74,2.53-8.32,3.8-.02.01-.04.02-.06.03-.29.15-.7.35-1.23.58-2.36,1.15-4.63,2.33-6.87,3.51-12.69,6.72-25.21,14.81-37.18,24.03-1.05.81-1.72,1.33-2.39,1.88-.22.18-.45.36-.68.54-.64.49-1.25.99-1.87,1.49l-.48.39c-10.26,8.33-17.68,15.56-22.11,20.15-2.44,2.51-3.76,4.04-4.04,4.37-.1.11-.27.32-.37.43-.16.19-2.63,3.04-6.75,8.18-29.52,36.88-172.47,228.57-84.62,376.7h0Zm432.83-343.47c.24.48.49.96.76,1.44-.27-.48-.53-.96-.76-1.44Zm-.72-1.69c.02.07.05.14.08.2-.03-.07-.05-.14-.08-.2Zm-31.5-53.07c.17.24.36.49.56.74-.2-.26-.4-.51-.56-.74Zm-2.2-2.63s.02.02.03.03c0-.01-.02-.02-.03-.03Zm-.03-.03s.02.02.03.02c-.01,0-.02-.02-.03-.02Zm-.03-.03s.02.01.02.02c0-.01-.02-.02-.02-.02Zm-.02-.03s0,.01.01.02c0,0,0-.01-.01-.02Z"/>
    <ellipse class="cls-15" cx="4457.53" cy="3248.18" rx="118.46" ry="109.55"/>
    <g>
      <path class="cls-15" d="m4612.29,3057.12c0,51.1,44.76,92.44,99.96,92.44,4.16,0,8.27-.26,12.27-.72-.11-5.85-.39-11.66-.83-17.46-.22-2.98-.5-5.96-.78-8.88-.28-2.98-.61-5.91-1-8.83-.33-2.52-.67-5.03-1.05-7.5-.28-2.11-.61-4.16-1-6.21-.78-4.72-1.67-9.4-2.72-13.97-.5-2.26-1-4.52-1.56-6.78-.67-2.77-1.39-5.6-2.17-8.32-.72-2.77-1.55-5.5-2.39-8.22-.72-2.46-1.5-4.83-2.33-7.24-.72-2.11-1.44-4.16-2.22-6.21-.89-2.46-1.83-4.88-2.78-7.24-.11-.26-.17-.46-.28-.67-.78-1.95-1.55-3.85-2.39-5.75-.33-.77-.67-1.54-1-2.31-1.05-2.21-2.05-4.42-3.11-6.57-.78-1.64-1.56-3.24-2.39-4.83-2.44-4.78-5.11-9.5-7.83-14.07-4.28-7.04-8.88-13.76-13.99-20.23-1.17-1.59-2.44-3.13-3.72-4.67-.22-.31-.5-.62-.78-.92-1.33-1.64-2.78-3.29-4.22-4.88-.17-.21-.33-.41-.56-.62-2.72,1.39-5.33,2.93-7.89,4.52v.05c-11.05,6.98-20.44,16.02-27.65,26.5-9.88,14.33-15.6,31.38-15.6,49.61Z"/>
      <g>
        <path class="cls-15" d="m4471.3,2931.35c0,51.1,44.76,92.44,99.96,92.44,21.05,0,40.54-6.01,56.64-16.28,11.05-6.98,20.49-16.02,27.65-26.5,1.78-2.52,3.39-5.14,4.89-7.86-.83-.87-1.61-1.69-2.44-2.52-.11-.1-.22-.26-.39-.41-1.61-1.64-3.22-3.29-4.94-4.83-4.55-4.37-9.33-8.47-14.44-12.38-1.5-1.23-3-2.36-4.55-3.44-1.56-1.18-3.17-2.31-4.78-3.39-1.78-1.23-3.61-2.41-5.44-3.59-1.83-1.18-3.72-2.36-5.61-3.44-1.72-1.03-3.44-2-5.22-2.98-3-1.64-6.05-3.24-9.22-4.78-7.55-3.65-14.99-6.83-22.32-9.6-2.33-.87-4.61-1.69-6.94-2.46-2.06-.72-4.05-1.39-6.11-2-4.33-1.39-8.61-2.62-12.83-3.65-1.28-.36-2.55-.67-3.83-.98-1.83-.41-3.61-.82-5.39-1.18-1.61-.36-3.28-.67-4.89-.98-1.17-.21-2.39-.41-3.55-.62-1.72-.31-3.5-.62-5.22-.82-1.17-.21-2.33-.36-3.44-.46-1.83-.26-3.66-.46-5.44-.67-1.39-.15-2.78-.26-4.11-.36-1.5-.15-3-.26-4.44-.36-.89-.05-1.78-.1-2.67-.15-3.66-.15-7.27-.26-10.83-.26-2.55,0-5.11.05-7.55.15h-.44c-4.11.15-8.16.41-12.11.82-1.39.1-2.72.26-4.05.41-1,.1-1.94.26-2.89.36-2,7.29-3.05,14.89-3.05,22.75Z"/>
        <path class="cls-12" d="m4571.25,3027.02c-57.04,0-103.45-42.92-103.45-95.67,0-7.96,1.07-15.89,3.17-23.55l.59-2.15,3.61-.41c.55-.07,1.11-.15,1.69-.21,1.33-.15,2.72-.32,4.15-.42,3.67-.38,7.71-.66,12.24-.83,6.98-.24,12.73-.15,19.13.1l3.44.21c1.28.1,2.59.19,3.9.33,1.5.11,2.82.21,4.14.36,1.86.21,3.7.42,5.55.68,1.02.09,2.29.26,3.56.48,1.59.19,3.44.51,5.23.82l3.56.62c1.92.36,3.5.66,5.04,1,1.36.27,2.8.6,4.27.93l1.13.25c1.39.34,2.7.66,4.02,1.03,4,.97,8.28,2.19,12.96,3.69,2.03.61,4.08,1.29,6.19,2.02,2.33.77,4.65,1.61,7.02,2.5,7.58,2.86,15.19,6.14,22.63,9.73,3.23,1.57,6.34,3.19,9.39,4.86,1.81.99,3.57,1.99,5.33,3.04,1.89,1.07,3.84,2.29,5.72,3.5,2.09,1.35,3.84,2.48,5.53,3.66,1.62,1.08,3.29,2.26,4.9,3.48,1.51,1.04,3.08,2.23,4.66,3.52,5.04,3.85,9.87,7.98,14.63,12.55,1.61,1.44,3.19,3.04,4.78,4.66.3.29.46.46.59.62.71.7,1.39,1.42,2.11,2.16l1.57,1.65-.68,2.37c-1.62,2.96-3.29,5.62-5.08,8.16-7.33,10.72-17.23,20.21-28.61,27.4-17.27,11.01-37.54,16.84-58.61,16.84Zm-94.06-115.51c-1.59,6.48-2.4,13.15-2.4,19.85,0,49.19,43.27,89.2,96.46,89.2,19.65,0,38.55-5.43,54.66-15.71,10.61-6.7,19.83-15.54,26.68-25.57,1.28-1.81,2.47-3.66,3.63-5.66-.25-.26-.51-.52-.77-.78l-.43-.45c-1.72-1.75-3.2-3.26-4.78-4.67-4.67-4.47-9.3-8.44-14.24-12.21-1.52-1.25-2.95-2.32-4.42-3.35-1.62-1.22-3.17-2.31-4.73-3.35-1.68-1.16-3.37-2.25-5.05-3.35-2.11-1.36-3.95-2.51-5.78-3.56-1.74-1.03-3.42-1.99-5.16-2.94-2.95-1.62-5.96-3.19-9.06-4.7-7.24-3.5-14.65-6.69-22.02-9.47-2.28-.86-4.51-1.66-6.8-2.42-2.06-.72-4-1.37-6-1.97-4.57-1.46-8.69-2.63-12.64-3.6-1.36-.38-2.59-.68-3.82-.98l-1.08-.24c-1.41-.32-2.78-.63-4.17-.91-1.53-.34-3.03-.63-4.49-.9l-3.86-.68c-1.65-.29-3.36-.59-5.01-.79-1.26-.21-2.32-.36-3.34-.45-1.95-.27-3.73-.48-5.46-.67-1.28-.14-2.51-.23-3.7-.33-1.66-.16-2.9-.25-4.1-.34l-3.28-.2c-6.07-.25-12.26-.34-18-.1h-.6c-4.22.17-8.1.43-11.71.81-1.45.11-2.73.26-4,.41l-.49.06Z"/>
      </g>
      <g>
        <path class="cls-15" d="m4278.32,2965.19c6.39,15.05,16.94,28.19,30.32,38.16,17.16,12.79,38.93,20.44,62.7,20.44,55.2,0,99.96-41.34,99.96-92.44,0-7.55-1-14.89-2.89-21.93-2.94.41-5.78.92-8.61,1.49-1.05.21-2.11.41-3.11.67-3.61.77-7.16,1.59-10.61,2.52-1.55.41-3.05.82-4.55,1.23-5.33,1.49-10.55,3.18-15.66,5.03-5.05,1.85-10,3.8-14.77,5.91-3.17,1.34-6.28,2.77-9.33,4.26-.22.1-.39.21-.56.26-2.89,1.39-5.66,2.82-8.39,4.26-15.99,8.47-29.76,17.82-41.09,26.55-1.06.82-2.06,1.59-3.05,2.41-1,.77-1.94,1.54-2.89,2.31-11.27,9.14-19.55,17.2-24.49,22.34-3.5,3.59-5.28,5.75-5.28,5.75,0,0-11.55-10.63-37.71-29.22Z"/>
        <path class="cls-12" d="m4371.34,3027.02c-23.89,0-46.33-7.32-64.89-21.15-13.99-10.41-24.84-24.07-31.38-39.49l-4.59-10.83,9.97,7.09c19.12,13.58,30.42,22.88,35.26,27.04.81-.88,1.81-1.94,3-3.17,4.98-5.18,13.34-13.33,24.78-22.61l.46-.37c.81-.66,1.64-1.33,2.5-2,.8-.66,1.69-1.35,2.61-2.07,13.78-10.61,27.77-19.66,42.04-27.22,2.77-1.46,5.59-2.92,8.51-4.32l2.17,2.61-1.63-2.86c3.11-1.52,6.28-2.98,9.51-4.34,4.52-1.99,9.43-3.95,14.94-5.97,5.53-2,10.74-3.68,15.94-5.12l4.6-1.24c3.49-.94,7.11-1.78,10.78-2.56.93-.24,2.06-.46,3.19-.68,2.88-.58,5.78-1.1,8.8-1.52l3.14-.44.77,2.85c1.98,7.39,2.99,15.03,2.99,22.71,0,52.75-46.41,95.67-103.45,95.67Zm-83.3-50.66c5.9,9.34,13.62,17.65,22.79,24.48,17.31,12.91,38.23,19.72,60.51,19.72,53.19,0,96.46-40.02,96.46-89.2,0-6.15-.69-12.27-2.06-18.24-1.75.29-3.48.61-5.2.96-1.01.19-1.99.38-2.92.62-3.69.79-7.18,1.6-10.56,2.51l-4.12,1.12c-5.41,1.5-10.45,3.12-15.79,5.05-5.34,1.96-10.1,3.86-14.54,5.81-3.15,1.33-6.21,2.74-9.2,4.2-.52.26-.83.39-1.11.48-2.3,1.16-5.04,2.57-7.72,3.99-13.92,7.37-27.57,16.2-40.59,26.23-1.29,1-2.13,1.66-2.97,2.35-.9.69-1.68,1.32-2.44,1.95l-.46.37c-11.17,9.06-19.32,17-24.18,22.06-3.34,3.43-5.06,5.5-5.11,5.56l-2.41,2.92-2.82-2.59c-.1-.09-8.13-7.43-25.53-20.35Z"/>
      </g>
    </g>
    <g>
      <path class="cls-12" d="m4712.25,3174.66c-70.09,0-127.1-52.73-127.1-117.54,0-22.45,6.87-44.27,19.86-63.1,8.98-13.03,20.36-24.08,33.84-32.84.5-.36,1.01-.71,1.54-1.04,3.81-2.37,6.89-4.13,9.98-5.7,10.58-5.36,23.72-3.64,32.26,4.26.94.88,1.75,1.74,2.5,2.61,1.5,1.67,2.99,3.38,4.39,5.08.46.52.9,1.04,1.3,1.55,1.45,1.75,2.8,3.42,4.07,5.12,5.5,6.98,10.57,14.32,15.49,22.42,3.4,5.72,6.21,10.77,8.7,15.63.89,1.71,1.82,3.6,2.74,5.55.51,1.04,1.18,2.45,1.84,3.88l1.2,2.54c.13.26.25.53.36.79l1,2.31c.88,2.01,1.72,4.05,2.55,6.14.17.41.34.8.47,1.17,1.09,2.73,2.06,5.23,2.98,7.78.74,1.94,1.55,4.23,2.35,6.58.95,2.74,1.83,5.45,2.66,8.28.84,2.72,1.77,5.79,2.58,8.89.72,2.51,1.52,5.64,2.27,8.72.53,2.14,1.02,4.36,1.51,6.59l.14.61c1.05,4.51,2.03,9.56,2.96,15.24.36,1.89.75,4.24,1.07,6.68.4,2.55.75,5.15,1.09,7.76.43,3.24.8,6.46,1.1,9.74.29,3.05.58,6.19.81,9.34.47,6.15.77,12.48.89,18.73.24,12.82-10,23.74-23.75,25.34-5.23.61-10.5.92-15.65.92Zm-54.25-162.47c-2.63,2.72-5.04,5.66-7.21,8.81-7.43,10.76-11.35,23.25-11.35,36.11,0,31.86,24.05,58.62,56.24,65.58-.21-2.02-.44-4.01-.7-5.99-.31-2.31-.62-4.65-.98-6.94-.03-.19-.06-.37-.09-.57-.22-1.67-.49-3.31-.8-4.94-.86-5.2-1.66-9.29-2.52-13.03l-.18-.81c-.42-1.89-.83-3.77-1.3-5.66-.61-2.55-1.25-5.06-1.94-7.48-.77-2.95-1.51-5.34-2.25-7.73-.72-2.43-1.38-4.44-2.09-6.5-.65-1.89-1.29-3.7-1.98-5.52-.92-2.55-1.77-4.71-2.62-6.81,0-.02-.02-.04-.02-.07-.1-.23-.2-.46-.29-.7-.66-1.69-1.34-3.33-2.06-4.97l-2.04-4.5c-.54-1.15-1.07-2.29-1.63-3.42-.8-1.7-1.43-3-2.11-4.28-2.11-4.12-4.42-8.27-7.17-12.9-1.61-2.64-3.25-5.2-4.93-7.68Zm20.64,39.36c.23.49.49.96.76,1.45-.27-.48-.53-.96-.76-1.45Zm-.72-1.68c.03.06.05.13.08.19-.03-.07-.05-.14-.08-.19Z"/>
      <path class="cls-12" d="m4571.25,3048.89c-70.09,0-127.1-52.72-127.1-117.54,0-9.78,1.31-19.51,3.89-28.92,2.77-10.09,11.99-17.56,23.17-18.77,1.39-.18,2.22-.29,3.08-.37,1.17-.14,2.73-.32,4.37-.45,4.22-.43,8.69-.73,13.62-.91.32-.01.64-.02.96-.02,6.45-.25,13.27-.15,20.17.12l4.26.26c1.39.1,2.81.21,4.24.35,1.73.13,3.26.26,4.78.43,1.91.22,3.76.43,5.61.68,1.4.14,2.84.34,4.29.57,2,.27,4.06.61,6.05.97l3.6.63c.09.02.54.1.63.12,1.8.34,3.65.69,5.45,1.1,1.06.21,2.69.57,4.35.95l1.09.25c1.88.45,3.36.82,4.8,1.21,4.57,1.13,9.28,2.47,14.36,4.1,1.93.57,4.32,1.37,6.78,2.22,2.29.76,4.91,1.69,7.59,2.7,8.31,3.14,16.6,6.7,24.68,10.61,3.65,1.77,7.11,3.57,10.5,5.44,2.04,1.12,4.06,2.26,6.07,3.46,1.88,1.06,4.19,2.51,6.43,3.95,2.33,1.51,4.27,2.77,6.16,4.08,1.6,1.07,3.47,2.38,5.31,3.76,1.84,1.3,3.63,2.65,5.42,4.11,5.59,4.29,10.84,8.79,16.02,13.73,1.93,1.75,3.76,3.58,5.57,5.43h0c.28.28.55.56.8.83.72.72,1.42,1.45,2.14,2.21,7.35,7.71,9.26,19.2,4.23,28.38-2.02,3.68-4.1,7.02-6.37,10.23-8.97,13.12-20.84,24.5-35.05,33.48-21.15,13.49-46.07,20.66-71.96,20.66Zm-72.81-116.91c.36,36.84,32.89,66.7,72.81,66.7,14.83,0,29.09-4.09,41.23-11.84,4.84-3.06,9.27-6.68,13.16-10.72-1.54-1.29-3.1-2.53-4.71-3.76-.25-.19-.5-.39-.74-.59-.93-.76-1.86-1.46-2.82-2.13-.31-.22-.62-.45-.93-.68-1.13-.85-2.3-1.67-3.47-2.46-1.77-1.22-3.26-2.18-4.75-3.15-1.72-1.11-3.18-2.02-4.64-2.86-1.86-1.11-3.29-1.92-4.77-2.72-2.64-1.45-5.29-2.84-8.04-4.17-6.54-3.16-13.28-6.06-19.97-8.6-1.92-.72-3.85-1.42-5.83-2.07-2.05-.71-3.66-1.25-5.3-1.75-4.46-1.42-8.01-2.43-11.37-3.25-.33-.08-.65-.17-.97-.26-.95-.27-1.9-.49-2.85-.72l-.68-.15c-1.21-.27-2.4-.54-3.59-.78-1.76-.38-3-.61-4.2-.84l-3.62-.63c-1.16-.2-2.4-.43-3.6-.58-.5-.06-1-.13-1.5-.22-.37-.06-.75-.12-1.1-.15-.46-.04-.93-.1-1.39-.16-1.56-.22-3.12-.39-4.63-.57-.92-.1-1.85-.17-2.74-.24-.27-.02-.85-.07-1.11-.1-.98-.1-1.96-.17-2.91-.23l-2.95-.18c-3.54-.14-7.91-.25-12.02-.18Z"/>
      <path class="cls-12" d="m4371.34,3048.89c-28.93,0-57.24-9.23-79.73-25.99-17.17-12.79-30.51-29.57-38.56-48.54-4.45-10.5-.79-22.45,8.96-29.23,9.76-6.77,23.19-6.7,32.86.16,7.46,5.31,13.83,10.03,19.15,14.09,4.01-3.66,8.65-7.69,13.88-11.92,1.24-1.02,2.16-1.76,3.07-2.47.94-.76,1.89-1.5,2.87-2.26.03-.03.49-.38.52-.41,14.38-11.08,29.52-20.86,44.98-29.05,3.06-1.61,6.15-3.21,9.36-4.75.21-.1.41-.2.62-.29,3.44-1.68,6.95-3.29,10.52-4.8,4.66-2.06,10.04-4.21,16.05-6.41,6.22-2.24,12.01-4.11,17.81-5.72l4.91-1.34c3.67-.98,7.56-1.9,11.51-2.74,1.35-.33,2.76-.61,4.16-.89,3.16-.64,6.55-1.24,10.07-1.73,13.88-1.92,27.02,6.2,30.4,18.77,2.44,9.11,3.69,18.53,3.69,27.98,0,64.81-57.01,117.54-127.1,117.54Zm-20.25-52.82c6.5,1.73,13.29,2.61,20.25,2.61,36.55,0,66.9-25.03,72.04-57.54-2.51.8-5.03,1.65-7.63,2.6-4.75,1.74-9.03,3.45-12.98,5.18-3.1,1.31-5.74,2.53-8.32,3.8-.02.01-.03.02-.06.03-.29.14-.7.35-1.23.58-2.36,1.15-4.64,2.33-6.87,3.51-12.69,6.72-25.21,14.81-37.18,24.03-1.05.81-1.72,1.33-2.39,1.88-.22.18-.45.36-.68.54-.64.49-1.25.99-1.87,1.49l-.48.39c-4.84,3.93-9.05,7.61-12.61,10.89Z"/>
    </g>
    <g>
      <path class="cls-3" d="m4023.96,3435.67c-4.82,24.16-9.36,44.31-12.76,59.12-2.17,9.35-6.99,17.82-13.78,24.54-6.31,6.34-14.39,11.23-23.55,14.06-35.02,10.79-68.54,18.2-100.03,23.03-2.71.44-5.36.82-7.94,1.19-44.58,6.34-85.1,7.53-120.59,5.96-1.97-.13-3.87-.19-5.77-.31-39.22-2.07-72.07-7.66-96.77-13.3-9.36-2.13-17.64-6.4-24.29-12.11,0,0-.07,0-.07-.06-2.92-2.51-5.56-5.33-7.87-8.35-8.55-11.3-12.22-25.67-9.03-40.16,25.52-114.91,29.86-249.7,28.84-344.59-.07-.06-.07-.19,0-.25-.14-12.24-.34-23.78-.61-34.58v-.31c-1.36-52.21-3.94-85.72-3.94-85.72l401.06-105.37c18.19,55.41,26.74,117.29,29.11,179.61v.06c4.95,126.64-15.54,255.48-32.03,337.56Z"/>
      <path class="cls-12" d="m4043.8,2913.72c16.41,39.18,26.76,80.27,33.32,121.57,5.81,41.32,8.5,82.92,8.09,124.31-1.5,82.75-10.22,164.88-25.42,245.8-3.78,20.23-7.79,40.42-12.17,60.52-2.17,10.06-4.4,20.1-6.74,30.11l-.88,3.76-.62,2.49-.79,2.79c-1.13,3.7-2.54,7.33-4.24,10.84-3.4,7.03-7.93,13.6-13.39,19.44-5.2,5.59-11.73,10.89-18.69,14.97-3.51,2.07-7.18,3.89-10.96,5.47-1.89.79-3.82,1.5-5.76,2.16l-4.85,1.5c-10.87,3.24-21.81,6.26-32.84,9.01-22.06,5.51-44.45,10.04-67.04,13.45-45.22,6.88-91.08,9.35-137.13,7.09-22.71-1.2-45.76-3.53-68.4-7.19-11.35-1.78-22.67-3.88-33.93-6.34l-4.23-.95-2.62-.62-2.93-.79c-3.88-1.11-7.68-2.5-11.36-4.14-7.36-3.27-14.18-7.58-20.18-12.7l17.57,6.66c-2.22-.09-3.19-.25-4.6-.5-1.31-.25-2.66-.6-4.07-1.08-2.81-.97-6.13-2.63-9.18-5.31-3.04-2.61-5.57-6.32-6.81-9.57-1.33-3.43-1.63-6.12-1.67-8.47l8.67,18.19c-12.72-10.94-21.63-25.51-25.07-41.35-1.73-7.9-2.04-16.09-1.04-24.08.19-2.01.65-3.96,1-5.94l.81-4.1,1.55-7.79c1.98-10.41,4.32-20.72,6.02-31.22l5.13-31.49c5.87-42.2,10.54-84.75,13.62-127.52,3.65-42.75,5.12-85.73,6.49-128.75.68-21.52.98-43.05,1.16-64.59.35-21.51.19-43.19.08-64.49v-.23c-.05-8.26,7.16-14.99,16.09-15.03,8.28-.04,15.14,5.69,16.13,13.11,2.95,21.98,4.78,43.64,6.69,65.48,1.6,21.81,2.81,43.64,3.77,65.5,1.85,43.72,1.78,87.51.47,131.39-1.83,43.85-4.95,87.8-11,131.65l-5.06,32.88c-1.75,10.95-4.22,21.89-6.31,32.83l-1.63,8.21-.77,3.89c-.08.7-.32,1.4-.35,2.1-.33,2.77-.25,5.55.35,8.28,1.18,5.45,4.34,10.63,8.81,14.48l8.67,18.19c-.04-2.34-.34-5.01-1.66-8.43-1.23-3.24-3.75-6.94-6.78-9.54-3.04-2.67-6.35-4.32-9.15-5.29-1.4-.48-2.75-.83-4.05-1.08-1.4-.25-2.37-.41-4.58-.5l17.57,6.66c2.06,1.74,4.37,3.22,6.89,4.33,1.26.56,2.56,1.05,3.92,1.43l1.01.27,1.36.32,3.75.84c10.07,2.19,20.24,4.08,30.49,5.69,20.57,3.09,41.18,4.95,62.23,5.83,41.5,1.56,83.61-1.13,124.78-7.89,20.62-3.34,41.03-7.72,61.21-13,10.09-2.63,20.11-5.53,30.06-8.61l2.93-.93c.62-.23,1.24-.46,1.84-.73,1.2-.52,2.36-1.12,3.46-1.79,2.25-1.4,4.03-2.86,5.96-4.96,1.67-1.85,3.06-3.94,4.1-6.17.52-1.12.94-2.27,1.28-3.46l.51-2.1.81-3.68c2.2-9.8,4.34-19.62,6.39-29.44,4.15-19.65,7.93-39.34,11.48-59.06,3.45-19.73,6.76-39.48,9.53-59.28,1.53-9.89,3.01-19.77,4.24-29.68,1.24-9.9,2.82-19.79,3.77-29.71,4.82-39.64,7.41-79.36,8.7-119.01l.69-29.71c.29-9.91-.27-19.76-.25-29.65.45-19.83-1.56-39.39-2.04-59.16-2.99-39.28-8.22-78.14-16.08-116.9l-.11-.55c-1.81-8.9,4.53-17.47,14.16-19.14,8.53-1.48,16.78,2.97,19.8,10.2Z"/>
      <g>
        <path class="cls-8" d="m3747.27,3530.55c0,8.99-1.61,17.56-4.55,25.42-.89,2.52-2,4.98-3.17,7.29-39.21-2.11-72.02-7.65-96.74-13.3-9.39-2.16-17.66-6.42-24.32-12.12,0,0-.06,0-.06-.05-.22-2.36-.33-4.78-.33-7.24,0-38.1,28.93-69.02,64.58-69.02,29.15,0,53.81,20.64,61.81,48.99v.05c1.83,6.32,2.78,13.04,2.78,19.98Z"/>
        <path class="cls-8" d="m3869.1,3535.99c0,7.55-1.11,14.79-3.22,21.62-44.54,6.32-85.08,7.5-120.56,5.96-1-2.46-1.83-5.03-2.61-7.6-1.78-6.32-2.72-13.04-2.72-19.98,0-8.99,1.61-17.56,4.5-25.42,9.5-25.52,32.82-43.6,60.09-43.6,35.65,0,64.53,30.92,64.53,69.02Z"/>
        <path class="cls-8" d="m3997.44,3519.3c-6.33,6.37-14.38,11.25-23.55,14.07-35.04,10.78-68.53,18.23-100.07,23.06-3.05-8.01-4.72-16.74-4.72-25.88,0-38.1,28.93-69.02,64.58-69.02,32.1,0,58.7,25.01,63.75,57.77Z"/>
      </g>
      <g>
        <path class="cls-12" d="m3739.55,3589.88c-.55,0-1.11-.02-1.68-.04-35.21-1.89-69.53-6.61-101.98-14.04-13.79-3.16-26.57-9.52-36.96-18.41h0c-5.2-4.44-8.63-10.62-9.21-17.53-.28-3.02-.42-6.15-.42-9.32,0-52.73,41.89-95.64,93.37-95.64,41.35,0,78.22,28.33,89.66,68.89.07.25.14.5.2.76,2.33,8.32,3.51,17.06,3.51,25.98,0,11.77-2.06,23.25-6.13,34.12-1.01,2.86-2.51,6.33-4.29,9.87-4.75,9.4-14.95,15.34-26.07,15.34Zm-92.15-66.39c.77.25,1.55.46,2.33.64,21.96,5.02,44.94,8.66,68.54,10.88.14-1.47.2-2.96.2-4.46,0-4.58-.6-8.97-1.79-13.06-.09-.29-.16-.59-.24-.88-4.99-16.79-18.8-28.46-33.77-28.46-17.38,0-32.35,15.57-35.28,35.34Z"/>
        <path class="cls-12" d="m3773.2,3590.8c-9.77,0-19.51-.21-29.22-.63-11.48-.5-21.54-7.26-25.59-17.21-1.49-3.66-2.61-7.18-3.4-9.84-2.55-9.03-3.78-18.01-3.78-27.12,0-11.67,2.03-23.1,6.02-33.98,13.74-36.91,48.82-61.65,87.34-61.65,51.45,0,93.31,42.9,93.31,95.64,0,9.9-1.46,19.64-4.32,28.93-3.09,10.01-12.2,17.43-23.32,19.01-32.23,4.57-64.75,6.87-97.05,6.87Zm92.69-33.18h.06-.06Zm-97.09-20.07c23.73.18,47.66-1.03,71.48-3.59-.94-22.08-16.9-40.36-35.7-40.36-14.17,0-27.07,10.06-32.87,25.64-1.93,5.26-2.93,10.92-2.93,16.76,0,.52,0,1.03.02,1.55Z"/>
        <path class="cls-12" d="m3873.81,3583.05c-12.03,0-23.02-6.99-27.13-17.77-4.22-11.06-6.36-22.75-6.36-34.74,0-52.73,41.89-95.64,93.37-95.64,46.24,0,85.04,33.91,92.24,80.63,1.22,7.91-1.46,15.9-7.31,21.78-9.68,9.73-22,17.1-35.62,21.3-34.65,10.66-69.8,18.76-104.48,24.07-1.58.24-3.16.36-4.72.36Zm59.88-94.9c-17.83,0-33.12,16.39-35.48,36.88,21.96-4.4,44.02-9.99,65.87-16.69-6.45-12.13-17.92-20.19-30.39-20.19Z"/>
      </g>
    </g>
    <g>
      <path class="cls-3" d="m2943.88,3436.83c4.82,24.16,9.36,44.31,12.76,59.12,2.17,9.35,6.99,17.82,13.78,24.54,6.31,6.34,14.39,11.23,23.55,14.06,35.02,10.79,68.54,18.2,100.03,23.03,2.71.44,5.36.82,7.94,1.19,44.58,6.34,85.1,7.53,120.59,5.96,1.97-.13,3.87-.19,5.77-.31,39.22-2.07,72.07-7.66,96.77-13.3,9.36-2.13,17.64-6.4,24.29-12.11,0,0,.07,0,.07-.06,2.92-2.51,5.56-5.33,7.87-8.35,8.55-11.3,12.22-25.67,9.03-40.16-25.52-114.91-29.86-249.7-28.84-344.59.07-.06.07-.19,0-.25.14-12.24.34-23.78.61-34.58v-.31c1.36-52.21,3.94-85.72,3.94-85.72l-401.06-105.37c-18.19,55.41-26.74,117.29-29.11,179.61v.06c-4.95,126.64,15.54,255.48,32.03,337.56Z"/>
      <path class="cls-12" d="m2924.05,2914.88c-16.41,39.18-26.76,80.27-33.32,121.57-5.81,41.32-8.5,82.92-8.09,124.31,1.5,82.75,10.22,164.88,25.42,245.8,3.78,20.23,7.79,40.42,12.17,60.52,2.17,10.06,4.4,20.1,6.74,30.11l.88,3.76.62,2.49.79,2.79c1.13,3.7,2.54,7.33,4.24,10.84,3.4,7.03,7.93,13.6,13.39,19.44,5.2,5.59,11.73,10.89,18.69,14.97,3.51,2.07,7.18,3.89,10.96,5.47,1.89.79,3.82,1.5,5.76,2.16l4.85,1.5c10.87,3.24,21.81,6.26,32.84,9.01,22.06,5.51,44.45,10.04,67.04,13.45,45.22,6.88,91.08,9.35,137.13,7.09,22.71-1.2,45.76-3.53,68.4-7.19,11.35-1.78,22.67-3.88,33.93-6.34l4.23-.95,2.62-.62,2.93-.79c3.88-1.11,7.68-2.5,11.36-4.14,7.36-3.27,14.18-7.58,20.18-12.7l-17.57,6.66c2.22-.09,3.19-.25,4.6-.5,1.31-.25,2.66-.6,4.07-1.08,2.81-.97,6.13-2.63,9.18-5.31,3.04-2.61,5.57-6.32,6.81-9.57,1.33-3.43,1.63-6.12,1.67-8.47l-8.67,18.19c12.72-10.94,21.63-25.51,25.07-41.35,1.73-7.9,2.04-16.09,1.04-24.08-.19-2.01-.65-3.96-1-5.94l-.81-4.1-1.55-7.79c-1.98-10.41-4.32-20.72-6.02-31.22l-5.13-31.49c-5.87-42.2-10.54-84.75-13.62-127.52-3.65-42.75-5.12-85.73-6.49-128.75-.68-21.52-.98-43.05-1.16-64.59-.35-21.51-.19-43.19-.08-64.49v-.23c.05-8.26-7.16-14.99-16.09-15.03-8.28-.04-15.14,5.69-16.13,13.11-2.95,21.98-4.78,43.64-6.69,65.48-1.6,21.81-2.81,43.64-3.77,65.5-1.85,43.72-1.78,87.51-.47,131.39,1.83,43.85,4.95,87.8,11,131.65l5.06,32.88c1.75,10.95,4.22,21.89,6.31,32.83l1.63,8.21.77,3.89c.08.7.32,1.4.35,2.1.33,2.77.25,5.55-.35,8.28-1.18,5.45-4.34,10.63-8.81,14.48l-8.67,18.19c.04-2.34.34-5.01,1.66-8.43,1.23-3.24,3.75-6.94,6.78-9.54,3.04-2.67,6.35-4.32,9.15-5.29,1.4-.48,2.75-.83,4.05-1.08,1.4-.25,2.37-.41,4.58-.5l-17.57,6.66c-2.06,1.74-4.37,3.22-6.89,4.33-1.26.56-2.56,1.05-3.92,1.43l-1.01.27-1.36.32-3.75.84c-10.07,2.19-20.24,4.08-30.49,5.69-20.57,3.09-41.18,4.95-62.23,5.83-41.5,1.56-83.61-1.13-124.78-7.89-20.62-3.34-41.03-7.72-61.21-13-10.09-2.63-20.11-5.53-30.06-8.61l-2.93-.93c-.62-.23-1.24-.46-1.84-.73-1.2-.52-2.36-1.12-3.46-1.79-2.25-1.4-4.03-2.86-5.96-4.96-1.67-1.85-3.06-3.94-4.1-6.17-.52-1.12-.94-2.27-1.28-3.46l-.51-2.1-.81-3.68c-2.2-9.8-4.34-19.62-6.39-29.44-4.15-19.65-7.93-39.34-11.48-59.06-3.45-19.73-6.76-39.48-9.53-59.28-1.53-9.89-3.01-19.77-4.24-29.68-1.24-9.9-2.82-19.79-3.77-29.71-4.82-39.64-7.41-79.36-8.7-119.01l-.69-29.71c-.29-9.91.27-19.76.25-29.65-.45-19.83,1.56-39.39,2.04-59.16,2.99-39.28,8.22-78.14,16.08-116.9l.11-.55c1.81-8.9-4.53-17.47-14.16-19.14-8.53-1.48-16.78,2.97-19.8,10.2Z"/>
      <g>
        <path class="cls-8" d="m3220.58,3531.72c0,8.99,1.61,17.56,4.55,25.42.89,2.52,2,4.98,3.17,7.29,39.21-2.11,72.02-7.65,96.74-13.3,9.39-2.16,17.66-6.42,24.32-12.12,0,0,.06,0,.06-.05.22-2.36.33-4.78.33-7.24,0-38.1-28.93-69.02-64.58-69.02-29.15,0-53.81,20.64-61.81,48.99v.05c-1.83,6.32-2.78,13.04-2.78,19.98Z"/>
        <path class="cls-8" d="m3098.74,3537.16c0,7.55,1.11,14.79,3.22,21.62,44.54,6.32,85.08,7.5,120.56,5.96,1-2.46,1.83-5.03,2.61-7.6,1.78-6.32,2.72-13.04,2.72-19.98,0-8.99-1.61-17.56-4.5-25.42-9.5-25.52-32.82-43.6-60.09-43.6-35.65,0-64.53,30.92-64.53,69.02Z"/>
        <path class="cls-8" d="m2970.41,3520.47c6.33,6.37,14.38,11.25,23.55,14.07,35.04,10.78,68.53,18.23,100.07,23.06,3.05-8.01,4.72-16.74,4.72-25.88,0-38.1-28.93-69.02-64.58-69.02-32.1,0-58.7,25.01-63.75,57.77Z"/>
      </g>
      <g>
        <path class="cls-12" d="m3202.22,3575.71c-1.78-3.54-3.29-7-4.29-9.87-4.07-10.88-6.13-22.36-6.13-34.12,0-8.93,1.18-17.66,3.51-25.98.06-.26.13-.51.2-.76,11.44-40.57,48.31-68.89,89.66-68.89,51.49,0,93.37,42.9,93.37,95.64,0,3.16-.14,6.29-.42,9.32-.58,6.91-4.01,13.08-9.21,17.52h0c-10.39,8.89-23.16,15.25-36.96,18.41-32.45,7.43-66.76,12.15-101.98,14.04-.56.03-1.12.04-1.68.04-11.12,0-21.32-5.95-26.07-15.34Zm82.94-86.39c-14.97,0-28.78,11.67-33.77,28.46-.08.29-.15.59-.24.88-1.19,4.08-1.79,8.47-1.79,13.06,0,1.5.06,2.98.2,4.46,23.61-2.22,46.59-5.86,68.54-10.88.79-.18,1.57-.4,2.33-.64-2.93-19.77-17.9-35.34-35.28-35.34Z"/>
        <path class="cls-12" d="m3097.6,3585.09c-11.12-1.58-20.23-9-23.32-19.01-2.87-9.29-4.32-19.02-4.32-28.93,0-52.73,41.86-95.64,93.31-95.64,38.52,0,73.6,24.74,87.34,61.65,4,10.88,6.02,22.31,6.02,33.98,0,9.11-1.23,18.09-3.78,27.12-.8,2.66-1.91,6.18-3.4,9.84-4.05,9.95-14.11,16.71-25.59,17.21-9.71.42-19.45.63-29.22.63-32.3,0-64.82-2.3-97.05-6.87Zm4.3-26.31h.06s-.06,0-.06,0Zm97.17-21.62c0-5.83-1-11.5-2.93-16.76-5.79-15.58-18.7-25.64-32.87-25.64-18.8,0-34.77,18.28-35.7,40.36,23.82,2.56,47.75,3.77,71.48,3.59.02-.52.02-1.03.02-1.55Z"/>
        <path class="cls-12" d="m3089.32,3583.86c-34.68-5.31-69.83-13.41-104.48-24.07-13.63-4.2-25.95-11.57-35.62-21.3-5.85-5.88-8.53-13.87-7.31-21.78,7.21-46.72,46-80.63,92.24-80.63,51.49,0,93.37,42.9,93.37,95.64,0,11.99-2.14,23.68-6.36,34.74-4.11,10.78-15.1,17.77-27.13,17.77-1.56,0-3.14-.12-4.72-.36Zm-85.56-74.36c21.86,6.7,43.92,12.29,65.87,16.69-2.36-20.49-17.65-36.88-35.48-36.88-12.47,0-23.94,8.06-30.39,20.19Z"/>
      </g>
    </g>
    <g>
      <path class="cls-3" d="m4860.45,2025.21c-91.92,23.43-124.7,116.14-175.66,188.26-21.49,30.53-46.36,57.38-80.3,73.71-129.4,62.26-271.03,3.65-271.03,3.65,0,0,38.23,330.98-801.11,337.66-306.18,2.44-795.03,57.6-920.63-232.39,0,0-112.54,101.58-241.19,35.45-128.67-66.07-131.21-166.01-218.08-221.23,0,0-.7-.45-1.97-1.27-85.85-52.91-151.71,18.22-252.14-97.4-3.97-4.57-7.6-9.67-10.76-15.23-47.24-80.46-16.82-260.71,159.85-471.41,121.45-144.75,312.03-303.79,593.94-454.64,0,0,224.06-316.14,760.15-355.04,536.09-38.9,813.52,287.99,813.52,287.99,0,0,436.4,196.79,696.53,488.68,40.08,45.01,69.48,85.73,90.06,122.53,20.85,37.33,32.63,70.59,37.39,100.23,20.68,130.24-95.72,189.38-178.56,210.45Z"/>
      <g class="cls-5">
        <path class="cls-1" d="m5039,1814.77c-274.89-402.27-877.13-666.49-877.13-666.49-34.18-49.4-157.88-148.81-351.47-210.83-.04.37-.08.69-.19,1.05-5.62,26.26-62.56,37.88-127.17,25.99-64.61-11.88-112.37-42.77-106.75-68.97.46-2.16,1.25-4.23,2.37-6.2-56.73-5.79-116.97-7.76-180.47-4.76-428.26,20.05-716.45,329.47-716.45,329.47-188.82,94.9-465.23,288.27-634.32,410.98,121.45-144.75,312.03-303.79,593.94-454.64,0,0,224.06-316.14,760.15-355.04,536.09-38.9,813.52,287.99,813.52,287.99,0,0,436.4,196.79,696.53,488.68,40.08,45.01,69.48,85.73,90.06,122.53,20.85,37.33,32.63,70.59,37.39,100.23Z"/>
      </g>
      <ellipse class="cls-11" cx="2919.52" cy="2279.41" rx="38" ry="80.85" transform="translate(371.42 4967.61) rotate(-84.51)"/>
      <g class="cls-6">
        <path class="cls-12" d="m4860.45,2025.21c-91.92,23.43-124.7,116.14-175.66,188.26-21.49,30.53-46.36,57.38-80.3,73.71-129.4,62.26-271.03,3.65-271.03,3.65,0,0,38.23,330.98-801.11,337.66-306.18,2.44-795.03,57.6-920.63-232.39,0,0-112.54,101.58-241.19,35.45-128.67-66.07-131.21-166.01-218.08-221.23,0,0-.7-.45-1.97-1.27-85.85-52.91-151.71,18.22-252.14-97.4-3.97-4.57-7.6-9.67-10.76-15.23,47.69-470.36,479.87-666.87,665.66-730.12,35.48-12.08,71.62,16.71,63.65,50.88-49.6,212.54-15.71,374.28,49.67,514.14,72.93,156.02,2.26,348.69,208.33,466.44,418.2,238.96,1128.57,60.97,1269.35-65.11,138.34-123.9,39.65-336.13,141.04-563.2,70.99-158.99-12.91-421.23-12.91-421.23,519.66,247.36,582.75,427.77,582.75,427.77,74.52,32.01,119.61-8.77,146.51-61.48,112.74,201.64-39.54,284.82-141.16,310.68Z"/>
      </g>
      <path class="cls-12" d="m3007.51,2647.83c-33.63-3.39-66.68-7.96-98.78-14.02-165.71-31.32-274.93-97.07-332.6-200.5-54.65,34.89-148.71,66.65-244.19,17.54-78.91-40.52-114.14-92.87-145.22-139.05-22.55-33.49-42.01-62.41-75.09-83.45l-1.97-1.26c-27.67-17.05-53.13-18.17-82.64-19.44-50.29-2.21-107.28-4.69-175.26-82.94-35.05-40.36-45.49-106.43-29.41-186.07,19.89-98.42,134.5-445.61,774.74-789.81,14.86-19.4,72.74-89.86,181.8-164.24,115.09-78.49,311.75-176.37,595.05-196.93,284.18-20.63,496.23,60.94,624.08,133,122.14,68.84,191.81,141.07,208.9,159.92,53.36,24.62,451.88,214.17,700.14,492.83,114.24,128.25,156.86,237.96,126.69,326.09-33.35,97.43-145.05,135.46-191.54,147.3h0c-59.58,15.16-91.61,67.89-125.52,123.72-10.91,17.97-22.2,36.55-34.56,54.05-17.72,25.12-46.4,61.01-90.56,82.26-100.18,48.16-205.22,30.68-258.78,16.05-5.6,31.62-22.33,79.58-70.13,129.18-85.45,88.67-285.88,195.15-755.46,198.88-37.9.3-78.48,1.41-121.45,2.59-120.25,3.29-253.17,6.93-378.22-5.69Zm-418.29-279.32c.9.09,1.79.22,2.67.39,8.87,1.73,16.22,7.44,19.59,15.23,102.89,237.54,474.27,227.37,772.65,219.2,43.26-1.19,84.12-2.3,122.59-2.61,447.1-3.55,634.82-99.95,713.59-180.21,65.91-67.16,60.98-127.34,60.74-129.87-.85-8.87,3.44-17.6,11.27-22.77,7.84-5.17,18.05-6.22,26.83-2.59,1.26.51,131.6,52.64,247.37-3.02,25.33-12.18,46.96-32.28,70.15-65.16,11.38-16.11,22.22-33.94,32.69-51.19,37.87-62.36,77.03-126.84,158.46-147.55,37.93-9.66,128.87-40.1,154.18-114.04,23.91-69.87-16.48-166.36-116.83-279.02-253.38-284.41-683.11-480.15-687.42-482.09-3.69-1.66-6.92-4.08-9.46-7.06-.66-.77-69.2-80.18-200.53-153.78-120.69-67.63-320.94-144.17-589.56-124.68-269.25,19.54-455.85,111.86-564.98,185.86-118.49,80.35-174,157.17-174.55,157.94-2.32,3.25-5.44,5.99-9.08,7.93-234.01,125.23-421.11,264.5-556.1,413.92-106.44,117.84-176.68,240.18-197.75,344.49-12.95,64.07-6.26,117.07,18.36,145.41,52.66,60.63,91.05,62.29,135.49,64.23,32.82,1.44,70.01,3.06,110.57,28.05l2.21,1.41c42.46,27,66.86,63.26,90.46,98.32,28.95,43.01,58.89,87.48,125.51,121.7,109.65,56.39,208.03-30.58,209.01-31.46,5.84-5.27,13.89-7.8,21.9-6.99Zm2245.78-345.93h.06s-.06,0-.06,0Z"/>
      <path class="cls-7" d="m2611.71,2396.11s-112.54,101.58-241.19,35.45c-9.27-4.79-17.96-9.77-25.97-14.8-103.48-65.49-111.53-155.18-192.11-206.43,0,0-.7-.45-1.97-1.27-11.15-7.31-68.93-47.55-98.93-113.89-9.15-20.24-15.76-42.94-17.59-67.87-11.55-155.58,174.6-373.65,503.72-571.75-2.54,4.16-121.89,217.3-46.97,398.71,143.84,348.27,55.71,334.39,121.01,541.85Z"/>
      <g class="cls-6">
        <path class="cls-12" d="m2598.09,2420.18s-112.54,101.58-241.19,35.45c-9.27-4.79-17.96-9.77-25.97-14.8,13.86-5.8,26.72-13.59,37.89-23.2,37.9-32.54,54.84-84.68,42.58-131.18-14.14-53.7-62.04-94.45-82.88-146.3-17.46-43.55-14.65-91.69-23.93-137.38-9.28-45.76-37.48-94.31-86.51-104.56-55.77-11.62-107.7,31.62-135.98,77.5-28.37,46.06-41.13,94.01-44.17,143.52-9.15-20.24-15.76-42.94-17.59-67.87-11.55-155.58,174.6-373.65,503.72-571.75-2.54,4.16-121.89,217.3-46.97,398.71,143.84,348.27,55.71,334.39,121.01,541.85Z"/>
      </g>
      <path class="cls-12" d="m2437.91,2477.98c-26.21-2.64-53.42-10.08-80.76-24.14-79-40.57-114.26-92.96-145.38-139.18-22.52-33.45-41.96-62.35-74.97-83.34l-1.98-1.26c-20.14-13.2-119.67-84.11-128.36-200.98-6.23-83.61,38.78-183.09,130.14-287.7,90.14-103.21,223.64-209.43,386.04-307.19,10.66-6.41,24.69-5.25,33.94,2.82,9.25,8.07,11.33,20.95,5.03,31.17-.99,1.71-115.67,206.28-45.17,376.99,88.08,213.26,90.8,293.15,93.43,370.41,1.64,48.19,3.19,93.71,28.26,173.42,2.84,9.04.07,18.79-7.21,25.36-33.63,30.35-108.07,72.18-193.04,63.61Zm38.71-953.21c-123.21,80.98-224.95,166-297.13,248.64-82.47,94.42-123.29,181.62-118.03,252.17,7.13,95.92,94.99,156.17,104.98,162.73l1.56.99c42.53,27.05,66.95,63.34,90.57,98.43,28.92,42.97,58.83,87.4,125.36,121.57,87.61,45.05,166.92-.66,196.48-21.95-22.41-76.44-24.03-124.03-25.6-170.16-2.49-73.04-5.07-148.57-89.83-353.83-50.63-122.58-19.22-255.7,11.65-338.59Z"/>
      <g>
        <path class="cls-7" d="m4852.91,1938.09c-6.15,15.1-18.52,34.87-33.95,57.49-44.37,64.84-114.12,152.62-134.17,217.89-21.49,30.53-46.36,57.38-80.3,73.71-35.03,16.86-70.99,24.84-104.83,27.55-90.89,7.24-166.2-23.9-166.2-23.9,0,0-18.1-120.25,18.44-247.18,24.55-85.46,152-426.31-79.54-695.42l9.44.95s385.38,198.21,521.74,342.58c68.08,72.14,79.58,171.4,49.38,246.32Z"/>
        <g class="cls-6">
          <path class="cls-12" d="m4852.91,1938.09c-6.15,15.1-18.52,34.87-33.95,57.49,4.57-45.12-.59-91.03-15.57-134.2-29.07-83.42-94.92-155.34-179.2-195.53-13.57-6.48-28.79-12.31-43.69-9.27-22.94,4.69-35.52,29.12-34.18,50.78,1.4,21.67,12.93,41.45,22.46,61.35,45.06,94.25,46.68,205.52,4.24,300.85-24.81,55.83-64.06,106.73-77.44,165.79-5.83,25.67-4.47,54.09,4.08,79.38-90.89,7.24-166.2-23.9-166.2-23.9,0,0-18.1-120.25,18.44-247.18,24.55-85.46,152-426.31-79.54-695.42l9.44.95s385.38,198.21,521.74,342.58c68.08,72.14,79.58,171.4,49.38,246.32Z"/>
        </g>
      </g>
      <path class="cls-12" d="m4430.42,2338.95c-61.1-6.16-104.72-23.82-108.06-25.2-8.54-3.53-14.51-10.88-15.8-19.45-.77-5.12-18.43-126.77,19.1-257.1,1.7-5.9,3.88-13.02,6.4-21.23,34.51-112.51,126.19-411.35-80.96-652.1-6.82-7.93-7.82-18.87-2.53-27.74,5.29-8.88,15.82-13.94,26.72-12.84l9.45.95c3.6.36,7.09,1.39,10.25,3.02,15.9,8.18,391.1,202.02,528.99,348,69.76,73.91,91.09,180.52,54.37,271.6,0,.01,0,.02,0,.03-10.89,26.93-37.17,63.75-67.59,106.38-39.93,55.96-85.19,119.37-99.84,167.07-.74,2.42-1.88,4.73-3.36,6.83-17.69,25.14-46.32,61.01-90.53,82.29-65.32,31.42-132.74,34.92-186.58,29.49Zm-71.71-66.08c36.96,11.72,139.87,36.97,233.24-7.95,24.57-11.82,45.62-31.05,67.94-62.12,17.92-54.41,64.41-119.56,105.54-177.19,27.42-38.42,53.32-74.71,62.05-96.31,24.46-60.68,20.21-152.55-44.41-221.02-92.76-98.2-308.13-224.32-428.74-291.02,143.2,243.19,59.55,515.94,29.96,612.41-2.43,7.9-4.53,14.74-6.16,20.44-27.44,95.28-22.66,187.88-19.42,222.76Zm494.2-334.77h.06s-.06,0-.06,0Z"/>
      <path class="cls-3" d="m3723.38,2734.13c-66.91,74.75-275.52,82.87-417.11-100.54-74.61-96.66-84.11-223.88-76.36-322.52,1.73-22.74,4.44-43.99,7.5-63v-.06c8.74-54.92,20.18-91.14,20.18-91.14l431.94-8.44c17.04,20.47,29.37,42.1,37.95,64.24v.06c57.33,147.57-51.84,317.29-51.84,317.29,97.3,27.55,104.98,140.13,47.74,204.11Z"/>
      <path class="cls-12" d="m3267.96,2159.68c-7.51,48.21-12.39,97.25-13.82,145.53-1.39,48.36.83,96.42,8.23,143.17,7.54,46.57,19.23,92.68,42.19,133.65,11.29,20.49,24.96,39.46,41.12,57.81,15.91,18.18,33.42,35.01,52.49,49.95,38.08,29.78,82.62,52.43,130.24,62.58,23.7,5.3,48.09,7.23,71.9,5.89,23.71-1.53,47.17-6.39,67.23-15.71,10.02-4.6,19.19-10.22,26.83-16.74l2.87-2.43,2.55-2.61,2.57-2.59,2.52-2.98c3.41-3.95,6.36-8.27,9.23-12.64,11-17.76,17.46-38.48,17.98-59.01.36-10.26-.8-20.43-3.48-30.02-2.58-9.62-6.73-18.62-12.34-26.52-10.99-16-28.08-27.11-48.56-33h-.01c-14.18-3.77-22.36-17.45-18.29-30.56.45-1.45,1.03-2.83,1.73-4.14l1.17-2.14c1.54-2.84,3.56-6.72,5.29-10.2l5.39-10.81c3.47-7.31,6.99-14.62,10.26-22.04,6.67-14.78,12.6-29.85,18.15-44.96,5.48-15.15,10.17-30.47,14.26-45.85,3.88-15.42,7.25-30.91,9.51-46.48,2.02-15.57,3.23-31.17,3.37-46.75-.15-15.56-1.22-31.07-3.88-46.44l-2.09-11.53c-.86-3.81-1.93-7.57-2.88-11.39-.89-3.84-2.1-7.58-3.33-11.34-1.3-3.72-2.19-7.65-3.83-11.27-5.38-15.05-13.01-29.36-21-44.04l-.27-.49c-2.53-4.64-.51-10.3,4.52-12.64,4.02-1.87,8.75-1.03,11.78,1.75,13.47,12.46,25.77,26.46,35.67,42,9.79,15.54,18.07,32.17,23.87,49.55,11.59,34.79,15.12,71.58,12.47,107.38-1.23,17.93-3.88,35.67-7.75,53.11-3.72,17.47-8.67,34.64-14.65,51.42-5.89,16.82-12.88,33.25-20.76,49.3-4.01,8-8.08,15.98-12.61,23.78-2.28,3.9-4.52,7.82-6.97,11.68-2.52,3.96-4.8,7.49-7.85,11.91l-15.39-36.84h.02c30.73,8.5,60.42,27.49,78.2,53.66,9.11,12.88,15.53,27.04,19.43,41.49,4.01,14.45,5.61,29.2,5.13,43.74-.83,29.11-9.62,57.53-25.27,82.82-4.05,6.26-8.33,12.42-13.26,18.19l-3.69,4.34-4.19,4.31-4.24,4.25-4.51,3.89c-12.09,10.3-25.59,18.41-39.57,24.84-14,6.46-28.55,11.19-43.28,14.49-14.72,3.28-29.61,5.54-44.48,6.32-29.73,1.69-59.4-.79-87.86-7.11-57.19-12.24-109.25-38.99-152.94-73.16-21.88-17.14-41.71-36.24-59.55-56.63-17.62-20.19-34.36-42.38-47.8-65.95-27.05-47.08-43.44-98.38-50.56-149.92-7.06-51.63-5.46-103.43,1.84-153.94,1.74-12.65,3.96-25.22,6.59-37.7,2.45-12.5,5.47-24.9,8.75-37.21,6.67-24.68,14.4-48.76,24.92-72.68,2.26-5.13,8.58-7.59,14.12-5.51,4.71,1.77,7.34,6.25,6.65,10.71l-.07.41Z"/>
      <path class="cls-12" d="m3698.81,2543.84c-2.5,2.2-5.61,5.61-8.32,8.6-2.78,3.11-5.48,6.3-8.06,9.55-5.17,6.5-9.86,13.23-13.7,20.06-3.76,6.79-6.75,13.83-7.48,20.12-.75,6.27.49,11.65,6.46,16.29l.56.44c3.09,2.4,3.49,6.66.89,9.52-1.97,2.17-5.13,2.9-7.87,2.07-5.53-1.68-11.21-4.82-15.56-9.43-4.39-4.58-7.24-10.24-8.91-15.75-3.3-11.19-2.8-21.81-1.63-31.88,1.31-10.06,3.64-19.7,6.53-29.08,1.44-4.7,3.03-9.34,4.77-13.94,1.82-4.72,3.42-8.94,5.98-14.16l1.06-2.15c6.45-13.16,23.22-19,37.45-13.04,14.23,5.96,20.54,21.47,14.1,34.63-1.54,3.14-3.73,5.91-6.27,8.16Z"/>
      <path class="cls-12" d="m3355.53,2163.99c16.17-16.67,36.85-28.05,58.54-36.77,21.86-8.47,45.39-13.82,69.48-15.12,24.03-1.42,48.71,1.2,71.67,8.55,22.92,7.22,44.19,19.31,59.7,36.3-23.86-3.12-45.02-6.35-66.27-7.32-21.07-1.32-41.78-1.11-62.64.05-20.86,1.09-41.86,3.33-63.36,5.97-21.59,2.6-43.36,5.77-67.12,8.35Z"/>
      <path class="cls-12" d="m3325.88,2308.78c19.53-21.24,45.12-36.75,72.4-48.5,27.47-11.52,57.44-18.86,88.14-20.68,15.35-.79,30.82-.53,46.1,1.39,15.25,2.1,30.36,5.14,44.74,10.11,28.8,9.66,55.04,25.14,75.01,45.78-28.95-7.28-55.85-13.76-82.88-17.08-26.94-3.46-53.6-4.21-80.34-2.64-26.74,1.56-53.49,5.53-80.5,11.05-27.06,5.57-54.15,12.55-82.68,20.57Z"/>
      <path class="cls-12" d="m3366.98,2447.42c6.4-8.74,14.64-15.93,23.41-22.31,4.39-3.23,9.06-6.01,13.76-8.87,4.78-2.66,9.73-5.09,14.71-7.51,20.19-9.06,42.5-14.47,65.24-15.88,11.35-1.03,22.84-.12,34.16.76,11.25,1.98,22.53,3.51,33.13,7.57,21.5,6.65,40.81,18.64,55.84,33.96-5.8-.2-11.32-.6-16.62-1.22-5.34-.54-10.38-1.51-15.68-1.61-5.19-.37-10.27-.8-15.23-1.37-4.94-.62-10.05-.38-14.94-.79-9.77-.93-19.56-.43-29.12-.91l-14.41.45c-4.79-.17-9.57.36-14.36.71-19.13,1.16-38.36,3.27-58.06,6.36-19.8,3.03-39.7,6.87-61.85,10.67Z"/>
      <path class="cls-12" d="m3392.07,2554.42c17.26-1.34,32.1-1.31,46.69-1.34l41.98.14c6.86.18,13.61-.19,20.51,0,3.43.02,6.81-.34,10.31-.24,3.5.06,6.99-.03,10.49-.25,14.39.14,28.6-1.49,46.28-.84-9.45,13.26-23.15,23.48-38.61,29.59l-5.81,2.41c-1.98.65-3.99,1.17-6,1.76-4.02,1.18-8.11,2.19-12.23,3.04-8.27,1.33-16.68,2.37-25.06,2.16-16.75-.05-33.35-3.08-48.61-8.95-15.12-6.08-29.54-14.42-39.94-27.5Z"/>
      <path class="cls-12" d="m3506.68,2693.98c14.49-2.78,26.57-4.11,37.98-5.28,11.36-1.13,21.68-2.18,31.49-3.31,9.85-1.2,18.83-2.93,28.88-5.22,2.43-.7,5.03-1.3,7.8-1.88,2.49-.94,5.18-1.8,8.05-2.68,6.07-1.48,11.26-4.42,18.93-6.39-.04,3.41-.63,6.69-1.39,10.03-.32,1.71-.85,3.31-1.33,4.99-.55,1.63-1.44,3.02-2.19,4.58-1.65,2.99-3.47,5.99-5.51,8.91-2.32,2.61-4.86,5.16-7.53,7.63-10.96,9.43-25.58,15.71-40.21,17.34-14.63,1.75-29.13-.15-42.07-4.87-12.84-4.9-24.73-12.15-32.9-23.85Z"/>
      <ellipse class="cls-12" cx="3031.18" cy="2018.33" rx="175.07" ry="127.28" transform="translate(784.46 4884.33) rotate(-85.56)"/>
      <ellipse class="cls-1" cx="3082.43" cy="1983.3" rx="36.08" ry="59.55" transform="translate(-6.69 10.44) rotate(-.19)"/>
      <g class="cls-9">
        <ellipse class="cls-1" cx="2970.99" cy="2089.57" rx="21.23" ry="46.01" transform="translate(-525 1104.09) rotate(-19.38)"/>
      </g>
      <path class="cls-12" d="m2837.68,1861.14c4.72,4.35,11.02,8.84,17.16,12.4,6.27,3.62,12.87,6.65,19.62,9.04,13.53,4.8,27.71,6.87,41.62,6.59,13.96-.4,27.68-3.07,40.85-7.63,13.18-4.47,25.83-10.62,37.87-17.93l19.07,1.92c12.57,1.27,21.65,11.72,20.28,23.34-.26,2.24-.95,4.44-1.88,6.4-1.03,2.11-1.6,3.01-2.37,4.37l-2.2,3.56c-1.48,2.32-2.99,4.53-4.57,6.69-3.14,4.33-6.47,8.47-10.05,12.43-7.1,7.94-15.07,15.25-23.95,21.66-17.63,12.86-39.11,21.94-61.17,24.91-11.01,1.5-22.01,1.65-32.7.82-10.62-1.15-21.03-2.86-30.86-5.77-19.81-5.45-37.81-13.8-54.51-23.35-5.09-2.91-6.66-9.08-3.51-13.78,2.87-4.29,8.67-5.88,13.53-3.92l.07.03c16.72,6.74,33.96,11.91,51.07,14.17,8.54,1.34,17.01,1.48,25.24,1.31,8.21-.5,16.15-1.73,23.65-3.82,15-4.22,27.98-12.16,38.57-22.5,5.31-5.16,10-10.97,14.03-17.15,2.04-3.07,3.88-6.26,5.51-9.47.83-1.59,1.6-3.22,2.28-4.79l.96-2.31c.23-.62.65-1.7.52-1.61l37.47,31.66c-16.52,6.05-33.91,10.72-51.88,13.19-17.91,2.56-36.48,2.63-54.45-.32-17.96-3.05-35.14-9.19-50.04-18.04-7.46-4.41-14.38-9.45-20.68-14.99-6.33-5.7-11.83-11.37-17.01-18.67-2.34-3.3-1.34-7.73,2.23-9.89,3.11-1.89,7.15-1.42,9.69.91l.56.52Z"/>
      <ellipse class="cls-11" cx="4064.88" cy="2224.09" rx="80.74" ry="38.05" transform="translate(-295.11 655.55) rotate(-8.9)"/>
      <ellipse class="cls-12" cx="3931.14" cy="1991.23" rx="175.07" ry="127.28" transform="translate(1641.84 5756.6) rotate(-85.56)"/>
      <path class="cls-12" d="m4141.17,1862.23c-4.55,3.49-10.51,6.96-16.22,9.62-5.84,2.69-11.89,4.83-18.03,6.38-12.29,3.12-24.87,3.72-36.99,2.24-12.15-1.59-23.85-5.2-34.89-10.45-11.05-5.18-21.48-11.8-31.26-19.43l-16.84.04c-11.1.03-20.07,8.61-20.04,19.16,0,2.03.38,4.07,1,5.91.69,1.99,1.09,2.85,1.63,4.13l1.56,3.39c1.06,2.21,2.15,4.33,3.32,6.41,2.31,4.16,4.8,8.17,7.53,12.04,5.4,7.75,11.62,15.02,18.73,21.55,14.1,13.09,31.94,23.13,50.9,27.75,9.46,2.32,19.04,3.42,28.46,3.62,9.39-.1,18.64-.71,27.51-2.45,17.84-3.14,34.38-9.05,49.91-16.14,4.73-2.16,6.72-7.56,4.45-12.06-2.07-4.1-6.98-6.04-11.42-4.71l-.07.02c-15.27,4.57-30.84,7.69-46,8.22-7.58.45-14.99-.17-22.16-1.05-7.12-1.17-13.93-2.98-20.26-5.52-12.67-5.11-23.2-13.37-31.41-23.59-4.12-5.1-7.63-10.72-10.53-16.63-1.47-2.93-2.76-5.96-3.86-8.98-.57-1.5-1.07-3.03-1.51-4.49l-.61-2.16c-.14-.58-.4-1.58-.29-1.49l-35.87,25.11c13.81,6.88,28.53,12.61,43.96,16.41,15.37,3.87,31.58,5.57,47.56,4.51,15.98-1.15,31.59-5.14,45.49-11.77,6.96-3.3,13.5-7.21,19.55-11.63,6.1-4.56,11.47-9.16,16.72-15.25,2.37-2.76,1.94-6.82-.96-9.07-2.53-1.97-6.1-1.91-8.55-.03l-.54.41Z"/>
      <ellipse class="cls-1" cx="3996.06" cy="1938.03" rx="36.08" ry="59.55" transform="translate(-6.54 13.53) rotate(-.19)"/>
      <g class="cls-9">
        <ellipse class="cls-1" cx="3875.4" cy="2080.2" rx="21.38" ry="45.68" transform="translate(-161.75 334.52) rotate(-4.84)"/>
      </g>
    </g>
    <g>
      <path class="cls-1" d="m4397.73,935.93c-27.69-41.9-41.34-92.19-35.5-144.81,14.18-127.71,137.63-220.61,275.73-207.5,138.1,13.11,238.56,127.27,224.38,254.98-14.18,127.71-137.63,220.61-275.73,207.5-38.41-3.65-73.9-15.13-104.83-32.53l-116.33,24.13,32.28-101.77Z"/>
      <g class="cls-4">
        <path class="cls-1" d="m4591.55,628.1c129.01-12.25,245.2,68.02,271.5,182.75.03-8.2-.35-16.46-1.28-24.8-14.18-127.71-137.63-220.61-275.73-207.5-138.1,13.11-238.56,127.27-224.38,254.98.93,8.37,2.35,16.58,4.2,24.64.49-117.33,96.64-217.82,225.68-230.07Z"/>
      </g>
      <path class="cls-12" d="m4584.36,1066.45c-37.78-3.59-73.48-14.07-106.23-31.16l-107.82,22.36c-7.67,1.58-15.62-.69-20.97-5.97-5.35-5.28-7.28-12.79-5.08-19.74l29.59-93.29c-27.81-45.65-39.41-97.17-33.6-149.62,7.46-67.2,42.77-127.69,99.44-170.33,56.66-42.64,127.9-62.3,200.55-55.42,72.67,6.9,138.08,39.56,184.19,91.96,46.11,52.4,67.39,118.26,59.93,185.46-7.46,67.2-42.77,127.69-99.44,170.33-49.24,37.06-109.47,56.77-172.1,56.77-9.44,0-18.94-.45-28.45-1.35Zm-116.77-416.03c-47.5,35.74-77.1,86.45-83.35,142.79-5.16,46.53,6.03,92.2,32.37,132.06,3.25,4.92,4.11,10.88,2.35,16.42l-21.71,68.47,79.71-16.53c5.59-1.15,11.44-.26,16.33,2.48,29.21,16.43,61.37,26.41,95.59,29.66,60.9,5.77,120.63-10.71,168.12-46.46,47.5-35.74,77.1-86.45,83.35-142.79,6.26-56.33-11.58-111.54-50.24-155.47-38.65-43.93-93.49-71.3-154.41-77.08-7.98-.76-15.93-1.14-23.85-1.14-52.5,0-103,16.53-144.27,47.6Z"/>
      <g class="cls-10">
        <path class="cls-12" d="m4391.78,933.7c68.85,53.85,163.7,77.44,257.89,55.76,104.46-24.04,181.43-97.6,209.11-186.88.66,11.84.36,23.87-.99,36.03-14.18,127.71-137.63,220.61-275.73,207.5-38.41-3.65-73.9-15.13-104.83-32.53l-116.33,24.13,32.28-101.77c-.49-.73-.93-1.49-1.41-2.23Z"/>
      </g>
      <g>
        <g>
          <circle class="cls-14" cx="4610.39" cy="794.3" r="176.73"/>
          <path class="cls-1" d="m4610.39,979.83c-102.3,0-185.53-83.23-185.53-185.53s83.23-185.53,185.53-185.53,185.53,83.23,185.53,185.53-83.23,185.53-185.53,185.53Zm0-353.46c-92.6,0-167.93,75.34-167.93,167.93s75.34,167.94,167.93,167.94,167.93-75.34,167.93-167.94-75.34-167.93-167.93-167.93Z"/>
        </g>
        <path class="cls-1" d="m4519.8,878.69l13.17-49.14c-7.46-13.46-11.38-28.53-11.38-43.84,0-50.03,40.71-90.74,90.74-90.74s90.74,40.71,90.74,90.74-40.71,90.74-90.74,90.74c-15.02,0-29.86-3.79-43.13-10.99l-49.4,13.23Zm51.85-31.65l3.11,1.86c11.42,6.8,24.41,10.4,37.57,10.4,40.58,0,73.59-33.01,73.59-73.59s-33.01-73.59-73.59-73.59-73.59,33.01-73.59,73.59c0,13.4,3.72,26.59,10.76,38.15l1.91,3.13-7.35,27.44,27.59-7.39Z"/>
        <path class="cls-2" d="m4646.08,798.33c-3.74-2.23-8.59-4.73-12.99-2.93-3.38,1.38-5.53,6.67-7.72,9.36-1.12,1.39-2.46,1.6-4.19.91-12.67-5.05-22.38-13.51-29.37-25.16-1.18-1.81-.97-3.24.45-4.92,2.11-2.49,4.76-5.31,5.34-8.66.57-3.35-1-7.27-2.39-10.25-1.77-3.81-3.75-9.25-7.57-11.41-3.51-1.98-8.14-.87-11.27,1.67-5.4,4.4-8.01,11.29-7.93,18.12.02,1.94.26,3.88.71,5.75,1.09,4.51,3.17,8.71,5.52,12.71,1.77,3.02,3.69,5.94,5.76,8.76,6.78,9.21,15.21,17.21,24.97,23.19,4.88,2.99,10.13,5.61,15.57,7.41,6.1,2.02,11.54,4.11,18.13,2.86,6.9-1.31,13.7-5.58,16.44-12.23.81-1.97,1.22-4.16.76-6.24-.94-4.3-6.76-6.85-10.23-8.93Z"/>
      </g>
    </g>
  </g>
</svg>