<?xml version="1.0" encoding="UTF-8"?>
<svg id="Capa_2" data-name="Capa 2" xmlns="http://www.w3.org/2000/svg" xmlns:xlink="http://www.w3.org/1999/xlink" viewBox="0 0 59.71 95.18">
  <defs>
    <style>
      .cls-1 {
        fill: #fff;
        fill-rule: evenodd;
      }

      .cls-2 {
        fill: url(#Degradado_sin_nombre_8-8);
      }

      .cls-3 {
        fill: url(#Degradado_sin_nombre_8-5);
      }

      .cls-4 {
        fill: url(#Degradado_sin_nombre_8-2);
      }

      .cls-5 {
        fill: url(#Degradado_sin_nombre_8-7);
      }

      .cls-6 {
        fill: url(#Degradado_sin_nombre_8-3);
      }

      .cls-7 {
        fill: url(#Degradado_sin_nombre_8-6);
      }

      .cls-8 {
        fill: url(#Degradado_sin_nombre_8-4);
      }

      .cls-9 {
        fill: url(#Degradado_sin_nombre_8);
      }
    </style>
    <linearGradient id="Degradado_sin_nombre_8" data-name="Degradado sin nombre 8" x1="-36.65" y1="28.41" x2="26.51" y2="74.41" gradientTransform="translate(81.24 50.41) rotate(-79.97) scale(1 -1)" gradientUnits="userSpaceOnUse">
      <stop offset="0" stop-color="#4efab7"/>
      <stop offset="1" stop-color="#34cee3"/>
    </linearGradient>
    <linearGradient id="Degradado_sin_nombre_8-2" data-name="Degradado sin nombre 8" x1="352.74" y1="135.97" x2="357.14" y2="132.71" gradientTransform="translate(-2.25 412.58) rotate(-62.04) scale(1 -1)" xlink:href="#Degradado_sin_nombre_8"/>
    <linearGradient id="Degradado_sin_nombre_8-3" data-name="Degradado sin nombre 8" x1="9.83" y1="43.95" x2="10.61" y2="42.84" gradientTransform="translate(30.06 76.18) scale(1 -1)" xlink:href="#Degradado_sin_nombre_8"/>
    <linearGradient id="Degradado_sin_nombre_8-4" data-name="Degradado sin nombre 8" x1="462.31" y1="223.56" x2="466.1" y2="218.25" gradientTransform="translate(-60.87 546.62) rotate(-55.54) scale(1 -1)" xlink:href="#Degradado_sin_nombre_8"/>
    <linearGradient id="Degradado_sin_nombre_8-5" data-name="Degradado sin nombre 8" x1="7.84" y1="59.72" x2="8.21" y2="57.85" xlink:href="#Degradado_sin_nombre_8"/>
    <linearGradient id="Degradado_sin_nombre_8-6" data-name="Degradado sin nombre 8" x1="283.64" y1="109.32" x2="284.4" y2="105.43" gradientTransform="translate(24.51 323.03) rotate(-66.65) scale(1 -1)" xlink:href="#Degradado_sin_nombre_8"/>
    <linearGradient id="Degradado_sin_nombre_8-7" data-name="Degradado sin nombre 8" x1="-47.38" y1="33.29" x2="-45.8" y2="25.21" xlink:href="#Degradado_sin_nombre_8"/>
    <linearGradient id="Degradado_sin_nombre_8-8" data-name="Degradado sin nombre 8" x1="-44.85" y1="37.15" x2="-44.41" y2="34.87" xlink:href="#Degradado_sin_nombre_8"/>
  </defs>
  <g id="Capa_1-2" data-name="Capa 1">
    <g>
      <g>
        <path class="cls-9" d="m23.71,6.77c-.21,1.17-.15,2.32.14,3.41,1.82,7.4,7.39,13.15,1.5,24.6-3.02,5.87-6.73,10.17-11.85,11.17-1.75.4-3.16.19-4.14-.03-3.18-.72-3.21-2.29-5.62-2.64-1.74-.31-3.39.81-3.69,2.49s.86,3.36,2.61,3.6c5.07.69,7.57,1.85,6.63,5.55-.1.44-.2.88-.27,1.33-2.38,13.46,6.96,26.36,20.86,28.82s27.1-6.46,29.48-19.91c1.99-11.23-4.19-22.08-14.37-26.79-11.67-5.81-12.62-13.3-8.03-21.36,2.05-3.6,3.23-5.63,3.56-9.18S38.17.96,33.53.14s-9.03,2.15-9.83,6.64Z"/>
        <path class="cls-4" d="m46.27,34.75c1.98,1.03,3.26,2.47,2.86,3.21-.4.75-2.34.52-4.32-.51-1.98-1.03-3.26-2.47-2.86-3.21.41-.75,2.34-.51,4.32.51Z"/>
        <ellipse class="cls-6" cx="40.28" cy="32.78" rx=".66" ry=".69" transform="translate(.98 66.74) rotate(-79.97)"/>
        <path class="cls-8" d="m22.4,34.93c.89.6.37,2.84-1.17,5.02s-3.5,3.46-4.39,2.86c-.89-.6-.37-2.84,1.17-5.02,1.53-2.18,3.5-3.46,4.39-2.86Z"/>
        <path class="cls-3" d="m24.91,31.36c.52.09.86.57.77,1.07s-.58.83-1.09.74-.86-.57-.77-1.07.58-.83,1.09-.74Z"/>
        <path class="cls-7" d="m39.85,16.58c.96.41,1.13,2.14.36,3.87s-2.16,2.8-3.12,2.4c-.96-.41-1.13-2.14-.36-3.87s2.16-2.8,3.12-2.4Z"/>
        <path class="cls-5" d="m45.01,87.26c2.24.4,3.74,2.48,3.36,4.64s-2.51,3.6-4.75,3.21-3.74-2.48-3.36-4.64c.38-2.17,2.51-3.6,4.75-3.21Z"/>
        <path class="cls-2" d="m38.2,86.97c.63.11,1.06.7.95,1.31s-.71,1.02-1.34.91-1.06-.7-.95-1.31.71-1.02,1.34-.91Z"/>
      </g>
      <g>
        <path class="cls-1" d="m50.72,58.35c-.22-7.65-7.47-13.79-16.39-13.79s-16,6-16.38,13.53c0,.21-.02.41-.02.62,0,2.68.86,5.17,2.35,7.31l-2.96,7.59,9.08-2.51c2.35,1.12,5.05,1.76,7.92,1.76,9.06,0,16.4-6.33,16.4-14.15,0-.12,0-.24,0-.36Zm-16.39,12.26c-2.8,0-5.4-.72-7.58-1.97l-5.3,1.47,1.72-4.42c-1.65-1.96-2.63-4.37-2.63-6.98,0-.39.02-.77.07-1.15.68-6.02,6.57-10.74,13.72-10.74s13.19,4.84,13.74,10.97c.03.31.05.61.05.93,0,6.56-6.19,11.89-13.79,11.89Z"/>
        <path class="cls-1" d="m41.85,61.57c-.41-.17-2.38-1.01-2.75-1.13-.37-.12-.64-.17-.91.17-.27.35-1.04,1.13-1.27,1.36-.24.23-.47.26-.88.09-.4-.17-1.7-.53-3.23-1.72-1.19-.91-2-2.05-2.23-2.4s-.02-.53.18-.71c.18-.16.4-.41.61-.61.05-.06.1-.11.15-.17.09-.13.16-.25.25-.41.14-.23.07-.43-.03-.61-.1-.17-.91-1.88-1.24-2.58-.33-.69-.67-.57-.91-.57s-.5-.03-.77-.03-.71.09-1.07.43-1.4,1.19-1.4,2.9c0,.4.08.8.21,1.18.41,1.22,1.28,2.23,1.44,2.4.2.23,2.78,3.84,6.86,5.24,4.09,1.38,4.09.92,4.83.86.74-.05,2.38-.83,2.71-1.65.34-.81.34-1.5.24-1.65-.1-.14-.37-.23-.77-.4Z"/>
      </g>
    </g>
  </g>
</svg>