<?xml version="1.0" encoding="UTF-8"?>
<svg id="Capa_2" data-name="Capa 2" xmlns="http://www.w3.org/2000/svg" xmlns:xlink="http://www.w3.org/1999/xlink" viewBox="0 0 61.77 91.77">
  <defs>
    <style>
      .cls-1 {
        fill: #fff;
        fill-rule: evenodd;
      }

      .cls-2 {
        fill: url(#Degradado_sin_nombre_8-8);
      }

      .cls-3 {
        fill: url(#Degradado_sin_nombre_8-5);
      }

      .cls-4 {
        fill: url(#Degradado_sin_nombre_8-2);
      }

      .cls-5 {
        fill: url(#Degradado_sin_nombre_8-7);
      }

      .cls-6 {
        fill: url(#Degradado_sin_nombre_8-3);
      }

      .cls-7 {
        fill: url(#Degradado_sin_nombre_8-6);
      }

      .cls-8 {
        fill: url(#Degradado_sin_nombre_8-4);
      }

      .cls-9 {
        fill: url(#Degradado_sin_nombre_8);
      }
    </style>
    <linearGradient id="Degradado_sin_nombre_8" data-name="Degradado sin nombre 8" x1="-37.08" y1="27.95" x2="26.08" y2="73.95" gradientTransform="translate(80.3 40.77) rotate(-90) scale(1 -1)" gradientUnits="userSpaceOnUse">
      <stop offset="0" stop-color="#4efab7"/>
      <stop offset="1" stop-color="#34cee3"/>
    </linearGradient>
    <linearGradient id="Degradado_sin_nombre_8-2" data-name="Degradado sin nombre 8" x1="352.31" y1="135.52" x2="356.71" y2="132.25" gradientTransform="translate(61.33 411.83) rotate(-72.07) scale(1 -1)" xlink:href="#Degradado_sin_nombre_8"/>
    <linearGradient id="Degradado_sin_nombre_8-3" data-name="Degradado sin nombre 8" x1="9.4" y1="43.49" x2="10.19" y2="42.39" xlink:href="#Degradado_sin_nombre_8"/>
    <linearGradient id="Degradado_sin_nombre_8-4" data-name="Degradado sin nombre 8" x1="461.89" y1="223.11" x2="465.68" y2="217.79" gradientTransform="translate(27.02 554) rotate(-65.58) scale(1 -1)" xlink:href="#Degradado_sin_nombre_8"/>
    <linearGradient id="Degradado_sin_nombre_8-5" data-name="Degradado sin nombre 8" x1="7.42" y1="59.26" x2="7.78" y2="57.4" xlink:href="#Degradado_sin_nombre_8"/>
    <linearGradient id="Degradado_sin_nombre_8-6" data-name="Degradado sin nombre 8" x1="283.21" y1="108.87" x2="283.97" y2="104.98" gradientTransform="translate(72.04 319.01) rotate(-76.69) scale(1 -1)" xlink:href="#Degradado_sin_nombre_8"/>
    <linearGradient id="Degradado_sin_nombre_8-7" data-name="Degradado sin nombre 8" x1="-47.8" y1="32.84" x2="-46.22" y2="24.76" xlink:href="#Degradado_sin_nombre_8"/>
    <linearGradient id="Degradado_sin_nombre_8-8" data-name="Degradado sin nombre 8" x1="-45.28" y1="36.7" x2="-44.83" y2="34.42" xlink:href="#Degradado_sin_nombre_8"/>
  </defs>
  <g id="Capa_1-2" data-name="Capa 1">
    <g>
      <g>
        <path class="cls-9" d="m16.51,8.25c0,1.19.26,2.31.73,3.33,3.09,6.97,9.57,11.66,5.76,23.96-1.95,6.31-4.86,11.19-9.72,13.07-1.65.7-3.08.74-4.08.69-3.26-.16-3.56-1.7-6-1.62-1.76,0-3.2,1.38-3.2,3.09s1.43,3.16,3.2,3.09c5.11-.2,7.78.5,7.49,4.31-.02.45-.04.9-.04,1.36,0,13.67,11.44,24.74,25.56,24.74s25.56-11.08,25.56-24.74c0-11.41-7.97-21.01-18.82-23.87-12.51-3.68-14.75-10.89-11.63-19.63,1.39-3.9,2.2-6.11,1.91-9.66S29.73,0,25.03,0s-8.52,3.69-8.52,8.25Z"/>
        <path class="cls-4" d="m43.59,31.86c2.13.67,3.64,1.86,3.37,2.67-.27.8-2.22.91-4.35.25-2.13-.67-3.64-1.86-3.37-2.67.27-.8,2.22-.91,4.35-.25Z"/>
        <ellipse class="cls-6" cx="37.36" cy="30.97" rx=".69" ry=".66"/>
        <path class="cls-8" d="m20.12,36.2c.98.43.86,2.74-.27,5.15s-2.84,4.02-3.82,3.59c-.98-.43-.86-2.74.27-5.15,1.13-2.41,2.84-4.02,3.82-3.59Z"/>
        <path class="cls-3" d="m21.97,32.25c.52,0,.95.41.95.92s-.42.92-.95.92-.95-.41-.95-.92.42-.92.95-.92Z"/>
        <path class="cls-7" d="m34.12,15.1c1.02.23,1.48,1.91,1.03,3.75s-1.64,3.14-2.66,2.9c-1.02-.23-1.48-1.91-1.03-3.75s1.64-3.14,2.66-2.9Z"/>
        <path class="cls-5" d="m51.5,83.79c2.27,0,4.12,1.79,4.12,3.99s-1.84,3.99-4.12,3.99-4.12-1.79-4.12-3.99c0-2.2,1.84-3.99,4.12-3.99Z"/>
        <path class="cls-2" d="m44.74,84.7c.64,0,1.17.51,1.17,1.13s-.52,1.13-1.17,1.13-1.17-.51-1.17-1.13.52-1.13,1.17-1.13Z"/>
      </g>
      <g>
        <path class="cls-1" d="m54.3,57.9c-.22-7.65-7.47-13.79-16.39-13.79s-16,6-16.38,13.53c0,.21-.02.41-.02.62,0,2.68.86,5.17,2.35,7.31l-2.96,7.59,9.08-2.51c2.35,1.12,5.05,1.76,7.92,1.76,9.06,0,16.4-6.33,16.4-14.15,0-.12,0-.24,0-.36Zm-16.39,12.26c-2.8,0-5.4-.72-7.58-1.97l-5.3,1.47,1.72-4.42c-1.65-1.96-2.63-4.37-2.63-6.98,0-.39.02-.77.07-1.15.68-6.02,6.57-10.74,13.72-10.74s13.19,4.84,13.74,10.97c.03.31.05.61.05.93,0,6.56-6.19,11.89-13.79,11.89Z"/>
        <path class="cls-1" d="m45.42,61.11c-.41-.17-2.38-1.01-2.75-1.13-.37-.12-.64-.17-.91.17-.27.35-1.04,1.13-1.27,1.36-.24.23-.47.26-.88.09-.4-.17-1.7-.53-3.23-1.72-1.19-.91-2-2.05-2.23-2.4s-.02-.53.18-.71c.18-.16.4-.41.61-.61.05-.06.1-.11.15-.17.09-.13.16-.25.25-.41.14-.23.07-.43-.03-.61-.1-.17-.91-1.88-1.24-2.58-.33-.69-.67-.57-.91-.57s-.5-.03-.77-.03-.71.09-1.07.43-1.4,1.19-1.4,2.9c0,.4.08.8.21,1.18.41,1.22,1.28,2.23,1.44,2.4.2.23,2.78,3.84,6.86,5.24,4.09,1.38,4.09.92,4.83.86.74-.05,2.38-.83,2.71-1.65.34-.81.34-1.5.24-1.65-.1-.14-.37-.23-.77-.4Z"/>
      </g>
    </g>
  </g>
</svg>