<?xml version="1.0" encoding="UTF-8"?>
<svg id="Capa_2" data-name="Capa 2" xmlns="http://www.w3.org/2000/svg" xmlns:xlink="http://www.w3.org/1999/xlink" viewBox="0 0 129.5 84.38">
  <defs>
    <style>
      .cls-1 {
        fill: #fff;
        fill-rule: evenodd;
      }

      .cls-2 {
        fill: url(#Degradado_sin_nombre_8-8);
      }

      .cls-3 {
        fill: url(#Degradado_sin_nombre_8-5);
      }

      .cls-4 {
        fill: url(#Degradado_sin_nombre_8-2);
      }

      .cls-5 {
        fill: url(#Degradado_sin_nombre_8-7);
      }

      .cls-6 {
        fill: url(#Degradado_sin_nombre_8-3);
      }

      .cls-7 {
        fill: url(#Degradado_sin_nombre_8-6);
      }

      .cls-8 {
        fill: url(#Degradado_sin_nombre_8-4);
      }

      .cls-9 {
        fill: url(#Degradado_sin_nombre_8);
      }
    </style>
    <linearGradient id="Degradado_sin_nombre_8" data-name="Degradado sin nombre 8" x1="20.23" y1="13.46" x2="108.71" y2="77.9" gradientTransform="translate(0 85.83) scale(1 -1)" gradientUnits="userSpaceOnUse">
      <stop offset="0" stop-color="#4efab7"/>
      <stop offset="1" stop-color="#34cee3"/>
    </linearGradient>
    <linearGradient id="Degradado_sin_nombre_8-2" data-name="Degradado sin nombre 8" x1="423.51" y1="139.45" x2="429.5" y2="135" gradientTransform="translate(-365.55 58.12) rotate(17.93) scale(1 -1)" xlink:href="#Degradado_sin_nombre_8"/>
    <linearGradient id="Degradado_sin_nombre_8-3" data-name="Degradado sin nombre 8" x1="85.25" y1="35.55" x2="86.33" y2="34.03" xlink:href="#Degradado_sin_nombre_8"/>
    <linearGradient id="Degradado_sin_nombre_8-4" data-name="Degradado sin nombre 8" x1="524.54" y1="239.16" x2="529.75" y2="231.85" gradientTransform="translate(-505.1 21.13) rotate(24.42) scale(1 -1)" xlink:href="#Degradado_sin_nombre_8"/>
    <linearGradient id="Degradado_sin_nombre_8-5" data-name="Degradado sin nombre 8" x1="82.44" y1="57.09" x2="82.94" y2="54.54" xlink:href="#Degradado_sin_nombre_8"/>
    <linearGradient id="Degradado_sin_nombre_8-6" data-name="Degradado sin nombre 8" x1="361.39" y1="114.43" x2="362.43" y2="109.11" gradientTransform="translate(-274.41 70.91) rotate(13.31) scale(1 -1)" xlink:href="#Degradado_sin_nombre_8"/>
    <linearGradient id="Degradado_sin_nombre_8-7" data-name="Degradado sin nombre 8" x1="4.55" y1="20.99" x2="6.71" y2="9.95" xlink:href="#Degradado_sin_nombre_8"/>
    <linearGradient id="Degradado_sin_nombre_8-8" data-name="Degradado sin nombre 8" x1="8.08" y1="26.27" x2="8.69" y2="23.14" xlink:href="#Degradado_sin_nombre_8"/>
  </defs>
  <g id="Capa_1-2" data-name="Capa 1">
    <g>
      <g>
        <path class="cls-9" d="m117.86,22.55c-1.67,0-3.27.36-4.7.99-9.84,4.21-16.45,13.07-33.81,7.87-8.9-2.67-15.79-6.63-18.44-13.28-.99-2.25-1.05-4.2-.98-5.58.22-4.45,2.4-4.87,2.28-8.19,0-2.41-1.95-4.37-4.36-4.37s-4.46,1.96-4.36,4.37c.29,6.99-.71,10.63-6.09,10.24-.63-.03-1.27-.05-1.91-.05-19.28,0-34.92,15.63-34.92,34.92s15.63,34.92,34.92,34.92c16.1,0,29.65-10.89,33.69-25.71,5.2-17.09,15.37-20.14,27.7-15.88,5.5,1.9,8.62,3.01,13.64,2.61s8.99-4.78,8.99-11.21-5.21-11.64-11.64-11.64Z"/>
        <path class="cls-4" d="m84.53,59.55c-.94,2.91-2.63,4.98-3.76,4.61-1.14-.37-1.29-3.03-.35-5.94.94-2.91,2.63-4.98,3.76-4.61,1.13.37,1.29,3.03.35,5.94Z"/>
        <circle class="cls-6" cx="85.79" cy="51.04" r=".94"/>
        <path class="cls-8" d="m78.42,27.49c-.61,1.34-3.86,1.17-7.26-.37s-5.67-3.88-5.06-5.22c.61-1.34,3.86-1.17,7.26.37,3.4,1.55,5.67,3.88,5.06,5.22Z"/>
        <path class="cls-3" d="m83.99,30.01c0,.72-.58,1.3-1.3,1.3s-1.3-.58-1.3-1.3.58-1.3,1.3-1.3,1.3.58,1.3,1.3Z"/>
        <path class="cls-7" d="m108.2,46.6c-.33,1.39-2.7,2.02-5.29,1.41s-4.43-2.24-4.1-3.63c.33-1.39,2.7-2.02,5.29-1.41s4.43,2.24,4.1,3.63Z"/>
        <path class="cls-5" d="m11.25,70.36c0,3.11-2.52,5.63-5.63,5.63s-5.63-2.52-5.63-5.63,2.52-5.63,5.63-5.63c3.11,0,5.63,2.52,5.63,5.63Z"/>
        <path class="cls-2" d="m9.98,61.12c0,.88-.71,1.59-1.59,1.59s-1.59-.71-1.59-1.59.71-1.59,1.59-1.59,1.59.71,1.59,1.59Z"/>
      </g>
      <g>
        <path class="cls-1" d="m66.18,46.42c-.29-11.39-9.67-20.53-21.22-20.53s-20.71,8.93-21.21,20.15c0,.31-.02.62-.02.92,0,3.99,1.11,7.7,3.04,10.88l-3.83,11.3,11.76-3.74c3.04,1.67,6.54,2.62,10.26,2.62,11.73,0,21.23-9.43,21.23-21.07,0-.18,0-.36-.01-.54Zm-21.22,18.25c-3.63,0-7-1.07-9.82-2.93l-6.86,2.19,2.23-6.58c-2.14-2.92-3.4-6.51-3.4-10.39,0-.58.03-1.15.09-1.72.88-8.96,8.51-15.99,17.76-15.99s17.07,7.21,17.79,16.33c.04.46.06.91.06,1.38,0,9.77-8.01,17.71-17.85,17.71Z"/>
        <path class="cls-1" d="m54.7,51.21c-.53-.26-3.08-1.51-3.56-1.68-.48-.18-.82-.26-1.17.26-.35.52-1.35,1.68-1.65,2.02-.31.35-.61.39-1.13.13-.52-.26-2.2-.79-4.18-2.56-1.54-1.36-2.59-3.05-2.89-3.57s-.03-.79.23-1.05c.24-.24.52-.61.79-.9.07-.09.13-.17.19-.25.12-.19.21-.37.33-.62.18-.35.09-.65-.04-.9-.13-.26-1.17-2.8-1.61-3.84-.43-1.03-.86-.85-1.17-.85s-.65-.05-.99-.05-.91.13-1.39.65-1.82,1.77-1.82,4.31c0,.6.11,1.19.27,1.76.53,1.82,1.66,3.32,1.86,3.58.26.34,3.6,5.72,8.88,7.8,5.3,2.06,5.3,1.37,6.25,1.28.95-.08,3.08-1.24,3.51-2.46.44-1.2.44-2.24.31-2.46-.13-.21-.48-.34-.99-.6Z"/>
      </g>
    </g>
  </g>
</svg>