<?xml version="1.0" encoding="UTF-8"?>
<svg id="Capa_2" data-name="Capa 2" xmlns="http://www.w3.org/2000/svg" viewBox="0 0 28.08 27">
  <defs>
    <style>
      .cls-1 {
        fill: #fff;
      }

      .cls-2 {
        fill: #d346b9;
      }

      .cls-3 {
        fill: #ea81d1;
      }
    </style>
  </defs>
  <g id="Capa_1-2" data-name="Capa 1">
    <ellipse class="cls-2" cx="16.08" cy="14.34" rx="12" ry="11"/>
    <ellipse class="cls-3" cx="16.08" cy="14.34" rx="11.5" ry="10.5"/>
    <path class="cls-1" d="m19.17,6.24c-.07.06-.16.09-.26.09-2.8-.07-5.59.94-7.86,2.84-2.27,1.9-3.71,4.44-4.06,7.15-.02.18-.18.32-.37.33-.19,0-.36-.12-.4-.29-.79-3.38.4-6.89,3.1-9.14,2.69-2.25,6.41-2.87,9.72-1.62.07.02.13.06.18.12.14.16.12.4-.04.53h0Z"/>
    <ellipse class="cls-2" cx="6.04" cy="5.54" rx="6.04" ry="5.54"/>
    <ellipse class="cls-3" cx="6.04" cy="5.54" rx="5.79" ry="5.29"/>
    <path class="cls-1" d="m7.59,1.46s-.08.05-.13.05c-1.41-.04-2.82.47-3.96,1.43-1.14.96-1.87,2.24-2.04,3.6-.01.09-.09.16-.18.17-.09,0-.18-.06-.2-.15-.4-1.7.2-3.47,1.56-4.6,1.35-1.13,3.23-1.45,4.89-.82.03.01.07.03.09.06.07.08.06.2-.02.27h0Z"/>
    <ellipse class="cls-2" cx="22.91" cy="24.17" rx="3.09" ry="2.83"/>
    <ellipse class="cls-3" cx="22.91" cy="24.17" rx="2.96" ry="2.7"/>
    <path class="cls-1" d="m23.71,22.08s-.04.02-.07.02c-.72-.02-1.44.24-2.02.73-.58.49-.96,1.14-1.05,1.84,0,.05-.05.08-.09.09-.05,0-.09-.03-.1-.08-.2-.87.1-1.77.8-2.35.69-.58,1.65-.74,2.5-.42.02,0,.03.02.05.03.04.04.03.1-.01.14h0Z"/>
  </g>
</svg>