<?xml version="1.0" encoding="UTF-8"?>
<svg id="Capa_2" data-name="Capa 2" xmlns="http://www.w3.org/2000/svg" viewBox="0 0 28.9 24.24">
  <defs>
    <style>
      .cls-1 {
        fill: #fff;
      }

      .cls-2 {
        fill: #b5a76b;
      }

      .cls-3 {
        fill: #e8d482;
      }
    </style>
  </defs>
  <g id="Capa_1-2" data-name="Capa 1">
    <ellipse class="cls-2" cx="15.13" cy="11" rx="12" ry="11"/>
    <ellipse class="cls-3" cx="15.13" cy="11" rx="11.5" ry="10.5"/>
    <path class="cls-1" d="m18.22,2.9c-.07.06-.16.09-.26.09-2.8-.07-5.59.94-7.86,2.84-2.27,1.9-3.71,4.44-4.06,7.15-.02.18-.18.32-.37.33-.19,0-.36-.12-.4-.29-.79-3.38.4-6.89,3.1-9.14,2.69-2.25,6.41-2.87,9.72-1.62.07.02.13.06.18.12.14.16.12.4-.04.53h0Z"/>
    <ellipse class="cls-2" cx="3.95" cy="4.62" rx="3.95" ry="3.62"/>
    <ellipse class="cls-3" cx="3.95" cy="4.62" rx="3.78" ry="3.45"/>
    <path class="cls-1" d="m4.96,1.95s-.05.03-.09.03c-.92-.02-1.84.31-2.59.93-.75.63-1.22,1.46-1.34,2.35,0,.06-.06.11-.12.11-.06,0-.12-.04-.13-.1-.26-1.11.13-2.27,1.02-3.01.88-.74,2.11-.95,3.2-.53.02,0,.04.02.06.04.05.05.04.13-.01.18h0Z"/>
    <ellipse class="cls-2" cx="24.4" cy="20.12" rx="4.49" ry="4.12"/>
    <ellipse class="cls-3" cx="24.4" cy="20.12" rx="4.31" ry="3.93"/>
    <path class="cls-1" d="m25.56,17.09s-.06.04-.1.03c-1.05-.03-2.09.35-2.94,1.06-.85.71-1.39,1.66-1.52,2.68,0,.07-.07.12-.14.12-.07,0-.13-.04-.15-.11-.29-1.27.15-2.58,1.16-3.42,1.01-.84,2.4-1.08,3.64-.61.03,0,.05.02.07.04.05.06.05.15-.02.2h0Z"/>
    <ellipse class="cls-2" cx="27.13" cy="16.62" rx="1.77" ry="1.62"/>
    <ellipse class="cls-3" cx="27.13" cy="16.62" rx="1.69" ry="1.55"/>
    <path class="cls-1" d="m27.58,15.43s-.02.01-.04.01c-.41-.01-.82.14-1.16.42-.33.28-.55.65-.6,1.05,0,.03-.03.05-.05.05-.03,0-.05-.02-.06-.04-.12-.5.06-1.01.46-1.35.4-.33.94-.42,1.43-.24.01,0,.02,0,.03.02.02.02.02.06,0,.08h0Z"/>
    <ellipse class="cls-2" cx="21.9" cy="16.24" rx="1.77" ry="1.62"/>
    <ellipse class="cls-3" cx="21.9" cy="16.24" rx="1.69" ry="1.55"/>
    <path class="cls-1" d="m22.35,15.05s-.02.01-.04.01c-.41-.01-.82.14-1.16.42-.33.28-.55.65-.6,1.05,0,.03-.03.05-.05.05-.03,0-.05-.02-.06-.04-.12-.5.06-1.01.46-1.35.4-.33.94-.42,1.43-.24.01,0,.02,0,.03.02.02.02.02.06,0,.08h0Z"/>
  </g>
</svg>