<?xml version="1.0" encoding="UTF-8"?>
<svg id="Capa_2" data-name="Capa 2" xmlns="http://www.w3.org/2000/svg" viewBox="0 0 24.76 27.24">
  <defs>
    <style>
      .cls-1 {
        fill: #fff;
      }

      .cls-2 {
        fill: #3251b2;
      }

      .cls-3 {
        fill: #8196ea;
      }
    </style>
  </defs>
  <g id="Capa_1-2" data-name="Capa 1">
    <ellipse class="cls-2" cx="12" cy="13" rx="12" ry="11"/>
    <ellipse class="cls-3" cx="12" cy="13" rx="11.5" ry="10.5"/>
    <path class="cls-1" d="m15.08,4.9c-.07.06-.16.09-.26.09-2.8-.07-5.59.94-7.86,2.84-2.27,1.9-3.71,4.44-4.06,7.15-.02.18-.18.32-.37.33-.19,0-.36-.12-.4-.29-.79-3.38.4-6.89,3.1-9.14,2.69-2.25,6.41-2.87,9.72-1.62.07.02.13.06.18.12.14.16.12.4-.04.53h0Z"/>
    <ellipse class="cls-2" cx="19.36" cy="3.12" rx="3.4" ry="3.12"/>
    <ellipse class="cls-3" cx="19.36" cy="3.12" rx="3.26" ry="2.98"/>
    <path class="cls-1" d="m20.23.82s-.05.03-.07.03c-.79-.02-1.59.27-2.23.81-.64.54-1.05,1.26-1.15,2.03,0,.05-.05.09-.1.09-.05,0-.1-.03-.11-.08-.22-.96.11-1.95.88-2.59.76-.64,1.82-.81,2.75-.46.02,0,.04.02.05.03.04.04.03.11-.01.15h0Z"/>
    <ellipse class="cls-2" cx="7.38" cy="23.62" rx="4.38" ry="3.62"/>
    <ellipse class="cls-3" cx="7.38" cy="23.62" rx="4.2" ry="3.45"/>
    <path class="cls-1" d="m8.51,20.95s-.06.03-.1.03c-1.02-.02-2.04.31-2.87.93-.83.63-1.36,1.46-1.48,2.35,0,.06-.07.11-.13.11-.07,0-.13-.04-.15-.1-.29-1.11.15-2.27,1.13-3.01.98-.74,2.34-.95,3.55-.53.03,0,.05.02.07.04.05.05.04.13-.02.18h0Z"/>
    <ellipse class="cls-2" cx="23" cy="11.62" rx="1.77" ry="1.62"/>
    <ellipse class="cls-3" cx="23" cy="11.62" rx="1.69" ry="1.55"/>
    <path class="cls-1" d="m23.45,10.43s-.02.01-.04.01c-.41-.01-.82.14-1.16.42-.33.28-.55.65-.6,1.05,0,.03-.03.05-.05.05-.03,0-.05-.02-.06-.04-.12-.5.06-1.01.46-1.35.4-.33.94-.42,1.43-.24.01,0,.02,0,.03.02.02.02.02.06,0,.08h0Z"/>
  </g>
</svg>