<?xml version="1.0" encoding="UTF-8"?>
<svg id="Capa_2" data-name="Capa 2" xmlns="http://www.w3.org/2000/svg" viewBox="0 0 25.99 23.65">
  <defs>
    <style>
      .cls-1 {
        fill: #fff;
      }

      .cls-2 {
        fill: #2fa8a5;
      }

      .cls-3 {
        fill: #82e8e8;
      }
    </style>
  </defs>
  <g id="Capa_1-2" data-name="Capa 1">
    <ellipse class="cls-2" cx="12" cy="11" rx="12" ry="11"/>
    <ellipse class="cls-3" cx="12" cy="11" rx="11.5" ry="10.5"/>
    <path class="cls-1" d="m15.08,2.9c-.07.06-.16.09-.26.09-2.8-.07-5.59.94-7.86,2.84-2.27,1.9-3.71,4.44-4.06,7.15-.02.18-.18.32-.37.33-.19,0-.36-.12-.4-.29-.79-3.38.4-6.89,3.1-9.14,2.69-2.25,6.41-2.87,9.72-1.62.07.02.13.06.18.12.14.16.12.4-.04.53h0Z"/>
    <ellipse class="cls-2" cx="4.5" cy="20.45" rx="3.5" ry="3.21"/>
    <ellipse class="cls-3" cx="4.5" cy="20.45" rx="3.35" ry="3.06"/>
    <path class="cls-1" d="m5.4,18.08s-.05.03-.08.03c-.82-.02-1.63.27-2.29.83-.66.55-1.08,1.3-1.18,2.08,0,.05-.05.09-.11.1-.06,0-.1-.03-.12-.09-.23-.99.12-2.01.9-2.67.78-.66,1.87-.84,2.83-.47.02,0,.04.02.05.03.04.05.04.12-.01.16h0Z"/>
    <ellipse class="cls-2" cx="20.95" cy="5.62" rx="5.04" ry="4.62"/>
    <ellipse class="cls-3" cx="20.95" cy="5.62" rx="4.83" ry="4.41"/>
    <path class="cls-1" d="m22.25,2.22s-.07.04-.11.04c-1.18-.03-2.35.39-3.3,1.19-.95.8-1.56,1.86-1.71,3,0,.08-.07.14-.15.14-.08,0-.15-.05-.17-.12-.33-1.42.17-2.89,1.3-3.84,1.13-.95,2.69-1.21,4.08-.68.03,0,.06.02.08.05.06.07.05.17-.02.22h0Z"/>
  </g>
</svg>