<?xml version="1.0" encoding="UTF-8"?>
<svg xmlns="http://www.w3.org/2000/svg" xmlns:xlink="http://www.w3.org/1999/xlink" viewBox="0 0 217.96 217.96">
  <defs>
    <style>
      .cls-1 {
        fill: url(#linear-gradient-2);
      }

      .cls-2, .cls-3, .cls-4 {
        fill: #fff;
      }

      .cls-3, .cls-4, .cls-5, .cls-6, .cls-7, .cls-8, .cls-9, .cls-10, .cls-11, .cls-12 {
        fill-rule: evenodd;
      }

      .cls-4 {
        mix-blend-mode: soft-light;
      }

      .cls-4, .cls-13, .cls-5, .cls-7 {
        opacity: .5;
      }

      .cls-14 {
        isolation: isolate;
      }

      .cls-15 {
        fill: url(#Gradient_6-4);
      }

      .cls-13 {
        fill: #97429a;
      }

      .cls-13, .cls-5, .cls-16, .cls-7, .cls-9, .cls-12 {
        mix-blend-mode: multiply;
      }

      .cls-5 {
        fill: url(#_Áåçûìÿííûé_ãðàäèåíò_44);
      }

      .cls-16 {
        fill: url(#_Áåçûìÿííûé_ãðàäèåíò_521);
        opacity: .66;
      }

      .cls-17 {
        fill: url(#Gradient_2);
      }

      .cls-6 {
        fill: url(#_Áåçûìÿííûé_ãðàäèåíò_529);
      }

      .cls-7 {
        fill: url(#_Áåçûìÿííûé_ãðàäèåíò_498);
      }

      .cls-8 {
        fill: url(#_Áåçûìÿííûé_ãðàäèåíò_540);
      }

      .cls-8, .cls-18, .cls-19, .cls-10, .cls-11 {
        mix-blend-mode: screen;
      }

      .cls-9 {
        fill: #bdd8ff;
      }

      .cls-20 {
        fill: url(#Gradient_6);
      }

      .cls-18 {
        fill: url(#_Áåçûìÿííûé_ãðàäèåíò_274);
      }

      .cls-19 {
        fill: url(#_Áåçûìÿííûé_ãðàäèåíò_271);
      }

      .cls-10 {
        fill: url(#_Áåçûìÿííûé_ãðàäèåíò_508);
      }

      .cls-21 {
        fill: url(#Gradient_6-3);
      }

      .cls-22 {
        fill: url(#Gradient_6-2);
      }

      .cls-23 {
        fill: url(#linear-gradient);
      }

      .cls-11 {
        fill: url(#_Áåçûìÿííûé_ãðàäèåíò_538);
      }

      .cls-24 {
        fill: url(#Gradient_5);
      }

      .cls-25 {
        fill: #b8ecff;
      }

      .cls-12 {
        fill: url(#_Áåçûìÿííûé_ãðàäèåíò_533);
        opacity: .3;
      }
    </style>
    <radialGradient id="_Áåçûìÿííûé_ãðàäèåíò_271" data-name="Áåçûìÿííûé ãðàäèåíò 271" cx="108.98" cy="108.98" fx="108.98" fy="108.98" r="108.98" gradientTransform="translate(108.98 -45.14) rotate(45)" gradientUnits="userSpaceOnUse">
      <stop offset=".46" stop-color="blue"/>
      <stop offset=".49" stop-color="#0000f1"/>
      <stop offset=".68" stop-color="#00008b"/>
      <stop offset=".84" stop-color="#000040"/>
      <stop offset=".95" stop-color="#001"/>
      <stop offset="1" stop-color="#000"/>
    </radialGradient>
    <radialGradient id="_Áåçûìÿííûé_ãðàäèåíò_274" data-name="Áåçûìÿííûé ãðàäèåíò 274" cx="108.98" cy="112.27" fx="108.98" fy="112.27" r="94.88" gradientTransform="translate(111.3 -44.18) rotate(45)" gradientUnits="userSpaceOnUse">
      <stop offset=".46" stop-color="#00a1ff"/>
      <stop offset=".49" stop-color="#0098f1"/>
      <stop offset=".68" stop-color="#00588b"/>
      <stop offset=".84" stop-color="#002840"/>
      <stop offset=".95" stop-color="#000b11"/>
      <stop offset="1" stop-color="#000"/>
    </radialGradient>
    <radialGradient id="_Áåçûìÿííûé_ãðàäèåíò_529" data-name="Áåçûìÿííûé ãðàäèåíò 529" cx="105.5" cy="129.59" fx="105.5" fy="129.59" r="81.47" gradientUnits="userSpaceOnUse">
      <stop offset="0" stop-color="#8dfaff"/>
      <stop offset=".13" stop-color="#89f7ff"/>
      <stop offset=".25" stop-color="#7defff"/>
      <stop offset=".37" stop-color="#69e3ff"/>
      <stop offset=".5" stop-color="#4ed1ff"/>
      <stop offset=".54" stop-color="#43caff"/>
      <stop offset=".61" stop-color="#4ab3ff"/>
      <stop offset=".75" stop-color="#5c77ff"/>
      <stop offset=".95" stop-color="#7919ff"/>
      <stop offset="1" stop-color="#8100ff"/>
    </radialGradient>
    <linearGradient id="_Áåçûìÿííûé_ãðàäèåíò_533" data-name="Áåçûìÿííûé ãðàäèåíò 533" x1="107.29" y1="182.06" x2="107.29" y2="30.95" gradientUnits="userSpaceOnUse">
      <stop offset="0" stop-color="#fff"/>
      <stop offset=".1" stop-color="#d2cdf5"/>
      <stop offset=".22" stop-color="#a197ea"/>
      <stop offset=".34" stop-color="#7769e1"/>
      <stop offset=".46" stop-color="#5443d9"/>
      <stop offset=".58" stop-color="#3a25d3"/>
      <stop offset=".7" stop-color="#2710cf"/>
      <stop offset=".81" stop-color="#1b04cc"/>
      <stop offset=".92" stop-color="#1800cc"/>
    </linearGradient>
    <linearGradient id="_Áåçûìÿííûé_ãðàäèåíò_498" data-name="Áåçûìÿííûé ãðàäèåíò 498" x1="130.57" y1="139.88" x2="130.57" y2="35.91" gradientUnits="userSpaceOnUse">
      <stop offset="0" stop-color="#fff"/>
      <stop offset=".11" stop-color="#d2cde9"/>
      <stop offset=".24" stop-color="#a197d2"/>
      <stop offset=".37" stop-color="#7769bd"/>
      <stop offset=".5" stop-color="#5443ad"/>
      <stop offset=".63" stop-color="#3a25a0"/>
      <stop offset=".76" stop-color="#271097"/>
      <stop offset=".88" stop-color="#1b0491"/>
      <stop offset="1" stop-color="#180090"/>
    </linearGradient>
    <linearGradient id="_Áåçûìÿííûé_ãðàäèåíò_44" data-name="Áåçûìÿííûé ãðàäèåíò 44" x1="108.98" y1="192.92" x2="108.98" y2="30.95" gradientUnits="userSpaceOnUse">
      <stop offset="0" stop-color="#fff"/>
      <stop offset=".17" stop-color="#fcfbfc"/>
      <stop offset=".3" stop-color="#f3f2f6"/>
      <stop offset=".42" stop-color="#e4e1eb"/>
      <stop offset=".53" stop-color="#cec9db"/>
      <stop offset=".64" stop-color="#b3abc6"/>
      <stop offset=".74" stop-color="#9186ad"/>
      <stop offset=".84" stop-color="#695a8f"/>
      <stop offset=".93" stop-color="#3c286e"/>
      <stop offset="1" stop-color="#180053"/>
    </linearGradient>
    <radialGradient id="_Áåçûìÿííûé_ãðàäèåíò_508" data-name="Áåçûìÿííûé ãðàäèåíò 508" cx="108.98" cy="110.45" fx="108.98" fy="110.45" r="81.47" gradientTransform="translate(0 2.44) scale(1 .98)" gradientUnits="userSpaceOnUse">
      <stop offset=".71" stop-color="#000"/>
      <stop offset=".74" stop-color="#000911"/>
      <stop offset=".8" stop-color="#002340"/>
      <stop offset=".88" stop-color="#004d8b"/>
      <stop offset=".99" stop-color="#0086f1"/>
      <stop offset="1" stop-color="#008eff"/>
    </radialGradient>
    <radialGradient id="_Áåçûìÿííûé_ãðàäèåíò_538" data-name="Áåçûìÿííûé ãðàäèåíò 538" cx="108.98" cy="110.45" fx="108.98" fy="110.45" r="83.46" gradientTransform="translate(0 2.44) scale(1 .98)" gradientUnits="userSpaceOnUse">
      <stop offset=".9" stop-color="#000"/>
      <stop offset=".91" stop-color="#000d11"/>
      <stop offset=".93" stop-color="#002f40"/>
      <stop offset=".96" stop-color="#00668b"/>
      <stop offset="1" stop-color="#00b1f1"/>
      <stop offset="1" stop-color="#0bf"/>
    </radialGradient>
    <radialGradient id="_Áåçûìÿííûé_ãðàäèåíò_521" data-name="Áåçûìÿííûé ãðàäèåíò 521" cx="88.27" cy="92.42" fx="88.27" fy="92.42" r="57.32" gradientUnits="userSpaceOnUse">
      <stop offset="0" stop-color="#18007e"/>
      <stop offset=".09" stop-color="#1d0681"/>
      <stop offset=".22" stop-color="#2e188a"/>
      <stop offset=".36" stop-color="#493699"/>
      <stop offset=".53" stop-color="#6e5fae"/>
      <stop offset=".7" stop-color="#9e94c9"/>
      <stop offset=".89" stop-color="#d8d4e9"/>
      <stop offset="1" stop-color="#fff"/>
    </radialGradient>
    <radialGradient id="_Áåçûìÿííûé_ãðàäèåíò_540" data-name="Áåçûìÿííûé ãðàäèåíò 540" cx="132.12" cy="-56.6" fx="132.12" fy="-56.6" r="27.59" gradientTransform="translate(-32.56 149.14) rotate(-34.76) scale(1 .66)" gradientUnits="userSpaceOnUse">
      <stop offset="0" stop-color="#00a1ff"/>
      <stop offset=".06" stop-color="#0091e5"/>
      <stop offset=".21" stop-color="#006ba9"/>
      <stop offset=".35" stop-color="#004a75"/>
      <stop offset=".5" stop-color="#002f4b"/>
      <stop offset=".64" stop-color="#001a2a"/>
      <stop offset=".77" stop-color="#000c13"/>
      <stop offset=".89" stop-color="#000304"/>
      <stop offset="1" stop-color="#000"/>
    </radialGradient>
    <linearGradient id="Gradient_2" data-name="Gradient 2" x1="112.56" y1="136.09" x2="112.56" y2="113.67" gradientUnits="userSpaceOnUse">
      <stop offset="0" stop-color="#aa2c00"/>
      <stop offset=".22" stop-color="#a62a01"/>
      <stop offset=".41" stop-color="#9b2505"/>
      <stop offset=".6" stop-color="#891d0c"/>
      <stop offset=".78" stop-color="#6f1216"/>
      <stop offset=".96" stop-color="#4e0323"/>
      <stop offset="1" stop-color="#450027"/>
    </linearGradient>
    <linearGradient id="Gradient_5" data-name="Gradient 5" x1="111.88" y1="135.42" x2="111.88" y2="115.25" gradientUnits="userSpaceOnUse">
      <stop offset="0" stop-color="#630612"/>
      <stop offset=".29" stop-color="#5e0612"/>
      <stop offset=".62" stop-color="#500812"/>
      <stop offset=".98" stop-color="#390b12"/>
      <stop offset="1" stop-color="#380c13"/>
    </linearGradient>
    <linearGradient id="Gradient_6" data-name="Gradient 6" x1="103.92" y1="126.79" x2="103.92" y2="116.57" gradientUnits="userSpaceOnUse">
      <stop offset="0" stop-color="#ffd6db"/>
      <stop offset=".73" stop-color="#e5a7b9"/>
      <stop offset="1" stop-color="#db95ac"/>
    </linearGradient>
    <linearGradient id="Gradient_6-2" data-name="Gradient 6" x1="120.26" y1="126.79" x2="120.26" xlink:href="#Gradient_6"/>
    <linearGradient id="Gradient_6-3" data-name="Gradient 6" x1="104.06" y1="135.41" x2="104.06" y2="123.76" xlink:href="#Gradient_6"/>
    <linearGradient id="Gradient_6-4" data-name="Gradient 6" x1="120.42" y1="135.49" x2="120.42" y2="123.65" xlink:href="#Gradient_6"/>
    <linearGradient id="linear-gradient" x1="130.62" y1="99.46" x2="95.07" y2="99.46" gradientTransform="translate(174.78) rotate(-180) scale(1 -1)" gradientUnits="userSpaceOnUse">
      <stop offset="0" stop-color="#150d45"/>
      <stop offset=".43" stop-color="#190448"/>
      <stop offset="1" stop-color="#1c004a"/>
    </linearGradient>
    <linearGradient id="linear-gradient-2" x1="-511.72" y1="99.46" x2="-547.27" y2="99.46" gradientTransform="translate(688.85)" xlink:href="#linear-gradient"/>
  </defs>
  <g class="cls-14">
    <g id="Capa_2" data-name="Capa 2">
      <g id="Capa_1-2" data-name="Capa 1">
        <g>
          <g>
            <circle class="cls-19" cx="108.98" cy="108.98" r="108.98" transform="translate(-45.14 108.98) rotate(-45)"/>
            <circle class="cls-18" cx="108.98" cy="112.27" r="94.88" transform="translate(-47.46 109.94) rotate(-45)"/>
            <path class="cls-3" d="m172.96,60.04c-.45.19-.95.26-1.42.38-2.59.68-4.93,1.9-7.22,3.27-7.27,4.33-12.83,10.43-18.43,16.68-7.96,8.9-16.35,18.07-27.66,22.67-4.82,1.97-10.1,2.94-15.22,3.66-7.29,1.04-14.66,1.43-22.01,1.55-5.02.08-10.03-.01-15.06-.2-4.04-.15-8.05-.17-12.07.36-3.27.42-7.13.96-9.8,3.09-1.32,1.05-2.43,2.3-3.5,3.59-1.99,2.4-3.87,4.97-5.94,7.3-.91,1.02-1.1.95-1.88.2-1.19-1.15-2.31-3.4-5.79-5.62-.32-2.35-.65-4.74-.65-7.11,0-2.81.36-5.62.74-8.41.19-1.41.41-2.8.65-4.19.13-.78.09-1.61.22-2.36.14-.77.77-1.65-.18-2.12-.23-.12-.6-.17-.86-.27-.28-.13-.52-.2-.77-.36-.47-.29-.36-.08-.45-.69-.05-.35,0-.75,0-1.1-.01-2.38.28-4.78.64-7.13.24-1.58.78-3.12,1.05-4.67.56.13.28,1.04,1.21.97.64-.05,1.62-.51,2.12-.87,2.43-1.73,3.04-5.13,3.44-7.83.93.4,1.23.22,2.03-.51.69-.61,1.23-1.33,1.79-2.06.35-.43.89-.84,1.14-1.34.08-.17.14-.4.17-.64.96-.83,1.88-1.74,2.68-2.65.92-1.09,1.76-2.24,2.53-3.44.78-1.16,1.51-2.36,2.16-3.6.87-1.8,1.53-3.71,1.87-5.69.51-3.13.04-6.98-1.83-9.66-.95-1.33-2.29-2.12-3.76-2.44.36-.38.73-.75,1.11-1.12.88-.84,6.97-6.76,8.41-4.03.19.37.38,1.21.36,1.58-.03.46-.33.91-.45,1.35-.18.66-.19,1.28-.2,1.94,0,.52-.18,1.53.19,1.93.34.37,1.02.33,1.46.29,1.24-.14,2.43-.68,3.64-.89.83-.14,1.07-.26,1.19.56.09.7-.13,1.21.27,1.88.58.96,1.25,1.16,2.3,1.02,2.08-.28,3.74-1.16,5.27-2.59.84-.81,1.71-1.81,2.48-2.74.81-1,1.1-1.94,1.65-3.04.28-.56.35-.66.92-.59.33.04.81.33,1.16.42.69.17,1.41.26,2.11.36,2.15.33,3.95-.58,5.99-1.01.95-.2,1.88-.37,2.75-.81.52-.26.97-.54,1.56-.63,1-.15.88.29,1.64.79,1.8,1.2,4.49.91,6.52.79,4.82-.28,9.51-2.02,14.25-2.86.95-.17,2.62-.56,3.73-.37,1.97.35,4,1.3,5.89,1.93,4.52,1.51,9.23,2.21,13.78,3.58,2.29.69,4.46,1.56,6.54,2.74.57.33,1.25.91,1.83,1.11.22-.82.42-1.5.98-2.19,1.55-1.88,3.91-.77,5.71.09,3.07,1.46,6.25,3,9.5,4.03,2.06.64,3.73.77,5.82.42.91-.14,1.37.5,2.02,1.19,1.88,2.01,1.93,4.28,2.54,6.8.74,2.99,2.43,5.67,4.79,7.63.54.45,1.07.92,1.67,1.25.28.14.5.19.66.41Z"/>
            <path class="cls-6" d="m190.45,112.43c0,45-36.48,81.48-81.48,81.48-4.23,0-8.38-.32-12.45-.95-8.04-1.23-15.7-3.64-22.79-7.04-14.15-6.81-26.02-17.57-34.19-30.85-1.76-2.84-3.34-5.8-4.73-8.86-.45-.97-.86-1.93-1.25-2.93-.03-.08-.06-.15-.09-.2-.05-.12-.09-.19-.1-.23-.01-.01-.01-.03-.01-.03h0c-3.78-9.41-5.85-19.66-5.85-30.39,0-11.55,2.4-22.55,6.75-32.5.72-1.65,1.48-3.26,2.3-4.86h0c.64-1.23,1.29-2.43,1.98-3.62,1.57-2.68,3.28-5.27,5.14-7.75h0c.75-1.02,1.55-2.02,2.33-2.99h.01c2.71-3.28,5.65-6.35,8.82-9.16,14.39-12.82,33.36-20.6,54.14-20.6,7.22,0,14.23.95,20.88,2.71.01-.01.01,0,.03,0,2.22.59,4.41,1.27,6.56,2.04,10.72,3.83,20.41,9.85,28.53,17.52,5.32,5.05,9.97,10.8,13.78,17.1h.01c7.43,12.31,11.69,26.7,11.69,42.1Z"/>
            <path class="cls-12" d="m176.05,105.21c-.03,4.43-.58,8.98-1.41,13.34-.55,2.86-1.15,5.8-2.4,8.46-1.44,3.09-3.72,5.84-5.89,8.45-3.23,3.91-7.11,7.46-10.06,11.62-.72,1.01-1.04,2.38-2.02,3.17-1.3,1.06-3.22,1-4.75,1.34-1.64.38-2.61.93-3.87,2.11-.45.42-.82,1-1.44,1.15-.18-1.21,0-2.56-.03-3.78-.08-3.73-.68-7.44-1.5-11.08-.75-3.36-1.75-6.67-2.82-9.94-.26-.78-.73-3.77-1.53-4.27-.49-.31-1.75-.4-2.38-.54-1.75-.41-4.08-.08-5.83-.05-5.25.08-10.58.49-15.76,1.46-4.96.93-10.49,2.34-14.85,5-4.03,2.45-7,5.99-9.34,10.03-4.75,8.19-4.74,18.53-2.19,27.36.47,1.66.96,4.79,2.77,5.44.19.23.4.45.63.64.69.61,1.43,1.15,2.22,1.62.91.55,1.92.95,2.86,1.41,1.27.63,2.53,1.14,3.91,1.46,4.17.96,8.52.4,12.68-.32,1.9-.32,3.81-.81,5.62-1.46,1.43-.52,2.85-1.05,4.1-1.94.77-.55,1.6-1.33,2.16-2.1.03-.03.04-.06.06-.09.82.12,1.52.01,1.85-.91.98-2.76,1.3-6.01,1.93-8.87.5-2.25.93-4.6,1.84-6.75.36-.83.93-1.62,1.21-2.48.61-1.83-.63-3.3-1.93-4.47-1.09-.97-1.9-1.92-3.17-1.55-.75.23-1.66.56-2.4.93-1.41.69-2.17,1.8-3.32,2.79,3.17-.01,5.43-2.2,8.4-.4-.4-.17-.18.65-.29,1.24-.55,2.81-2.2,5.57-3.82,7.89-1.39,1.97-3.27,3.37-4.95,5.06-.04.03-1.15,1.52-1.34,1.58-.86.31-2.45-1.48-3.02-1.85-2.82-1.87-6.45-2.91-9.74-3.5-1.71-.31-3.45-.45-5.19-.43-1.1.09-2.2.08-3.3-.04-.91-.36-1.01-.84-1.12-1.81.06-1.43.23-2.86.47-4.28.29-2.15.81-4.23,1.52-6.28,1.74-4.73,4.63-9.66,8.24-13.19,4.47-4.36,10.05-5.09,16-3.92,2.65.51,5.28.89,7.92,1.44,2.88.6,6.08.69,8.61,2.36,1.46.98,2.53,2.24,2.82,4.04.6,3.77-.91,8.6-2.02,12.13-1.33,4.22-3,8.31-4.22,12.56-.6,2.15-1.04,4.29-1.74,6.4-.35,1.06-.92,1.92-1.75,2.7-.66.4-1.35.74-2.06,1.06-1.12.61-2.25,1.23-3.36,1.85-2.45,1.2-5.27,2.08-7.89,2.81-10.07,2.82-21.5,3.39-31.25-.79-7.87-3.36-14.61-7.67-17.88-15.9-3.09-7.76-2.29-15.66,1.18-23.12,1.02-2.21,3.55-6.74,6.21-7.49,1.71-.49,3.07.22,4.54.96-.83-.96-2.81-2.19-3.99-2.43-.65-.13-1.46.28-1.71-.49-.19-.58.97-2.68,1.21-3.21,2.21-4.92,6.66-7.78,11.36-9.94.93-.43,6.65-2.2,6.83-.08-1.76,1.58-3.5,2.97-4.74,5.1-.46.81-1.64,2.59-1.58,3.63.03.65.43,1.39.55,2.05.14.79-.13.78.7.98.59.14,1.57,0,2.19-.01,4.49-.08,9.59-1.2,13.73-2.89,8.24-3.37,16-9.23,19.75-17.51.7-1.53,1.15-3.27,1.53-4.91.41-1.71,1.01-3.49,1.29-5.23.4-2.33-.04-4.84-.49-6.98-.08-.36-.84-.69-.37-1.18.41-.42,1.01.23,1.35.41,1.25.64,2.95,1.32,4.4,1.01,6.03-1.33,1.5-10.17-.92-12.61-3.07-3.08-6.89-5.87-9.18-9.57-.84-1.37-1.64-2.72-1.94-4.33-.42-2.19-.59-4.08-1.48-6.16-2.24-5.16-6.72-9.22-12.12-10.91-8.56-2.71-18.93-1.96-27.54,0-10.99,2.51-22.02,6.7-30.79,13.94-3.99,3.28-6.8,6.89-8.55,11.69-1.23-.84-2.2-1.64-2.95-2.4,1.57-2.68,3.28-5.27,5.14-7.75h0c.75-1.02,1.55-2.02,2.33-2.99h.01c2.71-3.28,5.65-6.35,8.82-9.16,14.39-12.82,33.36-20.6,54.14-20.6,7.22,0,14.23.95,20.88,2.71.01-.01.01,0,.03,0,5.99,3.46,10.3,9.02,13.27,15.46,3.49,7.63,5.07,16.09,6.31,24.32,1.16,7.63,2.8,15.82,1.79,23.56-.6,3.49-1.5,6.9-2.68,10.24-.88,2.35-1.34,4.78-1.38,7.29.52,2.81,2.12,4.28,5.05,4.79,5.57.96,10.44-3.09,12.23-8.13.92-2.62,1.42-5.78.97-8.54-.42-2.57-1.67-5.07-2.42-7.57-1.16-4-2.61-7.62-4.27-11.44-.87-2.01-3.48-7.32-1.15-9.39,3.48,5.41,5.88,11.45,9.27,16.88.87,1.38,1.62,2.4,3.18,3,2.02.81,3.57,1.04,4.65,3.18,1.25,2.45,1.35,5.18,1.34,7.89Z"/>
            <path class="cls-7" d="m118.66,124.39c2.88-1.86,6.25-2.65,9.67-2.99,2.66-.26,5.24-.49,7.91-.64,2.84-.16,5.75-.58,8.58.02,4.09.87,4.88,4.4,4.87,8.13,0,1.82-.38,3.62-.36,5.45,0,1.23-.2,2.65.06,3.86.19.91.49,1.61,1.41,1.65,1.57.07,3.79-1.41,4.97-2.23,2.49-1.74,4.37-4.22,6.39-6.46,2.28-2.51,4.66-4.87,6.51-7.73,3.01-4.66,5.2-9.8,5.81-15.34.16-1.46.06-2.7-.53-4.04-.19-.43-.39-.83-.47-1.29-.4.07-.54,1.76-.57,2.24-.09,1.49-.53,3.02-.72,4.52-.21,1.67-.62,3.54-1.22,5.1-.25.64-.5,1.75-1.21,1.97-.31-.43-.35-.76-.4-1.25-.07-.71-.29-1.39-.33-2.12-.05-.77-.42-3.39-1.54-3.35-.02.47-.34.77-.39,1.25-.07.62.09.87-.23,1.39-1.27,2.09-2.68,4.28-4.35,6.12-1.1,1.22-2.61,2.35-3.52,3.71-.8,1.19-.65,2.02.05,3.26.7,1.24.39,3.01-.72,3.92-1.05.85-3.44,1.9-4.57.82-.44-.42-.74-1.12-.95-1.69-.24-.64-.3-1.32-.54-1.95-.3-.79-.7-1.53-.98-2.34-1.6-4.58-5.19-10.51-10.92-8.73-.48.15-.93.47-1.37.18-.38-.25-.42-.76-.26-1.15.26-.63,1.32-1.51,1.79-1.94,1.14-1.03,2.47-1.8,3.67-2.75,1-.79,1.91-1.59,2.49-2.75,1.11-2.22,1.62-4.86,2.03-7.3.28-1.62.29-3.22.34-4.85.06-1.86.34-3.72.32-5.58-.04-4.08-.54-8.28-1.22-12.29-.7-4.13-1.91-8.23-3-12.28-.99-3.66-2.32-7.27-4.13-10.61-1.79-3.3-3.93-6.42-7.52-7.87-.58-.23-1.05-.18-1.53-.55-.64-.49-1.1-1.33-1.66-1.94-3.19-3.5-8.41-5.97-12.92-7.07-4.44-1.08-8.9-.98-13.43-1.02-3.86-.03-7.46.36-11.19,1.35-1.5.4-2.85.89-4.16,1.73-.7.45-2.03,1-2.02,2,.02,1.9,3.97,1.99,5.27,2.11,8.34.75,16.8,2.25,24.33,6.05,3,1.51,5.18,3.29,7.28,5.87.64.79,1.51,1.78,1.59,2.83-.4-.09-.13-.49-.52-.6-.28.44.22,1.54.33,1.98.31,1.19.63,2.35.9,3.55.25,1.15.29,2.39.69,3.5.52,1.44,1.44,3.04,2.47,4.17,1.66,1.82,2.56.9,2.91-1.21.3-1.78.27-3.58.46-5.37.07-.66.14-1.82.59-2.39,3.35,2.48,4.3,6.77,5.16,10.59.22.95,1.76,4.76.5,5.48-.91.52-2.36-1-3.11,0-.53.7.07,1.8.37,2.41.68,1.41,1.48,2.74,2.24,4.11,1.76,3.19,2.45,6.99,2.59,10.61.07,1.8.14,3.7-.32,5.46-.33,1.24-.49,2.57-.87,3.79-1.02,3.21-3.49,5.16-5.98,7.25-2.3,1.92-4.8,3.61-7.12,5.51-2.89,2.35-5.97,4.48-7.67,7.74Z"/>
            <path class="cls-9" d="m110.59,55.29c-2.78-2.64-5.41-4.84-9.37-5.17-2.44-.2-4.91.37-7.34.56-3.51.28-6.62.97-10.05,1.63-5.02.97-9.56,2.94-14.53,4.23-6.02,1.57-10.83,3.61-14.25,9-1.56,2.45-2.63,5.04-3.85,7.67-1.5,3.23-3.38,6.26-5.12,9.36-3.59,6.41-6.24,12.93-8.48,19.91-2.19,6.85-2.8,13.66-2.6,20.83.14,5.3,1.93,10.85,5.99,14.54,5.6,5.08,11.57-1.71,16.13-4.92,4.2-2.95,8.12-5.98,11.87-9.51,4.69-4.4,10.37-9.33,16.76-10.93,1.86-.47,15.28-2.02,14.38,2.68-.25,1.32-1.79,2.6-1.12,4.25.94,2.32,4.04.65,5.47-.21,9.38-5.62,16.79-15.94,19.39-26.5,1.63-6.62,2.49-14.12,1.01-20.84-.85-3.85-2.84-7.44-4.55-10.96-1.89-3.86-4.35-6.35-9.75-5.64Z"/>
            <path class="cls-9" d="m159.02,49.48c-2.52.83-4.4.91-5.54,3.17-.78,1.54-1.54,2.46-1.6,4.25-.12,3.7,1.3,6.87,3.87,9.62,3.76,4.03,7.83,7.73,10.53,12.63,2.79,5.07,5.56,10.39,8.91,15.12.65.92,1.19,2.07,2.54,1.79,1.72-.35,3.08-3.13,3.54-4.58.61-1.92,1.21-4.45,1.06-6.48-.16-2.06-1.34-3.85-2-5.78-1.92-5.61-4.09-10.65-7.75-15.39-2.73-3.54-4.92-8.24-13.56-14.35Z"/>
            <path class="cls-4" d="m67,162.49c-.88-.16-1.71-.07-2.49.29-.11,1.32-.82,2.53-1.02,3.84-.22,1.43.14,2.82.57,4.18,1.36,4.29,4.52,7.66,8.14,10.17,3.62,2.51,7.75,4.69,11.97,6,2.17.67,4.46.95,6.65,1.52,2.37.61,4.65.93,7.09,1.21,4.29.49,8.52.88,12.84.89,2.15,0,4.23,0,6.37-.31,1.42-.21,2.84-.3,4.25-.51,1.74-.26,3.44-.82,5.15-1.26,5.84-1.51,11.6-3.88,17.11-6.3,2.15-.94,4.19-2.2,6.26-3.31.97-.52,1.98-1.02,2.93-1.58,1.5-.88,2.63-2.17,3.83-3.4,2.36-2.41,5.35-4.73,7.17-7.59,1.47-2.32,2.65-4.84,3.92-7.27,1.52-2.9,2.69-6.16,3.5-9.34.52-2.03.54-4.18.13-6.23-.17-.84-.57-2.12-1.72-2-.49.05-.98.46-1.37.72-4.42,2.86-8.8,5.76-13.22,8.62-1.07.69-2.16,1.32-3.27,1.95-1.04.59-2.15,1.42-3.31,1.78-1.53.47-3.17.21-4.73-.02-1.08-.16-2.73-.75-3.78-.25-1.19.56-1.42,2.28-1.55,3.44-.18,1.58-.35,3.2-.41,4.79-.08,2.25-.34,4.34-.7,6.57-.25,1.55-.89,3.05-1.62,4.43-.42.8-.88,1.68-1.39,2.43-.71,1.03-1.53,1.61-2.58,2.28-2.26,1.45-4.72,2.68-7.22,3.68-2.77,1.1-5.65,1.67-8.5,2.49-3.02.86-5.89,1.6-9.05,1.71-1.55.05-3.08.26-4.63.27-1.98,0-3.99-.22-5.95-.45-1.65-.2-3.28-.5-4.91-.85-2.01-.44-4.13-.76-6.02-1.6-2.74-1.21-5.49-2.66-7.96-4.35-2.65-1.82-4.87-4.15-6.62-6.85-.97-1.48-1.76-3.09-2.55-4.67-.83-1.66-1.92-3.23-1.31-5.06Z"/>
            <path class="cls-4" d="m92.83,157c-.71.56-1.6,1.15-2.18,1.88-.5.63-.8,1.49-1.13,2.22-.83,1.85-1.47,3.61-1.17,5.67.59,4.02,3.78,8.29,7.44,9.93,2.12.95,4.25,2.04,6.56,2.41,2.32.37,4.93.26,7.27.02,1.19-.13,2.43-.15,3.57-.54,1.11-.38,2.16-1,3.25-1.44,2.14-.87,4.61-2.19,6.23-3.85,1.52-1.56,3.42-3.3,3.1-5.66-.1-.75-.18-.65-.98-.63-.65.01-1.29,0-1.94,0-2.08.03-3.91-.3-5.86-1.04-2.47-.94-5.12-1.44-7.54-2.48-2.51-1.08-4.74-2.73-7.11-4.07-2.25-1.27-4.67-2.44-9.51-2.43Z"/>
            <path class="cls-5" d="m190.45,111.94c0,44.73-36.48,80.99-81.48,80.99-4.23,0-8.38-.32-12.45-.94-8.04-1.22-15.7-3.62-22.79-7-14.15-6.77-26.02-17.47-34.19-30.67-1.76-2.82-3.34-5.77-4.73-8.8-.45-.97-.86-1.92-1.25-2.91-.03-.08-.06-.15-.09-.2-.05-.11-.09-.19-.1-.23-.01-.01-.01-.03-.01-.03h0c-3.78-9.35-5.85-19.54-5.85-30.21,0-11.48,2.4-22.41,6.75-32.31.72-1.64,1.48-3.24,2.3-4.83h0c.64-1.22,1.29-2.41,1.98-3.6,1.57-2.67,3.28-5.23,5.14-7.7h0c.75-1.02,1.55-2.01,2.33-2.97h.01c2.71-3.26,5.65-6.31,8.82-9.11,14.39-12.74,33.36-20.48,54.14-20.48,7.22,0,14.23.94,20.88,2.69.01-.01.01,0,.03,0,2.22.58,4.41,1.26,6.56,2.03,10.72,3.81,20.41,9.79,28.53,17.42,5.32,5.02,9.97,10.73,13.78,17h.01c7.43,12.23,11.69,26.54,11.69,41.85Z"/>
            <path class="cls-10" d="m190.45,111.13c0,44.29-36.48,80.18-81.48,80.18-4.23,0-8.38-.31-12.45-.93-8.04-1.21-15.7-3.58-22.79-6.93-14.15-6.7-26.02-17.29-34.19-30.36-1.76-2.79-3.34-5.71-4.73-8.72-.45-.96-.86-1.9-1.25-2.88-.03-.08-.06-.15-.09-.2-.05-.11-.09-.19-.1-.23-.01-.01-.01-.03-.01-.03h0c-3.78-9.26-5.85-19.34-5.85-29.91,0-11.37,2.4-22.19,6.75-31.98.72-1.62,1.48-3.21,2.3-4.78h0c.64-1.21,1.29-2.39,1.98-3.56,1.57-2.64,3.28-5.18,5.14-7.62h0c.75-1.01,1.55-1.99,2.33-2.94h.01c2.71-3.23,5.65-6.25,8.82-9.02,14.39-12.62,33.36-20.28,54.14-20.28,7.22,0,14.23.93,20.88,2.67.01-.01.01,0,.03,0,2.22.58,4.41,1.25,6.56,2.01,10.72,3.77,20.41,9.7,28.53,17.24,5.32,4.97,9.97,10.63,13.78,16.83h.01c7.43,12.11,11.69,26.27,11.69,41.43Z"/>
            <path class="cls-11" d="m190.45,111.13c0,44.29-36.48,80.18-81.48,80.18-4.23,0-8.38-.31-12.45-.93-8.04-1.21-15.7-3.58-22.79-6.93-14.15-6.7-26.02-17.29-34.19-30.36-1.76-2.79-3.34-5.71-4.73-8.72-.45-.96-.86-1.9-1.25-2.88-.03-.08-.06-.15-.09-.2-.05-.11-.09-.19-.1-.23-.01-.01-.01-.03-.01-.03h0c-3.78-9.26-5.85-19.34-5.85-29.91,0-11.37,2.4-22.19,6.75-31.98.72-1.62,1.48-3.21,2.3-4.78h0c.64-1.21,1.29-2.39,1.98-3.56,1.57-2.64,3.28-5.18,5.14-7.62h0c.75-1.01,1.55-1.99,2.33-2.94h.01c2.71-3.23,5.65-6.25,8.82-9.02,14.39-12.62,33.36-20.28,54.14-20.28,7.22,0,14.23.93,20.88,2.67.01-.01.01,0,.03,0,2.22.58,4.41,1.25,6.56,2.01,10.72,3.77,20.41,9.7,28.53,17.24,5.32,4.97,9.97,10.63,13.78,16.83h.01c7.43,12.11,11.69,26.27,11.69,41.43Z"/>
            <circle class="cls-16" cx="88.27" cy="92.42" r="57.32"/>
            <path class="cls-3" d="m62.32,61.33c-5.85,5.88-3.85,18.39,9.71,7.27,13.56-11.11-.54-16.51-9.71-7.27Z"/>
            <path class="cls-3" d="m71.56,75.31c-3.07,2.1-5.72,6.54-3.12,7.51,2.6.97,5.16-8.91,3.12-7.51Z"/>
            <path class="cls-3" d="m148.05,160.55c-1.51,1.8-2.88,3.56-4.09,5.6-1.04,1.75-1.91,3.57-2.71,5.44-.59,1.39-1.25,2.81-1.51,4.3-.4,2.24,1.24,3.72,3.43,3.25,1.21-.26,2.39-.77,3.56-1.16,1.43-.48,2.72-1.08,3.88-2.05,3.62-3.03,7.23-6.34,9.18-10.74.87-1.97,1.39-4.91-.29-6.65-2.1-2.17-5.93-.46-11.44,2.01Z"/>
            <path class="cls-3" d="m142.23,157.41c-.43.62-1.01,1.28-1.27,2.01-.34.95-.58,1.99-.8,2.97-.19.86-.95,3.55.61,3.74,1.55.19,3.38-2.92,3.86-3.98.68-1.51,1.52-4.85.03-6.2l-2.42,1.45Z"/>
            <path class="cls-3" d="m87.75,157.89c-.52-1.38-.82-1.75-.72-3.22.15-2.34.71-4.57,1.67-6.71,1.01-2.23,2.85-4.57,4.87-5.98.35-.25,1.08-.82,1.53-.44.63.53-.05,2.7-.21,3.27-.4,1.35-1.03,2.65-1.59,3.94-.9,2.09-2.2,3.82-5.56,9.14Z"/>
            <path class="cls-3" d="m66.92,174.84c-.95.02-1.69.16-2.52-.25-.95-.47-1.78-.91-2.38-1.8-.64-.94-1.19-2.25.29-2.57.78-.16,1.7.2,2.43.46,1.14.4,2.05,1.04,2.88,1.91.84.88,1.9,2.14,1.72,3.46l-2.42-1.21Z"/>
            <path class="cls-3" d="m131.09,182.11c-1.23.43-2.39.84-3.12,2.01-.55.87-.02,1.22.92,1.17.81-.05,1.65-.31,2.16-.98.36-.48.85-1.32.76-1.95l-.73-.24Z"/>
            <path class="cls-3" d="m169.6,149.17c.07.69.31,1.31.72,1.84.88-.46,1.62-.73,2.32-1.5.65-.71,1.35-1.52,1.63-2.46.24-.81.1-1.6-.73-2.01-1.06-.51-1.99.25-2.97.51l-.97,3.63Z"/>
            <path class="cls-3" d="m62.8,159.1c2.71,5.12,4.86,10.57,10.16,13.55,1.12.63,1.99.99,2.36-.53.77-3.18.05-7.7-.63-10.74-.56-2.46-.91-4.99-1.52-7.43-.33-1.31-.76-3.11-1.72-4.1-2.51-2.61-7.8.35-8.16,3.44l-.48,5.81Z"/>
            <path class="cls-3" d="m42.95,149.9c-2.56-1.8-3.81-2.76-4.63-5.85-.36-1.33-1.1-3.3-.63-4.68,1.48.88,2.69,3.3,3.48,4.74.85,1.55,1.5,3.07,1.78,4.83v.97Z"/>
            <path class="cls-3" d="m180.5,123.74c-.27.98-2.2,5.31-.05,6.2,2.13-.98,3.92-4.55,2.47-6.68l-2.42.48Z"/>
            <path class="cls-3" d="m100.58,141.46c-2.27,1.59-2.93,1.94-3.9,4.23-.36.85-.91,2.3.47,2.65,1.89.48,4.67-3.8,4.83-5.34-.14-.03-.28-.06-.42-.09l-.97-1.45Z"/>
            <path class="cls-8" d="m77.35,27.41c5.73,8.26.23,21.99-12.29,30.68-12.52,8.69-27.31,9.04-33.04.78-5.73-8.26-.23-21.99,12.29-30.68,12.52-8.69,27.31-9.04,33.04-.78Z"/>
            <path class="cls-3" d="m30.51,39.79c-3.67.06-4.65-.15-6.71,2.6-1.14,1.52-2.6,3.09-3.24,4.88-.29.82-.87,2.68-.43,3.55.4.8.41.35,1.28.57,2.05.53,4.55,1.22,6.66.61,3.2-.92,5.43-5.96,5.02-8.98l-2.58-3.23Z"/>
            <path class="cls-3" d="m27.29,33.34c-.54-.56-5.82-5.45-1.99-4.91,1.85.26,4.54,3.73,4.57,5.55l-2.58-.65Z"/>
            <path class="cls-3" d="m154.5,189.61c-.12.06-4.61,1.82-4.6,3.22.01,1.07,1.83,1.24,2.63,1.22,1.24-.02,3.54-.9,4.5-1.7.52-.43,1.6-1.76.05-2.1l-2.58-.65Z"/>
          </g>
          <g>
            <g>
              <path class="cls-17" d="m91.08,114.52c-1.85,1.77,6.28,21.71,21.48,21.57,15.2-.13,23.23-19.86,21.52-22.04s-8.48,5.61-21.41,5.37c-12.93-.24-19.2-7.19-21.59-4.9Z"/>
              <path class="cls-25" d="m91.59,118.53s5.23,16.86,19.73,18.86c14.5,2.01,21.69-17.97,21.69-17.97,0,0-6.49,16.11-19.76,16.65-13.27.54-21.65-17.54-21.65-17.54Z"/>
              <path class="cls-24" d="m92.39,115.35c-1.25,1.37,7.67,20.42,20.99,20.07,13.32-.35,18.49-19.63,18.09-20.07-.41-.44-8.35,5.5-18.21,6.11-9.86.61-19.9-7.16-20.86-6.11Z"/>
              <path class="cls-20" d="m111.87,121.49s-.06.31-.15.79v.06c-.2.96-.53,2.52-.82,3.5h0s0,.02,0,.02c-.15.5-.29.85-.41.9-.46.23-5.31-.97-7.1-1.87-1.81-.9-2.71-4.3-2.71-4.3,0,0-1.34.88-2.16,0-.81-.88-2.56-4.02-2.56-4.02,7.16,5.06,15.91,4.92,15.91,4.92Z"/>
              <path class="cls-22" d="m128.22,116.57s-1.75,3.14-2.57,4.02c-.81.88-2.15,0-2.15,0,0,0-.91,3.34-2.72,4.25-1.81.9-6.21,2.16-6.67,1.93-.13-.06-.32-.48-.53-1.05-.39-1.06-.86-2.67-1.1-3.57-.11-.4-.18-.65-.18-.65,0,0,8.76.14,15.92-4.92Z"/>
              <path class="cls-13" d="m111.87,121.49s-.06.31-.15.79v.06s-8.34-1.9-9.56-1.81c-1.23.08.35,3.54,2.28,4.59,1.93,1.04,6.26,1.23,6.45.73-.15.5-.29.85-.41.9-.46.23-5.31-.97-7.1-1.87-1.81-.9-2.71-4.3-2.71-4.3,0,0-1.34.88-2.16,0-.81-.88-2.56-4.02-2.56-4.02,7.16,5.06,15.91,4.92,15.91,4.92Z"/>
              <path class="cls-13" d="m128.22,116.57s-1.75,3.14-2.57,4.02c-.81.88-2.15,0-2.15,0,0,0-.91,3.34-2.72,4.25-1.81.9-6.21,2.16-6.67,1.93-.13-.06-.32-.48-.53-1.05h0c.68.84,4.66.13,6.53-.89,1.86-1.03,2.49-4.46,2.06-4.53-.44-.06-9.7,1.85-9.7,1.85-.11-.4-.18-.65-.18-.65,0,0,8.76.14,15.92-4.92Z"/>
              <path class="cls-2" d="m113.25,122.36c-.26-.03.52,2.97,1.08,3.26.55.29-.09-3.14-1.08-3.26Z"/>
              <path class="cls-2" d="m110.98,122.3c-.13-.4-.81,2.74-.79,3.34.03.59,1.34-1.62.79-3.34Z"/>
              <path class="cls-21" d="m112.3,135.41s-8.59.51-16.49-11.65c0,0,1.86.68,2.33,1.12.48.45.76,1.89.76,1.89,0,0,1.09-.13,1.47,0,.16.05.8.72,2.03,1.61,1.73,1.26,4.63,2.96,8.96,4,0,0,.72.35.79.58.05.18.12,1.65.14,2.22,0,.14,0,.23,0,.23Z"/>
              <path class="cls-15" d="m128.53,123.65c-7.04,13.57-16.23,11.76-16.23,11.76,0,0,0-.09,0-.23.02-.57.09-2.04.14-2.22.06-.23.79-.58.79-.58,4.17-1,7.01-2.61,8.76-3.86.58-.41,1.04-.78,1.39-1.07l.17-.14c.37-.32.59-.51.67-.54,0,0,.02-.01.04-.01.41-.11,1.43.01,1.43.01,0,0,.17-.89.48-1.49.08-.16.17-.3.27-.4.26-.24.86-.59,1.35-.85.36-.19.66-.35.73-.38Z"/>
              <path class="cls-13" d="m128.53,123.65c-7.04,13.57-16.23,11.76-16.23,11.76,0,0-8.59.51-16.49-11.65,0,0,1.86.68,2.33,1.12.48.45.76,1.89.76,1.89,0,0,1.09-.13,1.47,0,.16.05.8.72,2.03,1.61-.26,4.35,5.88,6.21,9.19,6.73.23.04.46.06.7.07t.02,0c3.25.18,7.76-1.83,8.71-2.8,2.94-2.99,2.07-4.7,2.07-4.7l.3-.23.17-.14.71-.55c.41-.11,1.43.01,1.43.01,0,0,.17-.89.48-1.49l1.62-1.25c.36-.19.66-.35.73-.38Z"/>
              <path class="cls-2" d="m112.51,133.6s.27-.68.51-.87,2.21-.73,2.21-.73c0,0-2.31,1.66-2.72,1.59Z"/>
              <path class="cls-2" d="m112.17,133.39s0-.54-.86-.9c-.29-.12-2.57-.79-2.57-.79,0,0,2.53.87,3.43,1.69Z"/>
            </g>
            <path class="cls-23" d="m79.7,103.3c.12,1.81-3.29-6.95-17.49-7.44-14.2-.49-15.98,11.48-17.5,12.03-1.53.56-.56-15.44,11.81-16.72,12.37-1.28,22.77,5.58,23.19,12.13Z"/>
            <path class="cls-25" d="m48.74,101.44s3.89-4.34,14.24-4.4c10.36-.06,15.02,4.87,15.02,4.87,0,0-5.01-6.06-14.63-6.68s-14.63,6.22-14.63,6.22Z"/>
            <path class="cls-1" d="m141.58,103.3c-.12,1.81,3.29-6.95,17.49-7.44,14.2-.49,15.98,11.48,17.5,12.03,1.53.56.56-15.44-11.81-16.72-12.37-1.28-22.77,5.58-23.19,12.13Z"/>
            <path class="cls-25" d="m172.55,101.44s-3.89-4.34-14.24-4.4c-10.36-.06-15.02,4.87-15.02,4.87,0,0,5.01-6.06,14.63-6.68,9.63-.62,14.63,6.22,14.63,6.22Z"/>
          </g>
        </g>
      </g>
    </g>
  </g>
</svg>