<?xml version="1.0" encoding="UTF-8"?>
<svg id="Capa_1" data-name="Capa 1" xmlns="http://www.w3.org/2000/svg" viewBox="0 0 31 32">
  <defs>
    <style>
      .cls-1 {
        fill: #f9bdbd;
      }

      .cls-2 {
        fill: #f3f2f2;
      }

      .cls-3 {
        fill: #cbc8c3;
      }

      .cls-4 {
        fill: none;
      }

      .cls-5 {
        fill: #afa79c;
      }

      .cls-6 {
        fill: #714039;
      }
    </style>
  </defs>
  <rect class="cls-4" y=".97" width="31" height="31.03"/>
  <path class="cls-6" d="m26.79,19.05c.65.07,1.23-.08,1.76-.44.02-.02.04-.04.05-.07.16-1.02.94-.99,1.37-1.73.09-.16.18-.25.28-.28.91-.3,1.04,2.41-.93,2.56-.02,0-.05.01-.06.03-.67.56-1.45.81-2.34.76-.06,0-.12.04-.12.1,0,0,0,0,0,.01.03.72-.01,1.3-.14,1.74-.34,1.17-1.01,2.24-2.03,3.21-.03.03-.04.06-.03.09.08.5.12,1.07.1,1.71-.06,2.09-2.63,2.12-4.17,1.95-.58-.07-.93-.26-1.16-.77-.07-.15-.13-.29-.18-.45-.02-.06-.09-.09-.14-.07-.02,0-.03.02-.04.03-.44.46-1,.69-1.68.69-.93,0-2.47-.23-3.03-1.07-.18-.27-.26-.57-.24-.91.01-.17-.03-.18-.13-.04-.53.74-1.3,1.07-2.3.99-.9-.07-2.85-.53-2.98-1.61-.11-.9-.1-1.79.02-2.68.02-.13-.03-.16-.14-.08-.2.14-.43.2-.68.2-1.06,0-2.93-.43-3.28-1.53-.08-.24-.08-.55-.01-.94.24-1.37.88-2.54,1.91-3.52.48-.46,1.12-.87,1.59-1.39.14-.15.28-.29.42-.43.04-.04.04-.11,0-.15,0,0-.01,0-.02-.01-.62-.41-1.14-.92-1.55-1.55-.02-.03-.05-.05-.08-.05-.73-.09-1.56-.3-1.68-1.15,0-.04-.03-.07-.07-.09-.64-.22-1.13-.45-1.47-.7C.37,9.08-1.02,5.04.83,1.45c.01-.02.01-.05,0-.07-.08-.4-.02-.74.21-1.02.54-.68,1.27-.27,1.91.13.02.01.05.02.07.02.56-.04,1.08-.14,1.35.49.22.52.07.96-.45,1.31-.02.01-.03.03-.04.05-.74,1.67,1.33,3.28,2.89,2.22.95-.64,1.95-1.48,2.86-1.93.54-.27,1.11-.48,1.7-.63.04-.01.07-.04.08-.09.11-.56.25-1.11,1.01-1.06.04,0,.08-.02.1-.05.27-.39.62-.46,1.04-.22.04.02.09.02.13,0,.47-.38,1.45-.51,1.34.37-.05.44-.02.67.09,1.05,0,.03.03.05.05.07.44.23.87.47,1.31.71,1.64.89,2.82,2.17,3.55,3.83.02.05.08.08.13.06,5.12-1.29,8.36,4.18,5.19,8.06-.17.21-.34.42-.51.63-.04.04-.03.11.01.14,1,.95,1.61,2.09,1.82,3.44,0,.05.05.09.1.09Zm-1.55-9.69c-1.11-1.89-3.5-2.52-5.5-1.63-.16.07-.26.02-.3-.14-.4-1.72-1.79-3.22-3.36-4.05-.68-.36-1.58-.74-1.75-1.28-.05-.17-.1-.35-.13-.54-.07-.36-.14-.36-.22,0-.03.13-.02.26.02.4.23.75-.76.17-.94-.19-.02-.04-.04-.04-.06,0-.08.11.42.49-.16.56-.03,0-.05,0-.07-.02l-.34-.2c-.05-.03-.12-.02-.15.03,0,0,0,.01,0,.02-.08.18-.19.3-.35.35-1.97.63-2.98,1.39-4.93,2.71-.16.11-.36.2-.54.29-.04.02-.07.07-.06.12.05.2.14.81-.34.54-.03-.02-.05-.04-.05-.07l-.08-.4s-.05-.08-.1-.09l-.43-.02c-.06,0-.11.04-.12.1,0,0,0,0,0,0l-.02.53s-.02.07-.06.09c-.17.09-.31.07-.41-.08-.02-.02-.02-.05-.02-.08.05-.24.02-.48-.09-.7-.01-.02-.03-.04-.05-.05-1.46-.66-2.16-2.19-1.47-3.64.06-.08.84-.69.27-.61-.66.09-.9-.05-1.5-.44-.02-.01-.05-.02-.07-.02-.22.02-.09.67-.2.89-.23.5-.38.86-.45,1.07-.72,2.27-.1,4.61,1.36,6.46.89,1.13,2.32,1.9,3.69,2.41.37.14.68.35.95-.08.02-.03.06-.05.1-.05.32,0,.4.14.23.41-.3.49-.89.38-1.41.21-.1-.03-.12,0-.07.08.01.02.03.04.06.06.33.16.73.2,1.04.34.6.28.97,1.01,1.51,1.41,1.66,1.24,3.54,1.58,5.64,1.03.04-.01.08,0,.11.03l.12.12s.04.08.02.12c-.66,1.28.32,3.03,1.95,2.54.41-.12.95-.55,1.39-.72.89-.34,1.88-.36,2.61-.51,1.01-.2,1.95-.58,2.81-1.14,2.02-1.31,3.27-3.93,1.94-6.15ZM7.04,20.93c.06.41.31.19.53.21.3.02.52.2.65.53.05.13.12.14.2.02.43-.62.68-1.32.75-2.09-.08-.24-.2-.45-.36-.62-.04-.04-.04-.11.01-.15,0,0,0,0,0,0,.49-.37.74.38.79.69,0,.05.05.08.1.09l.17.02c.14.02.18-.03.12-.15-.17-.35-.3-.71-.39-1.09-.06-.23,0-.42.3-.39.04,0,.08.03.09.07l.35,1.02c.04.12.11.13.19.04.05-.06.12-.1.19-.12.22-.06.39.18.25.35-.4.5-.67.92-.81,1.25-.55,1.22-.8,2.5-.76,3.84,0,.06.05.11.12.11,0,0,.01,0,.02,0,.46-.09.78.07.99.48.02.04.06.06.11.06.22-.01.43.04.62.15.09.1.25.42.4.26.02-.02.04-.03.07-.03.46-.06.74.12.84.51.02.06.08.09.14.08.01,0,.02,0,.03-.01.33-.19.53-.46.6-.81.06-.28.19-1.1.39-2.44.02-.12-.01-.34-.08-.65-.02-.14-.11-.35-.06-.47.15-.36.5.03.54.23l.12.78s.02.06.05.07c1.5,1.01,3.16,1.35,4.98,1,.05,0,.08-.04.09-.09l.05-.31c.1-.64.34-1.23.72-1.76.02-.02.04-.04.07-.05.19-.03.3.04.34.22,0,.03,0,.06-.02.08-.61.9-.7,1.74-.75,2.9-.03.73.01,1.46.13,2.19.02.13.08.15.18.07.39-.32.79-.31,1.19.04.04.03.09.04.13.01.17-.1.37-.13.58-.09l.3.15s.09.02.12-.01c.41-.33.78-.3,1.11.08.09.11.16.09.2-.04.11-.35.14-.7.11-1.05-.05-.47-.1-.94-.16-1.41,0-.03,0-.07.04-.09,1.14-1,2.11-2.43,2.2-3.95.11-1.81-.43-3.56-1.92-4.76l-.09-.1s-.1-.05-.15-.01c-1.17.78-2.46,1.26-3.86,1.42-.56.07-.87.1-.94.12-.89.16-1.52.63-2.16.93-1.11.52-2.36-.06-2.79-1.18-.17-.45-.22-.87-.15-1.28.01-.06-.03-.12-.09-.13-.01,0-.03,0-.04,0-1.25.24-2.47.13-3.65-.31-.06-.02-.12,0-.15.06,0,0,0,.02,0,.03-.05.49-.03.98.06,1.47,0,.03,0,.06-.02.09-.25.32-.45.05-.49-.2-.06-.36-.08-.73-.05-1.12,0-.16-.05-.19-.18-.09-.17.13-.33.27-.47.43-.22.24-.39.41-.52.51-1.25,1.01-2.18,1.84-2.7,3.39-.02.06.01.12.07.14,0,0,0,0,.01,0,.33.07.53.25.62.55.01.05.06.08.11.08.26,0,.48.07.68.23Zm-1.25-.11c0-.16-.14-.29-.31-.29h0c-.17,0-.31.13-.31.29h0c0,.16.14.29.31.29s.31-.13.31-.29Zm.92.59c0-.14-.11-.25-.26-.25s-.26.11-.26.25c0,.14.11.25.26.25h0c.14,0,.26-.11.26-.25h0Zm1.02.44c.04-.09-.02-.2-.12-.23-.1-.04-.22,0-.25.09-.04.09.02.2.12.23h0c.1.04.22,0,.25-.09Zm6.78,2.16c.03-.4-.23.45,0,.03,0-.01,0-.02,0-.03Zm3.16.36c-.69-.02-1.4-.15-2.14-.4-.06-.02-.12.01-.14.07,0,0,0,0,0,0l-.43,1.49c-.02.06.02.12.08.13.01,0,.03,0,.04,0,.41-.05.72.1.91.45.02.04.08.07.13.05.34-.08.61.01.81.29.03.04.09.06.14.04.5-.21.84-.09,1.03.35.05.13.12.13.2.02.06-.09.1-.18.12-.29.07-.36.14-.72.21-1.08.07-.32.23-.66.48-1.02.09-.13.06-.18-.1-.17-.55.05-.99.07-1.34.06Zm-7.59.93c0-.16-.14-.29-.3-.29h0c-.17,0-.3.13-.3.29h0c0,.16.14.29.3.29s.3-.13.3-.29Zm.96.52c0-.14-.11-.25-.25-.25s-.25.11-.25.25c0,.14.11.25.25.25h0c.14,0,.25-.11.25-.25h0Zm1.06.29c0-.1-.09-.18-.19-.18s-.19.08-.19.18h0c0,.1.09.18.19.18h0c.11,0,.19-.08.19-.18Zm3.47.31c0-.16-.14-.3-.31-.3h0c-.17,0-.31.13-.31.3h0c0,.16.14.3.31.3s.31-.13.31-.3Zm1,.43c0-.14-.12-.25-.26-.25h0c-.14,0-.26.11-.26.25h0c0,.14.12.25.26.25s.26-.11.26-.25Zm1.07.19c0-.1-.08-.18-.19-.18s-.19.08-.19.18c0,.1.08.18.19.18h0c.1,0,.19-.08.19-.18h0Zm3.33.51c0-.16-.14-.29-.31-.29s-.31.13-.31.29c0,.16.14.29.31.29h0c.17,0,.31-.13.31-.29h0Zm2.17,0c0-.1-.08-.18-.19-.18s-.19.08-.19.18c0,.1.08.18.19.18h0c.1,0,.19-.08.19-.18h0Zm-1.08.13c0-.14-.11-.25-.26-.25s-.26.11-.26.25c0,.14.11.25.26.25h0c.14,0,.26-.11.26-.25h0Z"/>
  <path class="cls-5" d="m3.13,1.91l-1-.22s-.1.01-.13.06c-.44.81-.64,1.65-.55,2.58.2,2.23,1.41,4.7,3.5,5.85.32.18,1.21.59,2.66,1.24.23.11.52.46.65.68.52.91,1.07,1.79,1.96,2.19,1.07.47,2.17.59,3.3.35.75-.16,1.5-.29,2.25-.44-.29.44-.44.77-.47,1-.09.79.31,1.61,1.13,1.83.65.17,1.3-.24,1.83-.58.47-.3,1.57-.34,2.21-.47,1.71-.33,3.01-1.21,3.89-2.63.53-.64.82-1.31.87-2.03.03-.42.03-1.08-.01-1.97,1.33,2.22.08,4.84-1.94,6.15-.86.56-1.8.94-2.81,1.14-.73.15-1.73.17-2.61.51-.44.17-.98.6-1.39.72-1.63.49-2.61-1.26-1.95-2.54.02-.04.01-.09-.02-.12l-.12-.12s-.07-.04-.11-.03c-2.1.55-3.98.21-5.64-1.03-.54-.41-.91-1.13-1.51-1.41-.31-.14-.71-.18-1.04-.34-.03-.01-.05-.03-.06-.06-.05-.09-.02-.11.07-.08.51.18,1.11.28,1.41-.21.17-.28.09-.41-.23-.41-.04,0-.08.02-.1.05-.27.43-.58.22-.95.08-1.37-.51-2.79-1.28-3.69-2.41C1.08,7.42.46,5.08,1.18,2.81c.07-.21.22-.57.45-1.07.1-.22-.02-.87.2-.89.03,0,.05,0,.07.02.6.39.84.53,1.5.44.57-.08-.22.53-.27.61Z"/>
  <path class="cls-3" d="m25.23,9.36c.04.89.05,1.54.01,1.97-.06.72-.35,1.39-.87,2.03,1.35-2.97-.97-5.83-4.27-4.93-.95.26-.61,1.01-.75,1.68-.26,1.3-1.6,1.55-2.37,2.46-.44.52-.84,1.06-1.21,1.63-.75.14-1.5.28-2.25.44-1.13.24-2.24.12-3.3-.35-.89-.39-1.43-1.28-1.96-2.19-.12-.22-.41-.57-.65-.68-1.45-.65-2.34-1.07-2.66-1.24-2.09-1.15-3.3-3.61-3.5-5.85-.08-.94.11-1.77.55-2.58.02-.04.08-.07.13-.06l1,.22c-.69,1.44,0,2.98,1.47,3.64.02.01.04.03.05.05.12.22.15.46.09.7,0,.03,0,.06.02.08.1.15.24.17.41.08.03-.02.06-.05.06-.09l.02-.53c0-.06.05-.11.12-.1,0,0,0,0,0,0l.43.02c.05,0,.09.04.1.09l.08.4s.03.06.05.07c.47.26.38-.35.34-.54-.01-.05.01-.1.06-.12.18-.09.37-.18.54-.29,1.95-1.32,2.96-2.08,4.93-2.71.16-.05.27-.17.35-.35.02-.06.09-.08.15-.06,0,0,.01,0,.02,0l.34.2s.05.02.07.02c.58-.07.08-.45.16-.56.02-.03.05-.03.06,0,.17.36,1.17.93.94.19-.04-.14-.05-.27-.02-.4.08-.36.15-.36.22,0,.03.19.08.37.13.54.17.54,1.07.92,1.75,1.28,1.58.83,2.96,2.33,3.36,4.05.04.17.14.21.3.14,1.99-.89,4.38-.26,5.5,1.63ZM12.94,3c-.86.11-1.82.5-2.32,1.22-.1.14-.09.31.14.3.03,0,.06-.02.08-.04.68-.79,1.26-.9,2.27-1.18.03,0,.05-.03.07-.05.11-.2-.05-.27-.24-.25ZM3.91,6.81c.31-.5-.43-.64-.67-.95-.1-.13-.18-.34-.24-.63-.08-.4-.19-.82-.34-1.26-.01-.04-.06-.07-.1-.07-.23,0-.36.07-.37.23,0,0,0,.01,0,.02.09.74.65,2.63,1.62,2.71.04,0,.08-.02.11-.05Zm5.89-2.07c-.02-.72-.93.12-1.04.42-.02.06.01.12.07.14.02,0,.04,0,.06,0,.35-.06.65-.22.88-.48.02-.02.03-.05.03-.07Zm1.85,5.85c-.06-.83-.75-1.38-1.59-1.41-.29-.01-.46.2-.21.43.02.02.05.03.07.03.77.02,1.19.4,1.27,1.12,0,.03.02.05.04.07.25.2.44.02.42-.24Zm.44,2.72c.22-.27.04-.74-.39-1.06,0,0,0,0,0,0-.43-.32-.95-.36-1.17-.09-.22.27-.04.74.39,1.06,0,0,0,0,0,0,.43.32.95.36,1.17.09Z"/>
  <path class="cls-2" d="m12.94,3c.18-.02.35.05.24.25-.01.03-.04.05-.07.05-1,.28-1.58.38-2.27,1.18-.02.02-.05.04-.08.04-.23.02-.24-.15-.14-.3.5-.72,1.46-1.11,2.32-1.22Z"/>
  <path class="cls-2" d="m3.24,5.86c.24.31.98.45.67.95-.02.04-.06.06-.11.05-.97-.08-1.53-1.97-1.62-2.71,0,0,0-.01,0-.02.01-.16.14-.24.37-.23.05,0,.09.03.1.07.15.44.26.86.34,1.26.06.29.14.5.24.63Z"/>
  <path class="cls-2" d="m8.77,5.16c.1-.29,1.02-1.14,1.04-.42,0,.03,0,.05-.03.07-.23.26-.53.42-.88.48-.06.01-.12-.03-.13-.09,0-.02,0-.04,0-.05Z"/>
  <path class="cls-1" d="m24.37,13.36c-.88,1.42-2.18,2.3-3.89,2.63-.64.12-1.74.17-2.21.47-.53.34-1.18.75-1.83.58-.82-.22-1.22-1.04-1.13-1.83.03-.23.18-.57.47-1,.37-.57.77-1.11,1.21-1.63.77-.91,2.11-1.16,2.37-2.46.13-.67-.21-1.42.75-1.68,3.3-.91,5.62,1.96,4.27,4.93Z"/>
  <path class="cls-6" d="m10.07,9.18c.84.04,1.53.58,1.59,1.41.02.26-.17.44-.42.24-.02-.02-.04-.04-.04-.07-.07-.73-.5-1.1-1.27-1.12-.03,0-.05-.01-.07-.03-.25-.22-.08-.44.21-.43Z"/>
  <ellipse class="cls-1" cx="11.32" cy="12.74" rx=".62" ry=".97" transform="translate(-5.61 14.69) rotate(-54.95)"/>
  <path class="cls-3" d="m23.99,15.91c.84,1.59,1.81,3.42,1.32,5.26-.33,1.25-1.15,2.39-2.03,3.35-.02.02-.02.04-.03.06-.11,1.11-.27,1.73-1.25,2.41-.21-.04-.41-.02-.58.09-.04.03-.1.02-.13-.01-.41-.35-.8-.36-1.19-.04-.1.08-.16.06-.18-.07-.12-.73-.16-1.46-.13-2.19.05-1.15.14-2,.75-2.9.02-.02.02-.05.02-.08-.04-.18-.15-.25-.34-.22-.03,0-.06.02-.07.05-.38.53-.62,1.12-.72,1.76-1.89-.08-3.73-.37-5.28-1.45-.04-.2-.39-.59-.54-.23-.05.12.04.33.06.47h-.05s-.06.05-.07.07c-.64,1.39-.98,2.59-2.26,3.02-.19-.11-.4-.16-.62-.15-.05,0-.09-.02-.11-.06-.2-.41-.53-.57-.99-.48-.06.01-.12-.03-.13-.08,0,0,0-.01,0-.02-.04-1.34.22-2.62.76-3.84.15-.33.42-.75.81-1.25.14-.17-.03-.41-.25-.35-.08.02-.14.06-.19.12-.09.1-.15.09-.19-.04l-.35-1.02s-.05-.07-.09-.07c-.3-.03-.35.16-.3.39.09.38.22.74.39,1.09.06.12.02.17-.12.15l-.17-.02s-.09-.04-.1-.09c-.05-.32-.3-1.07-.79-.69-.05.04-.06.11-.02.15,0,0,0,0,0,0,.16.18.28.39.36.62-.12.13-.24.29-.34.48-.39.74-1,.79-1.79.85-.19-.16-.42-.24-.68-.23-.05,0-.1-.03-.11-.08-.09-.3-.3-.49-.62-.55-.06-.01-.1-.07-.09-.13,0,0,0,0,0-.01.52-1.55,1.45-2.38,2.7-3.39.13-.1.3-.27.52-.51.14-.16.3-.3.47-.43.13-.1.19-.07.18.09-.02.39,0,.76.05,1.12.04.26.23.53.49.2.02-.02.03-.06.02-.09-.1-.48-.12-.97-.06-1.47,0-.06.06-.1.12-.1,0,0,.02,0,.03,0,1.19.44,2.4.54,3.65.31.06-.01.12.03.13.09,0,.01,0,.03,0,.04-.07.41-.02.83.15,1.28.43,1.12,1.68,1.7,2.79,1.18.64-.3,1.27-.78,2.16-.93.07-.01.38-.05.94-.12,1.41-.16,2.69-.63,3.86-1.42.05-.03.11-.03.15.01l.09.1Zm-.31,2.57l.09.54s0,.04,0,.06c-.4.99-.85,1.79-.54,2.53.17.39.6.53.76,0,.17-.53.68-2.78.18-3.26-.13-.13-.29-.12-.46.02-.03.02-.04.06-.04.1Z"/>
  <path class="cls-5" d="m23.99,15.91c1.49,1.19,2.04,2.95,1.92,4.76-.09,1.51-1.06,2.94-2.2,3.95-.03.02-.04.06-.04.09.06.48.12.95.16,1.41.03.35,0,.69-.11,1.05-.04.13-.1.15-.2.04-.33-.38-.69-.41-1.11-.08-.03.03-.08.03-.12.01l-.3-.15c.98-.68,1.14-1.3,1.25-2.41,0-.02.01-.04.03-.06.88-.96,1.69-2.1,2.03-3.35.49-1.84-.48-3.67-1.32-5.26Z"/>
  <path class="cls-2" d="m23.72,18.38c.17-.14.32-.15.46-.02.5.48,0,2.73-.18,3.26-.17.52-.59.38-.76,0-.32-.74.14-1.54.54-2.53,0-.02,0-.04,0-.06l-.09-.54s0-.07.04-.1Z"/>
  <path class="cls-5" d="m9.17,19.6c-.07.77-.32,1.47-.75,2.09-.08.12-.15.11-.2-.02-.13-.33-.35-.5-.65-.53-.21-.02-.46.2-.53-.21.79-.06,1.4-.11,1.79-.85.1-.19.21-.35.34-.48Z"/>
  <ellipse class="cls-2" cx="5.48" cy="20.83" rx=".31" ry=".29"/>
  <ellipse class="cls-2" cx="6.46" cy="21.42" rx=".26" ry=".25"/>
  <ellipse class="cls-2" cx="7.55" cy="21.79" rx=".18" ry=".2" transform="translate(-15.45 23.43) rotate(-74.96)"/>
  <path class="cls-5" d="m14.14,21.92c1.55,1.09,3.39,1.38,5.28,1.45l-.05.31s-.04.08-.09.09c-1.82.35-3.48.01-4.98-1-.03-.02-.04-.04-.05-.07l-.12-.78Z"/>
  <path class="cls-5" d="m13.66,22.15c.07.31.1.53.08.65-.21,1.35-.34,2.16-.39,2.44-.07.34-.27.61-.6.81-.05.03-.12.01-.16-.04,0,0-.01-.02-.01-.03-.1-.4-.38-.57-.84-.51-.03,0-.05.02-.07.03-.16.16-.31-.16-.4-.26,1.28-.44,1.63-1.63,2.26-3.02.01-.03.04-.05.07-.06h.05Z"/>
  <path class="cls-5" d="m17.68,24.37c.35,0,.79-.01,1.34-.06.16-.02.19.04.1.17-.25.36-.41.7-.48,1.02-.08.36-.15.72-.21,1.08-.02.11-.06.21-.12.29-.08.12-.14.11-.2-.02-.19-.44-.53-.56-1.03-.35-.05.02-.11,0-.14-.04-.2-.27-.47-.37-.81-.29-.05.01-.1-.01-.13-.05-.2-.35-.5-.5-.91-.45-.06,0-.12-.04-.13-.1,0-.01,0-.03,0-.04l.43-1.49c.02-.06.08-.09.14-.08,0,0,0,0,0,0,.74.25,1.45.38,2.14.4Z"/>
  <ellipse class="cls-2" cx="9.78" cy="25.3" rx=".3" ry=".29"/>
  <ellipse class="cls-2" cx="10.8" cy="25.82" rx=".25" ry=".25"/>
  <ellipse class="cls-2" cx="11.92" cy="26.11" rx=".19" ry=".18"/>
  <ellipse class="cls-2" cx="15.27" cy="26.43" rx=".31" ry=".3"/>
</svg>