<?xml version="1.0" encoding="UTF-8"?>
<svg id="Capa_2" data-name="Capa 2" xmlns="http://www.w3.org/2000/svg" viewBox="0 0 2766.9 2748.1">
  <defs>
    <style>
      .cls-1 {
        fill: #fff;
      }

      .cls-2 {
        fill: #90b5df;
      }

      .cls-3 {
        opacity: .5;
      }

      .cls-4 {
        opacity: .6;
      }

      .cls-5 {
        opacity: .2;
      }

      .cls-6 {
        fill: #ff9eba;
      }

      .cls-7 {
        fill: #e0e0e0;
      }

      .cls-8 {
        opacity: .35;
      }

      .cls-9 {
        opacity: .3;
      }

      .cls-10 {
        fill: #ff8a8e;
      }

      .cls-11 {
        fill: #000072;
      }

      .cls-12 {
        fill: #040056;
      }

      .cls-13 {
        fill: #ff0068;
      }

      .cls-14 {
        fill: #f2f2f2;
      }
    </style>
  </defs>
  <g id="Layer_1" data-name="Layer 1">
    <g>
      <g class="cls-5">
        <ellipse class="cls-11" cx="1452.04" cy="2588.73" rx="1280.12" ry="159.37"/>
      </g>
      <g>
        <path class="cls-2" d="m2477.49,2248.79v.98c0,2.07-.06,4.19-.11,6.31-.06.98-.06,1.95-.06,2.98-.06,1.89-.17,3.9-.23,5.85-.11,2.35-.29,4.7-.4,7.06,0,.34-.06.69-.06,1.03-.23,3.67-.57,7.34-.86,11.01-.52,4.7-1.03,9.35-1.55,14.05-.4,2.75-.75,5.51-1.2,8.32-.29,2.01-.57,3.96-.92,5.91-.4,2.41-.8,4.82-1.2,7.23-1.38,7.51-2.93,14.97-4.7,22.43-.29,1.26-.63,2.52-.97,3.84-.8,3.38-1.66,6.71-2.58,10.04-.92,3.5-1.89,7.06-2.98,10.5-1.03,3.56-2.18,7.06-3.27,10.55-.11.34-.23.69-.34,1.03-1.15,3.44-2.35,7-3.61,10.44-.23.69-.46,1.38-.75,2.07-1.15,3.1-2.29,6.19-3.5,9.29-.29.69-.57,1.38-.8,2.06-1.32,3.33-2.7,6.6-4.13,9.92-1.55,3.67-3.15,7.29-4.88,10.9-1.61,3.61-3.38,7.23-5.16,10.78-1.95,3.96-4.01,7.92-6.14,11.82-1.55,2.87-3.15,5.68-4.76,8.49-8.95,15.55-18.93,30.23-29.83,43.77-1.2,1.49-2.47,2.93-3.67,4.42-3.67,4.42-7.4,8.66-11.3,12.73-2.47,2.75-5.05,5.39-7.63,7.92-17.5,17.15-36.77,31.61-57.76,42.56,0,0-.06,0-.17.11-18.01,9.35-37.29,16.06-57.71,19.73-175.07,31.21-358.57-89.31-358.57-89.31-3.5,1.72-7,3.38-10.5,4.99-99.92,46.81-222.22,75.43-349.45,85.7-203.41,16.46-419.38-13.77-576.55-90.69,0,0-183.5,120.52-358.57,89.31-20.42-3.67-39.69-10.38-57.71-19.73-.11-.11-.17-.11-.17-.11-20.99-10.96-40.27-25.41-57.71-42.56-2.58-2.52-5.16-5.16-7.69-7.92-3.9-4.07-7.63-8.32-11.3-12.73-1.2-1.49-2.47-2.93-3.67-4.42-10.9-13.54-20.88-28.22-29.83-43.77-1.61-2.81-3.21-5.62-4.76-8.49-2.12-3.9-4.19-7.86-6.14-11.82-1.78-3.56-3.56-7.17-5.16-10.78-1.72-3.61-3.33-7.23-4.88-10.9-1.43-3.33-2.81-6.6-4.13-9.92-.23-.69-.52-1.38-.8-2.06-1.2-3.1-2.35-6.2-3.5-9.29-.29-.69-.52-1.38-.75-2.07-1.26-3.44-2.47-7-3.61-10.44-.11-.34-.23-.69-.34-1.03-1.09-3.5-2.24-7-3.27-10.55-1.09-3.44-2.06-7-2.98-10.5-.92-3.33-1.78-6.65-2.58-10.04-.34-1.32-.69-2.58-.97-3.84-1.78-7.46-3.33-14.91-4.65-22.43-.46-2.41-.86-4.82-1.26-7.23-.29-1.95-.63-3.9-.92-5.91-.4-2.81-.8-5.56-1.21-8.32-.52-4.7-1.03-9.35-1.55-14.05-.29-3.67-.63-7.34-.86-11.01,0-.34-.06-.69-.06-1.03-.11-2.35-.29-4.7-.34-7.06-.11-1.95-.23-3.96-.29-5.85,0-1.03,0-2.01-.06-2.98-.06-2.12-.11-4.24-.11-6.31v-.98c0-3.44,0-6.94.17-10.38.06-5.33.29-10.61.69-15.95.17-2.7.4-5.45.63-8.09.23-2.75.52-5.45.86-8.09.29-2.29.57-4.59.92-6.88.23-1.89.52-3.79.8-5.68.23-1.49.52-3.04.75-4.53.46-2.75.98-5.51,1.55-8.2.46-2.06.86-4.13,1.32-6.2.57-2.52,1.2-5.11,1.84-7.63.63-2.52,1.32-4.99,2.01-7.51.63-2.24,1.32-4.42,2.01-6.6.57-1.95,1.21-3.79,1.89-5.68.75-2.24,1.55-4.47,2.29-6.65.11-.23.17-.4.29-.57.63-1.78,1.26-3.56,2.01-5.28.29-.69.57-1.38.8-2.12.92-2.01,1.78-4.02,2.64-5.97.69-1.55,1.32-2.98,2.01-4.42,2.06-4.36,4.36-8.72,6.65-12.91,3.61-6.42,7.51-12.56,11.82-18.47.98-1.43,2.07-2.87,3.16-4.24.17-.29.4-.57.63-.86,1.15-1.49,2.35-3.04,3.61-4.47.11-.17.23-.34.46-.57.17-.23.4-.46.63-.75.63-.75,1.26-1.49,1.89-2.24.69-.8,1.38-1.55,2.06-2.29.11-.11.17-.23.34-.4,1.32-1.49,2.7-2.98,4.19-4.42,3.84-3.96,7.86-7.74,12.16-11.3,1.26-1.15,2.52-2.18,3.84-3.15,1.32-1.09,2.7-2.12,4.07-3.1,1.49-1.09,3.04-2.18,4.59-3.27,1.55-1.09,3.16-2.18,4.76-3.16,1.43-.92,2.87-1.84,4.42-2.7,2.52-1.55,5.1-2.98,7.74-4.36,6.43-3.38,12.68-6.25,18.87-8.78,2.01-.8,3.9-1.55,5.91-2.29,1.72-.63,3.38-1.26,5.16-1.84,3.61-1.26,7.23-2.35,10.84-3.33,1.03-.29,2.12-.57,3.21-.86,1.55-.4,3.04-.75,4.53-1.09,1.38-.34,2.81-.63,4.19-.92.98-.17,2.01-.34,2.98-.52,1.43-.29,2.93-.57,4.42-.8.98-.17,1.95-.29,2.92-.4,1.55-.23,3.1-.4,4.59-.63,1.15-.11,2.35-.23,3.44-.29,1.26-.17,2.52-.23,3.79-.34.75-.06,1.49-.11,2.24-.11,3.1-.17,6.14-.29,9.18-.29,2.12,0,4.3.06,6.37.17h.34c3.5.11,6.94.34,10.27.75,1.15.11,2.3.23,3.44.4.8.06,1.61.23,2.41.29.29.06.52.06.75.11,1.15.11,2.29.34,3.38.52.29.06.63.11.92.11,2.47.4,4.88.86,7.29,1.38.86.17,1.78.4,2.58.63,3.1.69,6.08,1.43,9.01,2.29,1.32.34,2.58.75,3.84,1.09,4.47,1.38,8.89,2.93,13.25,4.65,4.24,1.66,8.43,3.44,12.45,5.39,2.7,1.2,5.33,2.52,7.92,3.9.17.06.29.17.46.23,2.41,1.26,4.76,2.58,7.06,3.9,13.54,7.74,25.18,16.29,34.76,24.26.92.75,1.72,1.43,2.58,2.18.86.69,1.66,1.43,2.47,2.12,9.52,8.38,16.52,15.72,20.65,20.42,2.98,3.27,4.47,5.28,4.47,5.28,0,0,9.75-9.75,31.89-26.73,11.53-8.83,26.44-19.68,45.09-32.12,0,0,28.34-104.97,82.43-231.8,31.72-74.46,72.33-156.43,121.26-229.11l423.97-88.34,423.97,88.34c42.85,63.67,79.33,134.51,109.05,201.11,62.01,138.99,94.65,259.79,94.65,259.79,18.7,12.45,33.56,23.29,45.09,32.12,22.14,16.98,31.89,26.73,31.89,26.73,0,0,1.49-2.01,4.47-5.28,4.13-4.7,11.13-12.05,20.65-20.42.8-.69,1.61-1.43,2.47-2.12.86-.75,1.72-1.43,2.58-2.18,9.58-7.97,21.22-16.52,34.76-24.26,2.29-1.32,4.65-2.64,7.06-3.9.17-.06.29-.17.46-.23,2.58-1.38,5.22-2.7,7.92-3.9,4.01-1.95,8.2-3.73,12.51-5.39,4.3-1.72,8.72-3.27,13.19-4.65,1.26-.34,2.52-.75,3.84-1.09,2.93-.86,5.97-1.61,9.01-2.29.8-.23,1.72-.46,2.64-.63,2.35-.52,4.76-.98,7.23-1.38.29,0,.63-.06.92-.11,1.15-.17,2.24-.4,3.38-.52.23-.06.46-.06.75-.11.8-.06,1.61-.23,2.41-.29,1.15-.17,2.29-.29,3.44-.4,3.33-.4,6.77-.63,10.27-.75h.34c2.07-.11,4.24-.17,6.37-.17,3.04,0,6.08.11,9.18.29.75,0,1.49.06,2.24.11,1.26.11,2.52.17,3.79.34,1.09.06,2.3.17,3.44.29,1.55.23,3.1.4,4.65.63.92.11,1.89.23,2.87.4,1.49.23,2.98.52,4.42.8.97.17,2.01.34,3.04.52,1.32.29,2.75.57,4.13.92,1.49.34,2.98.69,4.53,1.09,1.09.29,2.18.57,3.21.86,3.61.98,7.23,2.07,10.84,3.33,1.78.57,3.44,1.2,5.16,1.84,2.01.75,3.9,1.49,5.91,2.29,6.2,2.52,12.45,5.39,18.87,8.78,2.64,1.38,5.22,2.81,7.8,4.36,1.49.86,2.93,1.78,4.36,2.7,1.61.98,3.21,2.07,4.76,3.16,1.55,1.09,3.1,2.18,4.59,3.27,1.38.98,2.75,2.01,4.07,3.1,1.32.98,2.58,2.01,3.84,3.15,4.3,3.56,8.32,7.34,12.22,11.3,1.43,1.43,2.81,2.93,4.13,4.42.17.17.23.29.34.4.69.75,1.38,1.49,2.06,2.29.63.75,1.26,1.49,1.89,2.24.23.29.46.52.63.75.23.23.34.4.46.57,1.26,1.43,2.47,2.98,3.61,4.47.23.29.46.57.63.86,1.09,1.38,2.18,2.81,3.16,4.24,4.3,5.91,8.2,12.05,11.82,18.47,2.29,4.19,4.59,8.55,6.65,12.91.69,1.43,1.32,2.87,2.01,4.42.86,1.95,1.72,3.96,2.64,5.97.23.75.52,1.43.8,2.12.75,1.72,1.38,3.5,2.01,5.28.11.17.17.34.29.57.8,2.18,1.55,4.42,2.35,6.65.4,1.2.8,2.35,1.15,3.56.23.69.46,1.38.69,2.12.75,2.18,1.38,4.36,2.01,6.6.69,2.52,1.38,4.99,2.01,7.51.63,2.52,1.26,5.11,1.84,7.63.46,2.06.86,4.13,1.32,6.2.86,4.19,1.61,8.43,2.29,12.73.29,1.89.57,3.79.8,5.68.34,2.29.63,4.59.92,6.88.34,2.64.63,5.33.86,8.09.23,2.64.46,5.39.63,8.09.4,5.33.63,10.61.69,15.95.17,3.44.17,6.94.17,10.38Z"/>
        <g class="cls-5">
          <path class="cls-12" d="m1960.43,1778.64c-166.29,69.18-363.91,109.22-575.92,109.22-181.55,0-352.55-29.37-502.32-81.23,31.72-74.46,72.33-156.43,121.26-229.11l423.97-88.34,423.97,88.34c42.85,63.67,79.33,134.51,109.05,201.11Z"/>
        </g>
        <path class="cls-11" d="m630.29,2603.63c-44.53,0-81.03-11.67-94.42-16.6l-.54-.2c-.6-.21-1.22-.46-1.83-.74-.46-.21-.93-.42-1.38-.66-22.43-11.69-43.71-27.36-63.23-46.57-3.14-3.08-5.87-5.89-8.34-8.58-4.01-4.21-8-8.72-12.2-13.77-1.21-1.44-2.5-2.98-3.79-4.57-11.61-14.41-22.32-30.11-31.93-46.77-1.76-3.1-3.43-6.05-5.05-9.04-2.25-4.15-4.45-8.35-6.54-12.6-1.86-3.7-3.71-7.52-5.47-11.39-1.71-3.67-3.46-7.58-5.12-11.49-1.46-3.42-2.91-6.91-4.31-10.45l-1.15-2.86c-1.1-2.92-2.21-5.84-3.27-8.75-.35-.89-.66-1.74-.96-2.63-1.26-3.46-2.48-6.96-3.6-10.42-.24-.66-.45-1.32-.65-1.99l-.06-.19c-1.12-3.51-2.24-7.02-3.27-10.53-1.07-3.44-2.14-7.26-3.16-11.08-.94-3.52-1.88-7.07-2.73-10.66l-.14-.54c-.31-1.22-.61-2.41-.87-3.6-1.76-7.37-3.43-15.34-4.88-23.35-.46-2.62-.91-5.16-1.31-7.71-.32-1.9-.68-4.06-.99-6.21-.42-2.8-.81-5.67-1.2-8.54-.62-5.2-1.16-9.99-1.64-14.83l-.07-.76c-.33-3.68-.65-7.36-.89-11.04-.01-.26-.02-.52-.03-.79-.01-.26-.03-.51-.03-.77-.15-2.37-.28-4.75-.38-7.12-.1-1.87-.19-3.94-.24-5.98-.04-1.08-.06-2.16-.06-3.25-.09-2.28-.14-4.56-.14-6.79v-.99c0-3.7,0-7.39.15-11.04.1-5.62.35-11.31.75-16.91.2-2.84.44-5.7.69-8.51.25-2.96.57-5.91.93-8.85.29-2.45.6-4.93.96-7.36.22-1.84.55-4.08.94-6.32.71-4.66,1.54-9.28,2.48-13.63.41-2.01.87-4.24,1.37-6.48.59-2.65,1.25-5.45,1.96-8.15.67-2.74,1.43-5.43,2.18-8.12.63-2.33,1.38-4.81,2.19-7.34.66-2.1,1.34-4.18,2.07-6.26.74-2.2,1.62-4.63,2.49-7.01.14-.39.28-.78.44-1.17.68-1.84,1.36-3.62,2.09-5.42l.81-2.03c.09-.22.19-.45.29-.68l.96-2.2c.59-1.36,1.17-2.71,1.77-4.04.63-1.46,1.42-3.18,2.25-4.91,2-4.23,4.38-8.85,7.18-13.94,4.25-7.57,8.54-14.28,13.18-20.66,1.1-1.61,2.28-3.17,3.48-4.73.32-.44.67-.89,1.03-1.33,1.19-1.56,2.45-3.13,3.73-4.66.41-.52.84-1.04,1.32-1.56.09-.1.18-.2.25-.28l1.51-1.81c.2-.25.41-.49.62-.73.85-.97,1.52-1.72,2.19-2.45.14-.16.28-.31.42-.47h0c1.66-1.83,3.24-3.55,4.91-5.18,4.35-4.49,8.78-8.6,13.54-12.55,1.52-1.34,3.04-2.58,4.61-3.77,1.54-1.25,3.13-2.46,4.71-3.61,1.43-1.07,3.14-2.27,4.87-3.47,1.99-1.39,3.95-2.71,5.9-3.92,1.34-.86,3.04-1.91,4.79-2.95,2.84-1.68,5.76-3.33,8.79-4.92,6.88-3.59,13.88-6.85,20.86-9.7,2.32-.94,4.53-1.8,6.78-2.61,1.77-.67,3.8-1.4,5.88-2.07,3.86-1.34,7.83-2.56,11.68-3.59,1.21-.36,2.42-.68,3.63-1l1.23-.3c1.44-.35,2.85-.69,4.25-1,1.01-.25,2.53-.56,4.01-.86.08-.02.58-.12.66-.14l3.01-.57c1.72-.33,3.45-.64,5.15-.89,1.23-.21,2.45-.39,3.63-.52,1.56-.22,3.12-.42,4.63-.61,1.5-.19,2.89-.3,4.23-.41.88-.1,2.21-.21,3.51-.32l3.12-.21c6.69-.31,12.14-.38,17.62-.14.27,0,.55,0,.72.01,4.18.17,7.95.44,11.52.83,1.38.12,2.72.28,4.06.45.37.04,1.06.14,1.74.23.22.02.57.07.91.12.18.02.36.04.55.07h0c1.3.17,2.62.38,3.93.59l.89.15c2.97.45,5.83,1,8.7,1.62,1.04.21,2.21.47,3.34.77,3.34.78,6.62,1.61,9.8,2.53l3.99,1.17c5.03,1.57,9.93,3.27,14.87,5.15,5.37,2.12,9.92,4.09,14.18,6.12,2.68,1.22,5.63,2.69,8.54,4.22.18.09.35.18.53.27,2.71,1.41,5.31,2.86,7.87,4.32,13.11,7.51,25.9,16.45,38.06,26.58.02.02.42.35.44.37.83.69,1.63,1.37,2.43,2.07.9.76,1.77,1.52,2.63,2.29,10.36,9.08,18.06,17.19,22.69,22.39,2.92,3.24,4.72,5.52,5.35,6.33.59.73,2.94,3.72,6.62,8.66,39.21,52.99,160.43,237.88,74.93,393.77h0c-52.33,95.4-130,118.11-192.09,118.11Zm-78.11-59.49c36.99,13.48,160.29,46.32,229.96-80.68,74.26-135.4-46.58-310.62-71.56-344.37-3.47-4.67-5.56-7.29-5.7-7.47-.11-.14-.22-.28-.33-.42-.17-.22-1.3-1.64-3.29-3.84-3.84-4.32-10.13-10.94-18.76-18.51-.72-.63-1.34-1.19-2-1.73-.2-.17-.39-.33-.58-.5-.57-.5-1.13-.98-1.72-1.47-10.41-8.67-20.99-16.07-31.74-22.24-1.91-1.09-3.89-2.2-5.95-3.28-.39-.19-.77-.38-1.12-.58-2.36-1.23-4.4-2.25-6.49-3.2-3.67-1.74-7.29-3.3-11.41-4.93-3.79-1.45-7.8-2.84-11.64-4.03l-3.33-.97c-2.59-.75-5.18-1.4-7.8-2-.33-.07-.66-.16-.98-.25-.38-.1-.78-.18-1.18-.26-2.08-.45-4.01-.83-6.02-1.14-.18-.02-.36-.05-.54-.09l-.82-.13c-.88-.15-1.62-.27-2.35-.37-.02,0-.04,0-.06,0-.29-.03-.59-.07-.89-.11-.45-.05-.9-.12-1.35-.19l-.54-.07c-1.12-.14-1.9-.24-2.72-.31-.25-.02-.51-.04-.76-.07-2.48-.28-5.18-.48-8.24-.61-.3,0-.63,0-.83-.02-4.29-.2-8.87-.11-13.5.1l-2.01.14c-.8.06-1.63.12-2.45.21-.22.02-.45.05-.67.06-1.01.08-1.8.15-2.6.24-1.28.16-2.61.32-3.94.52-.39.06-.77.11-1.16.15-.3.03-.62.08-.93.14-.42.08-.84.15-1.26.2-1.02.14-2.06.35-3.08.54l-2.97.56c-1.14.23-2.15.43-3.12.67-1.5.34-2.55.59-3.61.85l-.88.21c-.39.11-1.2.31-2,.56-.27.08-.55.16-.83.23-2.83.74-5.83,1.67-9.16,2.82-1.86.61-3.21,1.1-4.6,1.62-1.99.72-3.63,1.36-5.32,2.04-5.61,2.29-11.3,4.95-16.88,7.86-2.27,1.19-4.51,2.46-6.71,3.76-1.28.76-2.49,1.5-3.69,2.28-1.61,1-2.84,1.84-4.05,2.68-1.4.98-2.71,1.89-3.99,2.85-1.24.9-2.24,1.66-3.2,2.45-.27.22-.54.43-.82.64-.81.6-1.58,1.24-2.36,1.92-.2.18-.41.36-.62.53-3.62,2.99-6.99,6.12-10.31,9.56-.19.2-.38.39-.57.57-1.04,1-2,2.08-2.96,3.14-.25.3-.5.58-.75.83-.47.51-.92,1.02-1.39,1.55l-1.48,1.78c-.21.26-.66.78-.95,1.11-.05.06-.11.13-.16.19-.09.11-.17.21-.25.3-.96,1.15-1.92,2.33-2.81,3.51-.17.23-.35.45-.53.67-.09.12-.18.24-.26.36-.81,1.05-1.62,2.08-2.35,3.17-.15.22-.3.44-.46.65-3.65,5-7.03,10.3-10.35,16.21-2.25,4.08-4.2,7.88-5.88,11.44-.65,1.35-1.19,2.53-1.72,3.75-.63,1.4-1.1,2.49-1.58,3.59l-1.6,3.82c-.69,1.71-1.26,3.21-1.83,4.75-.09.23-.18.47-.27.7l-.1.27c-.58,1.58-1.3,3.56-1.98,5.59-.68,1.95-1.22,3.63-1.77,5.35-.61,1.91-1.17,3.75-1.69,5.67-.69,2.45-1.32,4.65-1.86,6.89-.04.17-.08.34-.13.51-.58,2.18-1.11,4.45-1.61,6.68-.46,2.01-.84,3.91-1.23,5.8-.79,3.69-1.46,7.43-2.11,11.66-.34,1.99-.56,3.5-.76,5.05-.36,2.54-.62,4.66-.88,6.78-.3,2.43-.55,4.84-.76,7.28-.22,2.58-.45,5.17-.63,7.76-.35,4.9-.57,9.85-.65,14.75,0,.19,0,.37-.01.55-.13,3.12-.12,6.27-.12,9.43v.99c0,1.73.04,3.51.12,5.28.01.34.02.67.02,1.01,0,.61,0,1.21.02,1.81,0,.21.02.41.02.62.04,1.73.12,3.49.21,5.26.1,2.42.23,4.6.37,6.79,0,.23.02.47.03.7.01.23.02.46.03.69.21,3.16.49,6.32.78,9.48l.04.53c.43,4.3.93,8.8,1.48,13.35.32,2.31.68,4.99,1.08,7.7.27,1.9.57,3.7.87,5.49.39,2.49.79,4.74,1.19,6.99,1.28,7.1,2.77,14.23,4.42,21.11.25,1.13.46,1.93.66,2.75l.22.87c.81,3.42,1.65,6.54,2.48,9.66.86,3.25,1.76,6.47,2.75,9.64,1.04,3.52,2.06,6.69,3.07,9.87l.17.53s.03.09.04.14c.09.25.18.5.26.76,1.04,3.2,2.16,6.45,3.34,9.66.07.21.15.41.21.62l.27.75c.1.25.2.5.28.75,1.03,2.83,2.1,5.65,3.17,8.48l.86,2.13c1.29,3.29,2.57,6.37,3.89,9.45,1.47,3.48,3.01,6.89,4.58,10.26,1.62,3.55,3.23,6.87,4.89,10.18,1.9,3.85,3.84,7.54,5.81,11.18,1.48,2.73,3,5.42,4.53,8.11,8.34,14.46,17.71,28.19,27.76,40.67,1.07,1.31,2.22,2.68,3.37,4.05,3.65,4.39,7,8.18,10.33,11.67.12.13.24.25.36.38,2.2,2.41,4.48,4.73,6.77,6.97,15.96,15.71,33.15,28.48,51.13,38.01Zm250.08-69.65h.05-.05Zm-358.74-375.05c-.12.17-.23.34-.35.51.12-.17.24-.34.35-.51Zm1.78-2.32c-.05.05-.11.11-.17.16.06-.05.11-.11.17-.16Zm.03-.03s-.02.02-.03.02c0,0,.02-.01.03-.02Zm.02-.03s0,0,0,0c0,0,0,0,0,0Zm216.09-78.25c.07.04.14.08.19.11-.06-.03-.12-.07-.19-.11Zm-3.83-1.6s0,0,.01,0c0,0,0,0-.01,0Zm-.03,0s.01,0,.02,0c0,0-.01,0-.02,0Zm-65.34-21.07c.12.02.23.04.34.05h0c-.11-.02-.22-.03-.34-.05Z"/>
        <circle class="cls-14" cx="603.18" cy="2329.23" r="100.13" transform="translate(-1470.35 1108.73) rotate(-45)"/>
        <g>
          <path class="cls-14" d="m472.36,2154.59c0,46.71-37.83,84.49-84.49,84.49-3.52,0-6.99-.23-10.37-.66.09-5.35.33-10.66.7-15.96.19-2.72.42-5.45.66-8.12.23-2.72.52-5.4.85-8.07.28-2.3.56-4.6.89-6.85.23-1.92.52-3.8.84-5.68.66-4.32,1.41-8.59,2.3-12.77.42-2.07.85-4.13,1.31-6.2.56-2.53,1.17-5.12,1.83-7.6.61-2.53,1.31-5.02,2.02-7.51.61-2.25,1.27-4.41,1.97-6.62.61-1.92,1.22-3.8,1.88-5.68.75-2.25,1.55-4.46,2.35-6.62.09-.24.14-.42.23-.61.66-1.78,1.31-3.52,2.02-5.26.28-.7.56-1.41.84-2.11.89-2.02,1.74-4.04,2.63-6.01.66-1.5,1.31-2.96,2.02-4.41,2.07-4.37,4.32-8.68,6.62-12.86,3.61-6.43,7.51-12.58,11.83-18.49.99-1.46,2.07-2.86,3.15-4.27.19-.28.42-.56.66-.84,1.13-1.5,2.35-3,3.57-4.46.14-.19.28-.38.47-.56,2.3,1.27,4.51,2.68,6.67,4.13v.05c9.34,6.38,17.27,14.65,23.38,24.22,8.36,13.1,13.19,28.68,13.19,45.34Z"/>
          <path class="cls-14" d="m591.54,2039.63c0,46.71-37.83,84.49-84.49,84.49-17.79,0-34.27-5.49-47.88-14.88-9.34-6.38-17.32-14.65-23.38-24.22-1.5-2.3-2.86-4.69-4.13-7.18.7-.8,1.36-1.55,2.07-2.3.09-.09.19-.23.33-.38,1.36-1.5,2.72-3,4.18-4.41,3.85-3.99,7.89-7.75,12.2-11.31,1.27-1.13,2.53-2.16,3.85-3.15,1.31-1.08,2.68-2.11,4.04-3.1,1.5-1.13,3.05-2.21,4.6-3.29,1.55-1.08,3.14-2.16,4.74-3.15,1.45-.94,2.91-1.83,4.41-2.72,2.53-1.5,5.12-2.96,7.79-4.37,6.38-3.33,12.67-6.24,18.87-8.78,1.97-.8,3.9-1.55,5.87-2.25,1.74-.66,3.43-1.27,5.16-1.83,3.66-1.27,7.28-2.39,10.84-3.33,1.08-.33,2.16-.61,3.24-.89,1.55-.38,3.05-.75,4.55-1.08,1.36-.33,2.77-.61,4.13-.89.99-.19,2.02-.38,3-.56,1.46-.28,2.96-.56,4.41-.75.99-.19,1.97-.33,2.91-.42,1.55-.23,3.1-.42,4.6-.61,1.17-.14,2.35-.23,3.47-.33,1.27-.14,2.53-.23,3.76-.33.75-.05,1.5-.09,2.25-.14,3.1-.14,6.15-.23,9.15-.23,2.16,0,4.32.05,6.38.14h.38c3.47.14,6.9.38,10.23.75,1.17.09,2.3.23,3.43.38.85.09,1.64.23,2.44.33,1.69,6.67,2.58,13.61,2.58,20.79Z"/>
          <path class="cls-14" d="m754.66,2070.56c-5.4,13.75-14.32,25.77-25.63,34.88-14.5,11.69-32.91,18.68-53,18.68-46.66,0-84.49-37.79-84.49-84.49,0-6.9.85-13.61,2.44-20.04,2.49.38,4.88.84,7.28,1.36.89.19,1.78.38,2.63.61,3.05.7,6.06,1.46,8.97,2.3,1.31.38,2.58.75,3.85,1.13,4.51,1.36,8.92,2.91,13.24,4.6,4.27,1.69,8.45,3.47,12.49,5.4,2.68,1.22,5.3,2.53,7.89,3.9.19.09.33.19.47.23,2.44,1.27,4.79,2.58,7.09,3.9,13.52,7.75,25.16,16.29,34.74,24.27.89.75,1.74,1.46,2.58,2.21.84.7,1.64,1.41,2.44,2.11,9.53,8.36,16.52,15.73,20.7,20.42,2.96,3.29,4.46,5.26,4.46,5.26,0,0,9.76-9.72,31.87-26.71Z"/>
        </g>
        <g>
          <path class="cls-11" d="m387.87,2262.03c-4.36,0-8.81-.28-13.24-.84-11.63-1.46-20.28-11.45-20.08-23.16.1-5.71.35-11.49.76-17.18.2-2.84.44-5.7.69-8.51.25-2.96.57-5.91.93-8.85.29-2.45.6-4.93.96-7.36.22-1.84.55-4.08.94-6.32.71-4.66,1.54-9.28,2.48-13.63.41-2.01.87-4.24,1.37-6.48.59-2.65,1.25-5.45,1.96-8.15.67-2.74,1.43-5.43,2.18-8.12.63-2.33,1.38-4.81,2.19-7.34.66-2.1,1.34-4.18,2.07-6.26.74-2.2,1.62-4.63,2.49-7.01.14-.39.28-.78.44-1.17.68-1.83,1.36-3.62,2.09-5.42l.81-2.03c.09-.22.19-.45.29-.68l.96-2.2c.59-1.36,1.17-2.71,1.77-4.04.63-1.46,1.42-3.18,2.25-4.91,2-4.23,4.38-8.85,7.18-13.94,4.25-7.57,8.54-14.28,13.18-20.67,1.1-1.6,2.28-3.16,3.48-4.72.32-.44.67-.89,1.03-1.33,1.19-1.57,2.46-3.13,3.73-4.66.69-.88,1.45-1.74,2.35-2.62,7.23-7.05,18.22-8.54,27.07-3.67,2.61,1.44,5.29,3.1,8.44,5.21.44.3.87.61,1.29.94,11.4,8.02,21.02,18.12,28.6,30.03,10.98,17.19,16.79,37.14,16.79,57.67,0,59.24-48.19,107.44-107.44,107.44Zm28.72-113.25l-.1.26c-.58,1.58-1.3,3.56-1.98,5.59-.68,1.95-1.22,3.63-1.77,5.35-.61,1.91-1.17,3.75-1.69,5.67-.69,2.45-1.32,4.65-1.86,6.89-.04.17-.08.34-.13.51-.58,2.18-1.11,4.45-1.61,6.68-.46,2.01-.84,3.91-1.23,5.8-.79,3.69-1.46,7.43-2.11,11.66-.34,1.99-.56,3.5-.76,5.05-.36,2.54-.62,4.66-.88,6.78-.22,1.84-.42,3.66-.6,5.5,27.21-6.36,47.54-30.83,47.54-59.95,0-11.76-3.32-23.17-9.59-33-1.84-2.88-3.87-5.58-6.1-8.07-1.45,2.3-2.86,4.7-4.26,7.2-2.25,4.08-4.2,7.88-5.88,11.44-.65,1.35-1.19,2.53-1.72,3.75-.63,1.4-1.1,2.49-1.58,3.59l-1.6,3.82c-.69,1.71-1.26,3.21-1.83,4.76-.09.23-.18.47-.27.7Z"/>
          <path class="cls-11" d="m507.04,2147.06c-21.88,0-42.95-6.55-60.91-18.94-11.93-8.16-21.97-18.55-29.74-30.85-1.69-2.59-3.45-5.64-5.18-9.02-4.28-8.39-2.99-18.55,3.24-25.61.85-.97,1.52-1.72,2.19-2.45.14-.16.28-.31.42-.47h0c1.66-1.83,3.24-3.54,4.91-5.18,4.35-4.49,8.78-8.6,13.54-12.55,1.52-1.34,3.04-2.58,4.61-3.77,1.54-1.25,3.12-2.46,4.71-3.61,1.43-1.07,3.14-2.27,4.87-3.47,1.99-1.39,3.95-2.71,5.9-3.92,1.34-.86,3.04-1.91,4.79-2.95,2.84-1.68,5.76-3.33,8.79-4.92,6.88-3.59,13.88-6.85,20.86-9.7,2.32-.94,4.53-1.8,6.78-2.61,1.77-.67,3.8-1.4,5.88-2.07,3.86-1.34,7.82-2.56,11.67-3.59,1.21-.36,2.42-.68,3.63-1l1.23-.3c1.44-.35,2.85-.69,4.25-1,1.01-.25,2.53-.56,4.01-.86.08-.02.58-.12.66-.14l3.01-.57c1.72-.33,3.45-.64,5.15-.89,1.23-.21,2.45-.39,3.63-.52,1.56-.22,3.12-.42,4.63-.61,1.5-.19,2.89-.3,4.23-.41.88-.1,2.21-.21,3.51-.32l3.12-.21c6.69-.31,12.14-.38,17.62-.14.27,0,.55,0,.72.01,4.18.17,7.95.44,11.52.83,1.38.12,2.72.28,4.06.45.37.04,1.06.14,1.74.23,9.46,1.1,17.74,7.99,20.08,17.22,2.18,8.6,3.29,17.5,3.29,26.44,0,59.24-48.2,107.44-107.44,107.44Zm-45.97-66.51c3.31,3.72,7.01,7,11.04,9.75,10.34,7.13,22.39,10.87,34.93,10.87,33.75,0,61.24-27.3,61.55-60.97-3.47-.06-7.02.03-10.64.19l-2.01.14c-.8.06-1.63.12-2.45.21-.22.02-.45.05-.67.06-1.01.08-1.8.14-2.6.24-1.28.16-2.61.32-3.94.52-.39.06-.77.11-1.16.15-.3.03-.62.08-.93.14-.42.08-.84.15-1.26.2-1.02.14-2.06.35-3.08.54l-2.97.56c-1.14.23-2.15.43-3.12.67-1.5.34-2.55.59-3.61.85l-.88.21c-.39.11-1.2.31-2,.56-.27.08-.55.16-.83.23-2.83.74-5.83,1.67-9.16,2.82-1.86.61-3.2,1.1-4.6,1.62-1.99.72-3.63,1.36-5.32,2.04-5.61,2.29-11.3,4.95-16.88,7.86-2.27,1.19-4.51,2.46-6.71,3.76-1.28.76-2.49,1.5-3.69,2.28-1.61,1-2.84,1.84-4.05,2.68-1.4.98-2.71,1.89-3.99,2.85-1.24.9-2.24,1.66-3.2,2.45-.27.22-.54.43-.82.64-.81.6-1.58,1.24-2.36,1.92-.2.18-.41.36-.62.53-1.36,1.12-2.68,2.27-3.98,3.44Z"/>
          <path class="cls-11" d="m676.03,2147.06c-59.24,0-107.44-48.19-107.44-107.44,0-8.62,1.04-17.22,3.11-25.56,2.84-11.5,13.95-18.97,25.7-17.17,2.97.45,5.83,1,8.7,1.62,1.04.21,2.21.47,3.34.77,3.34.78,6.62,1.61,9.8,2.53l3.99,1.17c4.94,1.49,9.99,3.24,15.06,5.22,5.18,2.05,9.73,4.01,13.99,6.05,2.68,1.22,5.63,2.69,8.54,4.22.18.09.35.18.53.27,2.71,1.41,5.31,2.86,7.87,4.32,13.11,7.51,25.9,16.45,38.06,26.58.02.02.42.35.44.37.83.69,1.63,1.37,2.43,2.07.9.76,1.77,1.52,2.63,2.29,4.39,3.85,8.3,7.52,11.7,10.87,4.49-3.71,9.87-8.02,16.18-12.88,8.17-6.27,19.53-6.34,27.77-.15,8.24,6.19,11.34,17.12,7.57,26.72-6.8,17.33-18.08,32.68-32.61,44.38-18.99,15.31-42.93,23.75-67.38,23.75Zm-60.9-98.48c4.35,29.71,30,52.59,60.9,52.59,5.89,0,11.63-.81,17.11-2.39-3.02-3.01-6.57-6.37-10.64-9.94-.72-.63-1.34-1.19-2-1.73-.2-.17-.39-.33-.58-.5-.57-.5-1.13-.98-1.72-1.47-10.41-8.67-20.99-16.07-31.74-22.24-1.91-1.09-3.89-2.2-5.95-3.28-.39-.19-.76-.38-1.11-.58-2.36-1.23-4.41-2.25-6.49-3.2-3.67-1.74-7.29-3.3-11.41-4.93-2.13-.83-4.26-1.62-6.36-2.34Zm46.31-29.77c.06.03.12.07.17.09-.05-.03-.11-.06-.17-.09Zm-3.83-1.61s0,0,.01,0c0,0,0,0-.01,0Zm-.03,0s.01,0,.02,0c0,0-.01,0-.02,0Z"/>
        </g>
        <path class="cls-11" d="m1427.42,2613.61c-174.78,0-339.91-32.57-466.8-91.88-43.59,26.16-205.13,114.11-364.05,85.79-22.16-3.97-43.71-11.34-64.08-21.9-.12-.06-.25-.13-.38-.19-22.43-11.69-43.71-27.36-63.23-46.57-3.14-3.08-5.88-5.9-8.34-8.58-4.01-4.21-8-8.72-12.2-13.77-1.21-1.44-2.5-2.98-3.79-4.57-11.61-14.41-22.32-30.11-31.93-46.77-1.76-3.1-3.43-6.05-5.05-9.04-2.25-4.15-4.45-8.35-6.54-12.6-1.86-3.7-3.71-7.52-5.47-11.39-1.71-3.67-3.47-7.58-5.12-11.49-1.46-3.42-2.91-6.91-4.31-10.45l-1.15-2.86c-1.1-2.92-2.21-5.84-3.27-8.75-.35-.89-.66-1.75-.96-2.64-1.26-3.46-2.47-6.96-3.6-10.42-.24-.66-.45-1.32-.65-1.99l-.06-.19c-1.12-3.51-2.24-7.02-3.27-10.53-1.07-3.44-2.14-7.26-3.16-11.08-.94-3.52-1.88-7.07-2.73-10.66l-.14-.54c-.31-1.22-.61-2.41-.87-3.6-1.76-7.37-3.43-15.34-4.88-23.35-.46-2.62-.91-5.16-1.31-7.71-.32-1.9-.68-4.06-.99-6.21-.42-2.8-.81-5.67-1.2-8.54-.62-5.2-1.16-9.99-1.64-14.83l-.07-.76c-.33-3.68-.65-7.36-.89-11.04-.02-.26-.03-.52-.04-.78-.01-.26-.03-.52-.03-.78-.15-2.37-.28-4.75-.38-7.12-.1-1.87-.19-3.94-.24-5.98-.02-.57-.04-1.14-.05-1.7l-.02-.91c-.01-.22-.02-.43-.02-.65v-.6c-.06-2.08-.1-4.14-.1-6.17v-.99c0-3.7,0-7.4.15-11.04.1-5.62.35-11.31.75-16.91.2-2.84.44-5.7.69-8.51.25-2.96.57-5.91.93-8.85.29-2.45.6-4.93.96-7.36.22-1.84.55-4.08.94-6.32.71-4.66,1.54-9.28,2.48-13.63.41-2.01.87-4.24,1.37-6.48.59-2.65,1.25-5.45,1.97-8.16.66-2.74,1.42-5.43,2.18-8.12.63-2.33,1.38-4.81,2.19-7.34.66-2.1,1.34-4.18,2.07-6.26.74-2.2,1.62-4.63,2.49-7.01.14-.39.28-.78.44-1.16.68-1.84,1.36-3.63,2.09-5.42l.81-2.03c.09-.22.19-.45.29-.68l.96-2.2c.59-1.36,1.17-2.71,1.77-4.04.63-1.46,1.42-3.18,2.25-4.91,2-4.23,4.38-8.85,7.18-13.94,4.25-7.57,8.54-14.28,13.18-20.66,1.1-1.6,2.28-3.16,3.48-4.73.32-.44.67-.89,1.03-1.33,1.19-1.57,2.46-3.13,3.73-4.66.41-.52.84-1.04,1.32-1.56.09-.1.18-.2.25-.28l1.5-1.81c.2-.25.41-.49.62-.73.85-.97,1.52-1.72,2.19-2.45.14-.16.28-.31.42-.47h0c1.66-1.83,3.24-3.55,4.91-5.18,4.35-4.49,8.78-8.6,13.53-12.55,1.52-1.34,3.04-2.58,4.61-3.77,1.54-1.25,3.12-2.46,4.71-3.61,1.43-1.07,3.14-2.27,4.87-3.47,1.99-1.39,3.95-2.71,5.9-3.92,1.34-.86,3.04-1.91,4.79-2.95,2.84-1.68,5.76-3.33,8.79-4.92,6.88-3.59,13.88-6.85,20.86-9.7,2.32-.94,4.53-1.8,6.78-2.61,1.77-.67,3.8-1.4,5.88-2.07,3.86-1.34,7.83-2.57,11.68-3.59,1.21-.36,2.42-.68,3.62-1l1.23-.3c1.44-.35,2.85-.69,4.25-1,1.01-.25,2.53-.56,4.01-.86.08-.02.58-.12.66-.14l3.01-.57c1.72-.33,3.45-.64,5.15-.89,1.23-.21,2.45-.39,3.63-.52,1.56-.22,3.12-.42,4.63-.61,1.5-.18,2.89-.3,4.23-.41.88-.1,2.21-.21,3.51-.32l3.12-.21c6.69-.31,12.14-.38,17.62-.14.27,0,.55,0,.72.01,4.18.17,7.95.44,11.52.83,1.39.12,2.73.28,4.07.45.37.04,1.06.14,1.74.23.22.02.57.07.91.12.18.02.36.04.55.07h0c1.3.17,2.62.38,3.93.59l.89.15c2.97.45,5.83,1,8.7,1.62,1.04.21,2.21.47,3.34.77,3.34.78,6.62,1.61,9.8,2.53l3.99,1.17c4.94,1.49,9.99,3.24,15.06,5.22,5.18,2.05,9.73,4.01,13.99,6.05,2.68,1.22,5.63,2.69,8.54,4.22.18.09.35.18.53.27,2.71,1.41,5.31,2.86,7.87,4.32,13.11,7.51,25.9,16.45,38.06,26.58.02.02.42.35.44.37.83.69,1.63,1.37,2.43,2.07.9.76,1.77,1.52,2.63,2.29,4.39,3.85,8.3,7.52,11.7,10.87,4.49-3.71,9.87-8.02,16.18-12.88,12.32-9.41,25.49-18.88,39.27-28.23,13.49-47.42,83.19-279.26,204.47-459.41,3.34-4.97,8.49-8.43,14.35-9.65l423.97-88.34c3.1-.64,6.27-.64,9.37,0l423.97,88.34c5.86,1.22,11.01,4.68,14.35,9.65,121.28,180.15,190.98,411.99,204.47,459.41,13.77,9.35,26.93,18.8,39.21,28.19,6.34,4.87,11.73,9.19,16.24,12.92,3.39-3.34,7.31-7.03,11.73-10.9,1.05-.93,1.83-1.61,2.6-2.26.8-.7,1.6-1.37,2.43-2.07.02-.02.41-.35.44-.37,12.16-10.13,24.95-19.07,38.02-26.55,2.58-1.47,5.2-2.93,7.91-4.34.18-.09.35-.18.53-.26,2.91-1.53,5.87-3.01,8.89-4.38,3.94-1.88,8.49-3.85,13.57-5.86,5.25-2.05,10.15-3.75,15.06-5.23l4.15-1.22c3.11-.9,6.39-1.73,9.72-2.5,1.15-.3,2.33-.56,3.53-.81,2.67-.58,5.54-1.13,8.51-1.58l4.11,22.58-3.56-22.67c1.62-.27,2.96-.48,4.3-.65h0c.21-.02.41-.05.6-.07.12-.01.24-.03.36-.04,1.17-.17,1.88-.26,2.61-.34,1-.13,2.31-.29,3.7-.41,3.57-.39,7.34-.66,11.51-.83.27,0,.54-.02.81-.02,5.45-.23,11.22-.14,17.05.11l3.6.24c1.17.09,2.38.19,3.58.32,1.47.12,2.76.23,4.04.39,1.62.2,3.18.4,4.75.62,1.18.13,2.4.3,3.62.52,1.69.24,3.43.56,5.12.88l3.04.57c.08.01.45.09.53.11,1.52.31,3.09.63,4.6,1,.9.19,2.27.52,3.68.86l.92.22c1.59.41,2.84.74,4.05,1.1,3.87,1.03,7.84,2.26,12.14,3.75,1.63.52,3.65,1.25,5.73,2.03,1.94.69,4.15,1.55,6.42,2.47,7.03,2.87,14.03,6.13,20.86,9.7,3.08,1.62,6.01,3.27,8.88,4.97,1.72,1.02,3.43,2.07,5.13,3.16,1.59.97,3.54,2.29,5.43,3.61,1.97,1.38,3.61,2.53,5.21,3.73,1.35.98,2.93,2.18,4.49,3.44,1.56,1.19,3.07,2.42,4.59,3.75,4.73,3.92,9.16,8.03,13.54,12.55,1.63,1.59,3.17,3.27,4.71,4.96h0c.24.26.46.51.67.75.62.66,1.21,1.33,1.82,2.02.21.23.73.84.93,1.09l1.51,1.81c.06.06.12.14.19.21.49.53.94,1.06,1.36,1.59,1.27,1.52,2.53,3.09,3.72,4.65.39.47.76.95,1.1,1.42,1.23,1.61,2.37,3.12,3.44,4.68,4.64,6.38,8.93,13.09,13.09,20.49,2.88,5.22,5.25,9.84,7.35,14.29.75,1.56,1.54,3.29,2.31,5.07.43.95,1,2.24,1.56,3.54l1.01,2.32c.11.24.21.48.31.72l.84,2.11c.74,1.84,1.46,3.7,2.16,5.62.15.37.28.73.4,1.07.92,2.5,1.74,4.78,2.52,7.1.62,1.77,1.31,3.87,1.99,6.01.8,2.5,1.55,4.98,2.25,7.57.71,2.49,1.49,5.29,2.18,8.13.61,2.29,1.29,5.16,1.92,7.97.44,1.96.86,3.99,1.28,6.02l.12.56c.88,4.13,1.71,8.74,2.5,13.93.31,1.72.63,3.88.91,6.1.34,2.34.63,4.72.92,7.09.36,2.96.67,5.91.93,8.91.24,2.79.49,5.66.68,8.54.4,5.53.64,11.22.75,16.85.15,3.65.15,7.34.15,11.04v.99c0,2.24-.04,4.53-.1,6.82,0,.21-.01.41-.02.61l-.09,2.85c-.03,1.64-.13,3.76-.23,5.89-.09,2.25-.22,4.62-.37,7,0,.29-.02.59-.04.87,0,.22-.02.45-.03.67-.24,3.85-.59,7.71-.93,11.56-.51,5.1-1.04,9.9-1.63,14.74l-.13,1.02c-.36,2.66-.72,5.31-1.13,8.02-.29,1.97-.64,4.11-.99,6.25-.33,2.08-.73,4.36-1.12,6.64l-.13.75c-1.52,8.37-3.14,16.12-4.99,23.82-.17.77-.46,1.96-.77,3.18l-.21.87c-.78,3.32-1.73,6.88-2.69,10.44-1.01,3.79-2.08,7.61-3.26,11.39-.95,3.25-2.09,6.85-3.25,10.46-.19.64-.4,1.28-.62,1.91-1.13,3.45-2.34,6.94-3.59,10.4-.31.9-.62,1.76-.97,2.66-1.13,3.09-2.3,6.19-3.48,9.28l-1.01,2.49c-1.33,3.38-2.78,6.87-4.27,10.36-1.62,3.83-3.38,7.74-5.19,11.62-1.66,3.65-3.52,7.47-5.42,11.29-2.06,4.17-4.26,8.37-6.51,12.52-1.61,2.97-3.28,5.92-4.95,8.87-9.7,16.81-20.42,32.51-31.94,46.83-1.37,1.68-2.66,3.23-3.96,4.77-4.11,4.97-8.16,9.53-12.28,13.86-2.44,2.68-5.31,5.6-8.17,8.41-19.52,19.2-40.79,34.87-63.22,46.56-.16.08-.32.17-.49.25-20.34,10.53-41.85,17.88-63.95,21.84-21.6,3.85-43.28,5.56-64.67,5.56-136.01,0-261.73-68.74-299.39-91.34-126.89,59.31-292.02,91.88-466.8,91.88Zm-468.22-140.94c3.44,0,6.88.77,10.08,2.33,252.62,123.63,663.67,123.63,916.29,0,7.29-3.56,15.9-3.02,22.69,1.43,1.74,1.15,178.21,115.11,341.95,85.92,17.62-3.16,34.83-9.06,51.14-17.53.14-.07.28-.14.42-.21,18.3-9.57,35.79-22.51,52-38.45,2.3-2.26,4.59-4.59,6.8-7.01,3.71-3.9,7.06-7.69,10.58-11.93,1.24-1.48,2.39-2.85,3.54-4.26,9.97-12.38,19.34-26.12,27.77-40.73,1.44-2.53,2.96-5.22,4.43-7.95,1.99-3.67,3.92-7.35,5.77-11.08,1.69-3.39,3.31-6.7,4.83-10.06,1.67-3.58,3.2-6.98,4.64-10.38,1.36-3.18,2.64-6.26,3.87-9.38l.86-2.1c1.03-2.7,2.16-5.7,3.25-8.7.09-.24.18-.48.27-.72l.27-.75c.06-.2.13-.39.21-.59,1.17-3.23,2.3-6.49,3.35-9.72.07-.21.14-.43.22-.64.03-.09.05-.18.08-.25,1.07-3.33,2.14-6.67,3.12-10,1.1-3.54,2-6.75,2.85-9.97.84-3.14,1.68-6.25,2.42-9.4l.32-1.28c.19-.75.38-1.48.54-2.22,1.74-7.29,3.19-14.22,4.53-21.62l.11-.62c.35-2.01.7-4.01,1.02-6.02.33-2.01.63-3.81.89-5.62.4-2.63.72-5.06,1.05-7.49l.09-.68c.51-4.21,1.01-8.71,1.46-13.26.27-3.09.57-6.42.79-9.75,0-.27.02-.54.04-.81,0-.2.01-.39.02-.58.13-2.19.27-4.38.36-6.57.09-2,.18-3.79.22-5.54l.04-1.36c.01-.6.03-1.21.05-1.81.04-1.85.08-3.69.08-5.5v-.99c0-3.16,0-6.31-.12-9.43,0-.19-.01-.37-.01-.55-.09-4.9-.31-9.85-.65-14.73-.18-2.64-.41-5.21-.62-7.74-.21-2.48-.47-4.88-.76-7.29-.26-2.11-.52-4.25-.83-6.35-.03-.17-.05-.34-.07-.52-.19-1.53-.41-3.02-.67-4.52-.73-4.76-1.4-8.5-2.13-11.91l-.16-.74c-.35-1.72-.7-3.45-1.1-5.17-.52-2.33-1.06-4.63-1.64-6.84-.65-2.7-1.28-4.88-1.9-7.07-.61-2.22-1.17-4.06-1.76-5.94-.55-1.73-1.09-3.38-1.67-5.05-.78-2.33-1.49-4.3-2.21-6.23,0-.02-.01-.04-.02-.06-.09-.21-.17-.42-.25-.64-.56-1.55-1.13-3.04-1.74-4.55l-1.72-4.11c-.46-1.05-.91-2.09-1.38-3.12-.68-1.55-1.21-2.74-1.78-3.92-1.78-3.76-3.74-7.56-6.06-11.79-3.22-5.73-6.61-11.03-10.25-16.02-.16-.22-.32-.44-.47-.66-.71-1.05-1.5-2.07-2.29-3.09-.09-.12-.19-.24-.28-.38-.21-.26-.44-.55-.61-.77-.87-1.17-1.83-2.34-2.78-3.47-.09-.11-.18-.21-.27-.33,0,0-.02-.02-.03-.04-.32-.35-.62-.7-.92-1.06l-1.59-1.91c-.08-.09-.15-.18-.16-.18-.41-.46-.81-.92-1.23-1.37h0c-.25-.27-.5-.55-.75-.83-1.09-1.21-2.01-2.23-3-3.18-.19-.19-.38-.37-.56-.56-3.35-3.47-6.72-6.59-10.32-9.56-.21-.18-.42-.36-.62-.54-.79-.7-1.57-1.34-2.39-1.95-.26-.2-.53-.41-.79-.62-.95-.78-1.94-1.53-2.93-2.25-1.49-1.11-2.76-1.99-4.02-2.88-1.45-1.01-2.69-1.85-3.93-2.62-1.57-1.01-2.78-1.75-4.03-2.49-2.23-1.33-4.47-2.59-6.79-3.81-5.53-2.89-11.23-5.54-16.88-7.86-1.62-.65-3.26-1.29-4.93-1.89-1.73-.65-3.09-1.14-4.48-1.6-3.77-1.3-6.77-2.22-9.61-2.97-.28-.07-.55-.15-.82-.23-.8-.24-1.61-.45-2.41-.66l-.57-.14c-1.03-.25-2.03-.49-3.04-.71-1.49-.35-2.53-.56-3.55-.77l-3.06-.58c-.98-.19-2.03-.4-3.04-.53-.42-.05-.84-.12-1.26-.2-.31-.06-.63-.11-.93-.14-.39-.04-.79-.09-1.17-.15-1.32-.2-2.64-.36-3.92-.52-.78-.09-1.57-.15-2.32-.21-.22-.02-.72-.06-.94-.09-.83-.09-1.66-.15-2.46-.21l-2.49-.17c-3.82-.16-8.72-.26-13.02-.07-.31.01-.61.02-.92.02-3.02.13-5.69.33-8.15.61-.25.02-.5.05-.76.07-.81.07-1.59.17-2.36.27l-2.04.27c-.32.04-.67.09-.99.13-.06,0-.12.01-.19.02-.74.09-1.49.22-2.23.34l-1,.16c-2.48.38-4.39.76-6.32,1.18-.6.12-1,.2-1.39.3-.28.08-.65.17-.94.24-2.63.61-5.22,1.25-7.73,1.98l-3.38.99c-3.97,1.19-7.73,2.5-11.75,4.07-4.02,1.59-7.64,3.15-10.97,4.74-2.62,1.2-4.85,2.31-7.04,3.47-.01,0-.03.02-.05.03-.24.13-.6.32-1.04.53-1.99,1.05-3.92,2.13-5.81,3.21-10.73,6.14-21.31,13.54-31.43,21.97-.88.74-1.45,1.22-2.02,1.72-.19.17-.38.33-.58.5-.54.45-1.06.91-1.58,1.36l-.41.36c-8.68,7.61-14.95,14.22-18.69,18.42-2.06,2.29-3.18,3.69-3.41,3.99-4.03,5.2-10.13,8.45-16.69,8.87-6.6.48-13.02-1.95-17.68-6.59-.05-.05-9.33-9.15-29.67-24.78-13.54-10.35-28.31-20.85-43.85-31.2-4.63-3.09-7.98-7.75-9.43-13.12-.7-2.58-70.12-256.2-195.42-446.36l-410.08-85.45-410.08,85.45c-125.3,190.16-194.72,443.78-195.42,446.36-1.45,5.37-4.8,10.03-9.43,13.12-15.54,10.34-30.31,20.85-43.9,31.24-20.29,15.6-29.57,24.69-29.65,24.78-4.69,4.62-11.1,6.97-17.73,6.57-6.57-.46-12.64-3.71-16.65-8.94-.17-.22-1.3-1.64-3.29-3.84-3.84-4.32-10.13-10.94-18.76-18.51-.72-.63-1.34-1.19-2-1.73-.2-.17-.39-.33-.58-.5-.57-.5-1.13-.98-1.72-1.47-10.41-8.67-20.99-16.07-31.74-22.24-1.91-1.09-3.89-2.2-5.96-3.28-.39-.19-.76-.38-1.11-.58-2.36-1.23-4.41-2.25-6.49-3.2-3.67-1.74-7.29-3.3-11.41-4.93-3.86-1.51-7.72-2.86-11.42-3.97l-3.54-1.04c-2.59-.75-5.18-1.4-7.8-2-.33-.07-.66-.16-.98-.25-.38-.1-.78-.18-1.18-.26-2.08-.45-4.01-.83-6.02-1.14-.18-.02-.36-.05-.54-.09l-.82-.13c-.88-.15-1.62-.27-2.35-.37-.01,0-.03,0-.05,0-.29-.03-.6-.07-.9-.11-.44-.05-.89-.12-1.35-.19l-.54-.07c-1.12-.14-1.9-.24-2.72-.31-.25-.02-.51-.04-.76-.07-2.48-.28-5.18-.48-8.24-.61-.3,0-.63,0-.83-.02-4.29-.2-8.87-.11-13.5.1l-2.01.14c-.8.06-1.63.12-2.45.21-.22.02-.45.05-.67.06-1.01.08-1.8.14-2.6.24-1.28.16-2.61.32-3.94.52-.39.06-.77.11-1.16.15-.3.03-.62.08-.93.14-.42.08-.84.15-1.26.2-1.02.14-2.06.35-3.08.54l-2.97.56c-1.14.23-2.15.43-3.12.67-1.5.34-2.55.59-3.61.85l-.88.21c-.39.11-1.2.31-2,.56-.27.08-.55.16-.83.23-2.83.74-5.83,1.67-9.16,2.82-1.86.61-3.21,1.1-4.6,1.62-1.99.72-3.63,1.36-5.32,2.04-5.61,2.29-11.3,4.95-16.88,7.86-2.27,1.19-4.51,2.46-6.71,3.76-1.28.76-2.49,1.5-3.69,2.28-1.61,1-2.84,1.84-4.05,2.68-1.4.98-2.71,1.89-3.99,2.85-1.24.9-2.24,1.66-3.2,2.45-.27.22-.54.43-.82.64-.81.6-1.58,1.24-2.36,1.92-.2.18-.41.36-.62.53-3.62,2.99-6.99,6.12-10.31,9.56-.19.2-.38.39-.57.57-1.04,1-2,2.08-2.96,3.14-.25.3-.5.58-.75.83-.47.51-.92,1.02-1.39,1.55l-1.49,1.78c-.21.26-.65.78-.95,1.11-.05.06-.11.12-.16.19-.09.11-.17.21-.25.3-.96,1.15-1.92,2.33-2.81,3.51-.17.23-.35.45-.53.67-.09.12-.18.24-.26.36-.81,1.05-1.62,2.08-2.35,3.17-.15.22-.3.44-.46.65-3.65,5-7.03,10.3-10.35,16.21-2.25,4.08-4.2,7.88-5.88,11.44-.65,1.35-1.19,2.53-1.72,3.75-.63,1.4-1.1,2.49-1.58,3.59l-1.6,3.82c-.69,1.71-1.26,3.21-1.83,4.75-.09.23-.18.47-.27.7l-.1.26c-.58,1.58-1.3,3.56-1.98,5.59-.68,1.95-1.22,3.63-1.77,5.35-.61,1.91-1.17,3.75-1.69,5.67-.69,2.45-1.32,4.65-1.86,6.89-.04.17-.08.34-.13.51-.58,2.18-1.11,4.45-1.61,6.68-.46,2.01-.84,3.91-1.23,5.8-.79,3.69-1.46,7.43-2.11,11.66-.34,1.99-.56,3.5-.76,5.05-.36,2.54-.62,4.66-.88,6.78-.3,2.43-.55,4.84-.76,7.28-.22,2.58-.45,5.17-.63,7.76-.35,4.9-.57,9.85-.65,14.75,0,.19,0,.37-.01.55-.13,3.12-.12,6.27-.12,9.43v.99c0,1.71.04,3.46.08,5.21v.32c.03.56.04,1.11.06,1.67l.02.91c0,.21.02.41.02.62.04,1.73.12,3.49.21,5.26.1,2.42.23,4.6.37,6.79,0,.23.02.47.03.71.01.23.02.46.03.69.21,3.16.49,6.32.78,9.48l.04.53c.43,4.3.94,8.8,1.48,13.35.32,2.31.68,4.99,1.08,7.7.27,1.9.57,3.7.87,5.49.39,2.49.79,4.74,1.19,6.99,1.28,7.1,2.77,14.23,4.42,21.11.25,1.13.46,1.93.66,2.75l.22.87c.81,3.42,1.65,6.54,2.48,9.66.86,3.25,1.76,6.47,2.75,9.64,1.04,3.52,2.06,6.69,3.07,9.87l.17.53s.03.09.04.14c.09.25.18.5.26.76,1.04,3.2,2.16,6.45,3.34,9.66.07.21.15.41.21.62l.27.75c.1.25.2.5.28.75,1.03,2.83,2.1,5.65,3.17,8.48l.86,2.13c1.29,3.29,2.57,6.37,3.89,9.45,1.48,3.48,3.01,6.89,4.58,10.26,1.62,3.55,3.23,6.87,4.89,10.18,1.9,3.85,3.84,7.54,5.81,11.18,1.48,2.73,3,5.42,4.53,8.11,8.34,14.46,17.71,28.19,27.76,40.67,1.07,1.31,2.22,2.68,3.37,4.05,3.65,4.39,7,8.18,10.33,11.67.12.13.24.25.36.38,2.2,2.41,4.48,4.73,6.77,6.97,16.25,16,33.78,28.95,52.12,38.53.1.05.21.11.31.16h0c16.3,8.47,33.52,14.38,51.16,17.54,163.69,29.18,340.19-84.78,341.95-85.93,3.8-2.49,8.19-3.75,12.59-3.75Zm-539.25-103.71s0,.02.01.03c0,0,0-.02-.01-.03Zm-.08-.2c.03.06.05.13.08.19-.03-.06-.05-.12-.08-.19Zm2015.06.14s0,.02-.01.03c0,0,0-.02.01-.03Zm.05-.14s-.03.08-.05.12c.01-.04.03-.08.05-.12Zm42.42-112.7h.05-.05Zm-38.82-106.56c.2.44.41.87.63,1.31-.22-.43-.44-.86-.63-1.31Zm-.6-1.51s.02.07.03.1c0-.04-.02-.07-.03-.1Zm-26.64-48.54c.15.22.3.44.47.67-.17-.23-.33-.46-.47-.67Zm-1967.86.06c-.09.13-.18.26-.27.39.09-.13.18-.26.27-.39Zm.02-.03s-.01.02-.02.03c0,0,.01-.02.02-.03Zm.03-.04s-.01.02-.02.03c0,0,.01-.02.02-.03Zm1.93-2.48c-.1.11-.21.21-.32.32.11-.11.22-.21.32-.32Zm1963.98.06s.03.03.05.05c-.01-.01-.03-.03-.05-.05Zm-.05-.05s.03.03.04.04c-.01-.01-.03-.03-.04-.04Zm-.04-.05s.02.02.03.03c-.01,0-.02-.02-.03-.03Zm-1963.84,0s-.02.02-.03.03c.01,0,.02-.02.03-.03Zm215.92-78.12c.08.05.16.09.21.12-.07-.04-.14-.08-.21-.12Zm-3.77-1.58s.01,0,.02,0c0,0,0,0-.02,0Zm-.07-.02s.03,0,.05.01c-.01,0-.03,0-.05-.01Zm-65.32-21.07c.11.01.22.03.32.05h0c-.11-.02-.21-.03-.32-.05Z"/>
        <path class="cls-11" d="m2224.54,2603.63c-62.08,0-139.76-22.7-192.08-118.11h0c-85.51-155.9,35.71-340.79,74.9-393.74,3.68-4.95,6.04-7.94,6.65-8.7.65-.84,2.47-3.13,5.44-6.43,4.5-5.07,12.18-13.16,22.62-22.32,1.05-.92,1.83-1.6,2.59-2.25.8-.7,1.6-1.38,2.43-2.08.02-.02.41-.35.44-.37,12.16-10.13,24.95-19.07,38.02-26.55,2.58-1.47,5.2-2.93,7.91-4.34.18-.09.35-.18.53-.26,2.91-1.53,5.87-3.01,8.89-4.38,3.94-1.88,8.49-3.85,13.57-5.86,5.31-2.02,10.07-3.68,14.84-5.17.11-.03.56-.17.66-.2l3.71-1.08c3.11-.9,6.39-1.73,9.73-2.5,1.14-.3,2.33-.56,3.52-.81,2.67-.58,5.54-1.13,8.51-1.58l4.11,22.58-3.56-22.67c1.62-.27,2.96-.48,4.3-.65h0c.21-.02.41-.05.61-.07.12-.01.23-.03.35-.04,1.17-.17,1.88-.26,2.61-.34.99-.13,2.31-.29,3.7-.41,3.57-.39,7.34-.66,11.51-.83.27,0,.54-.02.81-.02,5.45-.23,11.22-.14,17.05.11l3.6.24c1.17.09,2.37.19,3.58.32,1.47.12,2.76.23,4.04.39,1.62.2,3.18.4,4.74.62,1.18.13,2.4.31,3.63.52,1.69.24,3.43.56,5.11.88l3.04.57c.08.01.45.09.53.11,1.52.31,3.09.63,4.6,1,.9.19,2.27.52,3.68.86l.92.22c1.59.42,2.84.75,4.06,1.1,3.87,1.03,7.84,2.26,12.14,3.75,1.63.52,3.65,1.25,5.73,2.03,1.94.69,4.15,1.55,6.42,2.47,7.03,2.87,14.03,6.13,20.86,9.7,3.08,1.62,6.01,3.27,8.88,4.97,1.72,1.02,3.43,2.07,5.13,3.16,1.59.97,3.54,2.29,5.43,3.61,1.97,1.38,3.61,2.53,5.21,3.73,1.35.98,2.93,2.18,4.48,3.44,1.56,1.19,3.08,2.42,4.59,3.75,4.73,3.92,9.16,8.03,13.54,12.55,1.63,1.6,3.18,3.28,4.71,4.97h0c.24.26.46.51.67.75.62.66,1.21,1.33,1.82,2.02.21.23.73.84.93,1.09l1.51,1.81c.06.06.12.14.19.21.49.54.94,1.07,1.36,1.61,1.27,1.52,2.53,3.08,3.72,4.64.38.47.75.95,1.09,1.42,1.23,1.6,2.37,3.12,3.44,4.68,4.65,6.38,8.93,13.09,13.09,20.49,2.88,5.22,5.25,9.84,7.35,14.29.75,1.56,1.54,3.29,2.31,5.07.43.95,1,2.24,1.56,3.54l1.01,2.32c.11.24.21.48.31.72l.84,2.11c.74,1.84,1.46,3.7,2.16,5.61.15.37.28.74.4,1.07.92,2.5,1.74,4.78,2.52,7.11.62,1.77,1.31,3.87,1.99,6.01.8,2.5,1.55,4.98,2.25,7.57.71,2.49,1.49,5.29,2.18,8.13.61,2.29,1.29,5.16,1.92,7.97.44,1.96.86,3.99,1.28,6.02l.12.56c.88,4.13,1.71,8.74,2.5,13.93.31,1.72.63,3.88.91,6.1.34,2.33.63,4.71.92,7.09.36,2.96.67,5.91.93,8.91.24,2.79.49,5.66.68,8.54.4,5.54.64,11.22.75,16.85.15,3.65.15,7.34.15,11.04v.99c0,2.24-.04,4.52-.14,6.81,0,1.15-.01,2.31-.07,3.46-.03,1.64-.13,3.76-.23,5.89-.09,2.25-.22,4.62-.37,6.99,0,.3-.02.59-.04.87,0,.22-.02.45-.03.67-.25,3.85-.59,7.71-.94,11.56-.51,5.1-1.04,9.9-1.63,14.74l-.13,1.02c-.36,2.66-.72,5.32-1.13,8.02-.29,1.97-.64,4.11-.99,6.25-.33,2.08-.73,4.36-1.12,6.64l-.13.75c-1.52,8.37-3.14,16.12-4.99,23.82-.17.77-.46,1.96-.77,3.18l-.21.87c-.78,3.32-1.73,6.88-2.69,10.44-1.01,3.79-2.08,7.61-3.26,11.39-.95,3.25-2.09,6.85-3.25,10.45-.19.65-.4,1.29-.63,1.93-1.13,3.45-2.34,6.94-3.59,10.4-.3.9-.62,1.76-.97,2.66-1.13,3.09-2.3,6.19-3.48,9.28l-1.01,2.49c-1.33,3.38-2.78,6.87-4.27,10.36-1.62,3.83-3.38,7.74-5.19,11.62-1.66,3.65-3.52,7.47-5.42,11.29-2.06,4.17-4.26,8.37-6.51,12.52-1.61,2.97-3.28,5.92-4.95,8.87-9.7,16.81-20.42,32.51-31.94,46.83-1.37,1.68-2.66,3.23-3.96,4.77-4.11,4.97-8.16,9.54-12.28,13.86-2.44,2.68-5.31,5.6-8.17,8.41-19.52,19.2-40.79,34.87-63.22,46.56-.21.11-.43.22-.65.33-.86.42-1.75.8-2.66,1.11l-.44.16c-13.39,4.93-49.91,16.6-94.42,16.6Zm-151.85-140.18c69.67,127.01,192.99,94.15,229.97,80.68,17.97-9.53,35.16-22.3,51.09-37.98,2.3-2.26,4.59-4.59,6.81-7.01,3.71-3.9,7.06-7.69,10.58-11.93,1.24-1.48,2.39-2.85,3.54-4.26,9.97-12.38,19.34-26.12,27.77-40.73,1.44-2.53,2.96-5.22,4.43-7.95,1.99-3.67,3.92-7.35,5.77-11.08,1.69-3.39,3.31-6.7,4.83-10.06,1.67-3.58,3.2-6.98,4.64-10.38,1.36-3.18,2.64-6.26,3.87-9.38l.86-2.1c1.03-2.71,2.16-5.71,3.25-8.71.09-.24.18-.48.27-.72l.27-.75c.06-.2.13-.39.21-.59,1.17-3.23,2.3-6.49,3.35-9.72.07-.21.14-.43.22-.64.03-.09.05-.18.08-.25,1.07-3.33,2.14-6.67,3.12-10,1.1-3.54,2-6.75,2.85-9.97.84-3.14,1.68-6.25,2.42-9.4l.32-1.28c.19-.75.38-1.48.54-2.22,1.74-7.29,3.19-14.22,4.53-21.62l.11-.62c.35-2.01.7-4.01,1.02-6.02.33-2.01.63-3.81.89-5.62.4-2.63.72-5.06,1.05-7.49l.09-.68c.51-4.21,1.01-8.71,1.46-13.26.27-3.09.57-6.42.79-9.75,0-.27.02-.54.04-.81,0-.2.01-.39.02-.59.13-2.19.27-4.38.36-6.56.09-2,.18-3.79.22-5.55.04-1.08.04-1.73.04-2.37,0-.35,0-.71.02-1.06.08-1.76.12-3.51.12-5.23v-.99c0-3.16,0-6.31-.12-9.43,0-.19-.01-.37-.01-.55-.09-4.9-.31-9.85-.65-14.73-.18-2.64-.41-5.21-.62-7.74-.21-2.48-.47-4.88-.76-7.29-.26-2.11-.52-4.25-.83-6.35-.03-.17-.05-.34-.07-.52-.19-1.53-.41-3.02-.67-4.52-.73-4.76-1.4-8.5-2.13-11.91l-.16-.74c-.35-1.72-.7-3.45-1.1-5.17-.52-2.33-1.06-4.63-1.64-6.84-.65-2.7-1.28-4.88-1.9-7.07-.61-2.22-1.17-4.06-1.76-5.94-.55-1.73-1.09-3.38-1.67-5.05-.78-2.33-1.49-4.3-2.21-6.23,0-.02-.01-.04-.02-.06-.09-.21-.17-.42-.25-.64-.56-1.55-1.13-3.04-1.74-4.55l-1.72-4.11c-.46-1.05-.91-2.09-1.38-3.12-.68-1.55-1.21-2.73-1.78-3.92-1.78-3.76-3.74-7.56-6.06-11.79-3.22-5.73-6.61-11.03-10.25-16.02-.16-.22-.32-.44-.47-.66-.71-1.05-1.5-2.07-2.29-3.09-.09-.12-.19-.24-.28-.38-.21-.26-.44-.55-.61-.77-.87-1.17-1.83-2.34-2.78-3.47-.09-.11-.18-.21-.27-.32,0-.01-.02-.03-.04-.04-.31-.35-.62-.7-.92-1.06l-1.59-1.91c-.08-.09-.15-.18-.16-.18-.41-.46-.81-.92-1.23-1.37h0c-.25-.27-.51-.55-.75-.83-1.1-1.21-2.01-2.23-3-3.18-.19-.19-.38-.37-.56-.56-3.35-3.47-6.72-6.59-10.32-9.56-.21-.18-.42-.36-.62-.54-.79-.7-1.57-1.34-2.39-1.95-.26-.2-.53-.41-.79-.62-.95-.78-1.94-1.53-2.93-2.25-1.49-1.11-2.76-1.99-4.02-2.88-1.45-1.01-2.69-1.85-3.93-2.62-1.57-1.01-2.78-1.75-4.03-2.49-2.23-1.33-4.47-2.59-6.79-3.81-5.53-2.89-11.23-5.54-16.88-7.86-1.62-.65-3.26-1.29-4.93-1.89-1.73-.65-3.09-1.14-4.48-1.6-3.77-1.3-6.77-2.22-9.61-2.97-.28-.07-.55-.15-.82-.23-.8-.24-1.61-.45-2.41-.66l-.57-.14c-1.03-.25-2.03-.49-3.04-.71-1.49-.35-2.53-.56-3.55-.77l-3.06-.58c-.98-.19-2.03-.4-3.04-.53-.42-.05-.84-.12-1.26-.2-.31-.06-.63-.11-.93-.14-.39-.04-.79-.09-1.18-.15-1.32-.2-2.64-.36-3.92-.52-.78-.09-1.57-.15-2.32-.21-.22-.02-.72-.06-.94-.09-.83-.09-1.66-.15-2.46-.21l-2.49-.17c-3.82-.16-8.72-.26-13.02-.07-.31.01-.61.02-.92.02-3.02.13-5.69.33-8.15.61-.25.02-.5.05-.76.07-.81.07-1.59.17-2.36.27l-2.05.27c-.2.03-.41.05-.61.08h0c-.12.02-.25.03-.37.05-.06,0-.12.01-.19.02-.74.09-1.49.22-2.23.34l-1,.16c-2.48.38-4.39.76-6.32,1.18-.6.12-1,.2-1.39.3-.28.08-.65.17-.94.24-2.63.61-5.22,1.25-7.73,1.98l-3.38.99c-3.89,1.21-7.79,2.56-11.94,4.15-3.83,1.51-7.45,3.08-10.78,4.66-2.62,1.2-4.85,2.31-7.04,3.47-.01,0-.03.01-.05.02-.25.14-.6.32-1.04.53-1.99,1.05-3.92,2.13-5.81,3.21-10.73,6.14-21.31,13.54-31.43,21.97-.88.74-1.45,1.22-2.02,1.72-.19.17-.38.33-.58.5-.54.45-1.06.91-1.58,1.36l-.41.36c-8.68,7.61-14.95,14.22-18.69,18.42-2.06,2.29-3.18,3.69-3.41,3.99-.08.1-.23.29-.31.4-.14.17-2.22,2.78-5.71,7.48-24.95,33.71-145.79,208.93-71.53,344.33h0Zm365.86-313.96c.2.44.41.87.64,1.32-.23-.43-.44-.87-.64-1.32Zm-.61-1.55c.02.06.04.13.06.19-.02-.07-.04-.13-.06-.19Zm-26.63-48.51c.15.22.3.45.47.68-.17-.23-.34-.47-.47-.68Zm-1.86-2.4s.02.01.02.02c0,0-.01-.01-.02-.02Zm-.02-.02s.01.01.02.02c0,0-.01-.01-.02-.02Zm-.02-.02s.01,0,.02.02c0,0-.01-.01-.02-.02Zm-.02-.02s0,0,0,.01c0,0,0,0,0-.01Z"/>
        <circle class="cls-14" cx="2251.66" cy="2329.23" r="100.13" transform="translate(-987.52 2274.38) rotate(-45)"/>
        <g>
          <path class="cls-14" d="m2382.48,2154.59c0,46.71,37.83,84.49,84.49,84.49,3.52,0,6.99-.23,10.37-.66-.09-5.35-.33-10.66-.7-15.96-.19-2.72-.42-5.45-.66-8.12-.23-2.72-.52-5.4-.85-8.07-.28-2.3-.56-4.6-.89-6.85-.23-1.92-.52-3.8-.84-5.68-.66-4.32-1.41-8.59-2.3-12.77-.42-2.07-.85-4.13-1.31-6.2-.56-2.53-1.17-5.12-1.83-7.6-.61-2.53-1.31-5.02-2.02-7.51-.61-2.25-1.27-4.41-1.97-6.62-.61-1.92-1.22-3.8-1.88-5.68-.75-2.25-1.55-4.46-2.35-6.62-.09-.24-.14-.42-.23-.61-.66-1.78-1.31-3.52-2.02-5.26-.28-.7-.56-1.41-.84-2.11-.89-2.02-1.74-4.04-2.63-6.01-.66-1.5-1.31-2.96-2.02-4.41-2.07-4.37-4.32-8.68-6.62-12.86-3.61-6.43-7.51-12.58-11.83-18.49-.99-1.46-2.07-2.86-3.15-4.27-.19-.28-.42-.56-.66-.84-1.13-1.5-2.35-3-3.57-4.46-.14-.19-.28-.38-.47-.56-2.3,1.27-4.51,2.68-6.67,4.13v.05c-9.34,6.38-17.27,14.65-23.38,24.22-8.36,13.1-13.19,28.68-13.19,45.34Z"/>
          <g>
            <path class="cls-14" d="m2263.29,2039.63c0,46.71,37.83,84.49,84.49,84.49,17.79,0,34.27-5.49,47.88-14.88,9.34-6.38,17.32-14.65,23.38-24.22,1.5-2.3,2.86-4.69,4.13-7.18-.7-.8-1.36-1.55-2.07-2.3-.09-.09-.19-.23-.33-.38-1.36-1.5-2.72-3-4.18-4.41-3.85-3.99-7.89-7.75-12.2-11.31-1.27-1.13-2.53-2.16-3.85-3.15-1.31-1.08-2.68-2.11-4.04-3.1-1.5-1.13-3.05-2.21-4.6-3.29-1.55-1.08-3.14-2.16-4.74-3.15-1.45-.94-2.91-1.83-4.41-2.72-2.53-1.5-5.12-2.96-7.79-4.37-6.38-3.33-12.67-6.24-18.87-8.78-1.97-.8-3.9-1.55-5.87-2.25-1.74-.66-3.43-1.27-5.16-1.83-3.66-1.27-7.28-2.39-10.84-3.33-1.08-.33-2.16-.61-3.24-.89-1.55-.38-3.05-.75-4.55-1.08-1.36-.33-2.77-.61-4.13-.89-.99-.19-2.02-.38-3-.56-1.46-.28-2.96-.56-4.41-.75-.99-.19-1.97-.33-2.91-.42-1.55-.23-3.1-.42-4.6-.61-1.17-.14-2.35-.23-3.47-.33-1.27-.14-2.53-.23-3.76-.33-.75-.05-1.5-.09-2.25-.14-3.1-.14-6.15-.23-9.15-.23-2.16,0-4.32.05-6.38.14h-.38c-3.47.14-6.9.38-10.23.75-1.17.09-2.3.23-3.43.38-.85.09-1.64.23-2.44.33-1.69,6.67-2.58,13.61-2.58,20.79Z"/>
            <path class="cls-11" d="m2347.79,2127.07c-48.22,0-87.45-39.23-87.45-87.45,0-7.28.9-14.52,2.68-21.52l.5-1.97,3.05-.38c.46-.07.94-.14,1.43-.19,1.12-.14,2.3-.29,3.51-.39,3.1-.35,6.52-.6,10.35-.76,5.9-.22,10.76-.14,16.17.09l2.91.19c1.08.09,2.19.18,3.3.3,1.27.1,2.39.2,3.5.33,1.57.2,3.13.39,4.69.62.86.08,1.94.23,3.01.44,1.35.17,2.91.46,4.42.75l3.01.57c1.63.33,2.96.61,4.26.92,1.15.25,2.37.55,3.61.85l.95.23c1.17.31,2.29.6,3.4.94,3.38.89,7,2,10.96,3.37,1.72.56,3.45,1.18,5.23,1.85,1.97.71,3.93,1.47,5.94,2.29,6.41,2.62,12.84,5.61,19.13,8.9,2.73,1.44,5.36,2.91,7.93,4.44,1.53.9,3.02,1.82,4.5,2.78,1.6.98,3.24,2.09,4.83,3.2,1.77,1.24,3.24,2.27,4.68,3.34,1.37.99,2.78,2.07,4.15,3.18,1.27.95,2.6,2.04,3.94,3.22,4.26,3.52,8.34,7.29,12.37,11.47,1.36,1.31,2.7,2.78,4.04,4.26.25.27.39.42.5.57.6.64,1.18,1.29,1.78,1.98l1.32,1.5-.58,2.16c-1.37,2.7-2.78,5.14-4.29,7.46-6.2,9.79-14.57,18.47-24.18,25.04-14.59,10.07-31.73,15.4-49.55,15.4Zm-79.51-105.59c-1.35,5.92-2.03,12.02-2.03,18.14,0,44.96,36.58,81.54,81.54,81.54,16.61,0,32.59-4.96,46.21-14.36,8.96-6.13,16.76-14.21,22.55-23.37,1.08-1.65,2.09-3.35,3.07-5.17-.21-.24-.43-.47-.65-.71l-.36-.41c-1.45-1.6-2.71-2.98-4.04-4.27-3.95-4.09-7.86-7.71-12.04-11.16-1.29-1.14-2.49-2.12-3.74-3.06-1.37-1.12-2.68-2.11-4-3.07-1.42-1.06-2.85-2.06-4.27-3.06-1.79-1.25-3.34-2.29-4.89-3.25-1.47-.94-2.89-1.82-4.37-2.69-2.5-1.48-5.03-2.92-7.66-4.3-6.12-3.2-12.39-6.11-18.61-8.66-1.93-.79-3.81-1.52-5.75-2.21-1.74-.65-3.38-1.25-5.07-1.8-3.87-1.34-7.34-2.41-10.69-3.29-1.15-.35-2.19-.62-3.23-.89l-.91-.22c-1.19-.29-2.35-.58-3.53-.83-1.29-.31-2.56-.57-3.8-.82l-3.27-.62c-1.39-.27-2.84-.54-4.23-.72-1.06-.2-1.96-.33-2.82-.41-1.65-.25-3.15-.43-4.61-.62-1.08-.13-2.12-.21-3.13-.3-1.41-.15-2.45-.23-3.47-.31l-2.77-.19c-5.13-.22-10.36-.31-15.21-.09h-.51c-3.56.15-6.85.39-9.9.74-1.23.1-2.31.23-3.38.37l-.42.05Z"/>
          </g>
          <g>
            <path class="cls-14" d="m2100.17,2070.56c5.4,13.75,14.32,25.77,25.63,34.88,14.5,11.69,32.91,18.68,53,18.68,46.66,0,84.49-37.79,84.49-84.49,0-6.9-.85-13.61-2.44-20.04-2.49.38-4.88.84-7.28,1.36-.89.19-1.78.38-2.63.61-3.05.7-6.05,1.46-8.97,2.3-1.31.38-2.58.75-3.85,1.13-4.51,1.36-8.92,2.91-13.24,4.6-4.27,1.69-8.45,3.47-12.49,5.4-2.68,1.22-5.3,2.53-7.89,3.9-.19.09-.33.19-.47.23-2.44,1.27-4.79,2.58-7.09,3.9-13.52,7.75-25.16,16.29-34.74,24.27-.89.75-1.74,1.46-2.58,2.21-.84.7-1.64,1.41-2.44,2.11-9.53,8.36-16.52,15.73-20.7,20.42-2.96,3.29-4.46,5.26-4.46,5.26,0,0-9.76-9.72-31.87-26.71Z"/>
            <path class="cls-11" d="m2178.8,2127.07c-20.19,0-39.16-6.69-54.85-19.34-11.83-9.52-21-22-26.53-36.1l-3.88-9.9,8.43,6.48c16.16,12.42,25.71,20.92,29.8,24.72.68-.8,1.53-1.78,2.54-2.9,4.21-4.74,11.27-12.18,20.94-20.66l.39-.34c.69-.61,1.39-1.22,2.11-1.83.67-.6,1.43-1.23,2.21-1.89,11.65-9.7,23.47-17.97,35.53-24.88,2.34-1.33,4.72-2.67,7.2-3.95l1.83,2.38-1.38-2.61c2.63-1.39,5.31-2.72,8.04-3.97,3.82-1.82,7.97-3.61,12.63-5.45,4.68-1.83,9.08-3.36,13.47-4.68l3.89-1.14c2.95-.86,6.01-1.63,9.11-2.34.79-.22,1.74-.42,2.7-.62,2.43-.53,4.88-1.01,7.44-1.39l2.66-.4.65,2.61c1.67,6.76,2.53,13.74,2.53,20.76,0,48.22-39.23,87.45-87.45,87.45Zm-70.41-46.31c4.99,8.54,11.51,16.14,19.26,22.37,14.63,11.8,32.32,18.03,51.15,18.03,44.96,0,81.54-36.58,81.54-81.54,0-5.62-.59-11.22-1.74-16.67-1.48.27-2.94.56-4.39.88-.85.18-1.68.35-2.47.57-3.12.72-6.07,1.46-8.93,2.29l-3.49,1.02c-4.58,1.37-8.83,2.85-13.35,4.62-4.52,1.79-8.54,3.53-12.29,5.31-2.67,1.22-5.25,2.5-7.78,3.84-.44.23-.7.36-.94.43-1.95,1.06-4.26,2.35-6.53,3.65-11.76,6.74-23.31,14.8-34.31,23.97-1.09.92-1.8,1.51-2.51,2.14-.76.63-1.42,1.21-2.07,1.78l-.39.34c-9.44,8.28-16.33,15.54-20.44,20.17-2.83,3.14-4.28,5.02-4.32,5.08l-2.04,2.67-2.39-2.37c-.08-.08-6.88-6.79-21.58-18.6Z"/>
          </g>
        </g>
        <g>
          <path class="cls-11" d="m2466.97,2262.03c-59.24,0-107.44-48.2-107.44-107.44,0-20.52,5.81-40.46,16.79-57.68,7.59-11.91,17.21-22.01,28.61-30.02.42-.33.85-.64,1.3-.95,3.22-2.17,5.83-3.77,8.44-5.21,8.94-4.9,20.05-3.33,27.27,3.89.8.8,1.48,1.59,2.11,2.38,1.27,1.52,2.53,3.09,3.71,4.64.39.47.76.95,1.1,1.42,1.23,1.6,2.37,3.12,3.44,4.68,4.65,6.38,8.93,13.09,13.09,20.49,2.88,5.22,5.25,9.84,7.35,14.29.75,1.56,1.54,3.29,2.31,5.07.43.95,1,2.24,1.56,3.54l1.01,2.32c.11.24.21.48.31.72l.84,2.11c.74,1.84,1.46,3.7,2.16,5.61.15.37.28.73.4,1.07.92,2.5,1.74,4.78,2.52,7.11.62,1.77,1.31,3.87,1.99,6.01.8,2.5,1.55,4.98,2.25,7.57.71,2.49,1.49,5.29,2.18,8.13.61,2.29,1.29,5.16,1.92,7.97.44,1.96.86,3.99,1.28,6.02l.12.56c.88,4.13,1.71,8.74,2.5,13.93.31,1.72.63,3.88.91,6.1.34,2.33.63,4.71.92,7.09.36,2.96.67,5.91.93,8.91.24,2.79.49,5.66.68,8.54.4,5.62.65,11.41.75,17.12.21,11.71-8.45,21.7-20.08,23.16-4.42.56-8.88.84-13.23.84Zm-45.86-148.51c-2.23,2.49-4.26,5.18-6.09,8.06-6.28,9.84-9.59,21.25-9.59,33.01,0,29.12,20.33,53.58,47.54,59.95-.18-1.85-.38-3.66-.6-5.48-.26-2.11-.52-4.25-.83-6.35-.03-.17-.05-.34-.07-.52-.19-1.53-.41-3.02-.67-4.52-.73-4.76-1.4-8.5-2.13-11.91l-.16-.74c-.35-1.72-.7-3.45-1.1-5.17-.52-2.33-1.06-4.63-1.64-6.84-.65-2.7-1.28-4.88-1.9-7.07-.61-2.22-1.17-4.06-1.76-5.94-.55-1.73-1.09-3.38-1.67-5.05-.78-2.33-1.49-4.3-2.21-6.23,0-.02-.01-.04-.02-.06-.09-.21-.17-.42-.25-.64-.56-1.55-1.13-3.04-1.74-4.55l-1.72-4.11c-.46-1.05-.91-2.09-1.38-3.12-.68-1.55-1.21-2.74-1.78-3.92-1.78-3.76-3.74-7.56-6.06-11.79-1.36-2.41-2.74-4.75-4.17-7.02Zm17.45,35.98c.2.44.41.88.64,1.32-.23-.43-.44-.87-.64-1.32Zm-.61-1.54c.02.06.04.12.06.18-.02-.07-.04-.13-.06-.18Z"/>
          <path class="cls-11" d="m2347.79,2147.06c-59.24,0-107.44-48.19-107.44-107.44,0-8.94,1.1-17.83,3.29-26.44,2.34-9.22,10.13-16.05,19.58-17.15,1.17-.17,1.88-.26,2.61-.34.99-.13,2.31-.29,3.7-.41,3.57-.39,7.34-.66,11.51-.83.27,0,.54-.02.81-.02,5.45-.23,11.22-.14,17.05.11l3.6.24c1.17.09,2.38.19,3.58.32,1.46.12,2.75.23,4.04.39,1.62.2,3.18.4,4.74.62,1.18.13,2.4.31,3.63.52,1.69.24,3.43.56,5.11.88l3.04.57c.08.01.45.09.53.11,1.52.31,3.09.63,4.6,1,.9.19,2.27.52,3.68.86l.92.22c1.59.42,2.84.75,4.06,1.1,3.87,1.03,7.84,2.26,12.14,3.75,1.63.52,3.65,1.25,5.73,2.03,1.94.69,4.15,1.55,6.42,2.47,7.03,2.87,14.03,6.13,20.86,9.7,3.08,1.62,6.01,3.27,8.88,4.97,1.72,1.02,3.43,2.07,5.13,3.16,1.59.97,3.54,2.29,5.43,3.61,1.97,1.38,3.61,2.53,5.21,3.73,1.35.98,2.93,2.18,4.49,3.44,1.56,1.19,3.07,2.42,4.59,3.75,4.73,3.92,9.16,8.03,13.54,12.55,1.63,1.6,3.18,3.28,4.71,4.97h0c.24.26.46.51.68.76.61.66,1.2,1.33,1.81,2.02,6.21,7.05,7.83,17.55,3.57,25.94-1.71,3.36-3.47,6.42-5.39,9.35-7.58,12-17.62,22.39-29.63,30.61-17.88,12.33-38.94,18.88-60.83,18.88Zm-61.54-106.86c.31,33.67,27.8,60.97,61.54,60.97,12.54,0,24.59-3.74,34.85-10.82,4.09-2.8,7.84-6.11,11.12-9.79-1.3-1.18-2.62-2.31-3.98-3.43-.21-.18-.42-.36-.62-.54-.79-.7-1.57-1.34-2.39-1.95-.26-.2-.53-.41-.79-.62-.95-.78-1.94-1.53-2.93-2.25-1.49-1.11-2.76-1.99-4.02-2.88-1.45-1.01-2.69-1.85-3.93-2.62-1.57-1.01-2.78-1.75-4.03-2.49-2.23-1.33-4.47-2.59-6.79-3.81-5.53-2.89-11.23-5.54-16.88-7.86-1.62-.65-3.26-1.29-4.93-1.89-1.73-.65-3.09-1.14-4.48-1.6-3.77-1.3-6.77-2.22-9.61-2.97-.28-.07-.55-.15-.82-.23-.8-.24-1.61-.45-2.41-.66l-.57-.14c-1.03-.25-2.03-.49-3.04-.71-1.49-.35-2.53-.56-3.55-.77l-3.06-.58c-.98-.19-2.03-.4-3.04-.53-.42-.05-.84-.12-1.26-.2-.31-.06-.63-.11-.93-.14-.39-.04-.79-.09-1.18-.15-1.32-.2-2.64-.36-3.92-.52-.78-.09-1.57-.15-2.32-.21-.22-.02-.72-.06-.94-.09-.83-.09-1.66-.15-2.46-.21l-2.49-.17c-2.99-.13-6.69-.23-10.16-.16Z"/>
          <path class="cls-11" d="m2178.8,2147.06c-24.45,0-48.39-8.44-67.4-23.76-14.52-11.69-25.79-27.03-32.59-44.37-3.76-9.59-.66-20.52,7.57-26.72,8.25-6.19,19.6-6.12,27.77.15,6.31,4.85,11.69,9.17,16.19,12.88,3.39-3.34,7.31-7.03,11.73-10.9,1.05-.93,1.83-1.61,2.6-2.26.8-.7,1.6-1.37,2.43-2.07.02-.02.41-.35.44-.37,12.16-10.13,24.95-19.07,38.02-26.55,2.58-1.47,5.2-2.93,7.91-4.34.18-.09.35-.18.52-.26,2.91-1.53,5.88-3.01,8.9-4.38,3.94-1.88,8.49-3.85,13.57-5.86,5.25-2.05,10.15-3.75,15.06-5.23l4.15-1.22c3.11-.9,6.39-1.73,9.73-2.5,1.14-.3,2.33-.56,3.52-.81,2.67-.58,5.54-1.13,8.51-1.58,11.73-1.76,22.84,5.66,25.7,17.16,2.07,8.33,3.12,16.93,3.12,25.57,0,59.24-48.19,107.44-107.44,107.44Zm-17.12-48.28c5.49,1.58,11.23,2.39,17.12,2.39,30.9,0,56.55-22.88,60.9-52.59-2.12.73-4.25,1.51-6.45,2.37-4.02,1.59-7.64,3.15-10.97,4.74-2.62,1.2-4.85,2.31-7.04,3.47-.01,0-.03.01-.05.02-.24.13-.6.32-1.04.53-1.99,1.05-3.92,2.13-5.81,3.21-10.73,6.14-21.31,13.54-31.43,21.97-.88.74-1.45,1.22-2.02,1.72-.19.17-.38.33-.58.5-.54.45-1.06.91-1.58,1.36l-.41.36c-4.09,3.59-7.65,6.96-10.66,9.95Z"/>
        </g>
        <g class="cls-4">
          <path class="cls-1" d="m1327.78,2232.04c-3.27,5.45-6.88,10.84-10.84,16.18-6.79-57.95-43.51-110.56-63.43-135.35-7.26-9.04-19.7-12.04-30.34-7.43l-62.09,26.86s102.74-191.76,71.83-210.18c-30.86-18.47-149.77,56.5-149.77,56.5l-16.46-12.39c-69.64-62.07-108.7-61.61-129.75-48.47-2.24-20.36.86-38.66,13.88-49.96,45.26-39.47,147.88,74.05,147.88,74.05,0,0,131.24-110.14,179.54-61.84,48.24,48.3-24.21,158.44-24.21,158.44l66.25,83.35c25.12,31.61,28.39,75.66,7.51,110.25Z"/>
        </g>
        <path class="cls-11" d="m1124.46,2372.23c-58.64,0-141.35-21.07-207.57-119.56-62.53-92.88-14.14-181.3,29.82-225.77-12.5-23.82-33.02-67.8-37.15-106.57-4.28-39.01,9.67-60.11,22.13-70.92,50.32-43.85,129.76,23.48,166.05,59.56,44.03-33.49,142.86-97.84,194.54-46.17,49.98,50.04,8.82,137.53-11.82,173.77l55.71,70.08c31.46,39.58,35.21,95,9.33,137.92-3.66,6.08-7.74,12.19-12.15,18.13-40.12,54.48-102.09,93.22-170.13,106.38-1.29.33-2.61.56-3.97.69-10.14,1.44-21.87,2.46-34.77,2.46Zm19.37-47.05s-.02,0-.03.02c0,0,.02-.01.03-.02Zm.03-.02s0,0-.01,0c0,0,0,0,.01,0Zm.03-.02h0s0,0,0,0Zm-172.22-441.56c-3.33,0-6.05.81-8.05,2.55-6.7,5.81-6.79,18.96-5.69,28.96,4.76,44.68,39.87,103.7,40.22,104.29,6.22,10.39,3.87,23.78-5.53,31.41-3.97,3.26-97.8,81.97-35.36,174.71,66.17,98.4,150.7,102.49,195.46,96.04.02,0,.05,0,.08-.01,56.63-10.65,108.16-42.64,141.39-87.74,3.52-4.75,6.72-9.53,9.57-14.27,0-.01.02-.03.03-.05,15.46-25.61,13.15-58.77-5.73-82.53l-66.25-83.35c-6.54-8.23-7.06-19.73-1.28-28.52,20.02-30.57,53.07-102.09,27.32-127.86-20.9-20.9-100,24.17-146.7,63.29-10.01,8.39-24.91,7.37-33.68-2.33-34.86-38.48-83.61-74.58-105.79-74.58Z"/>
        <path class="cls-11" d="m977.31,2056.22c-7.34,0-14.58-3.3-19.38-9.59-8.14-10.69-6.08-25.95,4.61-34.1l118.21-90.04c10.7-8.15,25.95-6.08,34.1,4.61,8.14,10.69,6.08,25.95-4.61,34.1l-118.21,90.04c-4.4,3.35-9.58,4.98-14.72,4.98Z"/>
        <path class="cls-11" d="m1269.58,2054.01l-52.35,42.36c-4.89,3.96-12.06,3.2-16.02-1.69-2.98-3.69-3.28-8.67-1.16-12.6l32.12-59.19c6.54-12.04,21.6-16.51,33.64-9.97,12.04,6.53,16.51,21.6,9.97,33.64-1.59,2.92-3.78,5.47-6.2,7.45Z"/>
        <g>
          <path class="cls-2" d="m1885.17,2500.61c-4.07,22.08-7.92,40.5-10.78,54.04-1.84,8.55-5.91,16.29-11.64,22.43-5.33,5.79-12.16,10.27-19.9,12.85-29.6,9.87-57.94,16.64-84.55,21.05-2.29.4-4.53.75-6.71,1.09-37.69,5.79-71.93,6.88-101.93,5.45-1.66-.11-3.27-.17-4.88-.29-33.16-1.89-60.92-7-81.8-12.16-7.92-1.95-14.91-5.85-20.54-11.07,0,0-.06,0-.06-.06-2.47-2.29-4.7-4.88-6.65-7.63-7.23-10.33-10.33-23.46-7.63-36.71,21.57-105.03,25.24-228.24,24.38-314.98-.06-.06-.06-.17,0-.23-.11-11.19-.29-21.74-.52-31.61v-.29c-1.15-47.73-3.33-78.36-3.33-78.36l339.01-96.31c15.37,50.65,22.6,107.21,24.61,164.17v.06c4.19,115.76-13.14,233.52-27.08,308.55Z"/>
          <path class="cls-11" d="m1901.93,2023.51c13.87,35.82,22.62,73.38,28.17,111.12,4.91,37.77,7.19,75.8,6.84,113.63-1.27,75.64-8.64,150.71-21.48,224.68-3.19,18.49-6.58,36.95-10.29,55.32-1.83,9.19-3.72,18.37-5.7,27.53l-.74,3.43-.52,2.27-.67,2.55c-.95,3.38-2.14,6.7-3.58,9.91-2.88,6.43-6.7,12.43-11.32,17.77-4.4,5.11-9.92,9.96-15.8,13.69-2.97,1.89-6.07,3.56-9.26,5-1.6.72-3.23,1.37-4.87,1.98l-4.1,1.37c-9.19,2.96-18.44,5.72-27.76,8.23-18.65,5.03-37.57,9.18-56.67,12.29-38.22,6.28-76.99,8.54-115.92,6.48-19.2-1.09-38.68-3.23-57.82-6.57-9.6-1.63-19.16-3.55-28.68-5.79l-3.58-.86-2.21-.57-2.48-.72c-3.28-1.01-6.49-2.29-9.6-3.79-6.22-2.99-11.98-6.93-17.06-11.61l14.85,6.09c-1.88-.08-2.7-.23-3.89-.46-1.11-.23-2.25-.55-3.44-.99-2.38-.88-5.19-2.4-7.76-4.85-2.57-2.38-4.71-5.78-5.75-8.75-1.13-3.14-1.38-5.59-1.41-7.74l7.33,16.63c-10.75-10-18.28-23.31-21.19-37.79-1.46-7.22-1.73-14.71-.88-22.01.16-1.84.55-3.62.85-5.43l.69-3.75,1.31-7.12c1.67-9.52,3.65-18.94,5.09-28.53l4.34-28.79c4.96-38.57,8.91-77.47,11.51-116.56,3.09-39.08,4.33-78.36,5.48-117.69.58-19.67.83-39.35.98-59.04.3-19.66.16-39.48.06-58.94v-.21c-.04-7.55,6.05-13.7,13.6-13.74,7-.04,12.8,5.2,13.64,11.99,2.49,20.09,4.04,39.89,5.66,59.85,1.35,19.94,2.38,39.89,3.19,59.87,1.56,39.96,1.5,79.99.39,120.1-1.55,40.08-4.19,80.25-9.3,120.33l-4.28,30.05c-1.48,10.01-3.57,20.01-5.33,30.01l-1.38,7.5-.65,3.56c-.07.64-.27,1.28-.29,1.92-.28,2.53-.21,5.08.3,7.57,1,4.98,3.67,9.72,7.44,13.24l7.33,16.63c-.03-2.14-.28-4.58-1.4-7.71-1.04-2.96-3.17-6.35-5.73-8.72-2.57-2.44-5.37-3.95-7.73-4.83-1.19-.44-2.32-.76-3.42-.98-1.19-.22-2-.38-3.87-.45l14.85,6.09c1.74,1.59,3.7,2.94,5.83,3.96,1.06.51,2.17.96,3.31,1.3l.86.25,1.15.29,3.17.77c8.51,2,17.11,3.73,25.77,5.2,17.39,2.83,34.81,4.53,52.6,5.33,35.08,1.43,70.67-1.03,105.47-7.21,17.43-3.05,34.68-7.05,51.74-11.88,8.53-2.41,17-5.05,25.41-7.87l2.48-.85c.53-.21,1.05-.42,1.56-.67,1.02-.48,1.99-1.03,2.92-1.64,1.9-1.28,3.41-2.61,5.04-4.54,1.41-1.69,2.59-3.6,3.46-5.64.44-1.02.8-2.08,1.08-3.16l.43-1.92.68-3.36c1.86-8.96,3.67-17.93,5.4-26.91,3.51-17.96,6.71-35.96,9.71-53.98,2.92-18.04,5.72-36.09,8.06-54.19,1.3-9.04,2.54-18.07,3.58-27.13,1.05-9.05,2.39-18.09,3.19-27.16,4.07-36.23,6.26-72.54,7.36-108.78l.58-27.16c.25-9.06-.22-18.06-.21-27.1.38-18.13-1.32-36.01-1.73-54.08-2.52-35.9-6.95-71.43-13.59-106.85l-.09-.5c-1.53-8.14,3.83-15.97,11.97-17.49,7.21-1.35,14.18,2.71,16.74,9.32Z"/>
          <g>
            <path class="cls-7" d="m1651.28,2587.34c0,8.21-1.36,16.05-3.85,23.24-.75,2.3-1.69,4.55-2.68,6.67-33.14-1.92-60.88-6.99-81.77-12.16-7.93-1.97-14.93-5.87-20.56-11.08,0,0-.05,0-.05-.05-.19-2.16-.28-4.37-.28-6.62,0-34.83,24.46-63.09,54.59-63.09,24.64,0,45.49,18.87,52.24,44.78v.05c1.55,5.77,2.35,11.92,2.35,18.26Z"/>
            <path class="cls-7" d="m1754.27,2592.31c0,6.9-.94,13.52-2.72,19.76-37.65,5.77-71.91,6.85-101.91,5.45-.85-2.25-1.55-4.6-2.21-6.95-1.5-5.77-2.3-11.92-2.3-18.26,0-8.21,1.36-16.05,3.8-23.24,8.03-23.33,27.74-39.85,50.79-39.85,30.14,0,54.55,28.26,54.55,63.09Z"/>
            <path class="cls-7" d="m1862.75,2577.05c-5.35,5.82-12.16,10.28-19.9,12.86-29.62,9.86-57.93,16.66-84.59,21.08-2.58-7.32-3.99-15.3-3.99-23.66,0-34.83,24.46-63.09,54.59-63.09,27.13,0,49.62,22.86,53.89,52.81Z"/>
          </g>
          <g>
            <path class="cls-11" d="m1644.76,2641.57c-.47,0-.94-.01-1.42-.04-29.77-1.73-58.77-6.05-86.2-12.83-11.66-2.89-22.46-8.71-31.24-16.83h0c-4.39-4.06-7.29-9.71-7.78-16.02-.23-2.76-.36-5.62-.36-8.52,0-48.2,35.41-87.42,78.93-87.42,34.95,0,66.12,25.89,75.79,62.97.06.23.12.46.17.69,1.97,7.61,2.96,15.59,2.96,23.75,0,10.76-1.74,21.25-5.19,31.19-.85,2.62-2.12,5.79-3.63,9.02-4.02,8.59-12.64,14.02-22.04,14.02Zm-77.9-60.69c.65.22,1.31.42,1.97.59,18.56,4.59,37.98,7.92,57.94,9.94.12-1.35.17-2.71.17-4.07,0-4.19-.51-8.2-1.51-11.93-.07-.27-.14-.54-.2-.81-4.22-15.35-15.89-26.02-28.55-26.02-14.69,0-27.34,14.23-29.82,32.3Z"/>
            <path class="cls-11" d="m1673.2,2642.4c-8.26,0-16.49-.2-24.7-.58-9.71-.46-18.21-6.64-21.63-15.73-1.26-3.34-2.2-6.56-2.88-8.99-2.15-8.25-3.19-16.46-3.19-24.79,0-10.67,1.71-21.12,5.09-31.06,11.61-33.74,41.27-56.35,73.83-56.35,43.49,0,78.88,39.21,78.88,87.42,0,9.05-1.23,17.95-3.65,26.44-2.61,9.15-10.31,15.93-19.71,17.37-27.24,4.18-54.74,6.28-82.04,6.28Zm78.35-30.33h.05-.05Zm-82.07-18.35c20.06.17,40.29-.94,60.42-3.28-.79-20.18-14.29-36.89-30.18-36.89-11.98,0-22.89,9.2-27.78,23.44-1.63,4.8-2.48,9.99-2.48,15.32,0,.47,0,.94.02,1.42Z"/>
            <path class="cls-11" d="m1758.24,2635.33c-10.17,0-19.46-6.39-22.93-16.24-3.57-10.11-5.38-20.8-5.38-31.75,0-48.2,35.41-87.42,78.93-87.42,39.09,0,71.88,31,77.97,73.7,1.03,7.23-1.24,14.53-6.18,19.91-8.18,8.9-18.59,15.63-30.11,19.47-29.29,9.75-59,17.15-88.32,22-1.34.22-2.67.33-3.99.33Zm50.62-86.75c-15.07,0-28,14.99-30,33.71,18.56-4.02,37.21-9.13,55.68-15.26-5.45-11.09-15.15-18.45-25.69-18.45Z"/>
          </g>
        </g>
        <path class="cls-11" d="m1054.21,2391.19c-55.99,0-121.4-14-185.62-59.86-138.51-98.92-94.43-290.44-92.49-298.54,3.14-13.07,16.25-21.09,29.34-17.98,13.07,3.14,21.12,16.27,17.98,29.34-.39,1.63-38.18,167.87,73.44,247.59,136.8,97.7,281.13,25,287.21,21.85,11.9-6.14,26.6-1.54,32.79,10.37,6.19,11.9,1.61,26.55-10.28,32.77-4.29,2.25-67.49,34.47-152.38,34.47Z"/>
        <g>
          <path class="cls-2" d="m2608.85,1080.31c-74.92,29.71-93.27,116.96-128.95,187.17-15.03,29.71-33.27,56.39-60.17,74.34-102.56,68.43-227.38,28.16-227.38,28.16,0,0,64.93,297.25-639.7,380.25-257.04,30.29-662.36,125.22-796.65-126.77,0,0-84.49,102.62-199.16,54.32-114.67-48.24-126.71-138.82-205.19-181.04,0,0-.63-.34-1.78-.98-77.38-40.21-125.68,30.46-221.53-65.39-3.79-3.79-7.34-8.09-10.55-12.85-47.67-68.78-39.98-235.36,87.59-443.01,87.71-142.66,232.09-304.65,454.02-467.56,0,0,156.94-307.81,603.57-392.3,446.62-84.49,712.15,187.12,712.15,187.12,0,0,386.22,138.82,633.74,380.2,38.15,37.23,66.88,71.53,87.82,103.08,21.22,32.01,34.42,61.15,41.36,87.65,30.29,116.45-61.66,180.86-129.18,207.59Z"/>
          <g class="cls-4">
            <path class="cls-1" d="m2738.03,872.72c-270.87-340.33-803.13-525.21-803.13-525.21-33.61-41.76-147.42-120.75-316.24-159.35,0,.34,0,.63-.06.98-2.12,24.38-48.82,40.15-104.28,35.28-55.47-4.88-98.66-28.57-96.54-52.89.17-2.01.63-3.96,1.38-5.85-48.24-.06-99.06,3.67-152.12,12.22-357.88,57.48-569.38,365.05-569.38,365.05-149.26,103.54-362.36,304.59-492.28,431.59,87.71-142.66,232.09-304.65,454.02-467.56,0,0,156.94-307.81,603.57-392.3,446.62-84.49,712.15,187.12,712.15,187.12,0,0,386.22,138.82,633.74,380.2,38.15,37.23,66.88,71.53,87.82,103.08,21.22,32.01,34.42,61.15,41.36,87.65Z"/>
          </g>
          <ellipse class="cls-10" cx="890.78" cy="1489.22" rx="68.39" ry="34.7"/>
          <g class="cls-5">
            <path class="cls-11" d="m2608.85,1080.31c-74.92,29.71-93.27,116.96-128.95,187.17-15.03,29.71-33.27,56.39-60.17,74.34-102.56,68.43-227.38,28.16-227.38,28.16,0,0,64.93,297.25-639.7,380.25-257.04,30.29-662.36,125.22-796.65-126.77,0,0-84.49,102.62-199.16,54.32-114.67-48.24-126.71-138.82-205.19-181.04,0,0-.63-.34-1.78-.98-77.38-40.21-125.68,30.46-221.53-65.39-3.79-3.79-7.34-8.09-10.55-12.85-6.55-431.78,337.14-649.96,486.98-724.46,28.61-14.23,61.84,8.62,58.53,40.4-20.61,197.67,23.9,341.54,92.7,462.64,76.75,135.09,36.47,316.64,221.3,404.74,375.1,178.8,954.39-48.05,1060.19-175.52,103.96-125.26,0-309.07,62.69-524.69,43.89-150.98-52.6-381.57-52.6-381.57,461.19,177.14,532.09,335.28,532.09,335.28,65.79,22.26,99.64-18.93,117.02-69.29,114.72,172.89-4.99,262.43-87.82,295.24Z"/>
          </g>
          <path class="cls-11" d="m1135.16,1816.02c-28.6,0-56.82-1.12-84.4-3.69-142.35-13.27-240.64-63-299.36-151.7-42.47,36.71-118.36,74.19-203.46,38.32-70.32-29.59-105.12-73.93-135.82-113.04-22.27-28.36-41.49-52.86-71.37-68.95l-1.78-.96c-24.94-12.95-46.45-11.64-71.37-10.09-42.48,2.6-90.62,5.58-155.49-59.3-33.45-33.46-48.78-92.54-43.15-166.38,6.96-91.25,68.85-417.25,572.72-788.7,10.56-18.99,52.22-88.32,136.49-165.91,88.93-81.87,244.48-188.84,480.5-233.49,236.76-44.79,423.03,9.89,537.6,63.64,109.46,51.35,175.16,110.6,191.39,126.16,47.28,17.48,400.95,153.19,637.19,383.64,108.71,106.06,155.4,201.85,138.78,284.7-18.36,91.59-108.46,136.39-146.35,151.4h0c-48.56,19.23-70.25,70.09-93.21,123.93-7.39,17.33-15.03,35.24-23.69,52.29-12.4,24.45-32.94,59.69-67.94,83.05-79.4,52.95-169.4,46.69-215.86,38.31-1.57,29.25-10.87,74.36-46.12,123.81-63.01,88.4-220.88,203.53-615.11,249.97-31.82,3.75-65.81,8.48-101.8,13.49-100.72,14.01-212.06,29.5-318.39,29.5Zm-379.18-215.46c.76,0,1.52.04,2.29.11,7.63.76,14.37,5.28,17.97,12.04,110.01,206.42,421.07,163.13,670.99,128.35,36.24-5.04,70.46-9.8,102.75-13.61,375.35-44.21,523.54-149.02,581.77-229.16,48.73-67.07,38.62-121.3,38.17-123.57-1.59-7.98,1.14-16.31,7.22-21.72,6.08-5.41,14.55-7.31,22.29-4.81,1.11.35,115.8,35.77,207.56-25.42,20.07-13.39,36.26-33.64,52.49-65.64,7.97-15.68,15.3-32.88,22.39-49.51,25.64-60.13,52.15-122.31,118.53-148.6,30.91-12.25,104.32-48.25,118.26-117.76,13.17-65.68-30.34-149.65-125.84-242.83-241.11-235.21-621.62-373.68-625.43-375.05-3.27-1.17-6.22-3.07-8.65-5.55-.63-.64-66.1-66.51-183.75-121.35-108.12-50.39-283.98-101.59-507.77-59.25-224.32,42.44-371.97,143.43-456.33,220.68-91.6,83.88-130.63,158.77-131.02,159.52-1.63,3.16-3.98,5.94-6.85,8.04-184.23,135.25-327.65,278.95-426.26,427.1-77.76,116.83-124.65,234.44-132.02,331.16-4.53,59.4,6.35,106.95,29.84,130.44,50.26,50.26,82.69,48.25,120.22,45.95,27.72-1.7,59.14-3.64,95.69,15.36l2,1.07c38.35,20.64,62.45,51.35,85.76,81.04,28.59,36.43,58.15,74.1,117.53,99.08,97.73,41.19,171.78-46.86,172.51-47.75,4.38-5.32,10.9-8.36,17.71-8.36Zm1852.86-520.21h.05-.05Z"/>
          <path class="cls-6" d="m755.99,1623.48s-84.49,102.62-199.16,54.32c-8.26-3.5-16.06-7.23-23.29-11.07-93.44-50.02-109.1-130.79-181.9-169.96,0,0-.63-.34-1.78-.98-10.1-5.62-62.64-36.88-94.42-94.42-9.69-17.55-17.5-37.57-21.51-60.06-25.13-140.31,109.68-355.53,366.6-565.71-1.72,4.02-80.88,208.63.06,366.6,155.4,303.27,79.96,298.74,155.4,481.27Z"/>
          <g class="cls-5">
            <path class="cls-11" d="m746.92,1646.6s-84.49,102.62-199.16,54.32c-8.26-3.5-16.06-7.23-23.29-11.07,11.07-6.54,21.11-14.8,29.54-24.55,28.62-33.04,37.69-81.97,22.77-123.1-17.21-47.5-61.49-80.14-84.15-125.34-18.99-37.97-21.4-81.97-33.73-122.64-12.33-40.73-40.84-82.26-83.06-87.08-48.01-5.45-87.36,38.6-106.58,82.89-19.27,44.46-25.24,89.2-22.89,134.46-9.69-17.55-17.5-37.57-21.51-60.06-25.13-140.31,109.68-355.53,366.6-565.71-1.72,4.02-80.88,208.63.06,366.6,155.4,303.27,79.96,298.74,155.4,481.27Z"/>
          </g>
          <path class="cls-11" d="m618.06,1713.8c-22.29,0-45.89-4.26-70.25-14.53-70.41-29.62-105.23-74-135.96-113.14-22.24-28.34-41.44-52.81-71.26-68.86l-1.79-.96c-18.23-10.15-108.9-65.46-127.78-170.86-13.52-75.4,14.43-169.93,80.84-273.35,65.52-102.05,167.16-210.81,293.95-314.52,8.33-6.81,20.22-7.04,28.8-.55,8.57,6.48,11.6,18,7.31,27.86-.66,1.65-76.75,198.04-.59,346.7,95.15,185.71,105.36,258.05,115.23,328.01,6.15,43.64,11.97,84.86,40.94,155,3.29,7.95,1.92,17.07-3.55,23.71-25.25,30.66-83.66,75.5-155.9,75.5Zm-61.96-869.71c-95.51,84.88-172.57,171.46-225.03,253.17-59.94,93.36-85.6,176.34-74.18,239.96,15.5,86.51,95.3,133.2,104.35,138.24l1.41.76c38.42,20.68,62.54,51.42,85.86,81.14,28.56,36.39,58.1,74.02,117.39,98.97,78.09,32.9,140.2-15.9,162.92-37.95-26.41-67.41-32.49-110.5-38.38-152.27-9.33-66.14-18.98-134.54-110.56-313.28-54.69-106.75-41.5-230.58-23.77-308.74Z"/>
          <g>
            <path class="cls-6" d="m2593.88,1001.84c-3.67,14.28-12.1,33.38-22.83,55.35-30.86,62.98-80.77,149.14-91.15,210.29-15.03,29.71-33.27,56.39-60.17,74.34-27.76,18.53-57.19,29.08-85.36,34.65-75.66,14.91-142.03-6.48-142.03-6.48,0,0-27.13-107.61-9.01-226.29,12.16-79.91,85.47-401.31-135.78-624.62h8.03s343.49,144.78,472.38,263.47c64.36,59.31,83.86,148.45,65.91,219.3Z"/>
            <g class="cls-5">
              <path class="cls-11" d="m2593.88,1001.84c-3.67,14.28-12.1,33.38-22.83,55.35-.63-41.42-9.52-82.66-26.39-120.52-32.7-73.14-95.16-132.45-169.96-161.25-12.05-4.65-25.41-8.55-37.63-4.42-18.82,6.37-26.96,29.71-23.69,49.27,3.33,19.56,14.97,36.48,24.95,53.69,47.21,81.51,59.6,182.47,33.39,272.99-15.32,53-43.25,102.85-48.64,157.75-2.35,23.86,1.61,49.56,11.3,71.76-75.66,14.91-142.03-6.48-142.03-6.48,0,0-27.13-107.61-9.01-226.29,12.16-79.91,85.47-401.31-135.78-624.62h8.03s343.49,144.78,472.38,263.47c64.36,59.31,83.86,148.45,65.91,219.3Z"/>
            </g>
          </g>
          <path class="cls-11" d="m2278.6,1404.82c-51.95,0-90.36-12.04-93.3-12.99-7.52-2.43-13.27-8.56-15.2-16.23-1.15-4.58-28.05-113.51-9.43-235.37.84-5.52,1.97-12.18,3.27-19.88,17.85-105.4,65.26-385.35-132.67-585.13-6.52-6.58-8.44-16.43-4.88-24.98,3.56-8.55,11.91-14.12,21.18-14.12h8.03c3.06,0,6.09.61,8.91,1.8,14.17,5.98,348.67,147.72,479.01,267.73,65.94,60.77,94.44,155.68,72.61,241.81,0,0,0,.01,0,.02-6.48,25.47-24.91,61.33-46.25,102.86-28.01,54.51-59.75,116.28-67.34,160.97-.39,2.27-1.11,4.47-2.15,6.52-12.37,24.46-32.88,59.69-67.92,83.07-51.77,34.54-108.08,43.9-153.86,43.9Zm-66.81-53.47c32.22,7.27,121.2,20.77,195.21-28.6,19.47-12.99,35.26-32.4,50.93-62.67,9.66-51.08,42.28-114.55,71.12-170.68,19.23-37.42,37.4-72.77,42.6-93.2,14.54-57.38,1.86-140.47-59.22-196.76-87.68-80.73-281.16-175.59-389.13-225.14,144.44,207.86,101.19,463.36,85.88,553.74-1.25,7.4-2.34,13.81-3.15,19.14-13.61,89.1-.42,172.8,5.76,204.19Zm382.09-349.5h.05-.05Z"/>
          <path class="cls-2" d="m1723.63,1828.72c-48.82,74.06-223.31,100.56-360.47-53.12-72.28-81-92.87-195.72-96.14-286.07-.8-20.82-.63-40.38.06-57.94v-.06c1.89-50.71,7.92-84.67,7.92-84.67l362.13-47.27c16.35,17.04,28.85,35.56,38.26,54.9v.06c62.81,128.84-12.1,293.06-12.1,293.06,84.49,16.12,102.11,117.71,60.35,181.09Z"/>
          <path class="cls-11" d="m1284,1348.49c-1.53,44.5-.77,89.5,2.81,133.51,3.62,44.07,10.25,87.53,21.11,129.34,10.95,41.63,25.34,82.46,48.7,117.58,11.52,17.59,24.89,33.57,40.29,48.76,15.17,15.06,31.56,28.75,49.06,40.58,34.95,23.57,74.62,40.06,115.64,44.92,20.44,2.64,41.13,2.16,61-1.24,19.77-3.57,39-10.13,54.94-20.44,7.96-5.1,15.11-11.04,20.89-17.67l2.17-2.47,1.89-2.6,1.9-2.59,1.82-2.94c2.47-3.9,4.53-8.1,6.5-12.33,7.49-17.15,10.86-36.57,9.26-55.27-.72-9.35-2.7-18.49-5.9-26.96-3.12-8.51-7.5-16.3-13-22.96-10.82-13.53-26.28-22.06-44.08-25.53h-.01c-12.29-2.13-20.52-13.81-18.4-26.09.24-1.36.59-2.67,1.04-3.92l.77-2.05c1.01-2.72,2.33-6.44,3.43-9.75l3.46-10.32c2.19-6.96,4.43-13.93,6.43-20.97,4.14-14.05,7.63-28.27,10.79-42.52,3.1-14.26,5.53-28.62,7.44-42.97,1.73-14.37,3.03-28.76,3.38-43.11.15-14.34-.37-28.62-1.8-42.79-1.67-14.12-4.1-28.12-7.86-41.84l-2.9-10.28c-1.1-3.38-2.37-6.7-3.55-10.08-1.13-3.41-2.51-6.69-3.92-10-1.46-3.26-2.6-6.75-4.34-9.89-6.02-13.18-13.85-25.48-22.01-38.09l-.27-.42c-2.59-3.99-1.45-9.32,2.54-11.9,3.19-2.07,7.25-1.74,10.07.51,12.55,10.08,24.28,21.68,34.14,34.9,9.77,13.22,18.38,27.58,24.97,42.84,13.19,30.55,19.8,63.66,21.12,96.43.74,16.4.27,32.77-1.25,48.97-1.39,16.22-3.85,32.27-7.21,48.07-3.28,15.82-7.53,31.39-12.55,46.7-2.57,7.64-5.21,15.26-8.24,22.76-1.53,3.75-3.03,7.52-4.7,11.25-1.72,3.83-3.29,7.25-5.42,11.54l-16.58-32.06h.02c26.67,4.9,53.5,19.44,71.03,41.59,8.93,10.86,15.73,23.15,20.44,35.92,4.8,12.76,7.61,26.02,8.65,39.27,2.19,26.52-2.38,53.16-13.03,77.57-2.78,6.06-5.77,12.05-9.34,17.75l-2.67,4.28-3.09,4.3-3.14,4.25-3.41,3.95c-9.14,10.47-19.68,19.07-30.79,26.2-11.12,7.15-22.88,12.79-34.93,17.13-12.04,4.33-24.33,7.75-36.75,9.82-24.81,4.26-50,4.73-74.54,1.59-49.27-5.88-95.67-25.41-135.76-52.45-20.08-13.57-38.64-29.11-55.66-46-16.8-16.73-33.08-35.36-46.7-55.55-27.4-40.3-46.25-85.41-57.35-131.6-11.05-46.27-14.84-93.48-13.71-140.05.21-11.65.83-23.28,1.8-34.86.82-11.59,2.13-23.13,3.66-34.62,3.16-23.04,7.27-45.63,13.74-68.33,1.39-4.87,6.46-7.69,11.32-6.3,4.13,1.18,6.79,5.01,6.65,9.12v.38Z"/>
          <path class="cls-11" d="m1684.13,1658.06c-1.88,2.23-4.16,5.61-6.14,8.57-2.03,3.08-3.98,6.23-5.83,9.42-3.7,6.38-6.97,12.92-9.53,19.48-2.49,6.52-4.3,13.18-4.29,18.97,0,5.77,1.56,10.54,7.05,14.21l.52.35c2.83,1.9,3.59,5.73,1.69,8.57-1.44,2.15-4.02,3.1-6.41,2.6-4.81-1.02-9.9-3.35-14.01-7.14-4.14-3.76-7.1-8.64-9.05-13.5-3.88-9.86-4.51-19.56-4.53-28.82.1-9.26,1.1-18.23,2.6-27.03.75-4.4,1.62-8.76,2.62-13.11,1.06-4.46,1.99-8.43,3.62-13.42l.67-2.05c4.11-12.55,17.62-19.39,30.18-15.28,12.55,4.11,19.39,17.63,15.28,30.18-.98,2.99-2.55,5.72-4.46,7.99Z"/>
          <path class="cls-11" d="m1358.01,1344.37c11.93-16.63,28.18-28.87,45.55-38.78,17.53-9.7,36.77-16.72,56.89-20.11,20.05-3.49,41.05-3.37,61.07,1.2,19.98,4.46,39.05,13.49,53.76,27.51-20.36-.65-38.46-1.64-56.41-.58-17.84.74-35.21,2.82-52.63,5.78-17.42,2.9-34.85,6.86-52.65,11.23-17.89,4.34-35.86,9.22-55.58,13.74Z"/>
          <path class="cls-11" d="m1347.45,1478.66c14.31-21.09,34.27-37.53,56.03-50.71,21.94-12.98,46.39-22.4,72.02-26.88,12.82-2.13,25.84-3.31,38.88-2.97,13.02.51,26.02,1.88,38.6,5.09,25.16,6.14,48.74,17.8,67.57,34.72-25.05-3.96-48.29-7.39-71.34-7.93-22.98-.68-45.46,1.09-67.77,4.97-22.31,3.87-44.4,9.93-66.55,17.42-22.18,7.55-44.26,16.37-67.44,26.27Z"/>
          <path class="cls-11" d="m1395.73,1600.87c4.51-8.53,10.73-15.82,17.46-22.42,3.37-3.34,7.02-6.29,10.69-9.33,3.75-2.86,7.67-5.52,11.62-8.18,16.06-10.09,34.28-17.04,53.25-20.41,9.44-1.98,19.18-2.2,28.78-2.44,9.65.76,19.28,1.13,28.59,3.84,18.73,4.07,36.14,13.2,50.29,25.74-4.89.35-9.57.49-14.09.41-4.54,0-8.87-.42-13.34-.03-4.4.14-8.71.22-12.93.15-4.22-.11-8.49.58-12.63.66-8.3.05-16.48,1.4-24.56,1.85l-12.07,1.73c-4.04.28-8.01,1.2-11.99,1.96-15.96,2.81-31.91,6.49-48.16,11.1-16.34,4.57-32.68,9.88-50.91,15.37Z"/>
          <path class="cls-11" d="m1427.42,1695.8c14.37-2.8,26.85-4.13,39.1-5.49l35.29-3.72c5.79-.46,11.42-1.42,17.24-1.88,2.89-.29,5.69-.94,8.64-1.16,2.95-.27,5.87-.67,8.79-1.18,12.11-1.19,23.88-3.97,38.8-5.01-6.63,12.92-17.12,23.46-29.51,30.43l-4.64,2.73c-1.6.77-3.24,1.43-4.87,2.15-3.26,1.44-6.6,2.74-9.98,3.89-6.82,1.97-13.78,3.68-20.84,4.26-14.08,1.49-28.33.26-41.74-3.68-13.31-4.14-26.25-10.4-36.29-21.33Z"/>
          <path class="cls-11" d="m1537.56,1812.11c11.9-3.86,21.92-6.17,31.39-8.28,9.43-2.06,18-3.97,26.13-5.89,8.16-2,15.53-4.39,23.75-7.39,1.98-.86,4.1-1.65,6.37-2.43,2-1.08,4.18-2.11,6.5-3.17,4.96-1.9,9.03-5.05,15.27-7.54.31,3.1.13,6.14-.17,9.24-.1,1.59-.39,3.09-.62,4.66-.3,1.53-.91,2.88-1.39,4.36-1.09,2.86-2.32,5.76-3.75,8.6-1.69,2.58-3.57,5.13-5.57,7.62-8.28,9.57-19.94,16.62-32.07,19.44-12.12,2.93-24.49,2.54-35.83-.57-11.28-3.28-21.98-8.77-30.01-18.65Z"/>
          <ellipse class="cls-11" cx="1071.02" cy="1241.75" rx="107.63" ry="159.96" transform="translate(-57.2 51.73) rotate(-2.7)"/>
          <ellipse class="cls-1" cx="1110.62" cy="1205.22" rx="54.44" ry="30.5" transform="translate(-207.94 2178.58) rotate(-83.77)"/>
          <g class="cls-8">
            <ellipse class="cls-1" cx="1027.51" cy="1312" rx="18.08" ry="41.73" transform="translate(-439.23 520.92) rotate(-23.59)"/>
          </g>
          <path class="cls-11" d="m892.84,1116.65c4.4,3.52,10.14,7.02,15.65,9.7,5.63,2.71,11.47,4.86,17.39,6.42,11.84,3.13,23.96,3.7,35.63,2.17,11.69-1.65,22.95-5.33,33.57-10.68,10.63-5.27,20.65-12.02,30.05-19.76h16.22c10.69,0,19.35,8.66,19.35,19.35,0,2.06-.35,4.12-.95,5.98-.65,2.01-1.04,2.89-1.56,4.19l-1.49,3.44c-1.01,2.24-2.06,4.39-3.18,6.5-2.21,4.22-4.6,8.29-7.22,12.22-5.18,7.87-11.15,15.24-17.98,21.88-13.54,13.3-30.69,23.52-48.94,28.24-9.1,2.38-18.33,3.52-27.4,3.74-9.04-.07-17.96-.67-26.5-2.41-17.19-3.13-33.14-9.07-48.12-16.22-4.56-2.18-6.5-7.64-4.32-12.2,1.98-4.16,6.7-6.14,10.98-4.8l.07.02c14.72,4.59,29.72,7.71,44.32,8.2,7.3.43,14.44-.22,21.34-1.13,6.85-1.21,13.4-3.05,19.5-5.64,12.19-5.21,22.3-13.61,30.18-23.98,3.95-5.17,7.32-10.88,10.09-16.87,1.41-2.98,2.64-6.05,3.69-9.11.54-1.53,1.02-3.07,1.44-4.56l.58-2.19c.13-.58.38-1.61.28-1.51l34.62,25.34c-13.28,7.01-27.43,12.85-42.29,16.74-14.79,3.96-30.4,5.73-45.79,4.7-15.39-1.12-30.44-5.13-43.84-11.8-6.71-3.33-13.02-7.26-18.87-11.73-5.88-4.6-11.07-9.24-16.14-15.41-2.29-2.78-1.89-6.9.89-9.19,2.43-2,5.87-1.95,8.23-.06l.52.42Z"/>
          <path class="cls-12" d="m1665.74,1218.24c1.15-8.71,2.96-15.97,5.49-23.58,1.18-3.78,2.5-7.5,4.01-11.14l2.28-5.48,2.57-5.32c6.75-14.3,15.38-27.8,25.56-40.06,20.17-24.73,46.04-44.96,74.49-59.23l21.72-9.75c7.4-2.75,14.92-5.13,22.39-7.68,3.82-1.37,7.35-2.32,10.85-3.24,3.54-.94,7.04-1.97,10.55-2.83,7.02-1.8,14.01-3.51,20.81-5.14,13.63-3.28,26.75-6.33,36.53-10.44,4.81-2.12,8.81-4.49,12.74-8.43,3.95-3.9,7.5-9.43,11.14-15.59l.29-.49c2.38-4.04,7.59-5.38,11.62-3,2.48,1.46,3.95,4.04,4.16,6.71.57,8.1-.03,16.74-3.1,25.69-3.01,8.93-9.15,17.61-16.26,23.94-7.1,6.34-14.61,10.88-21.95,14.75-7.28,3.76-14.56,6.89-21.63,9.61-7.13,2.8-14.17,5.19-21.17,7.5-3.51,1.2-7.02,2.2-10.51,3.29-3.53,1.07-7.02,2.15-10.1,3.22-6.35,2.19-12.81,4.17-19.1,6.47l-18.51,7.67c-24.28,11.02-46.55,25.7-66.22,43.75-10,8.89-19.01,18.92-27.42,29.59l-3.15,4.03-2.89,4.19c-2.05,2.75-4,5.56-5.8,8.45-3.66,5.62-7.31,11.97-10.11,17.34l-.58,1.12c-2.54,4.87-8.54,6.76-13.42,4.22-3.81-1.98-5.79-6.1-5.26-10.13Z"/>
          <ellipse class="cls-10" cx="2037.48" cy="1289.08" rx="68.39" ry="34.7" transform="translate(-280.03 624.1) rotate(-16.31)"/>
        </g>
        <g class="cls-5">
          <path class="cls-12" d="m1723.37,1833.41c-48.82,74.05-223.31,100.56-360.47-53.12-72.28-81-92.87-195.72-96.14-286.07l.06-57.94c48.25,197.33,136.98,331.01,216.91,361.46,92.22,35.13,172.47-16.65,136.56-51.81-35.91-35.16-17.61-151.03,11.93-211.9,29.08-59.94,42.51-171.69,42.91-174.78,62.81,128.84-12.1,293.06-12.1,293.06,84.49,16.12,102.11,117.71,60.35,181.09Z"/>
        </g>
        <g class="cls-5">
          <path class="cls-11" d="m2471.38,2248.55v.98c0,2.06-.06,4.19-.11,6.31-.06.98-.06,1.95-.06,2.98-.06,1.89-.17,3.9-.23,5.85-.11,2.35-.29,4.7-.4,7.06,0,.34-.06.69-.06,1.03-.23,3.67-.57,7.34-.86,11.01-.52,4.7-1.03,9.35-1.55,14.05-.4,2.75-.75,5.51-1.2,8.32-.29,2.01-.57,3.96-.92,5.91-.4,2.41-.8,4.82-1.2,7.23-1.38,7.51-2.93,14.97-4.7,22.43-.29,1.26-.63,2.52-.97,3.84-.8,3.38-1.66,6.71-2.58,10.04-.92,3.5-1.89,7.06-2.98,10.5-1.03,3.56-2.18,7.06-3.27,10.55-.11.34-.23.69-.34,1.03-1.15,3.44-2.35,7-3.61,10.44-.23.69-.46,1.38-.75,2.07-1.15,3.1-2.29,6.19-3.5,9.29-.29.69-.57,1.38-.8,2.06-1.32,3.33-2.7,6.6-4.13,9.92-1.55,3.67-3.15,7.29-4.88,10.9-1.61,3.61-3.38,7.23-5.16,10.78-1.95,3.96-4.02,7.92-6.14,11.82-1.55,2.87-3.15,5.68-4.76,8.49-8.95,15.55-18.93,30.23-29.83,43.77-1.2,1.49-2.47,2.93-3.67,4.42-3.67,4.42-7.4,8.66-11.3,12.73-2.47,2.75-5.05,5.39-7.63,7.92-17.5,17.15-36.77,31.61-57.76,42.56,0,0-.06,0-.17.11-18.01,9.35-37.29,16.06-57.71,19.73-175.07,31.21-358.57-89.31-358.57-89.31-3.5,1.72-7,3.38-10.5,4.99-4.07,22.08-7.92,40.5-10.78,54.04-1.84,8.55-5.91,16.29-11.64,22.43-5.33,5.79-12.16,10.27-19.9,12.85-29.6,9.87-57.94,16.64-84.55,21.05-2.29.4-4.53.75-6.71,1.09-37.69,5.79-71.93,6.88-101.93,5.45-1.66-.11-3.27-.17-4.88-.29-33.16-1.89-60.92-7-81.8-12.16-7.92-1.95-14.91-5.85-20.54-11.07,0,0-.06,0-.06-.06-2.47-2.29-4.7-4.88-6.65-7.63-203.41,16.46-419.38-13.77-576.55-90.69,0,0-183.5,120.52-358.57,89.31-20.42-3.67-39.69-10.38-57.71-19.73-.11-.11-.17-.11-.17-.11-20.99-10.96-40.27-25.41-57.71-42.56-2.58-2.52-5.16-5.16-7.69-7.92-3.9-4.07-7.63-8.32-11.3-12.73-1.2-1.49-2.47-2.93-3.67-4.42-10.9-13.54-20.88-28.22-29.83-43.77-1.61-2.81-3.21-5.62-4.76-8.49-2.12-3.9-4.19-7.86-6.14-11.82-1.78-3.56-3.56-7.17-5.16-10.78-1.72-3.61-3.33-7.23-4.88-10.9-1.43-3.33-2.81-6.6-4.13-9.92-.23-.69-.52-1.38-.8-2.06-1.2-3.1-2.35-6.2-3.5-9.29-.29-.69-.52-1.38-.75-2.07-1.26-3.44-2.47-7-3.61-10.44-.11-.34-.23-.69-.34-1.03-1.09-3.5-2.24-7-3.27-10.55-1.09-3.44-2.06-7-2.98-10.5-.92-3.33-1.78-6.65-2.58-10.04-.34-1.32-.69-2.58-.97-3.84-1.78-7.46-3.33-14.91-4.65-22.43-.46-2.41-.86-4.82-1.26-7.23-.29-1.95-.63-3.9-.92-5.91-.4-2.81-.8-5.56-1.21-8.32-.52-4.7-1.03-9.35-1.55-14.05-.29-3.67-.63-7.34-.86-11.01,0-.34-.06-.69-.06-1.03-.11-2.35-.29-4.7-.34-7.06-.11-1.95-.23-3.96-.29-5.85,0-1.03,0-2.01-.06-2.98-.06-2.12-.11-4.24-.11-6.31v-.98c0-3.44,0-6.94.17-10.38.06-5.33.29-10.61.69-15.95.17-2.7.4-5.45.63-8.09.23-2.75.52-5.45.86-8.09.29-2.29.57-4.59.92-6.88.23-1.89.52-3.79.8-5.68.23-1.49.52-3.04.75-4.53,24.32,178.97,127.04,278.73,249.13,262.66,170.87-22.48,124.71-306.37,124.71-306.37l37.11-56.27c76.52,114.15,150.92-19.16,154.19-25.12-37.63,98.61,43.02,179.2,163.37,179.2s227.67-54.44,227.67-54.44c-5.85,78.64-158.84,240.52,9.12,240.52s203.69-222.05,204.5-226.81v.23c-.06,2.01-.4,13.88.52,31.61-.06.06-.06.17,0,.23,3.38,69.12,24.55,226.52,147.25,234.44,147.71,9.64,205.87-245.4,212.53-277v-.06c.4-2.07.63-3.15.63-3.15,67.17,120.46,144.27,54.32,144.27,54.32,0,0-17.21,225.89,194.52,225.89,135.43,0,189.93-184.88,211.61-318.13.23.69.46,1.38.69,2.12.75,2.18,1.38,4.36,2.01,6.6.69,2.52,1.38,4.99,2.01,7.51.63,2.52,1.26,5.11,1.84,7.63.46,2.07.86,4.13,1.32,6.2.86,4.19,1.61,8.43,2.29,12.73.29,1.89.57,3.79.8,5.68.34,2.29.63,4.59.92,6.88.34,2.64.63,5.33.86,8.09.23,2.64.46,5.39.63,8.09.4,5.33.63,10.61.69,15.95.17,3.44.17,6.94.17,10.38Z"/>
        </g>
        <g>
          <path class="cls-1" d="m412.56,341.86c23.41-38.3,34.95-84.27,30.01-132.36C430.58,92.76,326.23,7.84,209.49,19.82,92.76,31.81,7.84,136.16,19.83,252.9c11.99,116.74,116.34,201.65,233.07,189.67,32.47-3.33,62.47-13.83,88.61-29.74l98.33,22.05-27.28-93.02Z"/>
          <g class="cls-3">
            <path class="cls-1" d="m213.67,60.48c109.05-11.2,207.26,62.18,229.5,167.04.03-7.49-.3-15.05-1.08-22.67C430.1,88.12,325.75,3.2,209.02,15.19,92.28,27.17,7.37,131.52,19.35,248.26c.79,7.65,1.99,15.16,3.55,22.52.41-107.24,81.69-199.1,190.77-210.3Z"/>
          </g>
          <path class="cls-11" d="m230.76,462.39c-52.94,0-103.85-18.02-145.47-51.89C37.39,371.52,7.54,316.23,1.23,254.8c-6.3-61.43,11.68-121.63,50.66-169.52C90.87,37.39,146.16,7.54,207.59,1.23c61.41-6.29,121.63,11.68,169.52,50.66,47.9,38.97,77.74,94.27,84.05,155.69,4.92,47.94-4.89,95.04-28.4,136.76l25.01,85.27c1.86,6.35.22,13.21-4.3,18.04-4.53,4.82-11.25,6.89-17.73,5.45l-91.14-20.44c-27.69,15.62-57.86,25.2-89.79,28.48-8.04.83-16.07,1.23-24.05,1.24Zm.8-425.01c-6.69,0-13.41.35-20.16,1.04-51.49,5.28-97.85,30.31-130.52,70.46-32.68,40.15-47.75,90.62-42.47,142.11,5.28,51.49,30.31,97.85,70.46,130.52,40.14,32.68,90.63,47.74,142.11,42.47,28.93-2.97,56.12-12.09,80.81-27.11,4.14-2.51,9.08-3.32,13.8-2.27l67.38,15.11-18.35-62.59c-1.48-5.06-.76-10.51,1.99-15,22.27-36.44,31.73-78.18,27.36-120.71-5.28-51.49-30.31-97.85-70.46-130.52-34.89-28.39-77.58-43.51-121.95-43.51Z"/>
          <g class="cls-9">
            <path class="cls-11" d="m413.75,339.82c-58.2,49.23-138.38,70.78-218,50.97-88.3-21.98-153.36-89.21-176.76-170.82-.56,10.82-.31,21.82.83,32.93,11.99,116.74,116.34,201.65,233.07,189.67,32.47-3.33,62.47-13.83,88.61-29.74l98.33,22.05-27.28-93.02c.41-.67.79-1.36,1.19-2.04Z"/>
          </g>
          <path class="cls-13" d="m299.14,171.53h0c-18.39-18.39-48.2-15.09-66.59,3.29l-2.86,2.86-2.86-2.86c-18.39-18.39-48.2-21.68-66.59-3.29h0c-18.39,18.39-18.39,48.2,0,66.59l2.86,2.86,57.81,57.81c4.85,4.85,12.71,4.85,17.56,0l57.81-57.81,2.86-2.86c18.39-18.39,18.39-48.2,0-66.59Z"/>
        </g>
      </g>
    </g>
  </g>
</svg>