<?xml version="1.0" encoding="UTF-8"?>
<svg id="Capa_2" data-name="Capa 2" xmlns="http://www.w3.org/2000/svg" xmlns:xlink="http://www.w3.org/1999/xlink" viewBox="0 0 4000 4000">
  <defs>
    <style>
      .cls-1, .cls-2 {
        fill: #fff;
      }

      .cls-3 {
        fill: #90b5df;
      }

      .cls-4 {
        opacity: .5;
      }

      .cls-2 {
        fill-rule: evenodd;
      }

      .cls-5 {
        opacity: .6;
      }

      .cls-6 {
        opacity: .2;
      }

      .cls-7 {
        fill: #ff9eba;
      }

      .cls-8 {
        fill: #e0e0e0;
      }

      .cls-9 {
        opacity: .35;
      }

      .cls-10 {
        opacity: .3;
      }

      .cls-11 {
        fill: #ff8a8e;
      }

      .cls-12 {
        clip-path: url(#clippath);
      }

      .cls-13 {
        fill: none;
      }

      .cls-14 {
        fill: #000072;
      }

      .cls-15 {
        fill: #040056;
      }

      .cls-16 {
        fill: url(#Adsýz_degrade_36);
      }

      .cls-17 {
        fill: #f2f2f2;
      }
    </style>
    <clipPath id="clippath">
      <rect class="cls-13" width="4000" height="4000"/>
    </clipPath>
    <radialGradient id="Adsýz_degrade_36" data-name="Adsýz degrade 36" cx="2695.99" cy="471.41" fx="2695.99" fy="471.41" r="176.73" gradientTransform="translate(280.9 -147.58) scale(1.15)" gradientUnits="userSpaceOnUse">
      <stop offset="0" stop-color="#00f872"/>
      <stop offset="1" stop-color="#00b85d"/>
    </radialGradient>
  </defs>
  <g id="Layer_1" data-name="Layer 1">
    <g class="cls-12">
      <g>
        <g class="cls-6">
          <ellipse class="cls-14" cx="2139.06" cy="3616.38" rx="1748.8" ry="200.91"/>
        </g>
        <g>
          <path class="cls-3" d="m3526.16,3121.96v1.23c0,2.6-.08,5.28-.16,7.95-.08,1.23-.08,2.46-.08,3.76-.08,2.39-.24,4.92-.31,7.38-.16,2.96-.39,5.93-.55,8.89,0,.43-.08.87-.08,1.3-.31,4.63-.78,9.26-1.18,13.88-.7,5.93-1.41,11.79-2.12,17.72-.55,3.47-1.02,6.94-1.65,10.49-.39,2.53-.78,4.99-1.25,7.45-.55,3.04-1.1,6.07-1.65,9.11-1.88,9.47-4,18.87-6.43,28.28-.39,1.59-.86,3.18-1.33,4.85-1.1,4.27-2.27,8.46-3.53,12.66-1.25,4.41-2.59,8.9-4.08,13.23-1.41,4.48-2.98,8.89-4.47,13.31-.16.43-.31.87-.47,1.3-1.57,4.34-3.21,8.82-4.94,13.16-.31.87-.63,1.74-1.02,2.6-1.57,3.9-3.13,7.81-4.78,11.72-.39.87-.78,1.74-1.1,2.6-1.8,4.19-3.68,8.32-5.64,12.51-2.12,4.63-4.31,9.18-6.66,13.74-2.19,4.56-4.62,9.11-7.05,13.6-2.66,4.99-5.48,9.98-8.38,14.9-2.12,3.62-4.31,7.16-6.5,10.7-12.23,19.6-25.86,38.11-40.75,55.18-1.65,1.88-3.37,3.69-5.02,5.57-5.01,5.57-10.11,10.92-15.44,16.05-3.37,3.47-6.9,6.8-10.42,9.98-23.9,21.62-50.23,39.85-78.91,53.66,0,0-.08,0-.24.14-24.61,11.79-50.94,20.25-78.83,24.88-239.17,39.34-489.85-112.6-489.85-112.6-4.78,2.17-9.56,4.27-14.34,6.29-136.51,59.01-303.58,95.1-477.39,108.04-277.88,20.75-572.92-17.36-787.64-114.33,0,0-250.69,151.94-489.85,112.6-27.9-4.63-54.23-13.09-78.83-24.88-.16-.14-.23-.14-.23-.14-28.68-13.81-55.01-32.04-78.83-53.66-3.53-3.18-7.05-6.51-10.5-9.98-5.33-5.13-10.42-10.49-15.44-16.05-1.65-1.88-3.37-3.69-5.02-5.57-14.89-17.07-28.52-35.58-40.75-55.18-2.19-3.54-4.39-7.09-6.5-10.7-2.9-4.92-5.72-9.91-8.39-14.9-2.43-4.48-4.86-9.04-7.05-13.6-2.35-4.56-4.54-9.11-6.66-13.74-1.96-4.19-3.84-8.32-5.64-12.51-.31-.87-.71-1.74-1.1-2.6-1.65-3.91-3.21-7.81-4.78-11.72-.39-.87-.71-1.74-1.02-2.6-1.72-4.34-3.37-8.82-4.94-13.16-.16-.43-.31-.87-.47-1.3-1.49-4.41-3.06-8.82-4.47-13.31-1.49-4.34-2.82-8.82-4.07-13.23-1.25-4.19-2.43-8.39-3.53-12.66-.47-1.66-.94-3.25-1.33-4.85-2.43-9.4-4.55-18.8-6.35-28.28-.63-3.04-1.17-6.07-1.72-9.11-.39-2.46-.86-4.92-1.25-7.45-.55-3.54-1.1-7.01-1.65-10.49-.71-5.93-1.41-11.79-2.12-17.72-.39-4.63-.86-9.26-1.18-13.88,0-.43-.08-.87-.08-1.3-.16-2.96-.39-5.93-.47-8.89-.16-2.46-.31-4.99-.39-7.38,0-1.3,0-2.53-.08-3.76-.08-2.68-.16-5.35-.16-7.95v-1.23c0-4.34,0-8.75.24-13.09.08-6.73.39-13.38.94-20.1.24-3.4.55-6.87.86-10.2.31-3.47.71-6.87,1.17-10.2.39-2.89.78-5.79,1.25-8.68.31-2.39.71-4.77,1.1-7.16.31-1.88.7-3.83,1.02-5.71.63-3.47,1.33-6.94,2.12-10.34.63-2.6,1.18-5.21,1.8-7.81.78-3.18,1.65-6.44,2.51-9.62.86-3.18,1.8-6.29,2.74-9.47.86-2.82,1.8-5.57,2.74-8.32.78-2.46,1.65-4.77,2.59-7.16,1.02-2.82,2.12-5.64,3.13-8.39.16-.29.23-.51.39-.72.86-2.24,1.72-4.48,2.74-6.65.39-.87.78-1.74,1.1-2.68,1.26-2.53,2.43-5.06,3.61-7.52.94-1.95,1.8-3.76,2.74-5.57,2.82-5.5,5.96-10.99,9.09-16.27,4.94-8.1,10.27-15.84,16.14-23.29,1.33-1.81,2.82-3.62,4.31-5.35.24-.36.55-.72.86-1.08,1.57-1.88,3.21-3.83,4.94-5.64.16-.22.31-.43.63-.72.23-.29.55-.58.86-.94.86-.94,1.72-1.88,2.59-2.82.94-1.01,1.88-1.95,2.82-2.89.16-.14.23-.29.47-.51,1.8-1.88,3.68-3.76,5.72-5.57,5.25-4.99,10.74-9.76,16.61-14.25,1.72-1.45,3.45-2.75,5.25-3.98,1.8-1.37,3.68-2.68,5.56-3.91,2.04-1.37,4.15-2.75,6.27-4.12,2.12-1.37,4.31-2.75,6.5-3.98,1.96-1.16,3.92-2.31,6.03-3.4,3.45-1.95,6.97-3.76,10.58-5.5,8.78-4.27,17.32-7.88,25.78-11.06,2.74-1.01,5.33-1.95,8.07-2.89,2.35-.8,4.62-1.59,7.05-2.31,4.94-1.59,9.87-2.96,14.81-4.19,1.41-.36,2.9-.72,4.39-1.08,2.12-.51,4.15-.94,6.19-1.37,1.88-.43,3.84-.8,5.72-1.16,1.33-.22,2.74-.43,4.08-.65,1.96-.36,4-.72,6.03-1.01,1.33-.22,2.66-.36,4-.51,2.12-.29,4.23-.51,6.27-.8,1.57-.14,3.21-.29,4.7-.36,1.72-.22,3.45-.29,5.17-.43,1.02-.07,2.04-.14,3.06-.14,4.23-.22,8.38-.36,12.54-.36,2.9,0,5.88.07,8.7.22h.47c4.78.14,9.48.43,14.03.94,1.57.14,3.14.29,4.7.51,1.1.07,2.19.29,3.29.36.39.07.71.07,1.02.14,1.57.14,3.13.43,4.62.65.39.07.86.14,1.26.14,3.37.51,6.66,1.08,9.95,1.74,1.17.22,2.43.51,3.53.8,4.23.87,8.31,1.81,12.3,2.89,1.8.43,3.53.94,5.25,1.37,6.11,1.74,12.15,3.69,18.1,5.86,5.8,2.1,11.52,4.34,17,6.8,3.68,1.52,7.29,3.18,10.81,4.92.23.07.39.22.63.29,3.29,1.59,6.5,3.25,9.64,4.92,18.49,9.76,34.4,20.54,47.49,30.59,1.25.94,2.35,1.81,3.53,2.75,1.18.87,2.27,1.81,3.37,2.68,13.01,10.56,22.57,19.81,28.21,25.74,4.08,4.12,6.11,6.65,6.11,6.65,0,0,13.32-12.29,43.57-33.7,15.75-11.14,36.12-24.8,61.59-40.5,0,0,38.71-132.34,112.61-292.23,43.34-93.87,98.82-197.21,165.66-288.83l579.19-111.37,579.19,111.37c58.54,80.27,108.38,169.58,148.97,253.54,84.71,175.22,129.3,327.52,129.3,327.52,25.55,15.69,45.84,29.36,61.59,40.5,30.25,21.41,43.57,33.7,43.57,33.7,0,0,2.04-2.53,6.11-6.65,5.64-5.93,15.2-15.19,28.21-25.74,1.1-.87,2.19-1.81,3.37-2.68,1.17-.94,2.35-1.81,3.53-2.75,13.09-10.05,28.99-20.83,47.49-30.59,3.13-1.66,6.35-3.33,9.64-4.92.24-.07.39-.22.63-.29,3.53-1.74,7.13-3.4,10.81-4.92,5.48-2.46,11.21-4.7,17.08-6.8,5.88-2.17,11.91-4.12,18.02-5.86,1.72-.43,3.45-.94,5.25-1.37,4-1.08,8.15-2.02,12.3-2.89,1.1-.29,2.35-.58,3.61-.8,3.21-.65,6.5-1.23,9.87-1.74.39,0,.86-.07,1.25-.14,1.57-.22,3.06-.51,4.62-.65.31-.07.63-.07,1.02-.14,1.1-.07,2.19-.29,3.29-.36,1.57-.22,3.13-.36,4.7-.51,4.54-.51,9.25-.8,14.03-.94h.47c2.82-.14,5.8-.22,8.7-.22,4.15,0,8.31.14,12.54.36,1.02,0,2.04.07,3.06.14,1.72.14,3.45.22,5.17.43,1.49.07,3.14.22,4.7.36,2.12.29,4.23.51,6.35.8,1.25.14,2.59.29,3.92.51,2.04.29,4.08.65,6.03,1.01,1.33.22,2.74.43,4.15.65,1.8.36,3.76.72,5.64,1.16,2.04.43,4.07.87,6.19,1.37,1.49.36,2.98.72,4.39,1.08,4.94,1.23,9.87,2.6,14.81,4.19,2.43.72,4.7,1.52,7.05,2.31,2.74.94,5.33,1.88,8.07,2.89,8.46,3.18,17,6.8,25.78,11.06,3.6,1.74,7.13,3.54,10.66,5.5,2.04,1.08,4,2.24,5.96,3.4,2.19,1.23,4.39,2.6,6.5,3.98,2.12,1.37,4.23,2.75,6.27,4.12,1.88,1.23,3.76,2.53,5.56,3.91,1.8,1.23,3.53,2.53,5.25,3.98,5.88,4.48,11.36,9.26,16.69,14.25,1.96,1.81,3.84,3.69,5.64,5.57.24.22.31.36.47.51.94.94,1.88,1.88,2.82,2.89.86.94,1.72,1.88,2.59,2.82.31.36.63.65.86.94.31.29.47.51.63.72,1.72,1.81,3.37,3.76,4.94,5.64.31.36.63.72.86,1.08,1.49,1.74,2.98,3.54,4.31,5.35,5.88,7.45,11.21,15.19,16.14,23.29,3.13,5.28,6.27,10.78,9.09,16.27.94,1.81,1.8,3.62,2.74,5.57,1.17,2.46,2.35,4.99,3.6,7.52.31.94.71,1.81,1.1,2.68,1.02,2.17,1.88,4.41,2.74,6.65.16.22.24.43.39.72,1.1,2.75,2.12,5.57,3.21,8.39.55,1.52,1.1,2.96,1.57,4.48.31.87.63,1.74.94,2.68,1.02,2.75,1.88,5.5,2.74,8.32.94,3.18,1.88,6.29,2.74,9.47.86,3.18,1.72,6.44,2.51,9.62.63,2.6,1.17,5.21,1.8,7.81,1.17,5.28,2.19,10.63,3.13,16.05.39,2.39.78,4.77,1.1,7.16.47,2.89.86,5.79,1.25,8.68.47,3.33.86,6.73,1.17,10.2.31,3.33.63,6.8.86,10.2.55,6.73.86,13.38.94,20.1.23,4.34.23,8.75.23,13.09Z"/>
          <g class="cls-6">
            <path class="cls-15" d="m2819.79,2529.25c-227.18,87.21-497.14,137.69-786.78,137.69-248.02,0-481.63-37.03-686.23-102.4,43.34-93.87,98.82-197.21,165.66-288.83l579.19-111.37,579.19,111.37c58.54,80.27,108.38,169.58,148.97,253.54Z"/>
          </g>
          <path class="cls-14" d="m1002.65,3569.31c-60.83,0-110.69-14.72-128.99-20.93l-.73-.25c-.82-.27-1.66-.58-2.49-.93-.63-.26-1.27-.54-1.89-.84-30.64-14.74-59.71-34.49-86.38-58.71-4.29-3.88-8.02-7.43-11.39-10.82-5.48-5.31-10.93-10.99-16.66-17.37-1.65-1.82-3.42-3.76-5.18-5.76-15.86-18.17-30.5-37.96-43.63-58.97-2.4-3.91-4.68-7.63-6.9-11.4-3.07-5.23-6.08-10.53-8.94-15.88-2.53-4.67-5.07-9.48-7.48-14.36-2.34-4.63-4.73-9.55-7-14.49-2-4.31-3.98-8.71-5.88-13.18l-1.57-3.61c-1.5-3.68-3.02-7.36-4.46-11.03-.47-1.12-.9-2.2-1.31-3.32-1.73-4.36-3.38-8.78-4.92-13.14-.33-.84-.62-1.67-.89-2.51l-.08-.23c-1.53-4.43-3.06-8.85-4.47-13.28-1.46-4.33-2.93-9.15-4.32-13.97-1.29-4.43-2.57-8.91-3.74-13.44l-.19-.68c-.42-1.53-.83-3.03-1.19-4.54-2.41-9.29-4.69-19.34-6.66-29.44-.63-3.31-1.24-6.51-1.79-9.71-.44-2.4-.93-5.12-1.35-7.82-.57-3.53-1.11-7.15-1.64-10.77-.85-6.55-1.58-12.59-2.24-18.7l-.09-.96c-.45-4.64-.89-9.28-1.22-13.92-.02-.33-.03-.66-.05-.99-.02-.33-.04-.65-.05-.97-.2-2.99-.39-5.98-.51-8.98-.13-2.35-.26-4.96-.33-7.53-.06-1.36-.08-2.73-.08-4.1-.13-2.87-.19-5.74-.19-8.56v-1.24c0-4.67,0-9.32.21-13.92.14-7.09.48-14.26,1.03-21.32.27-3.58.6-7.18.94-10.72.35-3.74.77-7.45,1.27-11.16.4-3.09.82-6.22,1.31-9.28.3-2.31.75-5.14,1.29-7.97.97-5.88,2.11-11.7,3.38-17.18.55-2.54,1.19-5.35,1.87-8.17.8-3.34,1.71-6.87,2.68-10.28.91-3.45,1.95-6.85,2.98-10.24.86-2.94,1.89-6.06,3-9.25.91-2.65,1.83-5.27,2.82-7.89,1.01-2.78,2.21-5.84,3.4-8.84.19-.49.39-.98.6-1.47.93-2.31,1.86-4.57,2.86-6.83l1.11-2.56c.13-.28.26-.57.39-.86l1.31-2.78c.8-1.71,1.6-3.42,2.42-5.09.86-1.83,1.93-4.01,3.08-6.19,2.73-5.34,5.98-11.15,9.81-17.57,5.81-9.54,11.66-18,18-26.05,1.51-2.03,3.12-4,4.76-5.96.44-.55.91-1.12,1.4-1.68,1.62-1.97,3.35-3.95,5.09-5.87.56-.66,1.15-1.32,1.81-1.97.12-.13.24-.25.34-.36l2.06-2.28c.27-.31.55-.62.84-.92,1.17-1.22,2.08-2.17,3-3.08.19-.2.38-.39.57-.59h0c2.27-2.3,4.43-4.48,6.7-6.53,5.94-5.66,12-10.85,18.49-15.82,2.07-1.69,4.16-3.25,6.3-4.75,2.11-1.58,4.28-3.1,6.44-4.55,1.95-1.35,4.3-2.86,6.65-4.38,2.72-1.75,5.4-3.42,8.06-4.94,1.83-1.09,4.15-2.41,6.55-3.72,3.88-2.12,7.87-4.19,12.01-6.2,9.39-4.52,18.96-8.64,28.5-12.23,3.17-1.19,6.18-2.27,9.27-3.29,2.41-.84,5.19-1.76,8.04-2.61,5.28-1.69,10.69-3.23,15.96-4.52,1.65-.45,3.3-.86,4.96-1.26l1.68-.38c1.97-.44,3.89-.87,5.81-1.26,1.38-.31,3.46-.71,5.48-1.09.11-.02.79-.15.91-.17l4.11-.71c2.35-.41,4.72-.81,7.03-1.12,1.68-.27,3.35-.49,4.96-.66,2.13-.28,4.26-.53,6.32-.76,2.05-.23,3.94-.38,5.78-.52,1.2-.13,3.02-.27,4.79-.4l4.26-.26c9.15-.39,16.59-.47,24.07-.17.37,0,.75,0,.98.02,5.71.22,10.87.56,15.74,1.05,1.89.15,3.72.36,5.55.57.5.05,1.45.17,2.38.3.31.03.77.09,1.25.15.24.02.49.06.75.09h0c1.78.21,3.58.47,5.37.74l1.22.18c4.06.57,7.96,1.26,11.88,2.04,1.43.27,3.02.6,4.56.97,4.56.98,9.04,2.03,13.39,3.19l5.45,1.48c6.87,1.98,13.57,4.12,20.32,6.49,7.33,2.67,13.55,5.15,19.38,7.72,3.66,1.53,7.7,3.39,11.67,5.32.24.11.48.22.72.34,3.7,1.77,7.25,3.61,10.75,5.44,17.91,9.47,35.38,20.73,51.99,33.51.03.02.57.44.6.47,1.13.87,2.23,1.73,3.32,2.61,1.23.96,2.42,1.92,3.6,2.88,14.15,11.45,24.67,21.67,30.99,28.22,3.98,4.09,6.45,6.96,7.31,7.98.8.92,4.02,4.68,9.05,10.92,53.57,66.8,219.17,299.89,102.37,496.43h0c-71.49,120.26-177.6,148.89-262.42,148.89Zm-106.7-75c50.53,17,218.98,58.39,314.16-101.72,101.45-170.7-63.64-391.6-97.76-434.14-4.74-5.88-7.6-9.19-7.79-9.41-.15-.17-.3-.36-.45-.53-.23-.28-1.78-2.06-4.5-4.84-5.24-5.44-13.84-13.79-25.63-23.33-.98-.8-1.83-1.5-2.73-2.19-.27-.21-.53-.42-.79-.63-.77-.63-1.55-1.23-2.35-1.85-14.21-10.93-28.67-20.26-43.37-28.03-2.61-1.37-5.32-2.78-8.13-4.14-.53-.24-1.05-.48-1.53-.73-3.22-1.55-6.02-2.84-8.87-4.04-5.01-2.2-9.95-4.16-15.58-6.22-5.18-1.82-10.65-3.58-15.9-5.08l-4.54-1.23c-3.54-.95-7.07-1.76-10.66-2.52-.45-.09-.9-.2-1.34-.31-.51-.12-1.07-.22-1.61-.33-2.85-.57-5.48-1.05-8.22-1.43-.24-.03-.49-.07-.73-.11l-1.12-.16c-1.21-.18-2.21-.34-3.22-.46-.03,0-.05,0-.08,0-.4-.04-.81-.09-1.22-.14-.61-.07-1.23-.15-1.85-.23l-.73-.09c-1.53-.18-2.6-.31-3.72-.39-.35-.02-.69-.06-1.04-.09-3.39-.35-7.07-.6-11.25-.77-.41,0-.86-.01-1.13-.02-5.86-.25-12.12-.14-18.44.12l-2.75.17c-1.09.08-2.23.15-3.35.27-.31.03-.61.06-.92.08-1.37.1-2.46.18-3.55.3-1.75.2-3.56.4-5.38.65-.53.07-1.05.14-1.59.18-.41.04-.84.1-1.27.17-.57.1-1.15.18-1.73.25-1.39.17-2.82.44-4.2.68l-4.06.71c-1.56.3-2.93.55-4.27.84-2.05.42-3.48.74-4.94,1.08l-1.2.26c-.53.14-1.63.39-2.73.7-.37.1-.75.2-1.13.3-3.86.94-7.96,2.1-12.51,3.56-2.53.76-4.38,1.39-6.28,2.04-2.72.9-4.96,1.71-7.26,2.57-7.66,2.89-15.44,6.24-23.05,9.9-3.1,1.5-6.16,3.1-9.17,4.74-1.75.95-3.4,1.89-5.04,2.87-2.19,1.26-3.88,2.32-5.53,3.38-1.91,1.23-3.71,2.38-5.46,3.59-1.69,1.13-3.06,2.09-4.37,3.08-.37.28-.74.55-1.12.81-1.1.76-2.16,1.56-3.22,2.43-.27.23-.56.45-.84.66-4.95,3.77-9.55,7.72-14.09,12.05-.25.25-.51.49-.77.72-1.41,1.26-2.73,2.62-4.05,3.96-.35.38-.69.73-1.02,1.05-.65.64-1.25,1.28-1.89,1.95l-2.03,2.24c-.29.33-.9.98-1.3,1.4-.07.08-.15.16-.22.24-.12.14-.23.26-.34.38-1.31,1.45-2.63,2.94-3.84,4.42-.23.29-.47.57-.72.85-.12.15-.24.3-.36.45-1.11,1.32-2.21,2.63-3.22,4-.21.28-.41.55-.63.82-4.98,6.3-9.61,12.98-14.14,20.43-3.07,5.15-5.74,9.94-8.04,14.42-.89,1.71-1.62,3.19-2.35,4.73-.87,1.77-1.51,3.14-2.15,4.52l-2.19,4.82c-.95,2.15-1.72,4.04-2.49,5.99-.12.3-.24.59-.37.88l-.13.34c-.79,1.99-1.78,4.49-2.7,7.05-.93,2.46-1.67,4.57-2.41,6.74-.83,2.41-1.6,4.73-2.31,7.15-.95,3.09-1.8,5.87-2.54,8.69-.05.22-.11.43-.17.65-.79,2.75-1.52,5.61-2.19,8.43-.63,2.53-1.15,4.92-1.68,7.31-1.07,4.65-1.99,9.37-2.88,14.7-.46,2.51-.77,4.41-1.03,6.36-.49,3.2-.85,5.87-1.2,8.55-.41,3.07-.75,6.1-1.04,9.18-.31,3.25-.61,6.51-.86,9.78-.47,6.17-.77,12.42-.89,18.6,0,.23,0,.46-.02.7-.17,3.93-.17,7.9-.17,11.89v1.24c0,2.19.06,4.42.17,6.66.02.42.03.84.03,1.27,0,.76-.01,1.53.03,2.28.01.26.03.52.03.78.05,2.18.17,4.4.29,6.63.13,3.05.32,5.8.5,8.56.01.3.03.59.04.89.02.3.03.58.05.87.29,3.99.67,7.97,1.06,11.95l.06.66c.59,5.42,1.27,11.1,2.02,16.83.43,2.92.93,6.29,1.48,9.71.37,2.4.78,4.66,1.19,6.92.53,3.14,1.07,5.97,1.62,8.81,1.75,8.96,3.79,17.94,6.04,26.62.35,1.43.63,2.44.91,3.47l.3,1.1c1.11,4.31,2.25,8.24,3.39,12.18,1.18,4.1,2.41,8.16,3.76,12.15,1.42,4.43,2.81,8.44,4.19,12.44l.23.67s.04.11.06.18c.13.31.24.63.35.95,1.41,4.04,2.96,8.13,4.56,12.18.1.26.2.52.29.78l.37.94c.13.31.27.63.39.94,1.4,3.56,2.87,7.13,4.33,10.69l1.18,2.68c1.77,4.15,3.52,8.03,5.32,11.92,2.01,4.39,4.11,8.69,6.26,12.93,2.21,4.48,4.42,8.65,6.68,12.83,2.59,4.86,5.24,9.5,7.93,14.1,2.02,3.45,4.1,6.83,6.18,10.22,11.4,18.23,24.2,35.54,37.93,51.28,1.46,1.66,3.04,3.38,4.6,5.11,4.98,5.54,9.57,10.31,14.11,14.71.17.16.33.32.49.48,3,3.04,6.12,5.96,9.25,8.79,21.81,19.8,45.29,35.91,69.85,47.92Zm341.64-87.81h.07-.07Zm-490.08-472.83c-.16.22-.31.43-.48.64.16-.21.33-.42.48-.64Zm2.43-2.92c-.07.07-.15.14-.23.2.08-.07.15-.14.23-.2Zm.04-.04s-.03.02-.04.03c.01,0,.03-.02.04-.03Zm.03-.04s0,0,0,.01c0,0,0,0,0-.01Zm295.2-98.65c.1.06.19.1.25.14-.08-.04-.17-.09-.25-.14Zm-5.23-2.02s.01,0,.02,0c0,0-.01,0-.02,0Zm-.05-.01s.02,0,.03.01c-.01,0-.02,0-.03-.01Zm-89.27-26.57c.16.02.32.05.46.07h0c-.15-.02-.31-.04-.46-.07Z"/>
          <ellipse class="cls-17" cx="965.62" cy="3223.37" rx="136.8" ry="126.24"/>
          <g>
            <path class="cls-17" d="m786.9,3003.2c0,58.88-51.69,106.52-115.43,106.52-4.81,0-9.55-.3-14.17-.83.13-6.75.45-13.43.96-20.12.26-3.43.58-6.86.9-10.24.32-3.43.71-6.81,1.15-10.18.38-2.9.77-5.8,1.22-8.64.32-2.43.71-4.79,1.15-7.16.9-5.44,1.92-10.83,3.14-16.1.58-2.6,1.16-5.21,1.8-7.81.77-3.2,1.6-6.45,2.5-9.59.83-3.2,1.79-6.33,2.76-9.47.83-2.84,1.73-5.56,2.69-8.34.83-2.43,1.67-4.79,2.57-7.16,1.03-2.84,2.12-5.62,3.21-8.34.13-.3.19-.53.32-.77.9-2.25,1.79-4.44,2.76-6.63.38-.89.77-1.78,1.15-2.66,1.22-2.54,2.37-5.09,3.59-7.57.9-1.89,1.8-3.73,2.76-5.56,2.82-5.5,5.9-10.95,9.04-16.21,4.94-8.11,10.26-15.86,16.16-23.32,1.35-1.83,2.82-3.61,4.3-5.39.26-.36.58-.71.9-1.07,1.54-1.89,3.21-3.79,4.87-5.62.19-.24.39-.47.64-.71,3.14,1.6,6.16,3.37,9.11,5.21v.06c12.76,8.05,23.6,18.46,31.94,30.54,11.41,16.51,18.02,36.16,18.02,57.17Z"/>
            <path class="cls-17" d="m949.72,2858.27c0,58.88-51.69,106.52-115.43,106.52-24.3,0-46.81-6.92-65.41-18.76-12.76-8.05-23.66-18.46-31.94-30.54-2.05-2.9-3.91-5.92-5.64-9.05.96-1.01,1.86-1.95,2.82-2.9.13-.12.26-.3.45-.47,1.86-1.89,3.72-3.79,5.71-5.56,5.26-5.03,10.77-9.76,16.67-14.26,1.73-1.42,3.46-2.72,5.26-3.97,1.8-1.36,3.66-2.66,5.52-3.91,2.05-1.42,4.17-2.78,6.28-4.14,2.12-1.36,4.3-2.72,6.48-3.96,1.99-1.18,3.98-2.31,6.03-3.43,3.46-1.89,6.99-3.73,10.65-5.5,8.72-4.2,17.31-7.87,25.78-11.07,2.69-1.01,5.32-1.95,8.02-2.84,2.37-.83,4.68-1.6,7.05-2.31,5-1.6,9.94-3.02,14.81-4.2,1.47-.41,2.95-.77,4.42-1.12,2.12-.47,4.17-.95,6.22-1.36,1.86-.41,3.78-.77,5.64-1.12,1.35-.24,2.76-.47,4.1-.71,1.99-.36,4.04-.71,6.03-.95,1.35-.24,2.69-.41,3.98-.53,2.12-.3,4.23-.53,6.28-.77,1.6-.18,3.21-.3,4.75-.41,1.73-.18,3.46-.3,5.13-.41,1.03-.06,2.05-.12,3.08-.18,4.23-.18,8.4-.3,12.5-.3,2.95,0,5.9.06,8.72.18h.51c4.75.18,9.43.47,13.98.95,1.6.12,3.14.3,4.68.47,1.15.12,2.24.3,3.33.41,2.31,8.4,3.53,17.16,3.53,26.22Z"/>
            <path class="cls-17" d="m1172.56,2897.27c-7.37,17.34-19.56,32.49-35.01,43.97-19.82,14.74-44.95,23.55-72.4,23.55-63.74,0-115.43-47.64-115.43-106.52,0-8.7,1.15-17.16,3.33-25.27,3.4.47,6.67,1.07,9.94,1.72,1.22.24,2.44.47,3.59.77,4.17.89,8.27,1.83,12.25,2.9,1.8.47,3.53.95,5.26,1.42,6.16,1.72,12.18,3.67,18.08,5.8,5.84,2.13,11.54,4.38,17.06,6.81,3.66,1.54,7.25,3.2,10.77,4.91.26.12.45.24.64.3,3.33,1.6,6.54,3.25,9.68,4.91,18.47,9.76,34.37,20.53,47.45,30.59,1.22.95,2.37,1.83,3.53,2.78,1.15.89,2.24,1.78,3.33,2.66,13.02,10.53,22.57,19.82,28.28,25.74,4.04,4.14,6.09,6.63,6.09,6.63,0,0,13.34-12.25,43.54-33.67Z"/>
          </g>
          <g>
            <path class="cls-14" d="m671.48,3138.65c-5.96,0-12.04-.36-18.08-1.06-15.88-1.84-27.71-14.43-27.43-29.2.13-7.2.48-14.49,1.03-21.66.27-3.58.6-7.18.94-10.72.35-3.74.77-7.45,1.27-11.16.4-3.09.82-6.22,1.31-9.28.3-2.31.75-5.14,1.29-7.97.97-5.88,2.11-11.7,3.38-17.18.55-2.54,1.19-5.35,1.87-8.17.8-3.34,1.71-6.87,2.68-10.28.91-3.45,1.95-6.85,2.98-10.24.86-2.94,1.89-6.06,3-9.25.91-2.65,1.83-5.27,2.82-7.89,1.01-2.78,2.21-5.84,3.4-8.84.19-.49.39-.98.6-1.47.93-2.31,1.86-4.57,2.86-6.83l1.11-2.56c.13-.28.26-.57.39-.86l1.31-2.78c.8-1.71,1.6-3.42,2.42-5.09.86-1.83,1.93-4.01,3.08-6.19,2.73-5.34,5.98-11.15,9.81-17.57,5.81-9.54,11.66-18,18-26.06,1.51-2.02,3.12-3.99,4.75-5.95.44-.56.91-1.12,1.4-1.68,1.63-1.98,3.36-3.95,5.1-5.88.95-1.11,1.97-2.2,3.21-3.31,9.87-8.88,24.89-10.76,36.97-4.63,3.57,1.81,7.23,3.9,11.53,6.57.61.38,1.19.77,1.77,1.18,15.58,10.11,28.72,22.84,39.08,37.86,15,21.67,22.93,46.83,22.93,72.7,0,74.69-65.84,135.45-146.77,135.45Zm39.23-142.78l-.13.33c-.79,1.99-1.78,4.49-2.7,7.05-.93,2.46-1.67,4.57-2.41,6.74-.83,2.41-1.6,4.73-2.31,7.15-.95,3.09-1.8,5.87-2.54,8.69-.05.22-.11.43-.17.65-.79,2.75-1.52,5.61-2.19,8.43-.63,2.53-1.15,4.92-1.68,7.31-1.07,4.65-1.99,9.37-2.88,14.7-.46,2.51-.77,4.41-1.03,6.36-.49,3.2-.85,5.87-1.2,8.55-.31,2.32-.58,4.62-.82,6.94,37.17-8.02,64.94-38.86,64.94-75.57,0-14.82-4.53-29.21-13.1-41.6-2.51-3.63-5.29-7.03-8.33-10.17-1.97,2.91-3.91,5.92-5.82,9.07-3.07,5.15-5.74,9.94-8.04,14.42-.89,1.7-1.62,3.19-2.35,4.73-.87,1.77-1.51,3.14-2.15,4.52l-2.19,4.81c-.95,2.16-1.72,4.05-2.49,6-.12.3-.25.59-.37.89Z"/>
            <path class="cls-14" d="m834.29,2993.72c-29.9,0-58.67-8.25-83.21-23.87-16.3-10.29-30.01-23.39-40.63-38.89-2.31-3.26-4.72-7.11-7.07-11.38-5.85-10.58-4.09-23.39,4.43-32.29,1.17-1.22,2.08-2.17,3-3.08.19-.2.38-.39.57-.59h0c2.27-2.3,4.43-4.47,6.7-6.53,5.94-5.66,12-10.85,18.49-15.82,2.07-1.69,4.15-3.25,6.3-4.75,2.11-1.58,4.27-3.1,6.44-4.55,1.95-1.35,4.3-2.86,6.65-4.38,2.72-1.75,5.4-3.42,8.06-4.94,1.83-1.09,4.15-2.41,6.55-3.72,3.88-2.12,7.87-4.19,12.01-6.2,9.39-4.52,18.96-8.64,28.5-12.23,3.17-1.19,6.18-2.27,9.27-3.29,2.41-.84,5.19-1.76,8.04-2.61,5.28-1.69,10.69-3.23,15.95-4.52,1.65-.45,3.31-.86,4.96-1.26l1.68-.38c1.97-.44,3.89-.87,5.81-1.26,1.38-.31,3.46-.71,5.48-1.09.11-.02.79-.15.91-.17l4.11-.71c2.35-.41,4.72-.81,7.03-1.12,1.67-.27,3.35-.49,4.96-.66,2.13-.28,4.26-.53,6.32-.76,2.05-.23,3.94-.38,5.78-.52,1.21-.13,3.02-.27,4.79-.4l4.26-.26c9.15-.39,16.59-.47,24.07-.17.37,0,.75,0,.98.02,5.71.22,10.87.56,15.74,1.05,1.89.15,3.72.36,5.55.57.5.05,1.45.17,2.38.3,12.93,1.39,24.24,10.08,27.44,21.71,2.98,10.85,4.49,22.06,4.49,33.33,0,74.69-65.84,135.44-146.78,135.44Zm-62.8-83.85c4.52,4.69,9.58,8.82,15.08,12.29,14.13,8.99,30.59,13.71,47.72,13.71,46.1,0,83.66-34.42,84.08-76.87-4.74-.08-9.59.04-14.54.24l-2.75.17c-1.09.08-2.23.15-3.35.27-.31.03-.61.06-.92.08-1.37.1-2.46.18-3.55.3-1.75.2-3.56.4-5.38.65-.53.07-1.05.14-1.59.18-.41.04-.84.1-1.27.17-.57.1-1.15.18-1.73.25-1.39.17-2.82.44-4.2.68l-4.06.71c-1.56.3-2.93.55-4.27.84-2.05.42-3.48.74-4.94,1.08l-1.2.26c-.53.14-1.63.39-2.73.7-.37.1-.75.2-1.13.3-3.86.94-7.96,2.1-12.51,3.56-2.53.76-4.38,1.39-6.28,2.04-2.72.9-4.96,1.71-7.26,2.57-7.66,2.89-15.44,6.24-23.05,9.9-3.1,1.5-6.16,3.1-9.17,4.74-1.75.95-3.4,1.89-5.04,2.87-2.19,1.26-3.88,2.32-5.53,3.38-1.91,1.23-3.71,2.38-5.46,3.59-1.69,1.13-3.06,2.09-4.37,3.08-.37.28-.74.55-1.12.81-1.1.76-2.16,1.56-3.22,2.43-.27.23-.56.45-.84.66-1.85,1.42-3.66,2.86-5.44,4.33Z"/>
            <path class="cls-14" d="m1065.15,2993.72c-80.93,0-146.77-60.76-146.77-135.44,0-10.87,1.43-21.71,4.25-32.22,3.88-14.5,19.05-23.92,35.11-21.65,4.06.57,7.96,1.26,11.88,2.04,1.43.27,3.02.6,4.56.97,4.56.98,9.05,2.03,13.39,3.19l5.45,1.48c6.75,1.88,13.64,4.08,20.58,6.59,7.07,2.58,13.29,5.06,19.12,7.63,3.66,1.53,7.69,3.39,11.67,5.32.24.11.48.22.72.34,3.7,1.77,7.25,3.61,10.75,5.44,17.91,9.47,35.38,20.73,51.99,33.51.03.02.57.44.6.47,1.13.87,2.23,1.72,3.32,2.61,1.23.96,2.42,1.92,3.6,2.88,6,4.85,11.34,9.48,15.99,13.7,6.14-4.68,13.49-10.11,22.11-16.23,11.17-7.9,26.68-7.99,37.94-.18,11.25,7.81,15.49,21.59,10.35,33.68-9.29,21.85-24.69,41.19-44.55,55.94-25.95,19.3-58.65,29.94-92.05,29.94Zm-83.19-124.15c5.94,37.46,40.98,66.3,83.19,66.3,8.04,0,15.88-1.02,23.38-3.01-4.13-3.79-8.98-8.03-14.54-12.53-.98-.8-1.83-1.5-2.73-2.19-.27-.21-.53-.42-.79-.63-.77-.63-1.55-1.23-2.35-1.85-14.21-10.93-28.67-20.26-43.37-28.03-2.61-1.37-5.32-2.78-8.13-4.14-.53-.24-1.04-.48-1.52-.73-3.23-1.55-6.02-2.84-8.87-4.04-5.01-2.19-9.95-4.16-15.58-6.22-2.91-1.05-5.82-2.04-8.69-2.95Zm63.27-37.53c.09.04.17.09.23.12-.07-.04-.15-.07-.23-.12Zm-5.24-2.03s.01,0,.02,0c0,0-.01,0-.02,0Zm-.05-.01s.02,0,.03.01c-.01,0-.02,0-.03-.01Z"/>
          </g>
          <path class="cls-14" d="m2091.63,3581.89c-238.77,0-464.36-41.06-637.7-115.83-59.55,32.98-280.23,143.86-497.33,108.16-30.27-5.01-59.71-14.3-87.54-27.61-.17-.07-.34-.16-.51-.24-30.64-14.74-59.71-34.49-86.38-58.71-4.29-3.88-8.03-7.44-11.39-10.82-5.48-5.31-10.93-10.99-16.66-17.37-1.65-1.82-3.42-3.76-5.18-5.76-15.86-18.17-30.5-37.96-43.63-58.97-2.4-3.91-4.68-7.63-6.9-11.4-3.07-5.23-6.08-10.53-8.94-15.88-2.53-4.67-5.07-9.48-7.48-14.36-2.34-4.63-4.74-9.55-7-14.49-2-4.31-3.98-8.71-5.88-13.18l-1.57-3.61c-1.51-3.68-3.02-7.36-4.47-11.03-.47-1.12-.9-2.2-1.31-3.33-1.72-4.36-3.38-8.77-4.92-13.13-.33-.84-.62-1.67-.89-2.51l-.08-.23c-1.53-4.43-3.06-8.85-4.47-13.28-1.46-4.33-2.93-9.15-4.32-13.97-1.29-4.43-2.57-8.91-3.74-13.44l-.19-.68c-.42-1.53-.83-3.03-1.19-4.54-2.41-9.29-4.69-19.34-6.66-29.44-.63-3.31-1.24-6.51-1.79-9.71-.44-2.4-.93-5.12-1.35-7.82-.57-3.53-1.11-7.15-1.64-10.77-.85-6.55-1.58-12.59-2.24-18.7l-.09-.96c-.45-4.64-.89-9.28-1.21-13.92-.03-.33-.04-.65-.05-.98-.02-.33-.04-.65-.05-.98-.2-2.99-.39-5.98-.51-8.98-.13-2.36-.26-4.97-.33-7.54-.03-.71-.05-1.43-.07-2.15l-.03-1.15c-.02-.28-.03-.55-.03-.82l-.02-.75c-.06-2.62-.11-5.22-.11-7.78v-1.24c0-4.67,0-9.33.21-13.92.14-7.09.48-14.26,1.03-21.32.27-3.58.6-7.18.94-10.72.35-3.74.77-7.45,1.27-11.16.4-3.09.82-6.22,1.31-9.28.3-2.31.75-5.14,1.29-7.97.97-5.88,2.11-11.7,3.38-17.18.55-2.54,1.19-5.35,1.87-8.17.8-3.34,1.71-6.88,2.69-10.29.91-3.45,1.94-6.85,2.97-10.23.86-2.94,1.89-6.06,3-9.25.91-2.65,1.83-5.27,2.82-7.89,1.01-2.78,2.21-5.84,3.4-8.84.19-.49.39-.98.6-1.47.93-2.31,1.86-4.57,2.86-6.84l1.11-2.56c.13-.28.26-.57.39-.86l1.31-2.78c.8-1.71,1.6-3.42,2.42-5.09.86-1.83,1.93-4.01,3.08-6.19,2.73-5.34,5.98-11.15,9.81-17.57,5.8-9.54,11.66-18,18-26.05,1.5-2.02,3.12-3.99,4.75-5.96.44-.55.91-1.12,1.4-1.68,1.63-1.98,3.36-3.95,5.1-5.88.56-.66,1.15-1.32,1.81-1.97.12-.13.24-.25.34-.36l2.05-2.28c.28-.31.56-.62.85-.92,1.17-1.22,2.08-2.17,3-3.08.19-.2.38-.39.57-.59h0c2.27-2.3,4.43-4.48,6.7-6.53,5.94-5.66,11.99-10.85,18.48-15.82,2.08-1.69,4.16-3.25,6.3-4.75,2.1-1.58,4.27-3.1,6.44-4.55,1.95-1.35,4.3-2.86,6.65-4.38,2.72-1.75,5.4-3.42,8.06-4.94,1.83-1.09,4.15-2.41,6.55-3.72,3.88-2.12,7.87-4.19,12.01-6.2,9.39-4.52,18.96-8.64,28.5-12.23,3.17-1.19,6.18-2.27,9.27-3.29,2.42-.84,5.19-1.76,8.04-2.61,5.28-1.69,10.69-3.24,15.96-4.52,1.65-.45,3.3-.86,4.95-1.26l1.68-.38c1.97-.44,3.89-.87,5.81-1.26,1.38-.31,3.46-.71,5.48-1.09.11-.02.79-.15.91-.17l4.11-.71c2.35-.41,4.72-.81,7.03-1.12,1.67-.27,3.34-.49,4.96-.66,2.13-.28,4.26-.53,6.33-.76,2.05-.23,3.94-.38,5.78-.52,1.21-.13,3.02-.27,4.79-.4l4.26-.26c9.15-.39,16.59-.47,24.07-.17.37,0,.75,0,.98.02,5.71.22,10.86.56,15.74,1.05,1.89.15,3.73.36,5.56.57.5.05,1.45.17,2.38.3.31.03.78.09,1.25.15.24.02.49.06.75.09h0c1.78.21,3.58.47,5.37.74l1.22.18c4.06.57,7.96,1.26,11.88,2.04,1.43.27,3.02.6,4.56.97,4.56.98,9.05,2.03,13.39,3.19l5.45,1.48c6.75,1.88,13.64,4.08,20.58,6.59,7.07,2.58,13.29,5.06,19.12,7.63,3.66,1.53,7.69,3.39,11.67,5.32.24.11.48.22.72.34,3.7,1.77,7.25,3.61,10.75,5.44,17.91,9.47,35.38,20.73,51.99,33.51.03.02.57.44.6.47,1.13.87,2.23,1.72,3.32,2.61,1.23.96,2.42,1.92,3.6,2.88,6,4.85,11.34,9.48,15.99,13.7,6.14-4.68,13.49-10.11,22.11-16.23,16.84-11.87,34.83-23.8,53.64-35.59,18.43-59.78,113.65-352.06,279.33-579.17,4.56-6.26,11.6-10.62,19.6-12.16l579.2-111.38c4.23-.81,8.56-.81,12.79,0l579.2,111.38c8,1.54,15.04,5.9,19.6,12.16,165.68,227.12,260.9,519.39,279.34,579.17,18.81,11.78,36.79,23.71,53.57,35.54,8.66,6.14,16.03,11.59,22.19,16.28,4.64-4.22,9.99-8.86,16.03-13.74,1.43-1.17,2.49-2.03,3.55-2.84,1.09-.88,2.18-1.73,3.32-2.61.03-.03.57-.44.6-.47,16.61-12.77,34.09-24.04,51.94-33.47,3.53-1.86,7.1-3.69,10.81-5.47.24-.12.48-.23.72-.33,3.97-1.93,8.02-3.8,12.15-5.53,5.38-2.37,11.59-4.85,18.54-7.39,7.17-2.59,13.87-4.73,20.57-6.59l5.67-1.54c4.24-1.13,8.73-2.18,13.28-3.16,1.57-.38,3.18-.71,4.82-1.02,3.65-.73,7.56-1.43,11.63-1.99l5.62,28.46-4.87-28.57c2.21-.34,4.04-.61,5.87-.82h0c.28-.03.55-.06.81-.09.17-.02.33-.04.49-.06,1.6-.21,2.56-.33,3.56-.43,1.36-.17,3.16-.36,5.06-.52,4.88-.49,10.03-.84,15.72-1.05.37-.01.74-.02,1.11-.02,7.45-.29,15.33-.18,23.29.14l4.92.3c1.6.11,3.25.24,4.89.4,2.01.15,3.77.3,5.52.49,2.21.25,4.35.5,6.48.79,1.61.16,3.28.38,4.94.65,2.31.31,4.69.71,6.99,1.11l4.16.72c.11.02.61.12.73.14,2.08.39,4.22.8,6.29,1.26,1.23.24,3.1.66,5.02,1.09l1.26.28c2.17.52,3.88.94,5.54,1.39,5.28,1.29,10.71,2.84,16.59,4.72,2.23.66,4.99,1.58,7.82,2.56,2.65.87,5.67,1.95,8.77,3.11,9.6,3.62,19.16,7.73,28.5,12.23,4.21,2.04,8.2,4.12,12.13,6.27,2.35,1.29,4.68,2.6,7.01,3.99,2.17,1.23,4.84,2.89,7.42,4.55,2.69,1.74,4.93,3.19,7.12,4.7,1.85,1.23,4.01,2.75,6.13,4.34,2.13,1.5,4.2,3.05,6.26,4.73,6.46,4.94,12.52,10.13,18.5,15.83,2.22,2.01,4.34,4.12,6.43,6.25h0c.33.33.63.64.92.95.84.84,1.65,1.68,2.48,2.55.28.3,1,1.06,1.27,1.37l2.06,2.28c.08.08.17.17.25.27.67.66,1.28,1.34,1.85,2.01,1.73,1.92,3.46,3.89,5.08,5.86.53.6,1.03,1.2,1.5,1.79,1.67,2.03,3.24,3.94,4.7,5.9,6.34,8.05,12.2,16.5,17.88,25.84,3.93,6.59,7.17,12.41,10.05,18.01,1.03,1.97,2.1,4.14,3.16,6.4.59,1.19,1.36,2.83,2.13,4.47l1.38,2.92c.15.3.29.61.42.91l1.15,2.67c1.01,2.32,1.99,4.67,2.95,7.08.2.47.39.92.55,1.35,1.26,3.15,2.38,6.03,3.44,8.96.85,2.23,1.79,4.88,2.71,7.58,1.09,3.16,2.11,6.28,3.07,9.54.97,3.14,2.04,6.67,2.98,10.25.83,2.89,1.76,6.5,2.62,10.05.61,2.47,1.18,5.03,1.75,7.59l.16.7c1.21,5.2,2.34,11.02,3.42,17.56.42,2.17.86,4.89,1.24,7.69.46,2.95.86,5.95,1.26,8.94.49,3.74.92,7.45,1.27,11.23.33,3.51.67,7.13.93,10.76.54,6.97.88,14.15,1.02,21.24.2,4.6.21,9.26.21,13.92v1.24c0,2.83-.06,5.71-.13,8.59,0,.26-.02.51-.03.76l-.12,3.59c-.05,2.06-.18,4.74-.32,7.42-.12,2.83-.31,5.82-.51,8.82-.01.37-.03.74-.06,1.1,0,.28-.03.57-.05.84-.33,4.86-.8,9.72-1.27,14.58-.7,6.43-1.42,12.48-2.22,18.58l-.18,1.28c-.49,3.35-.99,6.7-1.54,10.11-.39,2.49-.87,5.18-1.35,7.87-.45,2.62-.99,5.49-1.53,8.37l-.18.95c-2.07,10.56-4.3,20.33-6.81,30.03-.23.97-.63,2.47-1.05,4.01l-.29,1.1c-1.07,4.19-2.37,8.67-3.67,13.16-1.38,4.78-2.85,9.6-4.45,14.36-1.29,4.1-2.86,8.64-4.44,13.19-.26.81-.54,1.61-.85,2.41-1.55,4.35-3.2,8.75-4.91,13.11-.42,1.13-.85,2.22-1.33,3.35-1.54,3.9-3.14,7.81-4.75,11.7l-1.37,3.13c-1.82,4.26-3.8,8.66-5.84,13.06-2.21,4.83-4.62,9.76-7.08,14.64-2.26,4.6-4.8,9.41-7.41,14.23-2.82,5.26-5.82,10.56-8.9,15.79-2.19,3.74-4.48,7.46-6.76,11.18-13.25,21.19-27.89,40.99-43.64,59.03-1.87,2.12-3.64,4.07-5.4,6.01-5.62,6.26-11.15,12.02-16.78,17.47-3.33,3.37-7.25,7.05-11.17,10.61-26.66,24.21-55.73,43.96-86.36,58.7-.22.1-.44.21-.67.31-27.78,13.28-57.17,22.54-87.36,27.53-29.51,4.86-59.12,7.01-88.35,7.01-185.8.01-357.55-86.66-409.01-115.16-173.35,74.77-398.94,115.83-637.71,115.83Zm-639.65-177.68c4.7,0,9.41.97,13.77,2.94,345.11,155.86,906.65,155.86,1251.77,0,9.95-4.49,21.73-3.81,30.99,1.8,2.38,1.45,243.45,145.11,467.15,108.32,24.07-3.98,47.59-11.43,69.86-22.11.19-.09.39-.18.58-.27,24.99-12.07,48.89-28.38,71.03-48.48,3.14-2.84,6.27-5.79,9.29-8.83,5.07-4.91,9.65-9.69,14.45-15.04,1.69-1.87,3.26-3.59,4.83-5.37,13.62-15.61,26.42-32.93,37.94-51.34,1.96-3.19,4.04-6.58,6.06-10.02,2.71-4.62,5.36-9.27,7.88-13.97,2.31-4.28,4.52-8.45,6.6-12.69,2.29-4.52,4.38-8.8,6.34-13.09,1.85-4.01,3.6-7.89,5.28-11.83l1.17-2.65c1.4-3.4,2.95-7.19,4.44-10.97.12-.3.25-.6.37-.9l.37-.94c.09-.25.18-.49.28-.74,1.6-4.07,3.15-8.19,4.58-12.25.09-.27.19-.54.3-.81.04-.12.07-.23.11-.32,1.46-4.2,2.92-8.41,4.26-12.61,1.5-4.46,2.73-8.51,3.9-12.57,1.15-3.96,2.29-7.89,3.31-11.86l.43-1.62c.26-.94.52-1.87.74-2.79,2.37-9.2,4.36-17.93,6.19-27.26l.15-.79c.48-2.53.96-5.06,1.39-7.59.45-2.53.87-4.81,1.22-7.09.54-3.31.99-6.38,1.43-9.44l.13-.86c.69-5.31,1.37-10.98,2-16.71.37-3.89.78-8.09,1.08-12.29.01-.34.03-.68.06-1.02,0-.25.02-.49.03-.73.18-2.76.37-5.52.49-8.28.13-2.52.24-4.78.3-6.99l.06-1.71c.02-.76.04-1.52.07-2.28.06-2.33.11-4.65.11-6.93v-1.24c0-3.98,0-7.96-.17-11.89-.01-.23-.02-.46-.02-.7-.12-6.17-.42-12.42-.89-18.57-.25-3.32-.55-6.57-.85-9.76-.29-3.12-.64-6.16-1.04-9.19-.36-2.67-.71-5.36-1.13-8-.04-.22-.07-.43-.1-.65-.25-1.93-.56-3.81-.92-5.69-.99-6-1.91-10.71-2.91-15.01l-.21-.94c-.48-2.17-.96-4.35-1.5-6.52-.71-2.94-1.45-5.84-2.24-8.62-.89-3.4-1.75-6.15-2.59-8.91-.83-2.79-1.59-5.12-2.41-7.49-.75-2.18-1.49-4.27-2.28-6.36-1.07-2.94-2.04-5.42-3.02-7.85,0-.02-.02-.05-.03-.08-.12-.26-.23-.54-.34-.81-.77-1.95-1.55-3.84-2.37-5.73l-2.35-5.18c-.63-1.32-1.24-2.64-1.88-3.94-.93-1.96-1.65-3.45-2.43-4.94-2.43-4.75-5.1-9.54-8.28-14.86-4.4-7.23-9.03-13.91-14.01-20.19-.22-.28-.43-.55-.64-.84-.97-1.33-2.05-2.61-3.12-3.9-.12-.15-.25-.31-.39-.47-.29-.33-.6-.69-.83-.97-1.19-1.48-2.49-2.95-3.8-4.38-.13-.14-.25-.27-.37-.41-.01-.01-.03-.03-.05-.05-.43-.44-.85-.88-1.26-1.34l-2.17-2.41c-.11-.12-.21-.22-.21-.23-.56-.58-1.1-1.16-1.67-1.72h0c-.34-.34-.69-.7-1.02-1.05-1.49-1.52-2.75-2.81-4.1-4.01-.25-.23-.51-.47-.76-.71-4.58-4.37-9.19-8.31-14.09-12.05-.29-.22-.57-.45-.85-.68-1.07-.88-2.15-1.69-3.26-2.46-.36-.25-.72-.52-1.07-.78-1.3-.98-2.65-1.93-4-2.83-2.04-1.4-3.77-2.51-5.49-3.63-1.98-1.27-3.67-2.33-5.36-3.3-2.15-1.27-3.8-2.21-5.5-3.13-3.05-1.67-6.11-3.27-9.28-4.8-7.56-3.64-15.34-6.99-23.06-9.9-2.21-.82-4.45-1.63-6.74-2.39-2.37-.82-4.22-1.44-6.12-2.01-5.15-1.64-9.25-2.8-13.13-3.74-.38-.09-.75-.19-1.12-.3-1.09-.31-2.19-.57-3.29-.83l-.78-.17c-1.4-.31-2.77-.62-4.15-.9-2.03-.44-3.46-.71-4.85-.97l-4.18-.73c-1.33-.23-2.77-.5-4.16-.67-.57-.07-1.15-.15-1.73-.25-.43-.07-.86-.14-1.27-.17-.53-.05-1.07-.11-1.6-.18-1.81-.25-3.61-.45-5.36-.65-1.07-.12-2.14-.19-3.17-.27-.31-.02-.99-.08-1.29-.11-1.13-.12-2.26-.19-3.36-.27l-3.4-.21c-5.22-.2-11.91-.33-17.79-.09-.42.02-.83.03-1.25.03-4.13.17-7.78.42-11.14.77-.34.03-.69.06-1.03.09-1.11.09-2.17.22-3.23.34l-2.78.34c-.44.06-.91.11-1.35.16-.09,0-.17.02-.25.03-1.01.12-2.03.28-3.05.43l-1.37.2c-3.38.47-6,.96-8.63,1.48-.81.15-1.37.25-1.89.38-.39.1-.89.22-1.28.3-3.59.76-7.13,1.58-10.56,2.49l-4.62,1.25c-5.42,1.5-10.57,3.15-16.05,5.13-5.49,2-10.43,3.97-14.99,5.97-3.58,1.51-6.62,2.92-9.61,4.38-.02.01-.05.02-.07.04-.33.17-.81.4-1.41.66-2.72,1.32-5.35,2.68-7.94,4.05-14.66,7.74-29.12,17.07-42.93,27.69-1.21.94-1.98,1.53-2.75,2.17-.25.21-.52.42-.79.63-.74.57-1.45,1.14-2.15,1.72l-.55.45c-11.85,9.6-20.42,17.93-25.53,23.23-2.81,2.89-4.34,4.65-4.66,5.04-5.51,6.55-13.84,10.66-22.81,11.18-9.01.6-17.79-2.46-24.15-8.31-.07-.07-12.75-11.53-40.54-31.24-18.5-13.04-38.68-26.29-59.9-39.33-6.32-3.89-10.91-9.77-12.89-16.53-.95-3.25-95.79-322.98-266.96-562.72l-560.22-107.73-560.22,107.73c-171.17,239.73-266.01,559.47-266.96,562.72-1.98,6.77-6.56,12.64-12.89,16.53-21.23,13.04-41.4,26.29-59.97,39.38-27.72,19.66-40.39,31.12-40.51,31.24-6.4,5.82-15.16,8.78-24.23,8.28-8.97-.58-17.27-4.67-22.74-11.27-.23-.28-1.78-2.06-4.5-4.84-5.24-5.44-13.84-13.79-25.63-23.33-.98-.8-1.83-1.5-2.73-2.19-.27-.21-.53-.42-.79-.63-.77-.63-1.55-1.23-2.35-1.85-14.21-10.93-28.67-20.26-43.37-28.03-2.61-1.37-5.32-2.78-8.14-4.14-.53-.24-1.03-.48-1.51-.73-3.22-1.55-6.02-2.84-8.87-4.04-5.01-2.19-9.95-4.16-15.58-6.22-5.28-1.91-10.55-3.6-15.6-5l-4.84-1.31c-3.54-.95-7.07-1.76-10.66-2.52-.45-.09-.9-.2-1.34-.31-.51-.12-1.07-.22-1.61-.33-2.85-.57-5.48-1.05-8.22-1.43-.24-.03-.49-.07-.73-.11l-1.12-.16c-1.21-.18-2.21-.34-3.22-.46-.02,0-.05,0-.07,0-.4-.04-.81-.09-1.23-.14-.61-.07-1.22-.15-1.84-.23l-.73-.09c-1.53-.18-2.6-.31-3.72-.39-.35-.02-.69-.06-1.04-.09-3.39-.35-7.07-.6-11.25-.77-.41,0-.86-.01-1.13-.02-5.86-.25-12.12-.14-18.44.12l-2.75.17c-1.09.08-2.23.15-3.35.27-.31.03-.61.06-.92.08-1.37.1-2.46.18-3.55.3-1.75.2-3.56.4-5.38.65-.53.07-1.05.14-1.59.18-.41.04-.84.1-1.27.17-.57.1-1.15.18-1.73.25-1.39.17-2.82.44-4.2.68l-4.06.71c-1.56.3-2.93.55-4.27.84-2.05.42-3.48.74-4.94,1.08l-1.2.26c-.53.14-1.63.39-2.73.7-.37.1-.75.2-1.13.3-3.86.94-7.96,2.1-12.51,3.56-2.53.76-4.38,1.39-6.28,2.04-2.72.9-4.96,1.71-7.26,2.57-7.66,2.89-15.44,6.24-23.05,9.9-3.1,1.5-6.16,3.1-9.17,4.74-1.75.95-3.4,1.89-5.04,2.87-2.19,1.26-3.88,2.32-5.53,3.38-1.91,1.23-3.71,2.38-5.46,3.59-1.69,1.13-3.06,2.09-4.37,3.08-.37.28-.74.55-1.12.81-1.1.76-2.16,1.56-3.22,2.43-.27.23-.56.45-.84.66-4.95,3.77-9.55,7.72-14.09,12.05-.25.25-.51.49-.77.72-1.41,1.26-2.73,2.62-4.05,3.96-.35.38-.69.73-1.02,1.05-.65.64-1.25,1.28-1.89,1.95l-2.03,2.24c-.28.33-.89.98-1.29,1.4-.07.08-.15.15-.22.23-.12.14-.23.26-.34.38-1.31,1.45-2.63,2.94-3.84,4.42-.23.29-.47.57-.72.85-.12.15-.24.3-.36.45-1.11,1.32-2.21,2.63-3.22,4-.21.28-.41.55-.63.82-4.98,6.3-9.61,12.98-14.14,20.43-3.07,5.15-5.74,9.94-8.04,14.42-.89,1.7-1.62,3.19-2.35,4.73-.87,1.77-1.51,3.14-2.15,4.52l-2.19,4.82c-.95,2.15-1.72,4.04-2.49,5.99-.12.3-.25.59-.37.89l-.13.33c-.79,1.99-1.78,4.49-2.7,7.05-.93,2.46-1.67,4.57-2.41,6.74-.83,2.41-1.6,4.73-2.31,7.15-.95,3.09-1.8,5.87-2.54,8.69-.05.22-.11.43-.17.65-.79,2.75-1.52,5.61-2.19,8.43-.63,2.53-1.15,4.92-1.68,7.31-1.07,4.65-1.99,9.37-2.88,14.7-.46,2.51-.77,4.41-1.03,6.36-.49,3.2-.85,5.87-1.2,8.55-.41,3.07-.75,6.1-1.04,9.18-.31,3.25-.61,6.51-.86,9.78-.47,6.17-.77,12.42-.89,18.6,0,.23,0,.46-.02.7-.17,3.93-.17,7.9-.17,11.89v1.24c0,2.16.05,4.36.11,6.57v.41c.04.7.06,1.4.08,2.1l.03,1.14c.01.26.03.52.03.78.05,2.18.17,4.4.29,6.63.13,3.05.32,5.8.5,8.56.01.3.03.59.04.89.02.29.03.58.05.87.29,3.99.67,7.97,1.06,11.95l.06.66c.59,5.42,1.28,11.1,2.02,16.83.43,2.92.93,6.29,1.48,9.71.37,2.4.78,4.66,1.19,6.92.53,3.14,1.07,5.97,1.62,8.81,1.75,8.96,3.79,17.94,6.04,26.62.35,1.43.63,2.44.91,3.47l.3,1.1c1.11,4.31,2.25,8.24,3.39,12.18,1.18,4.1,2.41,8.16,3.76,12.15,1.42,4.43,2.81,8.44,4.19,12.44l.23.67s.04.11.06.18c.13.31.24.63.35.95,1.41,4.04,2.96,8.13,4.56,12.18.1.26.2.52.29.78l.37.94c.13.31.27.63.39.94,1.4,3.56,2.87,7.13,4.33,10.69l1.18,2.68c1.77,4.15,3.52,8.03,5.32,11.92,2.02,4.39,4.11,8.69,6.26,12.93,2.21,4.48,4.42,8.65,6.68,12.83,2.59,4.86,5.24,9.5,7.93,14.1,2.02,3.45,4.1,6.83,6.18,10.22,11.4,18.23,24.2,35.54,37.93,51.28,1.46,1.66,3.04,3.38,4.6,5.11,4.98,5.54,9.57,10.31,14.11,14.71.17.16.33.32.49.48,3,3.04,6.12,5.96,9.25,8.79,22.21,20.17,46.15,36.49,71.2,48.57.14.07.29.14.43.2h0c22.27,10.68,45.79,18.12,69.89,22.11,223.62,36.79,464.74-106.88,467.14-108.33,5.2-3.14,11.19-4.73,17.2-4.73Zm-736.69-130.75s.01.03.02.04c0-.01-.01-.03-.02-.04Zm-.11-.25c.04.08.07.16.11.23-.04-.07-.07-.15-.11-.23Zm2752.83.17s-.01.02-.02.04c0-.01.01-.02.02-.04Zm.07-.17c-.02.06-.05.1-.07.15.02-.05.05-.1.07-.15Zm57.95-142.07h.07-.07Zm-53.04-134.34c.27.55.55,1.1.87,1.65-.31-.54-.6-1.09-.87-1.65Zm-.82-1.91s.03.09.05.13c-.01-.05-.03-.09-.05-.13Zm-36.39-61.19c.2.28.41.56.64.84-.23-.29-.45-.58-.64-.84Zm-2688.34.07c-.12.17-.25.33-.37.49.12-.16.25-.33.37-.49Zm.03-.04s-.02.02-.03.04c.01-.01.02-.02.03-.04Zm.04-.06s-.02.03-.03.04c.01-.01.02-.03.03-.04Zm2.64-3.13c-.14.14-.29.27-.44.41.15-.14.3-.27.44-.41Zm2683.04.08s.05.04.07.06c-.02-.02-.04-.04-.07-.06Zm-.07-.06s.04.04.06.06c-.02-.02-.04-.04-.06-.06Zm-.06-.06s.03.03.05.04c-.02-.01-.03-.03-.05-.04Zm-2682.85-.01s-.03.03-.05.04c.02-.01.03-.03.05-.04Zm294.98-98.48c.11.06.22.11.29.15-.09-.05-.19-.1-.29-.15Zm-5.15-1.99s.02,0,.03,0c0,0-.01,0-.03,0Zm-.1-.03s.05.01.07.02c-.02,0-.05-.01-.07-.02Zm-89.24-26.56c.15.02.3.04.43.06h0c-.15-.02-.29-.04-.43-.06Z"/>
          <path class="cls-14" d="m3180.61,3569.31c-84.82,0-190.92-28.62-262.41-148.89h0c-116.81-196.54,48.79-429.63,102.33-496.38,5.02-6.24,8.25-10.01,9.09-10.97.89-1.06,3.38-3.95,7.44-8.1,6.15-6.39,16.64-16.6,30.9-28.14,1.43-1.16,2.49-2.02,3.54-2.84,1.09-.89,2.19-1.74,3.32-2.62.03-.03.57-.44.6-.47,16.61-12.77,34.09-24.04,51.94-33.47,3.53-1.86,7.1-3.69,10.81-5.47.24-.12.48-.23.72-.33,3.97-1.93,8.02-3.8,12.15-5.53,5.38-2.37,11.59-4.85,18.54-7.39,7.25-2.55,13.76-4.64,20.27-6.51.15-.04.76-.21.91-.25l5.06-1.37c4.24-1.13,8.73-2.19,13.29-3.16,1.56-.38,3.18-.71,4.81-1.02,3.65-.73,7.56-1.43,11.63-1.99l5.62,28.46-4.87-28.57c2.21-.34,4.04-.61,5.87-.82h0c.28-.03.56-.06.83-.09.16-.02.31-.04.47-.06,1.6-.21,2.56-.33,3.56-.43,1.35-.17,3.16-.36,5.05-.52,4.88-.49,10.03-.84,15.73-1.05.37-.01.74-.02,1.11-.02,7.45-.29,15.33-.18,23.29.14l4.92.3c1.6.11,3.24.24,4.89.4,2.01.15,3.77.3,5.52.49,2.21.25,4.34.5,6.48.78,1.61.17,3.28.39,4.96.66,2.31.31,4.68.71,6.98,1.11l4.16.72c.11.02.62.12.73.14,2.08.39,4.22.8,6.29,1.26,1.23.24,3.1.66,5.02,1.09l1.26.28c2.17.52,3.88.94,5.54,1.39,5.28,1.3,10.71,2.84,16.58,4.72,2.23.66,4.99,1.58,7.82,2.56,2.65.87,5.67,1.95,8.77,3.11,9.6,3.62,19.16,7.73,28.5,12.23,4.21,2.04,8.2,4.12,12.13,6.27,2.35,1.29,4.68,2.6,7.01,3.99,2.17,1.23,4.84,2.89,7.42,4.55,2.69,1.74,4.93,3.19,7.12,4.7,1.84,1.23,4,2.75,6.12,4.33,2.13,1.5,4.2,3.05,6.27,4.73,6.46,4.94,12.51,10.13,18.5,15.82,2.23,2.01,4.34,4.13,6.44,6.26h0c.33.33.63.64.92.95.84.84,1.65,1.68,2.48,2.55.28.3,1,1.06,1.27,1.37l2.07,2.28c.08.08.17.17.25.26.67.68,1.29,1.35,1.86,2.03,1.73,1.91,3.46,3.88,5.08,5.85.52.6,1.03,1.2,1.49,1.79,1.67,2.02,3.24,3.94,4.7,5.9,6.35,8.05,12.2,16.5,17.88,25.84,3.93,6.59,7.17,12.41,10.05,18.01,1.03,1.97,2.1,4.14,3.16,6.4.59,1.19,1.36,2.83,2.13,4.47l1.38,2.92c.15.3.29.61.42.91l1.15,2.67c1.01,2.32,1.99,4.66,2.95,7.07.2.47.39.93.55,1.35,1.26,3.15,2.38,6.03,3.44,8.96.85,2.23,1.79,4.88,2.71,7.58,1.09,3.16,2.11,6.28,3.07,9.54.97,3.14,2.04,6.67,2.98,10.25.83,2.89,1.76,6.5,2.62,10.05.61,2.47,1.18,5.03,1.75,7.59l.16.7c1.21,5.2,2.34,11.02,3.42,17.56.42,2.17.87,4.89,1.24,7.69.46,2.94.86,5.94,1.26,8.94.49,3.74.92,7.45,1.27,11.23.33,3.51.67,7.13.93,10.76.54,6.98.88,14.15,1.02,21.24.2,4.6.21,9.26.21,13.92v1.24c0,2.82-.06,5.7-.19,8.59,0,1.45-.02,2.91-.09,4.36-.05,2.06-.18,4.74-.32,7.42-.12,2.83-.31,5.82-.51,8.82-.01.38-.03.74-.06,1.1,0,.28-.03.57-.04.85-.34,4.86-.81,9.72-1.28,14.58-.7,6.43-1.42,12.48-2.22,18.58l-.18,1.28c-.49,3.35-.99,6.7-1.54,10.11-.39,2.49-.87,5.18-1.35,7.87-.45,2.62-.99,5.49-1.53,8.37l-.18.95c-2.07,10.56-4.3,20.33-6.81,30.03-.23.97-.63,2.47-1.05,4.01l-.29,1.1c-1.07,4.19-2.37,8.67-3.67,13.16-1.38,4.78-2.85,9.6-4.45,14.36-1.29,4.09-2.86,8.63-4.44,13.17-.26.82-.55,1.63-.87,2.43-1.54,4.35-3.2,8.75-4.91,13.11-.41,1.13-.84,2.22-1.32,3.35-1.54,3.9-3.14,7.8-4.75,11.7l-1.37,3.13c-1.82,4.26-3.8,8.66-5.84,13.06-2.21,4.83-4.62,9.76-7.08,14.64-2.26,4.6-4.8,9.41-7.41,14.23-2.82,5.26-5.82,10.56-8.9,15.79-2.19,3.74-4.48,7.46-6.76,11.18-13.25,21.19-27.89,40.99-43.64,59.03-1.87,2.12-3.64,4.07-5.4,6.01-5.62,6.26-11.15,12.02-16.78,17.47-3.33,3.37-7.25,7.05-11.17,10.61-26.66,24.21-55.73,43.96-86.36,58.7-.29.14-.59.28-.89.41-1.17.54-2.39,1-3.64,1.4l-.6.2c-18.3,6.21-68.18,20.93-128.99,20.93Zm-207.45-176.72c95.18,160.12,263.65,118.69,314.17,101.71,24.55-12.01,48.03-28.11,69.8-47.89,3.14-2.84,6.28-5.79,9.3-8.83,5.07-4.91,9.65-9.69,14.45-15.04,1.69-1.87,3.26-3.59,4.83-5.37,13.62-15.61,26.42-32.93,37.94-51.34,1.96-3.19,4.04-6.58,6.06-10.02,2.71-4.62,5.36-9.27,7.88-13.97,2.31-4.28,4.52-8.45,6.6-12.69,2.29-4.52,4.38-8.8,6.34-13.09,1.85-4.01,3.6-7.89,5.28-11.83l1.17-2.65c1.4-3.41,2.95-7.2,4.44-10.98.12-.3.25-.6.37-.9l.37-.94c.09-.25.18-.49.28-.74,1.6-4.07,3.15-8.19,4.58-12.25.09-.27.19-.54.3-.81.04-.12.07-.23.11-.32,1.46-4.2,2.92-8.41,4.26-12.61,1.5-4.46,2.73-8.51,3.9-12.57,1.15-3.96,2.29-7.89,3.31-11.86l.43-1.62c.26-.94.52-1.87.74-2.79,2.37-9.2,4.36-17.93,6.19-27.26l.15-.79c.48-2.53.96-5.06,1.39-7.59.45-2.53.87-4.81,1.22-7.09.54-3.31.99-6.38,1.43-9.44l.13-.86c.69-5.31,1.37-10.98,2-16.71.37-3.89.78-8.09,1.08-12.29.01-.34.03-.68.06-1.02,0-.25.02-.49.03-.74.18-2.76.37-5.52.49-8.27.13-2.52.24-4.78.3-6.99.06-1.37.05-2.18.05-2.99,0-.44.01-.89.03-1.34.11-2.22.16-4.43.16-6.59v-1.24c0-3.98,0-7.96-.17-11.89-.01-.23-.02-.46-.02-.7-.12-6.17-.42-12.42-.89-18.57-.25-3.32-.55-6.57-.85-9.76-.29-3.12-.64-6.16-1.04-9.19-.36-2.67-.71-5.36-1.13-8-.04-.22-.07-.43-.1-.65-.25-1.93-.56-3.81-.92-5.69-.99-6-1.91-10.71-2.91-15.01l-.21-.94c-.48-2.17-.96-4.35-1.5-6.52-.71-2.94-1.45-5.84-2.24-8.62-.89-3.4-1.75-6.15-2.59-8.91-.83-2.79-1.59-5.12-2.41-7.49-.75-2.18-1.49-4.27-2.28-6.36-1.07-2.94-2.04-5.42-3.02-7.85,0-.02-.02-.05-.03-.08-.12-.27-.23-.54-.34-.81-.77-1.95-1.55-3.84-2.37-5.73l-2.35-5.18c-.63-1.32-1.24-2.64-1.88-3.94-.93-1.96-1.65-3.45-2.43-4.94-2.43-4.75-5.1-9.54-8.28-14.86-4.4-7.23-9.03-13.91-14.01-20.19-.22-.28-.43-.55-.64-.84-.97-1.33-2.05-2.61-3.12-3.9-.12-.15-.25-.31-.39-.47-.29-.33-.6-.69-.83-.97-1.19-1.48-2.49-2.95-3.8-4.38-.13-.14-.25-.27-.37-.41-.01-.02-.03-.04-.05-.06-.43-.44-.84-.88-1.25-1.34l-2.17-2.41c-.11-.12-.21-.22-.21-.23-.56-.58-1.1-1.16-1.67-1.72h0c-.34-.34-.69-.7-1.02-1.05-1.5-1.52-2.75-2.81-4.1-4.01-.25-.23-.51-.47-.76-.71-4.58-4.37-9.19-8.31-14.09-12.05-.29-.22-.57-.45-.85-.68-1.07-.88-2.15-1.69-3.26-2.46-.36-.25-.72-.52-1.07-.78-1.3-.98-2.65-1.93-4-2.83-2.04-1.4-3.77-2.51-5.49-3.63-1.98-1.27-3.67-2.33-5.36-3.3-2.15-1.27-3.8-2.21-5.5-3.13-3.05-1.67-6.11-3.27-9.28-4.8-7.56-3.64-15.34-6.99-23.06-9.9-2.21-.82-4.45-1.63-6.74-2.39-2.37-.82-4.22-1.44-6.12-2.01-5.15-1.64-9.25-2.8-13.13-3.74-.38-.09-.75-.19-1.12-.3-1.09-.31-2.19-.57-3.29-.83l-.78-.17c-1.4-.31-2.77-.62-4.15-.9-2.03-.44-3.46-.71-4.85-.97l-4.18-.73c-1.33-.23-2.77-.5-4.16-.67-.57-.07-1.15-.15-1.73-.25-.43-.07-.86-.14-1.27-.17-.53-.05-1.07-.11-1.61-.18-1.8-.25-3.6-.45-5.35-.65-1.07-.12-2.14-.19-3.17-.27-.31-.02-.99-.08-1.29-.11-1.13-.12-2.26-.19-3.36-.27l-3.4-.21c-5.22-.2-11.91-.33-17.79-.09-.42.02-.83.03-1.25.03-4.13.17-7.78.42-11.14.77-.34.03-.69.06-1.03.09-1.11.09-2.17.22-3.23.34l-2.79.34c-.27.04-.55.07-.83.1h0c-.17.02-.34.04-.5.06-.09,0-.17.02-.25.03-1.01.12-2.03.28-3.05.43l-1.37.2c-3.38.47-6,.96-8.63,1.48-.81.15-1.37.25-1.89.38-.38.1-.89.22-1.28.3-3.59.76-7.13,1.58-10.56,2.49l-4.62,1.25c-5.32,1.53-10.64,3.23-16.31,5.23-5.23,1.91-10.17,3.88-14.73,5.88-3.58,1.51-6.62,2.92-9.61,4.38-.02.01-.05.02-.07.03-.34.17-.81.41-1.42.67-2.72,1.32-5.35,2.68-7.94,4.05-14.66,7.74-29.12,17.07-42.93,27.69-1.21.94-1.98,1.53-2.75,2.17-.25.21-.52.42-.79.63-.74.57-1.45,1.14-2.15,1.72l-.55.45c-11.85,9.6-20.42,17.93-25.53,23.23-2.81,2.89-4.34,4.65-4.66,5.04-.11.13-.31.36-.43.5-.19.22-3.04,3.51-7.8,9.42-34.09,42.5-199.17,263.4-97.72,434.09h0Zm499.82-395.8c.27.55.56,1.1.88,1.66-.31-.55-.61-1.1-.88-1.66Zm-.83-1.95c.03.08.06.16.09.23-.03-.09-.06-.17-.09-.23Zm-36.38-61.15c.2.28.41.57.65.86-.23-.3-.46-.59-.65-.86Zm-2.54-3.03s.03.02.03.03c0-.01-.02-.02-.03-.03Zm-.03-.03s.02.02.03.02c-.01,0-.02-.02-.03-.02Zm-.03-.03s.02.01.03.02c0-.01-.02-.02-.03-.02Zm-.03-.03s0,.01.01.02c0,0,0-.01-.01-.02Z"/>
          <ellipse class="cls-17" cx="3217.65" cy="3223.37" rx="136.8" ry="126.24"/>
          <g>
            <path class="cls-17" d="m3396.36,3003.2c0,58.88,51.69,106.52,115.43,106.52,4.81,0,9.55-.3,14.17-.83-.13-6.75-.45-13.43-.96-20.12-.26-3.43-.58-6.86-.9-10.24-.32-3.43-.71-6.81-1.15-10.18-.38-2.9-.77-5.8-1.22-8.64-.32-2.43-.71-4.79-1.15-7.16-.9-5.44-1.92-10.83-3.14-16.1-.58-2.6-1.16-5.21-1.8-7.81-.77-3.2-1.6-6.45-2.5-9.59-.83-3.2-1.79-6.33-2.76-9.47-.83-2.84-1.73-5.56-2.69-8.34-.83-2.43-1.67-4.79-2.57-7.16-1.03-2.84-2.12-5.62-3.21-8.34-.13-.3-.19-.53-.32-.77-.9-2.25-1.79-4.44-2.76-6.63-.38-.89-.77-1.78-1.15-2.66-1.22-2.54-2.37-5.09-3.59-7.57-.9-1.89-1.8-3.73-2.76-5.56-2.82-5.5-5.9-10.95-9.04-16.21-4.94-8.11-10.26-15.86-16.16-23.32-1.35-1.83-2.82-3.61-4.3-5.39-.26-.36-.58-.71-.9-1.07-1.54-1.89-3.21-3.79-4.87-5.62-.19-.24-.39-.47-.64-.71-3.14,1.6-6.16,3.37-9.11,5.21v.06c-12.76,8.05-23.6,18.46-31.94,30.54-11.41,16.51-18.02,36.16-18.02,57.17Z"/>
            <g>
              <path class="cls-17" d="m3233.55,2858.27c0,58.88,51.69,106.52,115.43,106.52,24.3,0,46.81-6.92,65.41-18.76,12.76-8.05,23.66-18.46,31.94-30.54,2.05-2.9,3.91-5.92,5.64-9.05-.96-1.01-1.86-1.95-2.82-2.9-.13-.12-.26-.3-.45-.47-1.86-1.89-3.72-3.79-5.71-5.56-5.26-5.03-10.77-9.76-16.67-14.26-1.73-1.42-3.46-2.72-5.26-3.97-1.8-1.36-3.66-2.66-5.52-3.91-2.05-1.42-4.17-2.78-6.28-4.14-2.12-1.36-4.3-2.72-6.48-3.96-1.99-1.18-3.98-2.31-6.03-3.43-3.46-1.89-6.99-3.73-10.65-5.5-8.72-4.2-17.31-7.87-25.78-11.07-2.69-1.01-5.32-1.95-8.02-2.84-2.37-.83-4.68-1.6-7.05-2.31-5-1.6-9.94-3.02-14.81-4.2-1.47-.41-2.95-.77-4.42-1.12-2.12-.47-4.17-.95-6.22-1.36-1.86-.41-3.78-.77-5.64-1.12-1.35-.24-2.76-.47-4.1-.71-1.99-.36-4.04-.71-6.03-.95-1.35-.24-2.69-.41-3.98-.53-2.12-.3-4.23-.53-6.28-.77-1.6-.18-3.21-.3-4.75-.41-1.73-.18-3.46-.3-5.13-.41-1.03-.06-2.05-.12-3.08-.18-4.23-.18-8.4-.3-12.5-.3-2.95,0-5.9.06-8.72.18h-.51c-4.75.18-9.43.47-13.98.95-1.6.12-3.14.3-4.68.47-1.15.12-2.24.3-3.33.41-2.31,8.4-3.53,17.16-3.53,26.22Z"/>
              <path class="cls-14" d="m3348.97,2968.52c-65.87,0-119.46-49.45-119.46-110.24,0-9.18,1.23-18.31,3.66-27.13l.68-2.48,4.17-.47c.63-.09,1.29-.17,1.95-.24,1.53-.18,3.14-.36,4.8-.49,4.24-.44,8.91-.76,14.13-.95,8.06-.28,14.7-.18,22.09.12l3.98.24c1.47.11,2.99.22,4.5.38,1.73.13,3.26.25,4.78.42,2.15.25,4.28.49,6.4.78,1.18.1,2.65.3,4.12.55,1.84.22,3.98.58,6.04.95l4.11.71c2.22.42,4.04.76,5.82,1.16,1.57.31,3.24.69,4.93,1.07l1.3.29c1.6.39,3.12.76,4.64,1.18,4.62,1.12,9.57,2.52,14.97,4.25,2.35.7,4.72,1.49,7.15,2.33,2.69.89,5.37,1.85,8.11,2.88,8.75,3.3,17.54,7.07,26.13,11.22,3.73,1.81,7.32,3.67,10.84,5.6,2.09,1.14,4.12,2.29,6.15,3.5,2.18,1.24,4.43,2.64,6.6,4.04,2.41,1.56,4.43,2.86,6.39,4.22,1.87,1.25,3.8,2.6,5.66,4.01,1.74,1.2,3.56,2.57,5.38,4.06,5.82,4.44,11.39,9.2,16.9,14.46,1.85,1.66,3.69,3.51,5.52,5.37.35.34.53.54.69.71.82.81,1.61,1.63,2.43,2.49l1.81,1.9-.79,2.73c-1.87,3.41-3.8,6.48-5.86,9.41-8.46,12.35-19.9,23.29-33.03,31.57-19.94,12.69-43.35,19.41-67.69,19.41Zm-108.62-133.11c-1.84,7.47-2.77,15.15-2.77,22.87,0,56.68,49.97,102.79,111.39,102.79,22.69,0,44.52-6.25,63.12-18.1,12.25-7.73,22.9-17.91,30.81-29.46,1.47-2.08,2.85-4.22,4.19-6.52-.29-.3-.59-.6-.89-.9l-.49-.52c-1.98-2.01-3.7-3.75-5.52-5.39-5.4-5.15-10.74-9.73-16.44-14.07-1.76-1.44-3.4-2.67-5.11-3.86-1.87-1.41-3.66-2.67-5.46-3.87-1.94-1.34-3.89-2.6-5.84-3.86-2.44-1.57-4.56-2.89-6.68-4.1-2.01-1.19-3.95-2.29-5.96-3.39-3.41-1.87-6.88-3.68-10.47-5.42-8.36-4.03-16.92-7.71-25.43-10.91-2.63-.99-5.21-1.91-7.85-2.79-2.37-.82-4.62-1.58-6.93-2.27-5.28-1.69-10.03-3.03-14.6-4.14-1.57-.44-3-.78-4.42-1.13l-1.25-.28c-1.63-.37-3.22-.73-4.82-1.05-1.76-.39-3.5-.72-5.19-1.03l-4.46-.78c-1.9-.34-3.88-.68-5.78-.91-1.45-.25-2.68-.41-3.86-.52-2.25-.31-4.31-.55-6.3-.78-1.48-.16-2.9-.27-4.28-.38-1.92-.18-3.35-.29-4.74-.39l-3.78-.23c-7.01-.28-14.15-.39-20.79-.11h-.69c-4.87.19-9.35.49-13.53.93-1.67.12-3.16.3-4.62.47l-.57.07Z"/>
            </g>
            <g>
              <path class="cls-17" d="m3010.7,2897.27c7.37,17.34,19.56,32.49,35.01,43.97,19.82,14.74,44.95,23.55,72.4,23.55,63.74,0,115.43-47.64,115.43-106.52,0-8.7-1.15-17.16-3.33-25.27-3.4.47-6.67,1.07-9.94,1.72-1.22.24-2.44.47-3.59.77-4.17.89-8.27,1.83-12.25,2.9-1.8.47-3.53.95-5.26,1.42-6.16,1.72-12.18,3.67-18.08,5.8-5.84,2.13-11.54,4.38-17.06,6.81-3.66,1.54-7.25,3.2-10.77,4.91-.26.12-.45.24-.64.3-3.33,1.6-6.54,3.25-9.68,4.91-18.47,9.76-34.37,20.53-47.45,30.59-1.22.95-2.37,1.83-3.53,2.78-1.15.89-2.24,1.78-3.33,2.66-13.02,10.53-22.57,19.82-28.28,25.74-4.04,4.14-6.09,6.63-6.09,6.63,0,0-13.34-12.25-43.54-33.67Z"/>
              <path class="cls-14" d="m3118.12,2968.52c-27.58,0-53.5-8.43-74.93-24.38-16.16-12-28.68-27.74-36.24-45.51l-5.3-12.48,11.51,8.17c22.08,15.65,35.13,26.37,40.72,31.16.93-1.01,2.09-2.24,3.47-3.66,5.75-5.97,15.4-15.36,28.61-26.05l.53-.42c.94-.76,1.89-1.53,2.89-2.3.92-.76,1.95-1.55,3.02-2.38,15.91-12.23,32.07-22.65,48.54-31.36,3.2-1.68,6.45-3.36,9.83-4.98l2.5,3-1.88-3.29c3.59-1.75,7.25-3.43,10.98-5,5.22-2.3,10.89-4.56,17.25-6.88,6.39-2.31,12.4-4.24,18.4-5.9l5.31-1.43c4.03-1.08,8.21-2.05,12.45-2.95,1.07-.28,2.37-.54,3.68-.79,3.32-.66,6.67-1.27,10.16-1.75l3.63-.5.89,3.29c2.29,8.52,3.46,17.32,3.46,26.17,0,60.79-53.59,110.24-119.46,110.24Zm-96.19-58.38c6.81,10.76,15.73,20.34,26.32,28.21,19.99,14.87,44.15,22.73,69.87,22.73,61.42,0,111.39-46.11,111.39-102.79,0-7.09-.8-14.14-2.38-21.02-2.02.34-4.02.71-6,1.11-1.17.22-2.29.44-3.38.72-4.26.91-8.29,1.84-12.19,2.89l-4.76,1.29c-6.25,1.73-12.07,3.59-18.24,5.82-6.17,2.25-11.67,4.44-16.79,6.7-3.64,1.53-7.17,3.16-10.63,4.84-.6.3-.95.45-1.29.55-2.66,1.34-5.82,2.97-8.92,4.6-16.07,8.49-31.84,18.66-46.87,30.22-1.49,1.16-2.46,1.91-3.43,2.7-1.04.8-1.93,1.53-2.82,2.25l-.53.43c-12.9,10.44-22.31,19.59-27.92,25.42-3.86,3.96-5.84,6.33-5.9,6.41l-2.79,3.37-3.26-2.99c-.11-.1-9.39-8.56-29.48-23.45Z"/>
            </g>
          </g>
          <g>
            <path class="cls-14" d="m3511.79,3138.65c-80.93,0-146.77-60.76-146.77-135.45,0-25.87,7.93-51.01,22.93-72.72,10.37-15.02,23.51-27.74,39.08-37.85.57-.41,1.17-.81,1.78-1.19,4.4-2.73,7.96-4.76,11.53-6.57,12.21-6.17,27.39-4.19,37.25,4.91,1.09,1.01,2.02,2,2.88,3,1.73,1.92,3.46,3.89,5.07,5.85.53.6,1.03,1.2,1.5,1.79,1.67,2.02,3.24,3.94,4.7,5.9,6.35,8.05,12.2,16.5,17.88,25.84,3.93,6.59,7.17,12.41,10.05,18.01,1.03,1.97,2.1,4.14,3.16,6.4.59,1.19,1.36,2.83,2.13,4.47l1.38,2.92c.15.3.29.61.42.91l1.15,2.67c1.01,2.32,1.99,4.67,2.95,7.07.2.47.39.92.55,1.35,1.26,3.15,2.38,6.03,3.44,8.96.85,2.23,1.79,4.88,2.71,7.58,1.09,3.16,2.11,6.28,3.07,9.54.97,3.14,2.04,6.67,2.98,10.25.83,2.89,1.76,6.5,2.62,10.05.61,2.47,1.18,5.03,1.75,7.59l.16.7c1.21,5.2,2.34,11.02,3.42,17.56.42,2.17.87,4.89,1.24,7.69.46,2.94.86,5.94,1.26,8.94.49,3.74.92,7.45,1.27,11.23.33,3.51.67,7.13.93,10.76.55,7.09.89,14.38,1.03,21.58.28,14.77-11.55,27.36-27.43,29.2-6.04.7-12.13,1.06-18.08,1.06Zm-62.65-187.22c-3.04,3.13-5.82,6.52-8.32,10.16-8.58,12.4-13.11,26.79-13.11,41.61,0,36.71,27.77,67.55,64.94,75.57-.24-2.33-.51-4.62-.81-6.91-.36-2.67-.71-5.36-1.13-8-.04-.22-.07-.43-.1-.65-.25-1.93-.56-3.81-.92-5.69-.99-6-1.91-10.71-2.91-15.01l-.21-.94c-.48-2.17-.96-4.35-1.5-6.52-.71-2.94-1.45-5.84-2.24-8.62-.89-3.4-1.75-6.15-2.59-8.91-.83-2.79-1.59-5.12-2.41-7.49-.75-2.18-1.49-4.27-2.28-6.36-1.07-2.94-2.04-5.42-3.02-7.85,0-.02-.02-.05-.03-.08-.12-.26-.23-.54-.34-.81-.77-1.95-1.55-3.84-2.37-5.73l-2.35-5.18c-.63-1.32-1.24-2.64-1.88-3.94-.93-1.96-1.65-3.45-2.43-4.94-2.43-4.75-5.1-9.54-8.28-14.86-1.85-3.04-3.75-5.99-5.69-8.85Zm23.83,45.36c.27.56.56,1.11.88,1.67-.31-.55-.61-1.1-.88-1.67Zm-.83-1.94c.03.07.06.15.09.22-.03-.09-.06-.16-.09-.22Z"/>
            <path class="cls-14" d="m3348.97,2993.72c-80.93,0-146.77-60.76-146.77-135.44,0-11.27,1.51-22.48,4.49-33.33,3.2-11.63,13.84-20.23,26.76-21.63,1.6-.21,2.56-.33,3.56-.43,1.35-.17,3.16-.36,5.05-.52,4.88-.49,10.03-.84,15.73-1.05.37-.01.74-.02,1.11-.02,7.45-.29,15.33-.18,23.29.14l4.92.3c1.6.11,3.25.24,4.9.4,2,.15,3.76.3,5.52.49,2.21.25,4.34.5,6.48.78,1.61.17,3.28.39,4.96.66,2.31.31,4.68.71,6.98,1.11l4.16.72c.11.02.62.12.73.14,2.08.39,4.22.8,6.29,1.26,1.23.24,3.1.66,5.02,1.09l1.26.28c2.17.52,3.88.94,5.54,1.39,5.28,1.3,10.71,2.84,16.58,4.72,2.23.66,4.99,1.58,7.82,2.56,2.65.87,5.67,1.95,8.77,3.11,9.6,3.62,19.16,7.73,28.5,12.23,4.21,2.04,8.2,4.12,12.13,6.27,2.35,1.29,4.68,2.6,7.01,3.99,2.17,1.23,4.84,2.89,7.42,4.55,2.69,1.74,4.93,3.19,7.12,4.7,1.85,1.23,4.01,2.75,6.13,4.33,2.13,1.5,4.2,3.05,6.26,4.73,6.46,4.94,12.51,10.13,18.5,15.82,2.23,2.01,4.34,4.13,6.44,6.26h0c.33.33.63.64.93.95.83.83,1.64,1.67,2.47,2.54,8.48,8.89,10.69,22.13,4.88,32.7-2.33,4.24-4.74,8.09-7.36,11.79-10.36,15.12-24.07,28.23-40.48,38.58-24.43,15.55-53.2,23.8-83.1,23.8Zm-84.08-134.72c.42,42.45,37.98,76.87,84.08,76.87,17.13,0,33.59-4.72,47.61-13.64,5.59-3.53,10.71-7.7,15.2-12.35-1.78-1.48-3.58-2.92-5.44-4.33-.29-.22-.57-.45-.85-.68-1.07-.88-2.15-1.69-3.26-2.46-.36-.25-.72-.52-1.07-.78-1.3-.98-2.65-1.93-4-2.83-2.04-1.4-3.77-2.51-5.49-3.63-1.98-1.27-3.67-2.33-5.36-3.3-2.15-1.27-3.8-2.21-5.5-3.13-3.05-1.67-6.11-3.27-9.28-4.8-7.56-3.64-15.34-6.99-23.06-9.9-2.21-.82-4.45-1.63-6.74-2.39-2.37-.82-4.22-1.44-6.12-2.01-5.15-1.64-9.25-2.8-13.13-3.74-.38-.09-.75-.19-1.12-.3-1.09-.31-2.19-.57-3.29-.83l-.78-.17c-1.4-.31-2.77-.62-4.15-.9-2.03-.44-3.46-.71-4.85-.97l-4.18-.73c-1.33-.23-2.77-.5-4.16-.67-.57-.07-1.15-.15-1.73-.25-.43-.07-.86-.14-1.27-.17-.53-.05-1.07-.11-1.61-.18-1.8-.25-3.6-.45-5.35-.65-1.07-.12-2.14-.19-3.17-.27-.31-.02-.99-.08-1.29-.11-1.13-.12-2.26-.19-3.36-.27l-3.4-.21c-4.09-.16-9.14-.29-13.88-.2Z"/>
            <path class="cls-14" d="m3118.12,2993.72c-33.41,0-66.1-10.64-92.07-29.95-19.83-14.74-35.23-34.08-44.53-55.93-5.14-12.1-.91-25.87,10.35-33.68,11.27-7.81,26.78-7.72,37.94.18,8.62,6.12,15.97,11.55,22.11,16.23,4.64-4.22,9.99-8.86,16.03-13.74,1.43-1.17,2.49-2.03,3.55-2.84,1.09-.88,2.18-1.73,3.32-2.61.03-.03.57-.44.6-.47,16.61-12.77,34.09-24.04,51.94-33.47,3.53-1.86,7.1-3.69,10.81-5.47.24-.12.47-.23.71-.33,3.98-1.93,8.03-3.79,12.15-5.53,5.38-2.37,11.59-4.85,18.54-7.39,7.18-2.59,13.87-4.73,20.57-6.59l5.67-1.54c4.24-1.13,8.73-2.19,13.29-3.16,1.56-.38,3.18-.71,4.81-1.02,3.65-.73,7.56-1.43,11.63-1.99,16.02-2.22,31.2,7.14,35.11,21.63,2.82,10.5,4.26,21.35,4.26,32.24,0,74.69-65.84,135.44-146.77,135.44Zm-23.39-60.86c7.5,1.99,15.34,3.01,23.39,3.01,42.21,0,77.25-28.85,83.19-66.3-2.9.92-5.8,1.9-8.81,2.99-5.49,2-10.43,3.97-14.99,5.97-3.58,1.51-6.62,2.92-9.61,4.38-.02.01-.04.02-.07.03-.33.17-.81.41-1.42.67-2.72,1.32-5.36,2.68-7.94,4.05-14.66,7.74-29.12,17.07-42.93,27.69-1.21.94-1.98,1.53-2.75,2.17-.25.21-.52.42-.79.63-.74.57-1.45,1.14-2.15,1.72l-.55.45c-5.59,4.52-10.45,8.77-14.56,12.55Z"/>
          </g>
          <g>
            <path class="cls-3" d="m2716.98,3439.42c-5.56,27.84-10.81,51.06-14.73,68.12-2.51,10.77-8.07,20.54-15.91,28.28-7.29,7.3-16.61,12.94-27.19,16.2-40.44,12.44-79.15,20.97-115.51,26.54-3.13.51-6.19.94-9.17,1.37-51.48,7.3-98.27,8.68-139.25,6.87-2.27-.14-4.47-.22-6.66-.36-45.29-2.39-83.22-8.82-111.75-15.33-10.81-2.46-20.37-7.38-28.05-13.96,0,0-.08,0-.08-.07-3.37-2.89-6.43-6.15-9.09-9.62-9.87-13.02-14.11-29.58-10.42-46.28,29.46-132.41,34.48-287.75,33.3-397.09-.08-.07-.08-.22,0-.29-.16-14.1-.39-27.41-.7-39.85v-.36c-1.57-60.17-4.55-98.78-4.55-98.78l463.13-121.42c21,63.86,30.87,135.16,33.62,206.97v.07c5.72,145.93-17.94,294.4-36.99,388.99Z"/>
            <path class="cls-14" d="m2739.88,2837.95c18.95,45.15,30.9,92.5,38.48,140.09,6.71,47.62,9.82,95.56,9.35,143.25-1.73,95.36-11.8,190-29.35,283.25-4.36,23.31-8.99,46.58-14.05,69.74-2.5,11.59-5.09,23.16-7.78,34.7l-1.01,4.33-.71,2.87-.91,3.22c-1.3,4.26-2.93,8.45-4.89,12.5-3.93,8.1-9.15,15.67-15.46,22.4-6.01,6.44-13.55,12.55-21.59,17.26-4.05,2.38-8.29,4.49-12.65,6.3-2.18.91-4.41,1.73-6.65,2.49l-5.6,1.73c-12.55,3.73-25.18,7.21-37.93,10.38-25.47,6.34-51.33,11.57-77.42,15.49-52.21,7.92-105.18,10.77-158.35,8.17-26.23-1.38-52.84-4.07-78.99-8.29-13.11-2.06-26.18-4.48-39.18-7.3l-4.89-1.09-3.02-.72-3.38-.91c-4.48-1.28-8.87-2.89-13.11-4.77-8.5-3.77-16.37-8.74-23.3-14.64l20.29,7.67c-2.57-.1-3.69-.29-5.32-.58-1.51-.29-3.07-.69-4.7-1.25-3.25-1.11-7.08-3.03-10.61-6.11-3.52-3-6.43-7.29-7.86-11.03-1.54-3.96-1.88-7.05-1.92-9.76l10.02,20.96c-14.69-12.6-24.98-29.39-28.95-47.65-2-9.11-2.36-18.54-1.2-27.75.22-2.32.75-4.56,1.16-6.84l.94-4.73,1.79-8.98c2.28-12,4.99-23.88,6.95-35.97l5.93-36.29c6.77-48.63,12.18-97.66,15.73-146.95,4.22-49.26,5.91-98.79,7.49-148.37.79-24.79,1.14-49.61,1.33-74.43.41-24.78.22-49.77.09-74.31v-.27c-.05-9.52,8.26-17.27,18.58-17.32,9.57-.04,17.49,6.56,18.63,15.11,3.41,25.33,5.52,50.29,7.73,75.46,1.84,25.13,3.25,50.29,4.36,75.48,2.13,50.38,2.05,100.84.54,151.41-2.11,50.53-5.72,101.17-12.71,151.7l-5.85,37.89c-2.02,12.62-4.88,25.22-7.28,37.83l-1.88,9.46-.89,4.49c-.09.81-.37,1.62-.4,2.42-.38,3.19-.29,6.4.4,9.54,1.36,6.28,5.02,12.25,10.17,16.69l10.02,20.96c-.04-2.7-.39-5.77-1.92-9.71-1.42-3.73-4.33-8-7.83-10.99-3.51-3.07-7.33-4.98-10.56-6.09-1.62-.56-3.17-.96-4.68-1.24-1.62-.28-2.73-.47-5.29-.57l20.29,7.67c2.37,2.01,5.05,3.71,7.96,4.99,1.45.64,2.96,1.21,4.52,1.64l1.17.31,1.57.37,4.34.97c11.62,2.53,23.38,4.7,35.21,6.55,23.75,3.56,47.55,5.71,71.86,6.72,47.92,1.8,96.55-1.3,144.09-9.09,23.81-3.85,47.38-8.89,70.69-14.98,11.65-3.03,23.23-6.37,34.71-9.92l3.38-1.07c.72-.27,1.43-.53,2.13-.84,1.39-.6,2.73-1.29,4-2.07,2.6-1.62,4.66-3.29,6.88-5.72,1.93-2.13,3.53-4.54,4.73-7.11.6-1.29,1.09-2.62,1.47-3.98l.59-2.42.93-4.24c2.54-11.3,5.01-22.61,7.38-33.93,4.79-22.64,9.16-45.33,13.26-68.06,3.98-22.74,7.81-45.5,11.01-68.31,1.77-11.39,3.47-22.78,4.9-34.2,1.43-11.41,3.26-22.81,4.36-34.24,5.57-45.68,8.55-91.45,10.05-137.14l.79-34.24c.34-11.42-.31-22.77-.29-34.17.52-22.86-1.8-45.4-2.36-68.18-3.45-45.26-9.49-90.05-18.56-134.71l-.13-.63c-2.08-10.26,5.24-20.13,16.35-22.05,9.85-1.7,19.38,3.42,22.87,11.75Z"/>
            <g>
              <path class="cls-8" d="m2397.46,3548.76c0,10.36-1.86,20.24-5.26,29.29-1.03,2.9-2.31,5.74-3.65,8.4-45.27-2.43-83.17-8.82-111.71-15.33-10.84-2.49-20.39-7.4-28.09-13.97,0,0-.06,0-.06-.06-.26-2.72-.39-5.5-.39-8.34,0-43.91,33.41-79.54,74.58-79.54,33.67,0,62.14,23.79,71.37,56.46v.06c2.12,7.28,3.21,15.03,3.21,23.02Z"/>
              <path class="cls-8" d="m2538.15,3555.03c0,8.7-1.28,17.04-3.72,24.91-51.43,7.28-98.24,8.64-139.22,6.86-1.16-2.84-2.12-5.8-3.01-8.76-2.05-7.28-3.14-15.03-3.14-23.02,0-10.36,1.86-20.24,5.19-29.29,10.97-29.41,37.9-50.24,69.39-50.24,41.17,0,74.52,35.63,74.52,79.54Z"/>
              <path class="cls-8" d="m2686.35,3535.8c-7.31,7.34-16.61,12.96-27.19,16.22-40.46,12.43-79.13,21.01-115.56,26.57-3.53-9.23-5.45-19.29-5.45-29.83,0-43.91,33.41-79.54,74.58-79.54,37.07,0,67.78,28.82,73.62,66.58Z"/>
            </g>
            <g>
              <path class="cls-14" d="m2388.55,3617.13c-.64,0-1.29-.02-1.93-.05-40.66-2.18-80.29-7.62-117.76-16.18-15.93-3.64-30.68-10.98-42.68-21.21h0c-6-5.12-9.97-12.24-10.63-20.2-.32-3.48-.49-7.09-.49-10.74,0-60.77,48.37-110.21,107.82-110.21,47.75,0,90.33,32.64,103.53,79.39.08.29.16.58.23.87,2.69,9.59,4.05,19.66,4.05,29.94,0,13.56-2.38,26.79-7.08,39.32-1.16,3.3-2.9,7.29-4.96,11.37-5.49,10.83-17.26,17.68-30.1,17.68Zm-106.41-76.51c.89.28,1.79.53,2.69.74,25.35,5.78,51.89,9.98,79.15,12.53.16-1.7.23-3.41.23-5.13,0-5.28-.69-10.34-2.07-15.04-.1-.34-.19-.68-.27-1.02-5.76-19.35-21.71-32.8-39-32.8-20.07,0-37.35,17.94-40.74,40.72Z"/>
              <path class="cls-14" d="m2427.4,3618.18c-11.28,0-22.53-.25-33.74-.73-13.26-.58-24.87-8.37-29.55-19.83-1.72-4.22-3.01-8.27-3.93-11.34-2.94-10.4-4.36-20.75-4.36-31.25,0-13.45,2.34-26.62,6.96-39.16,15.86-42.54,56.38-71.04,100.86-71.04,59.41,0,107.76,49.44,107.76,110.21,0,11.41-1.68,22.63-4.99,33.33-3.57,11.53-14.09,20.09-26.93,21.9-37.21,5.27-74.78,7.92-112.07,7.92Zm107.04-38.23h.07-.07Zm-112.11-23.13c27.4.21,55.04-1.19,82.54-4.14-1.08-25.44-19.52-46.51-41.23-46.51-16.36,0-31.26,11.6-37.96,29.55-2.23,6.06-3.38,12.59-3.38,19.31,0,.6,0,1.19.03,1.79Z"/>
              <path class="cls-14" d="m2543.58,3609.26c-13.89,0-26.58-8.05-31.32-20.47-4.88-12.75-7.34-26.22-7.34-40.03,0-60.77,48.37-110.21,107.82-110.21,53.4,0,98.2,39.08,106.52,92.91,1.41,9.11-1.69,18.32-8.44,25.1-11.17,11.22-25.4,19.7-41.14,24.55-40.01,12.29-80.6,21.62-120.65,27.74-1.83.28-3.65.41-5.45.41Zm69.15-109.36c-20.59,0-38.25,18.89-40.98,42.5,25.35-5.07,50.83-11.51,76.07-19.24-7.44-13.98-20.69-23.26-35.09-23.26Z"/>
            </g>
          </g>
          <g>
            <path class="cls-3" d="m1469.73,3440.77c5.56,27.84,10.81,51.06,14.73,68.12,2.51,10.77,8.07,20.54,15.91,28.28,7.29,7.3,16.61,12.94,27.19,16.2,40.44,12.44,79.15,20.97,115.51,26.54,3.13.51,6.19.94,9.17,1.37,51.48,7.3,98.27,8.68,139.25,6.87,2.27-.14,4.47-.22,6.66-.36,45.29-2.39,83.22-8.82,111.75-15.33,10.81-2.46,20.37-7.38,28.05-13.96,0,0,.08,0,.08-.07,3.37-2.89,6.43-6.15,9.09-9.62,9.87-13.02,14.11-29.58,10.42-46.28-29.46-132.41-34.48-287.75-33.3-397.09.08-.07.08-.22,0-.29.16-14.1.39-27.41.7-39.85v-.36c1.57-60.17,4.55-98.78,4.55-98.78l-463.13-121.42c-21,63.86-30.87,135.16-33.62,206.97v.07c-5.72,145.93,17.94,294.4,36.99,388.99Z"/>
            <path class="cls-14" d="m1446.82,2839.3c-18.95,45.15-30.9,92.5-38.48,140.09-6.71,47.62-9.82,95.56-9.35,143.25,1.73,95.36,11.8,190,29.35,283.25,4.36,23.31,8.99,46.58,14.05,69.74,2.5,11.59,5.09,23.16,7.78,34.7l1.01,4.33.71,2.87.91,3.22c1.3,4.26,2.93,8.45,4.89,12.5,3.93,8.1,9.15,15.67,15.46,22.4,6.01,6.44,13.55,12.55,21.59,17.26,4.05,2.38,8.29,4.49,12.65,6.3,2.18.91,4.41,1.73,6.65,2.49l5.6,1.73c12.55,3.73,25.18,7.21,37.93,10.38,25.47,6.34,51.33,11.57,77.42,15.49,52.21,7.92,105.18,10.77,158.35,8.17,26.23-1.38,52.84-4.07,78.99-8.29,13.11-2.06,26.18-4.48,39.18-7.3l4.89-1.09,3.02-.72,3.38-.91c4.48-1.28,8.87-2.89,13.11-4.77,8.5-3.77,16.37-8.74,23.3-14.64l-20.29,7.67c2.57-.1,3.69-.29,5.32-.58,1.51-.29,3.07-.69,4.7-1.25,3.25-1.11,7.08-3.03,10.61-6.11,3.52-3,6.43-7.29,7.86-11.03,1.54-3.96,1.88-7.05,1.92-9.76l-10.02,20.96c14.69-12.6,24.98-29.39,28.95-47.65,2-9.11,2.36-18.54,1.2-27.75-.22-2.32-.75-4.56-1.16-6.84l-.94-4.73-1.79-8.98c-2.28-12-4.99-23.88-6.95-35.97l-5.93-36.29c-6.77-48.63-12.18-97.66-15.73-146.95-4.22-49.26-5.91-98.79-7.49-148.37-.79-24.79-1.14-49.61-1.33-74.43-.41-24.78-.22-49.77-.09-74.31v-.27c.05-9.52-8.26-17.27-18.58-17.32-9.57-.04-17.49,6.56-18.63,15.11-3.41,25.33-5.52,50.29-7.73,75.46-1.84,25.13-3.25,50.29-4.36,75.48-2.13,50.38-2.05,100.84-.54,151.41,2.11,50.53,5.72,101.17,12.71,151.7l5.85,37.89c2.02,12.62,4.88,25.22,7.28,37.83l1.88,9.46.89,4.49c.09.81.37,1.62.4,2.42.38,3.19.29,6.4-.4,9.54-1.36,6.28-5.02,12.25-10.17,16.69l-10.02,20.96c.04-2.7.39-5.77,1.92-9.71,1.42-3.73,4.33-8,7.83-10.99,3.51-3.07,7.33-4.98,10.56-6.09,1.62-.56,3.17-.96,4.68-1.24,1.62-.28,2.73-.47,5.29-.57l-20.29,7.67c-2.37,2.01-5.05,3.71-7.96,4.99-1.45.64-2.96,1.21-4.52,1.64l-1.17.31-1.57.37-4.34.97c-11.62,2.53-23.38,4.7-35.21,6.55-23.75,3.56-47.55,5.71-71.86,6.72-47.92,1.8-96.55-1.3-144.09-9.09-23.81-3.85-47.38-8.89-70.69-14.98-11.65-3.03-23.23-6.37-34.71-9.92l-3.38-1.07c-.72-.27-1.43-.53-2.13-.84-1.39-.6-2.73-1.29-4-2.07-2.6-1.62-4.66-3.29-6.88-5.72-1.93-2.13-3.53-4.54-4.73-7.11-.6-1.29-1.09-2.62-1.47-3.98l-.59-2.42-.93-4.24c-2.54-11.3-5.01-22.61-7.38-33.93-4.79-22.64-9.16-45.33-13.26-68.06-3.98-22.74-7.81-45.5-11.01-68.31-1.77-11.39-3.47-22.78-4.9-34.2-1.43-11.41-3.26-22.81-4.36-34.24-5.57-45.68-8.55-91.45-10.05-137.14l-.79-34.24c-.34-11.42.31-22.77.29-34.17-.52-22.86,1.8-45.4,2.36-68.18,3.45-45.26,9.49-90.05,18.56-134.71l.13-.63c2.08-10.26-5.24-20.13-16.35-22.05-9.85-1.7-19.38,3.42-22.87,11.75Z"/>
            <g>
              <path class="cls-8" d="m1789.25,3550.11c0,10.36,1.86,20.24,5.26,29.29,1.03,2.9,2.31,5.74,3.65,8.4,45.27-2.43,83.17-8.82,111.71-15.33,10.84-2.49,20.39-7.4,28.09-13.97,0,0,.06,0,.06-.06.26-2.72.39-5.5.39-8.34,0-43.91-33.41-79.54-74.58-79.54-33.67,0-62.14,23.79-71.37,56.46v.06c-2.12,7.28-3.21,15.03-3.21,23.02Z"/>
              <path class="cls-8" d="m1648.55,3556.38c0,8.7,1.28,17.04,3.72,24.91,51.43,7.28,98.24,8.64,139.22,6.86,1.16-2.84,2.12-5.8,3.01-8.76,2.05-7.28,3.14-15.03,3.14-23.02,0-10.36-1.86-20.24-5.19-29.29-10.97-29.41-37.9-50.24-69.39-50.24-41.17,0-74.52,35.63-74.52,79.54Z"/>
              <path class="cls-8" d="m1500.36,3537.15c7.31,7.34,16.61,12.96,27.19,16.22,40.46,12.43,79.13,21.01,115.56,26.57,3.53-9.23,5.45-19.29,5.45-29.83,0-43.91-33.41-79.54-74.58-79.54-37.07,0-67.78,28.82-73.62,66.58Z"/>
            </g>
            <g>
              <path class="cls-14" d="m1768.05,3600.8c-2.06-4.08-3.8-8.07-4.96-11.37-4.7-12.53-7.08-25.76-7.08-39.32,0-10.29,1.36-20.35,4.05-29.94.07-.3.15-.58.23-.87,13.21-46.75,55.79-79.39,103.53-79.39,59.45,0,107.82,49.44,107.82,110.21,0,3.64-.17,7.25-.49,10.74-.67,7.96-4.63,15.08-10.63,20.19h0c-11.99,10.24-26.75,17.57-42.68,21.22-37.48,8.56-77.1,14-117.76,16.18-.65.03-1.29.05-1.93.05-12.84,0-24.61-6.85-30.1-17.68Zm95.78-99.55c-17.29,0-33.23,13.45-39,32.8-.09.34-.17.68-.27,1.02-1.37,4.7-2.07,9.76-2.07,15.04,0,1.72.07,3.43.23,5.13,27.26-2.55,53.8-6.75,79.15-12.53.91-.21,1.81-.46,2.69-.74-3.39-22.78-20.67-40.72-40.74-40.72Z"/>
              <path class="cls-14" d="m1647.23,3611.61c-12.84-1.82-23.36-10.37-26.93-21.9-3.31-10.7-4.99-21.92-4.99-33.33,0-60.77,48.34-110.21,107.76-110.21,44.48,0,85,28.51,100.86,71.04,4.62,12.54,6.96,25.71,6.96,39.16,0,10.5-1.42,20.85-4.36,31.25-.92,3.07-2.21,7.12-3.93,11.34-4.68,11.46-16.29,19.26-29.55,19.83-11.21.48-22.46.73-33.74.73-37.29,0-74.86-2.65-112.07-7.92Zm4.97-30.32h.07s-.07,0-.07,0Zm112.2-24.92c0-6.72-1.15-13.25-3.38-19.31-6.69-17.95-21.59-29.55-37.96-29.55-21.71,0-40.15,21.06-41.23,46.51,27.5,2.95,55.14,4.35,82.54,4.14.02-.6.03-1.19.03-1.79Z"/>
              <path class="cls-14" d="m1637.67,3610.2c-40.05-6.12-80.64-15.45-120.65-27.74-15.74-4.84-29.96-13.33-41.14-24.55-6.75-6.78-9.85-15.99-8.44-25.1,8.32-53.84,53.12-92.91,106.52-92.91,59.45,0,107.82,49.44,107.82,110.21,0,13.81-2.47,27.28-7.34,40.03-4.74,12.42-17.44,20.47-31.32,20.47-1.8,0-3.62-.14-5.45-.41Zm-98.8-85.69c25.24,7.73,50.72,14.16,76.07,19.24-2.73-23.61-20.39-42.5-40.98-42.5-14.4,0-27.65,9.28-35.09,23.26Z"/>
            </g>
          </g>
          <g>
            <path class="cls-3" d="m3682.93,1814.08c-106.14,27-144,133.83-202.85,216.95-24.81,35.18-53.54,66.12-92.73,84.94-149.43,71.74-312.98,4.21-312.98,4.21,0,0,44.15,381.41-925.1,389.1-353.57,2.82-918.09,66.38-1063.12-267.79,0,0-129.95,117.06-278.52,40.85-148.58-76.14-151.52-191.3-251.83-254.94,0,0-.81-.52-2.27-1.47-99.13-60.97-175.2,20.99-291.17-112.24-4.58-5.26-8.77-11.14-12.43-17.55-54.55-92.71-19.43-300.43,184.59-543.23,140.25-166.8,360.33-350.08,685.86-523.9,0,0,258.74-364.3,877.8-409.13,619.06-44.83,939.43,331.87,939.43,331.87,0,0,503.95,226.78,804.33,563.13,46.29,51.87,80.24,98.79,104,141.19,24.08,43.02,37.68,81.34,43.18,115.5,23.88,150.08-110.54,218.24-206.19,242.51Z"/>
            <g class="cls-5">
              <path class="cls-1" d="m3889.12,1571.58c-317.43-463.55-1012.89-768.02-1012.89-768.02-39.46-56.93-182.32-171.48-405.87-242.95-.05.43-.09.79-.22,1.21-6.49,30.26-72.24,43.65-146.85,29.95-74.61-13.69-129.76-49.29-123.27-79.48.53-2.49,1.44-4.87,2.74-7.14-65.51-6.67-135.08-8.94-208.41-5.49-494.55,23.1-827.34,379.66-827.34,379.66-218.04,109.35-537.23,332.19-732.5,473.59,140.25-166.8,360.33-350.08,685.86-523.9,0,0,258.74-364.3,877.8-409.13,619.06-44.83,939.43,331.87,939.43,331.87,0,0,503.95,226.78,804.33,563.13,46.29,51.87,80.24,98.79,104,141.19,24.08,43.02,37.68,81.34,43.18,115.5Z"/>
            </g>
            <ellipse class="cls-11" cx="1441.59" cy="2107" rx="43.79" ry="93.36" transform="translate(-793.21 3341.24) rotate(-84.53)"/>
            <g class="cls-6">
              <path class="cls-14" d="m3682.93,1814.08c-106.14,27-144,133.83-202.85,216.95-24.81,35.18-53.54,66.12-92.73,84.94-149.43,71.74-312.98,4.21-312.98,4.21,0,0,44.15,381.41-925.1,389.1-353.57,2.82-918.09,66.38-1063.12-267.79,0,0-129.95,117.06-278.52,40.85-148.58-76.14-151.52-191.3-251.83-254.94,0,0-.81-.52-2.27-1.47-99.13-60.97-175.2,20.99-291.17-112.24-4.58-5.26-8.77-11.14-12.43-17.55,55.07-542.02,554.15-768.47,768.69-841.35,40.97-13.92,82.71,19.26,73.5,58.64-57.27,244.91-18.14,431.3,57.36,592.47,84.22,179.79,2.61,401.82,240.57,537.5,482.93,275.36,1303.25,70.26,1465.81-75.03,159.75-142.77,45.79-387.34,162.87-649,81.97-183.21-14.91-485.4-14.91-485.4,600.09,285.05,672.95,492.94,672.95,492.94,86.06,36.89,138.12-10.1,169.19-70.84,130.19,232.36-45.66,328.21-163.01,358.01Z"/>
            </g>
            <path class="cls-14" d="m1543.2,2531.56c-38.84-3.91-77-9.17-114.07-16.16-191.35-36.09-317.48-111.85-384.08-231.05-63.11,40.2-171.73,76.8-281.99,20.21-91.12-46.7-131.8-107.02-167.7-160.24-26.04-38.59-48.51-71.92-86.71-96.16l-2.28-1.45c-31.95-19.64-61.36-20.94-95.43-22.41-58.07-2.55-123.89-5.4-202.38-95.58-40.47-46.5-52.53-122.65-33.96-214.42,22.97-113.41,155.32-513.5,894.65-910.14,17.16-22.35,84-103.55,209.94-189.26,132.9-90.45,360-203.24,687.15-226.93,328.17-23.77,573.03,70.23,720.67,153.26,141.05,79.32,221.49,162.56,241.23,184.28,61.62,28.37,521.82,246.8,808.51,567.92,131.92,147.79,181.13,274.22,146.29,375.77-38.51,112.27-167.5,156.1-221.18,169.74h0c-68.8,17.46-105.79,78.23-144.94,142.57-12.6,20.71-25.63,42.12-39.91,62.29-20.46,28.95-53.58,70.31-104.58,94.79-115.68,55.5-236.98,35.36-298.83,18.5-6.47,36.44-25.78,91.71-80.98,148.86-98.67,102.18-330.13,224.88-872.39,229.17-43.77.34-90.63,1.63-140.25,2.98-138.86,3.79-292.36,7.98-436.76-6.56Zm-483.04-321.87c1.03.1,2.06.26,3.09.45,10.25,2,18.73,8.58,22.62,17.55,118.82,273.73,547.67,262.01,892.23,252.6,49.96-1.37,97.14-2.65,141.56-3.01,516.3-4.09,733.08-115.18,824.03-207.66,76.12-77.39,70.42-146.74,70.14-149.65-.98-10.22,3.97-20.28,13.02-26.24,9.06-5.96,20.84-7.17,30.98-2.98,1.45.59,151.97,60.66,285.65-3.48,29.25-14.04,54.23-37.2,81.01-75.09,13.15-18.57,25.65-39.12,37.75-58.99,43.73-71.86,88.95-146.16,182.98-170.03,43.8-11.13,148.82-46.2,178.05-131.41,27.62-80.52-19.03-191.7-134.92-321.53-292.6-327.74-788.84-553.3-793.82-555.54-4.26-1.92-7.99-4.7-10.92-8.14-.76-.89-79.91-92.4-231.57-177.21-139.37-77.93-370.61-166.14-680.81-143.68-310.92,22.52-526.41,128.9-652.42,214.18-136.83,92.6-200.93,181.12-201.57,182-2.68,3.74-6.28,6.9-10.49,9.14-270.23,144.31-486.29,304.79-642.17,476.99-122.92,135.79-204.02,276.77-228.36,396.97-14.95,73.83-7.22,134.91,21.2,167.56,60.81,69.87,105.14,71.78,156.46,74.02,37.9,1.65,80.85,3.53,127.68,32.33l2.55,1.62c49.03,31.12,77.2,72.9,104.46,113.29,33.43,49.56,68,100.81,144.93,140.24,126.62,64.98,240.23-35.24,241.35-36.26,6.74-6.07,16.04-8.99,25.29-8.06Zm2593.37-398.64h.07s-.07,0-.07,0Z"/>
            <path class="cls-7" d="m1086.15,2241.49s-129.95,117.06-278.52,40.85c-10.7-5.51-20.74-11.25-29.99-17.06-119.49-75.46-128.79-178.82-221.85-237.88,0,0-.81-.52-2.27-1.47-12.88-8.43-79.6-54.79-114.24-131.24-10.57-23.32-18.19-49.48-20.32-78.21-13.33-179.28,201.62-430.58,581.68-658.85-2.93,4.8-140.75,250.4-54.24,459.45,166.11,401.33,64.34,385.33,139.74,624.4Z"/>
            <g class="cls-6">
              <path class="cls-14" d="m1070.41,2269.23s-129.95,117.06-278.52,40.85c-10.7-5.51-20.74-11.25-29.99-17.06,16-6.68,30.86-15.66,43.76-26.73,43.77-37.5,63.33-97.58,49.17-151.16-16.33-61.88-71.64-108.84-95.71-168.58-20.16-50.19-16.91-105.66-27.64-158.31-10.72-52.73-43.28-108.67-99.9-120.48-64.4-13.39-124.36,36.44-157.02,89.31-32.76,53.08-47.49,108.34-51,165.38-10.57-23.32-18.19-49.48-20.32-78.21-13.33-179.28,201.62-430.58,581.68-658.85-2.93,4.8-140.75,250.4-54.24,459.45,166.11,401.33,64.34,385.33,139.74,624.4Z"/>
            </g>
            <path class="cls-14" d="m885.44,2335.83c-30.27-3.05-61.69-11.62-93.26-27.82-91.23-46.75-131.95-107.13-167.88-160.39-26-38.55-48.46-71.85-86.57-96.04l-2.28-1.45c-23.26-15.21-138.19-96.92-148.22-231.6-7.19-96.34,44.78-210.99,150.28-331.53,104.1-118.93,258.25-241.34,445.79-353.99,12.31-7.39,28.51-6.05,39.2,3.25,10.68,9.3,13.08,24.14,5.81,35.92-1.15,1.97-133.58,237.7-52.16,434.43,101.71,245.75,104.85,337.81,107.89,426.84,1.89,55.54,3.68,107.99,32.64,199.85,3.28,10.42.08,21.65-8.33,29.23-38.84,34.98-124.8,83.18-222.91,73.3Zm44.7-1098.44c-142.28,93.32-259.77,191.29-343.12,286.52-95.24,108.81-142.37,209.29-136.3,290.59,8.24,110.54,109.69,179.97,121.23,187.52l1.8,1.14c49.11,31.17,77.31,72.99,104.59,113.43,33.4,49.51,67.94,100.71,144.76,140.09,101.17,51.91,192.76-.76,226.89-25.29-25.88-88.09-27.75-142.93-29.56-196.08-2.87-84.17-5.85-171.21-103.74-407.74-58.46-141.26-22.2-294.65,13.45-390.17Z"/>
            <g>
              <path class="cls-7" d="m3674.22,1713.69c-7.1,17.4-21.38,40.19-39.21,66.25-51.24,74.72-131.78,175.87-154.94,251.09-24.81,35.18-53.54,66.12-92.73,84.94-40.45,19.42-81.98,28.63-121.05,31.75-104.96,8.35-191.92-27.54-191.92-27.54,0,0-20.9-138.57,21.3-284.84,28.35-98.48,175.53-491.25-91.86-801.37l10.91,1.1s445.03,228.41,602.49,394.77c78.62,83.13,91.9,197.52,57.02,283.85Z"/>
              <g class="cls-6">
                <path class="cls-14" d="m3674.22,1713.69c-7.1,17.4-21.38,40.19-39.21,66.25,5.28-51.99-.68-104.89-17.98-154.65-33.57-96.13-109.62-179-206.93-225.32-15.67-7.47-33.24-14.19-50.45-10.68-26.5,5.41-41.02,33.55-39.47,58.51,1.62,24.97,14.93,47.77,25.93,70.7,52.04,108.61,53.91,236.83,4.9,346.69-28.65,64.33-73.98,122.98-89.43,191.05-6.73,29.58-5.16,62.33,4.71,91.48-104.96,8.35-191.92-27.54-191.92-27.54,0,0-20.9-138.57,21.3-284.84,28.35-98.48,175.53-491.25-91.86-801.37l10.91,1.1s445.03,228.41,602.49,394.77c78.62,83.13,91.9,197.52,57.02,283.85Z"/>
              </g>
            </g>
            <path class="cls-14" d="m3186.35,2175.62c-70.56-7.1-120.93-27.44-124.78-29.03-9.86-4.07-16.76-12.54-18.25-22.41-.89-5.9-21.28-146.09,22.06-296.27,1.96-6.8,4.48-15,7.39-24.46,39.85-129.65,145.72-474.02-93.49-751.45-7.88-9.13-9.03-21.75-2.92-31.97,6.11-10.23,18.27-16.06,30.85-14.8l10.91,1.1c4.16.42,8.19,1.6,11.83,3.48,18.36,9.43,451.63,232.8,610.86,401.02,80.55,85.17,105.19,208.02,62.79,312.98,0,.01,0,.02-.01.03-12.57,31.03-42.92,73.46-78.06,122.58-46.11,64.48-98.37,137.56-115.3,192.53-.86,2.79-2.17,5.45-3.88,7.88-20.43,28.97-53.49,70.31-104.54,94.82-75.43,36.21-153.29,40.24-215.46,33.98Zm-82.81-76.15c42.68,13.51,161.52,42.6,269.34-9.16,28.37-13.62,52.68-35.78,78.45-71.58,20.69-62.7,74.38-137.78,121.88-204.19,31.66-44.27,61.57-86.09,71.66-110.98,28.24-69.93,23.34-175.8-51.28-254.69-107.12-113.17-355.82-258.5-495.1-335.36,165.37,280.25,68.77,594.55,34.59,705.71-2.8,9.11-5.23,16.99-7.11,23.55-31.69,109.8-26.17,216.51-22.43,256.7Zm570.69-385.78h.07s-.07,0-.07,0Z"/>
            <path class="cls-3" d="m2369.87,2631c-77.27,86.14-318.17,95.49-481.67-115.85-86.16-111.39-97.13-257.98-88.18-371.66,1.99-26.21,5.13-50.7,8.66-72.6v-.07c10.09-63.29,23.3-105.03,23.3-105.03l498.8-9.73c19.68,23.59,33.92,48.52,43.83,74.03v.07c66.21,170.05-59.86,365.63-59.86,365.63,112.36,31.75,121.23,161.48,55.12,235.21Z"/>
            <path class="cls-14" d="m1843.97,1969.04c-8.67,55.56-14.3,112.07-15.96,167.71-1.61,55.73.96,111.1,9.5,164.98,8.7,53.67,22.2,106.8,48.72,154.01,13.04,23.62,28.83,45.48,47.49,66.62,18.37,20.95,38.59,40.35,60.62,57.57,43.98,34.32,95.4,60.41,150.39,72.11,27.37,6.1,55.53,8.34,83.03,6.79,27.37-1.77,54.47-7.36,77.64-18.1,11.57-5.31,22.16-11.78,30.99-19.29l3.32-2.8,2.95-3,2.97-2.98,2.91-3.43c3.93-4.55,7.35-9.53,10.66-14.57,12.71-20.46,20.17-44.35,20.76-68,.41-11.82-.93-23.55-4.02-34.59-2.98-11.09-7.78-21.46-14.25-30.56-12.69-18.43-32.42-31.24-56.08-38.02h-.02c-16.37-4.35-25.82-20.11-21.12-35.22.52-1.67,1.19-3.26,2-4.77l1.35-2.47c1.78-3.27,4.12-7.75,6.11-11.75l6.23-12.46c4.01-8.42,8.08-16.85,11.84-25.4,7.71-17.04,14.55-34.39,20.96-51.81,6.32-17.45,11.75-35.11,16.47-52.84,4.48-17.77,8.37-35.62,10.98-53.56,2.33-17.95,3.74-35.91,3.89-53.87-.18-17.93-1.41-35.8-4.48-53.51l-2.42-13.29c-.99-4.39-2.23-8.72-3.32-13.12-1.03-4.43-2.42-8.73-3.84-13.06-1.5-4.29-2.53-8.81-4.42-12.99-6.22-17.34-15.03-33.83-24.25-50.75l-.31-.57c-2.92-5.35-.59-11.87,5.21-14.57,4.64-2.16,10.11-1.19,13.6,2.02,15.55,14.35,29.76,30.49,41.19,48.4,11.31,17.91,20.87,37.07,27.56,57.1,13.38,40.09,17.46,82.49,14.4,123.74-1.43,20.66-4.48,41.1-8.95,61.2-4.29,20.13-10.01,39.91-16.91,59.26-6.8,19.38-14.88,38.31-23.97,56.81-4.63,9.22-9.33,18.41-14.57,27.4-2.63,4.5-5.23,9.01-8.05,13.46-2.91,4.57-5.54,8.63-9.06,13.73l-17.77-42.45h.03c35.49,9.79,69.77,31.68,90.31,61.84,10.52,14.84,17.93,31.16,22.44,47.81,4.63,16.65,6.48,33.64,5.93,50.4-.96,33.54-11.11,66.29-29.18,95.44-4.67,7.21-9.62,14.31-15.31,20.96l-4.27,5-4.84,4.96-4.9,4.9-5.21,4.48c-13.96,11.87-29.55,21.21-45.69,28.62-16.16,7.44-32.97,12.9-49.97,16.7-17,3.78-34.19,6.38-51.37,7.29-34.33,1.95-68.6-.91-101.46-8.2-66.04-14.1-126.16-44.93-176.61-84.3-25.26-19.75-48.17-41.76-68.77-65.25-20.34-23.27-39.68-48.84-55.2-76-31.24-54.25-50.16-113.37-58.39-172.76-8.15-59.5-6.3-119.18,2.13-177.39,2.01-14.57,4.57-29.06,7.61-43.44,2.82-14.41,6.31-28.69,10.11-42.88,7.7-28.44,16.63-56.19,28.78-83.75,2.6-5.91,9.91-8.75,16.31-6.35,5.44,2.04,8.48,7.21,7.68,12.34l-.08.48Z"/>
            <path class="cls-14" d="m2341.5,2411.72c-2.89,2.53-6.48,6.46-9.6,9.9-3.21,3.58-6.33,7.26-9.31,11.01-5.97,7.49-11.38,15.24-15.82,23.12-4.34,7.83-7.79,15.94-8.64,23.19-.86,7.23.56,13.42,7.46,18.77l.65.5c3.57,2.77,4.03,7.67,1.03,10.97-2.28,2.5-5.92,3.34-9.09,2.39-6.39-1.94-12.94-5.55-17.97-10.87-5.07-5.27-8.37-11.79-10.28-18.15-3.81-12.89-3.23-25.14-1.88-36.74,1.51-11.59,4.2-22.7,7.54-33.51,1.67-5.41,3.5-10.76,5.51-16.07,2.11-5.44,3.95-10.3,6.91-16.32l1.22-2.48c7.45-15.17,26.81-21.9,43.25-15.02,16.44,6.87,23.72,24.74,16.28,39.91-1.77,3.62-4.31,6.81-7.24,9.4Z"/>
            <path class="cls-14" d="m1945.08,1974c18.67-19.21,42.55-32.33,67.6-42.37,25.24-9.76,52.41-15.92,80.24-17.43,27.75-1.63,56.25,1.39,82.76,9.85,26.47,8.32,51.03,22.25,68.94,41.83-27.56-3.6-51.99-7.32-76.52-8.44-24.34-1.52-48.24-1.28-72.33.05-24.09,1.25-48.34,3.83-73.17,6.88-24.94,2.99-50.07,6.65-77.51,9.62Z"/>
            <path class="cls-14" d="m1910.85,2140.85c22.56-24.48,52.1-42.35,83.61-55.89,31.72-13.27,66.32-21.73,101.79-23.84,17.72-.91,35.59-.61,53.24,1.6,17.61,2.42,35.06,5.92,51.67,11.65,33.25,11.13,63.56,28.97,86.62,52.76-33.43-8.39-64.49-15.86-95.7-19.69-31.11-3.99-61.9-4.85-92.78-3.04-30.88,1.8-61.77,6.37-92.95,12.74-31.24,6.42-62.53,14.46-95.48,23.71Z"/>
            <path class="cls-14" d="m1958.31,2300.62c7.39-10.07,16.91-18.36,27.03-25.71,5.07-3.73,10.46-6.93,15.89-10.23,5.52-3.07,11.23-5.87,16.99-8.66,23.31-10.44,49.08-16.67,75.34-18.3,13.11-1.19,26.37-.14,39.45.88,13,2.28,26.02,4.05,38.26,8.72,24.83,7.66,47.12,21.48,64.48,39.13-6.69-.23-13.07-.69-19.19-1.41-6.16-.63-11.99-1.74-18.11-1.86-6-.43-11.86-.92-17.58-1.58-5.71-.71-11.61-.44-17.25-.91-11.28-1.08-22.58-.5-33.63-1.04l-16.64.51c-5.53-.2-11.05.41-16.58.82-22.09,1.34-44.3,3.77-67.05,7.33-22.87,3.5-45.85,7.91-71.42,12.3Z"/>
            <path class="cls-14" d="m1987.28,2423.91c19.93-1.55,37.07-1.51,53.91-1.54l48.48.17c7.93.21,15.72-.22,23.69,0,3.97.03,7.87-.4,11.91-.28,4.04.06,8.07-.03,12.11-.28,16.62.16,33.03-1.72,53.44-.97-10.91,15.29-26.73,27.06-44.58,34.1l-6.71,2.78c-2.29.75-4.61,1.35-6.93,2.03-4.64,1.36-9.37,2.53-14.12,3.51-9.55,1.53-19.26,2.73-28.93,2.49-19.35-.06-38.51-3.55-56.14-10.32-17.46-7-34.11-16.62-46.13-31.69Z"/>
            <path class="cls-14" d="m2119.63,2584.74c16.73-3.21,30.68-4.73,43.86-6.09,13.11-1.3,25.04-2.51,36.36-3.81,11.38-1.38,21.74-3.38,33.35-6.01,2.81-.81,5.81-1.5,9.01-2.17,2.87-1.09,5.99-2.08,9.3-3.09,7.01-1.7,13.01-5.1,21.86-7.36-.04,3.93-.73,7.71-1.6,11.55-.37,1.97-.98,3.82-1.54,5.75-.63,1.87-1.67,3.49-2.53,5.28-1.91,3.44-4.01,6.9-6.36,10.27-2.68,3.01-5.61,5.94-8.7,8.79-12.66,10.86-29.54,18.11-46.43,19.98-16.9,2.02-33.64-.17-48.58-5.61-14.83-5.65-28.56-14-38-27.48Z"/>
            <ellipse class="cls-14" cx="1570.53" cy="1806.15" rx="201.74" ry="146.98" transform="translate(-352.43 3231.28) rotate(-85.53)"/>
            <ellipse class="cls-1" cx="1629.72" cy="1765.79" rx="41.66" ry="68.63" transform="translate(-5.99 5.55) rotate(-.19)"/>
            <g class="cls-9">
              <ellipse class="cls-1" cx="1501.03" cy="1888.25" rx="24.51" ry="53.04" transform="translate(-542.77 607.05) rotate(-19.44)"/>
            </g>
            <path class="cls-14" d="m1347.08,1625.01c5.45,5.02,12.73,10.19,19.81,14.29,7.24,4.17,14.86,7.66,22.66,10.42,15.62,5.54,31.99,7.92,48.07,7.6,16.13-.47,31.96-3.54,47.17-8.8,15.22-5.16,29.82-12.24,43.74-20.66l22.03,2.22c14.52,1.46,25,13.5,23.42,26.9-.31,2.58-1.09,5.12-2.18,7.37-1.19,2.43-1.84,3.47-2.74,5.04l-2.53,4.1c-1.7,2.67-3.45,5.22-5.28,7.71-3.63,4.99-7.47,9.76-11.61,14.33-8.2,9.15-17.4,17.58-27.65,24.96-20.36,14.82-45.16,25.28-70.64,28.71-12.72,1.73-25.41,1.9-37.76.94-12.27-1.33-24.29-3.3-35.64-6.64-22.88-6.28-43.66-15.9-62.94-26.9-5.87-3.35-7.69-10.46-4.06-15.88,3.31-4.94,10.01-6.77,15.62-4.51l.09.04c19.31,7.76,39.22,13.72,58.98,16.33,9.86,1.54,19.64,1.7,29.15,1.5,9.48-.58,18.65-1.99,27.31-4.41,17.33-4.87,32.31-14.01,44.54-25.93,6.13-5.94,11.55-12.64,16.2-19.77,2.35-3.54,4.48-7.22,6.37-10.91.96-1.84,1.84-3.71,2.63-5.51l1.11-2.66c.27-.71.75-1.96.6-1.86l43.26,36.49c-19.08,6.97-39.16,12.36-59.91,15.2-20.68,2.95-42.13,3.03-62.88-.37-20.74-3.51-40.58-10.59-57.79-20.78-8.62-5.09-16.61-10.88-23.89-17.28-7.31-6.57-13.67-13.1-19.64-21.52-2.7-3.8-1.55-8.9,2.58-11.4,3.59-2.17,8.26-1.64,11.19,1.05l.64.6Z"/>
            <ellipse class="cls-11" cx="2764.23" cy="2043.26" rx="93.23" ry="43.84" transform="translate(-281.99 450.65) rotate(-8.87)"/>
            <ellipse class="cls-14" cx="2609.79" cy="1774.93" rx="201.74" ry="146.98" transform="translate(637.04 4238.59) rotate(-85.53)"/>
            <path class="cls-14" d="m2852.33,1626.27c-5.26,4.02-12.13,8.02-18.73,11.08-6.74,3.1-13.74,5.57-20.82,7.35-14.19,3.59-28.72,4.29-42.71,2.59-14.03-1.84-27.54-5.99-40.29-12.04-12.76-5.97-24.8-13.6-36.1-22.39l-19.45.05c-12.82.03-23.17,9.92-23.14,22.08,0,2.34.44,4.69,1.16,6.8.79,2.29,1.26,3.28,1.89,4.76l1.8,3.9c1.22,2.55,2.49,4.99,3.83,7.39,2.67,4.8,5.54,9.42,8.7,13.88,6.24,8.94,13.42,17.3,21.63,24.83,16.28,15.09,36.88,26.66,58.78,31.97,10.92,2.67,21.99,3.94,32.86,4.17,10.84-.11,21.53-.82,31.77-2.83,20.6-3.62,39.7-10.42,57.64-18.6,5.46-2.49,7.76-8.71,5.14-13.89-2.39-4.73-8.06-6.96-13.18-5.42l-.08.03c-17.63,5.27-35.61,8.86-53.11,9.47-8.76.52-17.31-.2-25.59-1.21-8.22-1.35-16.08-3.43-23.4-6.36-14.64-5.89-26.79-15.41-36.27-27.19-4.76-5.87-8.82-12.36-12.16-19.16-1.7-3.38-3.18-6.87-4.46-10.35-.66-1.73-1.24-3.49-1.74-5.18l-.7-2.49c-.16-.66-.46-1.83-.34-1.72l-41.42,28.93c15.95,7.93,32.94,14.53,50.76,18.91,17.75,4.46,36.47,6.42,54.92,5.2,18.45-1.33,36.48-5.93,52.53-13.57,8.03-3.81,15.59-8.31,22.58-13.4,7.04-5.25,13.24-10.55,19.3-17.58,2.74-3.17,2.24-7.85-1.1-10.45-2.92-2.27-7.04-2.2-9.87-.04l-.62.48Z"/>
            <ellipse class="cls-1" cx="2684.76" cy="1713.62" rx="41.66" ry="68.63" transform="translate(-5.81 9.14) rotate(-.19)"/>
            <g class="cls-9">
              <ellipse class="cls-1" cx="2545.42" cy="1877.44" rx="24.69" ry="52.64" transform="translate(-149.84 222.29) rotate(-4.86)"/>
            </g>
          </g>
          <g>
            <path class="cls-1" d="m3148.6,558.85c-31.98-48.28-47.74-106.24-41-166.87,16.37-147.17,158.93-254.22,318.4-239.11,159.48,15.11,275.48,146.66,259.11,293.83-16.37,147.17-158.93,254.22-318.4,239.11-44.36-4.2-85.34-17.44-121.05-37.49l-134.33,27.8,37.27-117.27Z"/>
            <g class="cls-4">
              <path class="cls-1" d="m3372.41,204.12c148.97-14.12,283.15,78.38,313.52,210.59.04-9.44-.4-18.97-1.47-28.58-16.37-147.17-158.93-254.22-318.4-239.11-159.48,15.11-275.48,146.66-259.11,293.83,1.07,9.65,2.72,19.11,4.85,28.39.56-135.2,111.59-251,260.61-265.12Z"/>
            </g>
            <path class="cls-14" d="m3364.11,709.25c-43.63-4.14-84.85-16.21-122.67-35.91l-124.51,25.77c-8.85,1.82-18.04-.79-24.22-6.88-6.18-6.09-8.41-14.74-5.87-22.75l34.17-107.5c-32.12-52.6-45.51-111.98-38.8-172.42,8.62-77.44,49.4-147.15,114.83-196.28,65.43-49.13,147.7-71.79,231.59-63.87,83.92,7.95,159.45,45.58,212.7,105.96,53.24,60.38,77.82,136.28,69.21,213.71-8.62,77.44-49.4,147.15-114.83,196.28-56.86,42.7-126.41,65.42-198.74,65.42-10.9,0-21.87-.52-32.85-1.56Zm-134.84-479.41c-54.85,41.19-89.04,99.62-96.26,164.54-5.96,53.62,6.96,106.24,37.38,152.18,3.76,5.67,4.74,12.54,2.71,18.92l-25.07,78.9,92.05-19.05c6.45-1.32,13.21-.3,18.86,2.86,33.73,18.93,70.87,30.43,110.39,34.18,70.33,6.65,139.3-12.34,194.14-53.54,54.85-41.19,89.04-99.62,96.26-164.54,7.22-64.91-13.37-128.54-58.01-179.16-44.63-50.62-107.96-82.17-178.3-88.83-9.21-.87-18.4-1.31-27.54-1.31-60.62,0-118.94,19.05-166.6,54.85Z"/>
            <g class="cls-10">
              <path class="cls-14" d="m3141.72,556.28c79.51,62.06,189.04,89.24,297.81,64.25,120.63-27.71,209.51-112.47,241.47-215.35.76,13.64.42,27.51-1.14,41.52-16.37,147.17-158.93,254.22-318.4,239.11-44.36-4.2-85.34-17.44-121.05-37.49l-134.33,27.8,37.27-117.27c-.56-.85-1.08-1.72-1.63-2.57Z"/>
            </g>
            <g>
              <g>
                <ellipse class="cls-16" cx="3394.17" cy="395.64" rx="204.08" ry="203.65"/>
                <path class="cls-1" d="m3394.17,609.43c-118.13,0-214.24-95.91-214.24-213.79s96.11-213.79,214.24-213.79,214.24,95.91,214.24,213.79-96.11,213.79-214.24,213.79Zm0-407.31c-106.93,0-193.93,86.81-193.93,193.52s87,193.52,193.93,193.52,193.93-86.81,193.93-193.52-87-193.52-193.93-193.52Z"/>
              </g>
              <path class="cls-1" d="m3289.55,492.89l15.21-56.63c-8.61-15.5-13.14-32.88-13.14-50.52,0-57.66,47.01-104.57,104.79-104.57s104.79,46.91,104.79,104.57-47.01,104.57-104.79,104.57c-17.35,0-34.48-4.37-49.81-12.67l-57.04,15.25Zm59.88-36.47l3.59,2.14c13.19,7.84,28.19,11.99,43.38,11.99,46.86,0,84.98-38.04,84.98-84.8s-38.12-84.8-84.98-84.8-84.98,38.04-84.98,84.8c0,15.44,4.3,30.64,12.43,43.97l2.2,3.61-8.49,31.62,31.86-8.52Z"/>
              <path class="cls-2" d="m3435.39,400.28c-4.31-2.57-9.92-5.45-15.01-3.37-3.9,1.59-6.39,7.68-8.91,10.79-1.3,1.6-2.84,1.85-4.83,1.05-14.63-5.82-25.85-15.56-33.92-29-1.37-2.09-1.12-3.73.53-5.67,2.44-2.86,5.5-6.12,6.16-9.98.66-3.86-1.16-8.38-2.75-11.82-2.04-4.4-4.33-10.66-8.74-13.15-4.06-2.29-9.4-1.01-13.01,1.93-6.24,5.07-9.25,13.01-9.15,20.88.02,2.24.3,4.47.82,6.63,1.26,5.19,3.66,10.04,6.37,14.65,2.04,3.47,4.26,6.85,6.65,10.09,7.83,10.61,17.56,19.83,28.84,26.72,5.63,3.44,11.7,6.46,17.98,8.53,7.05,2.32,13.32,4.74,20.93,3.3,7.97-1.51,15.82-6.43,18.98-14.09.94-2.27,1.4-4.79.88-7.19-1.08-4.95-7.8-7.9-11.82-10.29Z"/>
            </g>
          </g>
        </g>
      </g>
    </g>
  </g>
</svg>