<?xml version="1.0" encoding="UTF-8"?>
<svg id="Capa_1" data-name="Capa 1" xmlns="http://www.w3.org/2000/svg" viewBox="0 0 32 32">
  <defs>
    <style>
      .cls-1 {
        fill: #f9bdbd;
      }

      .cls-2 {
        fill: #f3f2f2;
      }

      .cls-3 {
        fill: #cbc8c3;
      }

      .cls-4 {
        fill: none;
      }

      .cls-5 {
        fill: #afa79c;
      }

      .cls-6 {
        fill: #714039;
      }
    </style>
  </defs>
  <rect class="cls-4" x="0" width="32" height="32"/>
  <path class="cls-6" d="m23.09,23.08c.33.01.67.01,1.01-.01,1.2-.08,2.01.8,2.09,2.01.1,1.5-.34,2.76-1.33,3.8-.61.64-1.27.79-2.18.74-.78-.04-1.55-.12-2.32-.22-.03,0-.06,0-.08.02-.75.52-2.49.59-3.21-.03-.13-.11-.23-.24-.31-.39-.05-.1-.11-.1-.16,0-.18.32-.45.53-.81.64-.91.26-1.92.34-2.73-.21-.02-.02-.05-.02-.08-.02-1.21.16-2.17.24-2.88.24-2.57,0-4.31-5.49-1.64-6.48.51-.19,1.23-.07,1.82-.09.06,0,.1-.04.11-.1.06-.39.16-.78.3-1.15.02-.06,0-.12-.05-.15l-.58-.33c-.06-.03-.12-.01-.16.05,0,0,0,0,0,0-.24.5-.46.85-.67,1.07-2.33,2.41-5.43-1.22-6.59-3.09-.22-.35-.43-.63-.62-.84-1.2-1.27-2.67-2.08-1.73-4.08,1.57-3.32,5.23-3.99,8.44-3.33.05.01.1-.02.13-.06.75-1.51,1.78-2.59,3.09-3.25.19-.1.38-.19.58-.28.06-.03.08-.1.06-.16,0,0,0,0,0-.01-.31-.54-.18-.92.4-1.14.05-.02.08-.07.08-.12-.06-.66.28-1.05.89-.82.12.05.24.1.36.15.05.03.12,0,.15-.05.62-1.06,1.98.66,2.31,1.19.02.03.05.05.09.05,2.03.12,3.87.79,5.35,2.23.04.04.09.04.14.02,2.85-1.73,6.44-2.22,8.92.4,1.49,1.58.29,2.86-.35,4.45-.1.24-.22.65-.35,1.22-.46,1.93-2.18,6.39-4.94,5.03-.49-.24-.96-.61-1.39-1.1-.04-.05-.12-.05-.16,0,0,0,0,0-.01.02-.48.66-1.08,1.17-1.8,1.54-.05.03-.08.09-.06.15.31.77.57,1.57.76,2.38.01.05.06.09.11.09Zm-14.01-4.61c.31,1.21,1,2.02,2.08,2.43,1.41.54,2.9.65,4.46.31.06-.01.1-.08.09-.14,0-.02-.01-.04-.02-.05-.18-.24-.38-.44-.61-.62-.39-.39-.83-.71-1.33-.95-.02-.01-.04-.01-.07,0-.27.05-1.74.04-1.01-.52.03-.02.07-.03.1-.02.31.09.62.09.93,0,.03,0,.05,0,.08,0,1.04.47,3.82,2.44,2.5,3.81-.54.56-1.22.62-1.74,0-.12-.14-.26-.29-.4-.42-.05-.04-.12-.04-.16,0,0,0,0,0,0,0-.19.24-.45.43-.78.57-.19.08-.24.19-.15.31.02.03.06.05.09.05h.92s.04,0,.06.02c.64.4,1.03.62,1.16.66.51.18.87.26,1.09.23,2.2-.28,3.49-1.5,3.86-3.66.17-.98-.22-1.95.3-2.86.01-.02.03-.04.05-.05l.58-.29s.06-.02.09,0c.62.23-.13.61-.32.7-.03.01-.05.04-.06.07-.14.41-.17.82-.11,1.25l.03.66c0,.07.06.12.12.11,0,0,.02,0,.03,0,.7-.23,1.31-.58,1.84-1.06,1.11-1.01,1.54-2.42,1.38-3.92-.2-1.69-.85-3.29-1.93-4.79-1.4-1.94-3.61-2.73-5.89-2.74-.05,0-.09-.03-.11-.07-.19-.43-.45-.8-.77-1.12-.05-.05-.12-.04-.16,0,0,.01-.02.02-.02.04-.05.13-.11.24-.16.34-.13.25-.35.41-.53.08-.03-.05-.05-.05-.07,0,0,.02,0,.04,0,.07.05.25.04.5-.02.75,0,.03-.02.05-.04.07-.37.28-.35-.07-.52-.25-.01-.01-.03-.02-.04-.04-.09-.08-.14-.05-.15.07-.02.34-.2.59-.54.74-.83.37-1.76.91-2.38,1.55-1.62,1.67-2.11,4.63-2.01,6.88.03.75.13,1.35.29,1.79Zm13.9-7.99c1.31,2.13,2.05,4.34,1.47,6.86-.1.15-.16.27-.04.43.5.7,1.54,1.82,2.48,1.59,1.65-.39,2.7-3.56,3.02-5.06.24-1.17.93-2,1.23-3.1.11-.39.07-.7-.11-.92-1.29-1.6-2.92-2.24-4.9-1.93-1.19.19-2.37.65-3.53,1.38-.05.03-.07.11-.04.16,0,0,0,0,0,.01l.41.56Zm-13.82,9.48c-1.21-1.98-1.02-4.96-.46-7.19l.17-.61c.02-.06-.02-.13-.08-.15,0,0,0,0,0,0-1.34-.29-2.69-.3-4.03-.04-1.72.34-2.97,1.32-3.75,2.92-.35.73-.15,1.4.4,1.9.84.77,1.4,1.3,2.01,2.25.88,1.38,4.06,5.28,5.58,2.31.22-.43.37-.75.45-.97.01-.04,0-.09-.02-.12l-.25-.3Zm6.92,6.59l.2.95c.01.05.06.09.11.09h.56c.05,0,.1-.04.11-.09l.22-.98c.21-.72.5-1.41.87-2.07.02-.03.04-.05.07-.06.18-.05.3.02.36.18.01.03.01.06,0,.09l-.26.6c-.39.76-.65,1.57-.77,2.43,0,.07.03.13.1.14,0,0,.02,0,.02,0,.22-.02.41.07.55.25.03.04.08.05.13.04.22-.08.42-.04.61.12.04.03.08.03.12.01.3-.16.56-.13.77.1.04.05.12.05.16,0,0,0,.01-.02.02-.03.58-1.04,1.15-2.09,1.69-3.15.68-1.33.36-2.56-.24-3.86l-.25-.65c-.02-.06-.08-.09-.14-.07l-.33.09s-.07.05-.08.09c-.52,2.31-1.9,3.6-4.14,3.87-.2.02-.41.02-.61-.01-.17-.03-.33-.06-.5-.1-.13-.03-.16.02-.1.14.3.61.55,1.25.76,1.9Zm-4.69-1.96c.58,1.27,1.22,2.51,1.92,3.72.03.06.1.08.16.04,0,0,.02-.01.02-.02.21-.22.47-.25.77-.09.04.02.09.02.12-.01.19-.16.39-.19.62-.11.05.02.1,0,.13-.04.14-.18.32-.27.54-.25.06,0,.12-.05.12-.11,0,0,0-.02,0-.02-.13-.89-.4-1.73-.81-2.52-.05-.14-.11-.28-.18-.41-.06-.1-.05-.21.03-.31.04-.05.03-.13-.02-.17,0,0,0,0-.01,0l-.84-.51s-.04-.02-.06-.02l-1.12-.02s-.07-.02-.09-.04c-.34-.43-.3-.83.12-1.19.14-.12.46-.17.62-.36.02-.02.03-.04.05-.06.1-.12.07-.19-.09-.19-.53-.02-1.05-.1-1.57-.23-.06-.01-.11.02-.13.07-.37.96-.61,1.81-.29,2.85Zm4.75-2.62s.02-.06.01-.09c-.04-.15-.11-.22-.22-.19-.41.1-.82.16-1.24.19-.14,0-.17.07-.09.19.12.16.26.31.42.44.52.42.85-.09,1.11-.53Zm-5.74,6.7c.71-.28.92-1.54.45-2.81,0,0,0,0,0,0-.46-1.28-1.42-2.09-2.13-1.81-.71.28-.92,1.54-.45,2.81h0c.46,1.28,1.42,2.09,2.13,1.81Zm.32-4.14s.03.04.04.06c.12.16.15.14.1-.05l-.12-.46c-.01-.05-.06-.09-.11-.09h-.13c-.18,0-.21.07-.08.2.04.04.08.09.12.13.06.06.12.13.18.21Zm11.81-.29c-.02.07-.03.15-.05.23-.05.24,0,.26.13.06.09-.14.2-.26.32-.38.12-.11.09-.17-.06-.16h-.19c-.05,0-.1.04-.11.09-.01.06-.02.11-.04.16Zm.41,4.43c.71.28,1.67-.53,2.13-1.81.46-1.28.26-2.54-.45-2.81-.71-.28-1.67.53-2.13,1.81s-.26,2.54.45,2.81Zm-2.25-.13l1.22.13c.13.01.17-.04.12-.17-.35-.79-.39-1.61-.12-2.45,0-.02,0-.03,0-.05-.01-.03-.03-.03-.04,0l-1.26,2.37c-.03.06-.01.13.04.16.01,0,.03.01.04.01Zm-9.1-1.07c-.03.36-.12.71-.28,1.03-.07.13-.03.19.11.17l1.23-.13c.06,0,.11-.06.1-.13,0-.02,0-.03-.01-.05-.4-.74-.8-1.49-1.19-2.24-.02-.04-.05-.05-.07-.04-.02,0-.03.03-.02.05.12.44.16.89.13,1.34Zm4.22,1.05c0-.1-.08-.18-.17-.18h0c-.09,0-.17.08-.17.18h0c0,.1.08.18.17.18s.17-.08.17-.18Zm2.05,0c0-.1-.08-.18-.17-.18-.09,0-.17.08-.17.18h0c0,.1.08.18.17.18h0c.09,0,.17-.08.17-.18Zm-3.11.33c.06.03.12.01.16-.05,0-.01.01-.02.01-.04.06-.32-.47-.09-.17.08Zm3.9-.02c.04-.06.03-.14-.03-.19h0c-.06-.05-.14-.04-.18.02,0,0,0,0,0,0-.04.06-.03.14.03.19h0c.06.05.14.04.18-.02,0,0,0,0,0,0Zm-4.8-.12s0,.09.04.11c.03.02.06,0,.08-.02.04-.06.03-.11-.04-.13-.03-.01-.06,0-.07.04Zm5.51.08l.04.03c.06.04.09.03.09-.05,0-.08-.03-.11-.11-.1-.1.02-.1.05-.03.11Z"/>
  <path class="cls-3" d="m24.14,15.08l-.08.05s-.06.05-.06.09c-.18,1.92-1.47,3.55-3.27,4.08-.07-.42-.03-.84.11-1.25.01-.03.03-.06.06-.07.19-.09.94-.48.32-.7-.03-.01-.06,0-.09,0l-.58.29s-.04.03-.05.05c-.52.91-.13,1.88-.3,2.86-.37,2.16-1.65,3.38-3.86,3.66-.22.03-.59-.05-1.09-.23-.13-.05-.52-.27-1.16-.66-.02-.01-.04-.02-.06-.02h-.92s-.07-.02-.09-.05c-.09-.13-.05-.23.15-.31.33-.14.59-.33.78-.57.04-.05.11-.06.16-.02,0,0,0,0,0,0,.15.14.28.28.4.42.53.62,1.21.56,1.74,0,1.32-1.37-1.45-3.35-2.5-3.81-.02-.01-.05-.01-.08,0-.31.09-.62.09-.93,0-.03,0-.07,0-.1.02-.73.55.74.57,1.01.52.02,0,.05,0,.07,0,.5.24.94.56,1.33.95-.98.18-1.96.2-2.95.08-1.33-.17-2.35-.84-3.05-2.01-.16-.45-.26-1.04-.29-1.79-.1-2.25.39-5.21,2.01-6.88.62-.64,1.55-1.18,2.38-1.55.34-.15.51-.4.54-.74,0-.12.06-.15.15-.07.01.01.03.02.04.04.18.18.16.52.52.25.02-.02.04-.04.04-.07.06-.25.06-.5.02-.75,0-.03,0-.05,0-.07.02-.06.04-.06.07,0,.18.33.41.17.53-.08.05-.1.11-.22.16-.34.03-.06.09-.09.15-.06.01,0,.02.01.03.02.32.32.58.7.77,1.12.02.04.06.07.11.07,2.28,0,4.49.81,5.89,2.74,1.09,1.5,1.73,3.1,1.93,4.79Zm-11.21-6.13c-.38.09-1.91.86-1.76,1.43.05.2.22.15.35.07.48-.29.99-.48,1.54-.58.02,0,.04-.01.06-.03.3-.28.46-1.04-.19-.89Zm-2.59,3.34c.14.14.44.05.68-.2.24-.25.32-.56.19-.7h0c-.14-.14-.44-.05-.68.2-.24.25-.32.56-.19.7h0Zm11.9,3c0-.58-.46-1.06-1.02-1.06h0c-.57,0-1.02.47-1.02,1.06h0c0,.58.46,1.06,1.02,1.06s1.02-.47,1.02-1.06Zm-9.33,1.83c0-.59-.46-1.06-1.03-1.06h0c-.57,0-1.03.47-1.03,1.06s.46,1.06,1.03,1.06,1.03-.47,1.03-1.06h0Zm10.53-.34c-.02-.28-.37-.48-.78-.44,0,0,0,0,0,0-.41.04-.72.29-.69.57.02.28.37.48.78.44,0,0,0,0,0,0,.41-.04.72-.29.69-.57h0Zm-11.86,2.07c-.09-.26-.49-.35-.88-.2,0,0,0,0,0,0-.39.15-.63.48-.53.75h0c.09.26.49.35.88.2,0,0,0,0,0,0,.39-.15.63-.48.53-.75h0Zm7.92,2.05c-.29-.58-.72.8-.82,1.14,0,.02-.02.05-.04.06-.21.16-.49.32-.83.49-.26.13-.4.34-.43.64,0,.07.04.12.11.13.01,0,.03,0,.04,0,1.08-.31,1.75-1.03,2-2.17.02-.11.02-.2-.02-.28Z"/>
  <path class="cls-3" d="m24.45,17.34c.76.61,1.23.95,1.4,1.02,2.04.89,3.18-2.73,3.48-4.09.14-.62.36-1.06.62-1.6.37-.78.62-1.44,0-2.08-1.96-2.05-4.77-1.28-6.98-.12l-.41-.56c-.04-.05-.03-.13.02-.17,0,0,0,0,.01,0,1.16-.73,2.34-1.19,3.53-1.38,1.98-.31,3.61.33,4.9,1.93.18.22.22.53.11.92-.3,1.1-.98,1.93-1.23,3.1-.32,1.5-1.37,4.66-3.02,5.06-.95.23-1.99-.89-2.48-1.59-.12-.16-.06-.29.04-.43Z"/>
  <path class="cls-2" d="m11.16,10.38c-.14-.57,1.38-1.34,1.76-1.43.65-.15.49.61.19.89-.02.02-.04.03-.06.03-.55.1-1.06.29-1.54.58-.14.08-.3.13-.35-.07Z"/>
  <path class="cls-1" d="m24.45,17.34c.58-2.52-.17-4.74-1.47-6.86,2.2-1.17,5.01-1.93,6.98.12.61.64.37,1.31,0,2.08-.26.54-.49.98-.62,1.6-.3,1.36-1.44,4.98-3.48,4.09-.17-.07-.63-.41-1.4-1.02Z"/>
  <ellipse class="cls-2" cx="10.77" cy="11.84" rx=".62" ry=".35" transform="translate(-5.23 11.64) rotate(-47)"/>
  <path class="cls-3" d="m8.7,12.76c-2.34-.43-5.55-.2-6.7,2.4-.29.65-.21,1.27.29,1.75.62.6,1.06.97,1.51,1.67.64,1,2.89,3.8,4.23,2.79.49-.37.87-.84,1.14-1.43l.25.3s.04.08.02.12c-.08.22-.23.54-.45.97-1.51,2.98-4.69-.92-5.58-2.31-.61-.96-1.17-1.49-2.01-2.25-.55-.51-.75-1.18-.4-1.9.77-1.61,2.02-2.58,3.75-2.92,1.35-.27,2.69-.25,4.03.04.06.01.1.08.09.14,0,0,0,0,0,0l-.17.61Z"/>
  <path class="cls-1" d="m8.7,12.76c-.56,2.23-.75,5.22.46,7.19-.26.58-.64,1.06-1.14,1.43-1.35,1.01-3.59-1.79-4.23-2.79-.45-.7-.89-1.08-1.51-1.67-.5-.48-.57-1.1-.29-1.75,1.16-2.6,4.37-2.84,6.7-2.4Z"/>
  <path class="cls-6" d="m22.24,15.28c0,.58-.46,1.06-1.02,1.06s-1.02-.47-1.02-1.06.46-1.06,1.02-1.06h0c.57,0,1.02.47,1.02,1.06h0Zm-.5-.24c0-.2-.15-.36-.34-.36-.19,0-.34.16-.34.36h0c0,.2.15.36.34.36h0c.19,0,.34-.16.34-.36Z"/>
  <ellipse class="cls-2" cx="21.4" cy="15.04" rx=".34" ry=".36"/>
  <path class="cls-5" d="m24.14,15.08c.16,1.51-.27,2.91-1.38,3.92-.53.48-1.14.83-1.84,1.06-.06.02-.13-.01-.14-.08,0,0,0-.02,0-.03l-.03-.66c1.8-.53,3.09-2.16,3.27-4.08,0-.04.03-.07.06-.09l.08-.05Z"/>
  <path class="cls-6" d="m12.91,17.12c0,.59-.46,1.06-1.03,1.06h0c-.57,0-1.03-.47-1.03-1.06s.46-1.06,1.03-1.06,1.03.47,1.03,1.06h0Zm-.5-.24c0-.2-.15-.36-.34-.36h0c-.19,0-.34.16-.34.36s.15.36.34.36c.19,0,.34-.16.34-.36h0Z"/>
  <ellipse class="cls-1" cx="22.7" cy="16.84" rx=".74" ry=".51" transform="translate(-1.44 2.14) rotate(-5.24)"/>
  <ellipse class="cls-2" cx="12.07" cy="16.88" rx=".34" ry=".36"/>
  <path class="cls-5" d="m9.08,18.46c.71,1.17,1.72,1.84,3.05,2.01.98.13,1.97.1,2.95-.08.23.18.44.39.61.62.04.05.03.13-.02.17-.01.01-.03.02-.05.02-1.57.33-3.06.23-4.46-.31-1.08-.42-1.77-1.23-2.08-2.43Z"/>
  <ellipse class="cls-1" cx="10.87" cy="19.11" rx=".76" ry=".5" transform="translate(-6.41 5.52) rotate(-22.19)"/>
  <path class="cls-3" d="m21.49,21.29c.12.95.42,2.25.08,3.15-.37.98-1.23,2.54-2.18,3.1-.59.34-1.17.2-1.24-.6-.02-.28.04-.85.19-1.69l.26-.6s.01-.06,0-.09c-.06-.17-.18-.23-.36-.18-.03,0-.06.03-.07.06-.36.66-.65,1.35-.87,2.07l-1.21.03c-.21-.65-.46-1.28-.76-1.9-.06-.12-.02-.17.1-.14.16.04.33.07.5.1.21.03.41.04.61.01,2.24-.27,3.63-1.55,4.14-3.87,0-.04.04-.08.08-.09l.33-.09c.06-.02.11.01.14.07l.25.65Z"/>
  <path class="cls-2" d="m18.67,22.03c.1-.33.53-1.72.82-1.14.04.08.04.17.02.28-.25,1.14-.91,1.86-2,2.17-.06.02-.12-.02-.14-.08,0-.01,0-.03,0-.04.02-.3.17-.51.43-.64.34-.17.62-.33.83-.49.02-.01.04-.04.04-.06Z"/>
  <path class="cls-5" d="m21.49,21.29c.6,1.3.92,2.53.24,3.86-.54,1.06-1.1,2.11-1.69,3.15-.03.06-.1.08-.16.04,0,0-.02-.01-.02-.02-.21-.22-.47-.25-.77-.1-.04.02-.09.02-.12-.01-.18-.15-.39-.19-.61-.12-.05.02-.1,0-.13-.04-.14-.18-.33-.27-.55-.25-.06,0-.12-.05-.12-.11,0,0,0-.02,0-.03.13-.86.38-1.66.77-2.43-.15.85-.21,1.41-.19,1.69.07.8.65.94,1.24.6.96-.55,1.81-2.12,2.18-3.1.34-.9.04-2.2-.08-3.15Z"/>
  <path class="cls-3" d="m14.99,25.16c.03.4.08.8.14,1.2.1.68.12,1.19-.67,1.27-1.05.1-1.44-.42-2.01-1.31-.34-.52-.64-1.09-.9-1.71-.02-.04-.07-.05-.15-.03-.31-1.04-.08-1.89.29-2.85.02-.05.08-.09.13-.07.52.13,1.04.2,1.57.23.15,0,.18.07.09.19-.02.02-.03.04-.05.06-.16.19-.48.23-.62.36-.42.36-.45.75-.12,1.19.02.03.05.04.09.04l1.12.02s.04,0,.06.02l.84.51c.06.03.07.11.04.16,0,0,0,0,0,.01-.07.1-.08.21-.03.31.07.14.13.28.18.41Z"/>
  <path class="cls-3" d="m16.15,21.96c-.26.44-.59.94-1.11.53-.16-.13-.3-.27-.42-.44-.09-.12-.06-.18.09-.19.42-.03.83-.09,1.24-.19.11-.03.18.04.22.19,0,.03,0,.06-.01.09Z"/>
  <ellipse class="cls-1" cx="9.57" cy="26.34" rx="1.39" ry="2.46" transform="translate(-8.21 4.68) rotate(-19.42)"/>
  <path class="cls-5" d="m10.56,24.3s-.08-.08-.12-.13c-.12-.13-.09-.2.08-.2h.13c.05,0,.1.04.11.09l.12.46c.05.19.01.21-.1.05-.01-.02-.03-.04-.04-.06-.06-.08-.12-.15-.18-.21Z"/>
  <path class="cls-5" d="m22.55,24.23c.01-.05.02-.11.04-.16.01-.05.06-.09.11-.09h.19c.16,0,.18.05.06.16-.12.12-.23.24-.32.38-.14.2-.18.18-.13-.06.02-.08.03-.15.05-.23Z"/>
  <ellipse class="cls-1" cx="23.79" cy="26.35" rx="2.46" ry="1.38" transform="translate(-8.96 40.03) rotate(-70.58)"/>
  <path class="cls-5" d="m11.4,24.58c.08-.03.14-.02.15.03.26.62.56,1.19.9,1.71.57.89.96,1.41,2.01,1.31.78-.08.77-.59.67-1.27-.06-.4-.11-.8-.14-1.2.41.79.69,1.63.81,2.52,0,.06-.03.12-.1.13,0,0-.02,0-.02,0-.22-.01-.4.07-.54.25-.03.04-.08.05-.13.04-.23-.08-.43-.04-.62.11-.04.03-.08.04-.12.01-.3-.16-.56-.13-.77.09-.05.05-.12.05-.16,0,0,0-.01-.02-.02-.02-.69-1.21-1.33-2.45-1.92-3.72Z"/>
  <path class="cls-5" d="m20.7,28.52c-.06,0-.11-.07-.1-.13,0-.02,0-.03.01-.05l1.26-2.37s.03-.03.04,0c0,.01,0,.03,0,.05-.27.85-.23,1.66.12,2.45.06.13.02.18-.12.17l-1.22-.13Z"/>
  <path class="cls-5" d="m11.6,27.45c.03-.45,0-.9-.13-1.34,0-.02,0-.04.02-.05.03-.01.05,0,.07.04.39.75.78,1.49,1.19,2.24.03.06.01.13-.04.16-.01,0-.03.01-.05.02l-1.23.13c-.14.02-.18-.04-.11-.17.16-.32.25-.66.28-1.03Z"/>
  <path class="cls-5" d="m17.29,26.51l-.22.98c-.01.05-.06.09-.11.09h-.56c-.05,0-.1-.04-.11-.09l-.2-.95,1.21-.03Z"/>
  <ellipse class="cls-2" cx="15.66" cy="28.5" rx=".17" ry=".18"/>
  <ellipse class="cls-2" cx="17.7" cy="28.5" rx=".17" ry=".18"/>
  <path class="cls-2" d="m14.77,28.83c-.31-.18.23-.41.17-.08-.01.06-.07.11-.13.1-.01,0-.03,0-.04-.01Z"/>
  <ellipse class="cls-2" cx="18.56" cy="28.72" rx=".13" ry=".14" transform="translate(-14.62 20.46) rotate(-43.14)"/>
  <path class="cls-2" d="m13.95,28.65c.07.02.08.07.04.13-.02.03-.05.04-.08.02-.04-.03-.05-.06-.04-.11.01-.03.04-.05.07-.04Z"/>
  <path class="cls-2" d="m19.41,28.66c.08-.01.12.02.11.1,0,.07-.04.09-.09.05l-.04-.03c-.08-.06-.07-.09.03-.11Z"/>
</svg>