<?xml version="1.0" encoding="UTF-8"?>
<svg id="Capa_2" data-name="Capa 2" xmlns="http://www.w3.org/2000/svg" viewBox="0 0 1000 488.54">
  <defs>
    <style>
      .cls-1 {
        fill: #fff;
      }

      .cls-2 {
        fill: #935234;
      }

      .cls-3 {
        fill: #ffc296;
      }

      .cls-4 {
        fill: #ccd3dc;
      }

      .cls-5 {
        fill: #333;
      }

      .cls-6 {
        fill: #344d73;
      }

      .cls-7 {
        fill: #d87c4b;
      }

      .cls-8 {
        fill: #012150;
      }

      .cls-9 {
        fill: #efa575;
      }
    </style>
  </defs>
  <g id="Capa_1-2" data-name="Capa 1">
    <g>
      <g>
        <g>
          <path class="cls-7" d="m349.33,363.18s-12.14,23.15-4.36,35.17c7.78,12.02,15.88,21.82,30.49,16.16,0,0,4.28-6.6,6.63-7.74,2.35-1.15,21.96-22.71,21.96-22.71l-54.73-20.88Z"/>
          <path class="cls-9" d="m345.86,393.5s.95,7.68,3.95,10.3c3,2.63,11.54,11.36,20.78,7.62,0,0-8.93-1.58-14.58-6.87,0,0-7.74-5.17-10.15-11.06Z"/>
        </g>
        <path class="cls-3" d="m515.83,199.25s-14.3-11.46-45.96-9.96c-31.66,1.51-115.59,12.33-139.75,1.02l-40.79,146.66s15.53,7.23,20.03,13.91c4.5,6.68,29.18,20.4,36.78,22.39,7.6,1.99,34.36,16.42,41.18,24.33,0,0,1.83.91,3.76.17,1.94-.74,27.37,7.79,27.37,7.79l10.69,16.49,19.82-1.97,8.93,12.55,3.98,17.98,21.69,5.79,8.99,4.86s9.53,4.81,11.01,7.27c1.48,2.46,4.41,5.73,13.37,6.21,0,0,6.07,1.73,11.51,4.06,5.44,2.34,31.62,2.2,35.41-6.54,0,0,35.09,2.68,45.63-22.37,0,0,22.79,3.08,28.54-3.94,5.75-7.02,14.73-4.89,11.78-27.64,0,0,22.14-4.81,26.17-13.99,4.02-9.18,12.02-19.71-3.39-34.08s-156.74-171.01-156.74-171.01Z"/>
        <path class="cls-2" d="m423.01,296.52s23.5,19.87,45.38-15.21c0,0-.21,14.66-19.9,24.06-3.28,1.56-6.92,2.25-10.54,1.89-5.65-.56-13.54-2.79-14.94-10.73Z"/>
        <path class="cls-2" d="m439.4,413.55s1.85-13.37-10.25-21.13c0,0,10.46,5.41,13.18,14.05,0,0,12.77-4.61,17.11-2.38,0,0-11.17,1.44-20.04,9.46Z"/>
        <path class="cls-7" d="m420.77,436.14s-2.51,18.9,8.12,26.43c10.62,7.53,21.45,9.75,29.97,1.77s8.12-17.63,13.5-20.45c5.39-2.82,14.66-14.31,2.28-32.2-12.38-17.89-32.51-1.5-37.65,3.75-5.14,5.25-16.22,20.7-16.22,20.7Z"/>
        <g>
          <path class="cls-7" d="m375.47,414.5s-.55,20.16,7.84,27.37,19.52,16.16,37.43-.44c0,0,8.25-11.42,11.26-13.92,3.01-2.49,10.53-11.47,6.64-22.96-3.89-11.5-16.75-19.54-29.06-18.31,0,0-5.09-1.11-23.36,15.11l-10.76,13.15Z"/>
          <path class="cls-9" d="m406.71,395.08s-11.33,12.92-10.79,19.72,5.1,14.03,14.9,14.7c9.8.67,20.44-9.58,22.09-13.65l-26.2-20.77Z"/>
        </g>
        <path class="cls-7" d="m684.48,196c-1.92-4.33-6.99-6.25-11.32-4.32-9.58,4.26-27.69,9.58-51.2,3.95-32.81-7.86-76.36-20.55-82.95-22.49-.5-.15-.97-.34-1.44-.57-2.76-1.37-15.2-6.29-36.89,3.09-1.28.55-2.44,1.37-3.31,2.45-2.11,2.6-11.47,9.8-52.47,25.84-.46.18-.91.4-1.33.66-3.27,1.99-15.31,10.91-14.75,33.89,0,.32,0,.64-.03.96-.35,3.78-2.83,28.49-9.93,44.08-.78,1.7-.94,3.61-.51,5.43,1.43,6.17,6.13,18.91,20.42,16.65,18.49-2.92,29.13-13.1,46.15-52.03l.7-1.81c.11-.25.36-.52.95-.37,1.03.26,10.75-4,11.39-4.97.51-.78,3.9-.1,7.59-1.52,1.94-.75,4.09-.78,6.04-.07,1.59.57,3.61,1.12,5.76,1.23.32.02.63-.02.94-.06.4-.05,1.09-.03,1.66.54.71.7,1.46,1.36,2.34,1.82,7.78,4.14,40.02,22.42,65.13,53.57.33.4.69.78,1.08,1.12,6.31,5.39,61.25,52.41,75.61,67.35,1.7,1.76,4.07,2.63,6.52,2.56.02,0,.05,0,.07,0,1.39,0,2.72-.48,3.97-1.09.2-.1.42-.19.66-.28,2.29-.82,20.99-13.76,27.33-23.41.55-.84,1.22-1.59,2.02-2.2,3.8-2.89,15.49-11.24,28.95-15.49,4.85-1.53,7.27-6.96,5.21-11.61l-54.37-122.91Z"/>
        <path class="cls-2" d="m531.99,254.01s.45.14,1.3.4c.84.27,2.08.66,3.64,1.23,3.11,1.13,7.54,2.79,12.67,5.24,2.56,1.22,5.31,2.62,8.13,4.25,2.82,1.63,5.74,3.47,8.59,5.63,2.85,2.15,5.67,4.58,8.17,7.42,2.51,2.82,4.67,6.13,5.97,9.83l.25.69.18.71.35,1.43c.1.45.2.77.37,1.14.17.36.39.69.66.99.52.6,1.22,1.05,1.97,1.29.19.06.37.11.59.15l.69.14c.46.09.92.19,1.36.26,3.61.64,7.22,1.08,10.72,1.27.44.03.87.05,1.31.08.43,0,.87.02,1.3.03.86,0,1.71.06,2.56.03.84-.01,1.68-.02,2.5-.03.82-.04,1.64-.09,2.44-.13.8-.03,1.59-.11,2.37-.19.78-.08,1.54-.16,2.3-.24.75-.11,1.49-.22,2.21-.33.72-.1,1.43-.21,2.12-.36,1.37-.29,2.71-.51,3.94-.87,1.24-.34,2.43-.58,3.51-.97,1.09-.36,2.11-.67,3.05-1.01.92-.37,1.77-.71,2.53-1.01.38-.16.75-.29,1.08-.44.33-.16.64-.3.93-.44.58-.27,1.07-.51,1.47-.7.8-.38,1.23-.58,1.23-.58,0,0-.41.23-1.18.66-.39.22-.86.48-1.43.79-.28.16-.58.32-.91.5-.33.17-.69.32-1.06.5-.75.34-1.59.73-2.5,1.14-.92.39-1.94.75-3.02,1.16-2.17.79-4.67,1.55-7.45,2.17-.69.18-1.41.31-2.14.44-.73.13-1.47.27-2.23.41-.76.12-1.54.2-2.32.31-.79.1-1.59.21-2.4.26-3.25.33-6.71.38-10.27.25-3.57-.15-7.23-.5-10.94-1.16-.47-.07-.92-.17-1.38-.26l-.69-.13c-.23-.04-.52-.11-.77-.19-1.03-.32-1.97-.93-2.69-1.74-.36-.41-.67-.86-.91-1.35-.24-.47-.41-1.06-.51-1.53l-.33-1.32-.17-.66-.23-.64c-1.18-3.44-3.21-6.59-5.61-9.32-2.4-2.74-5.09-5.17-7.85-7.32-2.77-2.14-5.59-4.04-8.34-5.72-2.75-1.68-5.43-3.16-7.93-4.46-5.01-2.59-9.32-4.52-12.36-5.78-1.53-.63-2.73-1.12-3.55-1.44-.83-.31-1.27-.48-1.27-.48Z"/>
        <path class="cls-9" d="m430.34,262.23c.06-.86.5-1.64,1.22-2.12,3.49-2.32,14.05-8.11,21.85.74,9.48,10.76-11.6,28.58-21.19,29.53-9.59.95-12.52-2.78-11.15-7.3,1.32-4.34,8.61-11.12,9.27-20.86Z"/>
        <path class="cls-9" d="m453.15,410.7s-16.82,12.83-12.59,25.93c4.23,13.11,20.69,6.72,20.69,6.72,0,0,10.21-6.68,11.97-13.81l-20.07-18.84Z"/>
        <path class="cls-2" d="m472.47,230.38s1.32.98,3.18,2.62c.93.81,2,1.79,3.09,2.89,1.09,1.1,2.23,2.31,3.3,3.59.54.64,1.06,1.29,1.56,1.95.5.66.97,1.34,1.36,2.03.19.35.38.69.53,1.05.17.35.3.7.43,1.05.14.34.22.7.33,1.04.1.34.14.68.2,1,.06.32.07.65.09.94,0,.3,0,.59-.02.86-.06.54-.15,1-.29,1.36-.11.37-.27.62-.37.8-.1.17-.16.26-.16.26l-.15-.06s.01-.1.04-.3c.02-.19.08-.46.06-.81.02-.34-.03-.76-.09-1.22-.06-.23-.08-.48-.15-.73-.08-.25-.15-.52-.24-.79-.2-.55-.43-1.13-.72-1.73-.3-.6-.62-1.24-.99-1.88-.35-.65-.74-1.32-1.14-2-.4-.68-.86-1.35-1.32-2.01-1.89-2.64-4.09-5.07-5.76-6.87-1.69-1.78-2.88-2.91-2.88-2.91l.11-.12Z"/>
        <path class="cls-2" d="m498.75,246.11s-.06-.9-.16-2.25c-.05-.67-.11-1.45-.18-2.28-.08-.83-.15-1.71-.26-2.59-.04-.44-.11-.88-.17-1.3-.06-.43-.13-.84-.2-1.25-.07-.4-.16-.79-.22-1.16-.08-.36-.17-.7-.25-1.02-.08-.31-.18-.58-.25-.84-.07-.26-.16-.46-.23-.63-.14-.34-.21-.55-.21-.55,0,0,.11.16.29.46.09.15.21.33.31.57.11.23.25.49.36.8.11.31.24.65.35,1.02.1.37.22.77.31,1.18.08.42.19.85.25,1.29.07.44.14.9.19,1.35.05.45.1.91.13,1.36.04.45.05.89.07,1.31.03.85.03,1.64.01,2.31-.02.67-.06,1.23-.09,1.61-.03.39-.06.6-.06.6Z"/>
        <path class="cls-2" d="m375.46,414.58s.06-.37.24-1.01c.09-.32.21-.7.36-1.14.16-.43.33-.93.57-1.44.22-.53.49-1.08.79-1.66.3-.58.64-1.18,1.02-1.78.39-.59.78-1.22,1.24-1.81.23-.3.46-.6.69-.9.24-.29.49-.58.74-.87.49-.58,1.03-1.12,1.57-1.64.52-.54,1.11-1,1.65-1.46.53-.47,1.12-.84,1.66-1.22.27-.18.53-.37.79-.53.27-.15.53-.29.78-.43.5-.28.95-.53,1.37-.72.42-.19.8-.33,1.1-.46.61-.24.97-.37.97-.37l-15.54,17.43Z"/>
        <path class="cls-2" d="m420.75,441.44s.21-.5.64-1.35c.43-.85,1.06-2.05,1.91-3.45.85-1.39,1.91-2.99,3.23-4.57.68-.78,1.37-1.59,2.21-2.31.4-.38.85-.71,1.3-1.04l.61-.48.32-.25c.1-.09.18-.18.27-.27l.54-.53c.18-.19.34-.39.51-.59.35-.39.66-.81.97-1.23.61-.84,1.18-1.71,1.7-2.57.51-.86.99-1.71,1.42-2.52.42-.82.82-1.6,1.18-2.33.35-.73.67-1.4.93-2,.27-.6.49-1.13.67-1.57.18-.44.31-.79.39-1.03.07-.24.1-.38.1-.38,0,0-.02.14-.04.39-.05.25-.11.62-.24,1.08-.12.46-.27,1.02-.49,1.65-.2.63-.45,1.34-.75,2.1-.29.76-.63,1.58-1.02,2.44-.39.85-.82,1.74-1.32,2.64-.51.89-1.04,1.82-1.67,2.7-.32.44-.63.89-1,1.31-.18.21-.35.43-.54.64l-.62.61c-.21.22-.42.38-.64.54l-.67.51c-.41.31-.84.6-1.22.95-.79.67-1.5,1.41-2.18,2.15-.66.75-1.29,1.49-1.86,2.22-.57.73-1.1,1.42-1.57,2.08-.95,1.31-1.71,2.42-2.24,3.21-.52.79-.82,1.24-.82,1.24Z"/>
        <path class="cls-2" d="m345.24,373.01s17.45,4.11,38.46,20.31c1.81,1.4,4.01,2.22,6.3,2.29.7.02,1.42,0,2.1-.07.61-.07,1.01.61.64,1.1-.91,1.22-3.06,3.37-8.1,6.8,0,0,4.4-4.6,2.16-6.39s-20.18-13.23-41.57-24.05Z"/>
        <path class="cls-2" d="m557.07,326.83c.63,2.71,1.38,5.39,2.19,8.04.82,2.65,1.74,5.27,2.82,7.81.55,1.27,1.13,2.52,1.78,3.72.66,1.19,1.37,2.39,2.23,3.39,1.81,2.02,3.89,3.89,5.94,5.74,2.06,1.85,4.17,3.66,6.28,5.46,2.1,1.81,4.23,3.6,6.36,5.38,4.27,3.55,8.55,7.08,12.88,10.56,4.33,3.47,8.67,6.94,13.06,10.33,2.2,1.69,4.41,3.37,6.62,5.04,2.22,1.66,4.46,3.29,6.75,4.84,1.14.77,2.3,1.53,3.47,2.2.58.33,1.21.67,1.72.81l.09.03.15.03c.08.02.19.05.29.08.19.06.36.12.53.18.34.12.67.26,1,.41,2.6,1.17,4.98,2.7,7.22,4.4,2.23,1.71,4.3,3.62,6.18,5.7,1.87,2.08,3.55,4.34,5.05,6.69l.03.06c-.02-.06-.02-.04-.02-.05,0,0,0,0,0,0,0,0,.02.01.04.02.04.02.08.03.14.04.1.03.23.03.34.04.24,0,.49,0,.74-.03.5-.05,1-.14,1.49-.24.5-.11.99-.22,1.48-.36.49-.13.98-.27,1.47-.42.49-.14.98-.3,1.47-.45.49-.15.97-.31,1.46-.48.97-.32,1.93-.67,2.9-1.01-.95.38-1.9.77-2.86,1.13-.48.18-.96.37-1.44.54-.48.17-.96.35-1.45.51-.49.16-.97.32-1.47.46-.49.15-.99.28-1.49.41-.5.12-1.01.23-1.53.3-.26.04-.52.06-.79.06-.14-.01-.27,0-.42-.04-.07,0-.15-.03-.23-.06-.04-.01-.08-.04-.13-.07-.02-.02-.04-.03-.07-.06-.02-.03-.05-.04-.08-.13l.03.06c-1.58-2.27-3.33-4.42-5.26-6.39-1.91-1.99-3.98-3.82-6.2-5.43-2.22-1.61-4.59-3.04-7.09-4.09-.31-.13-.63-.25-.94-.35-.15-.05-.32-.1-.46-.14-.07-.02-.12-.04-.21-.05l-.27-.06c-.83-.22-1.43-.56-2.07-.89-1.26-.68-2.44-1.43-3.61-2.2-2.34-1.54-4.61-3.15-6.86-4.79-2.26-1.63-4.48-3.31-6.69-5-4.42-3.39-8.8-6.82-13.11-10.33-4.32-3.51-8.61-7.05-12.83-10.67-4.23-3.62-8.42-7.28-12.47-11.11-2.02-1.93-4.05-3.82-5.89-5.99-.92-1.13-1.6-2.36-2.25-3.62-.64-1.26-1.2-2.54-1.69-3.85-1-2.62-1.81-5.29-2.52-7.98-.72-2.69-1.32-5.41-1.79-8.15Z"/>
        <g>
          <path class="cls-2" d="m609.31,449.54c-2.66.11-5.33.08-8-.07-1.33-.07-2.66-.17-3.99-.32-1.33-.14-2.66-.32-3.98-.57-1.32-.26-2.64-.57-3.93-1.01-1.28-.45-2.58-.98-3.7-1.92-.14-.12-.28-.22-.41-.37l-.4-.44c-.13-.15-.2-.28-.29-.43l-.28-.44c-.31-.51-.73-1.01-1.15-1.5-.86-.97-1.81-1.88-2.77-2.78-3.88-3.57-8.07-6.85-12.26-10.11-2.1-1.63-4.22-3.24-6.35-4.82-2.13-1.58-4.27-3.18-6.41-4.73l-.08-.05-.06-.07c-.72-.81-1.47-1.63-2.24-2.42-.76-.8-1.53-1.58-2.32-2.36-.78-.77-1.58-1.54-2.37-2.3-.8-.76-1.61-1.51-2.43-2.24-.81-.74-1.66-1.46-2.49-2.18-.85-.7-1.69-1.42-2.56-2.09l-1.29-1.03-1.33-.99c-.87-.68-1.78-1.27-2.68-1.91-.92-.61-1.87-1.2-2.79-1.82l-1.4-.95c-.47-.31-.89-.7-1.34-1.04-.91-.68-1.7-1.49-2.52-2.25-.35-.38-.7-.76-1.04-1.14-1.17-.49-3.29-1.29-5.49-1.76-2.16-.45-6.59-1-6.59-1,0,0,.22-.04.59-.08.38-.04.92-.08,1.56-.09.64,0,1.39.02,2.18.11.39.04.8.08,1.22.15.41.07.83.14,1.25.23.41.1.83.19,1.23.31.4.12.8.23,1.18.37.76.26,1.45.57,2.02.88.05.03.1.05.15.08-.16-.2-.32-.4-.47-.61l-.51-.67c-.16-.23-.32-.46-.47-.7-.31-.47-.64-.92-.91-1.41-.58-.96-1.1-1.95-1.56-2.97-.22-.51-.46-1.02-.64-1.55l-.29-.78-.26-.8c-.32-1.06-.58-2.15-.72-3.25.21,1.09.55,2.14.93,3.18s.83,2.05,1.33,3.03c.5.98,1.06,1.93,1.68,2.84.28.47.63.9.96,1.34.16.22.32.44.49.65l.54.63c.69.85,1.48,1.6,2.25,2.39.83.71,1.62,1.47,2.52,2.1.45.31.86.67,1.33.96l1.39.87c.94.6,1.9,1.16,2.84,1.75.93.63,1.89,1.22,2.79,1.88l1.37.97,1.34,1.01c.9.67,1.76,1.38,2.63,2.08.86.71,1.72,1.42,2.56,2.16.85.73,1.68,1.48,2.5,2.23.82.76,1.64,1.52,2.43,2.31.8.78,1.59,1.57,2.36,2.37.76.78,1.5,1.56,2.23,2.38-.02-.02-.04-.03-.07-.05l.14.13s-.04-.05-.07-.08c2.15,1.54,4.28,3.09,6.39,4.68,2.13,1.6,4.25,3.23,6.35,4.87,2.11,1.64,4.17,3.32,6.22,5.04,1.02.86,2.03,1.73,3.04,2.61.99.9,2,1.78,2.95,2.73.96.94,1.91,1.9,2.79,2.95.44.53.87,1.06,1.23,1.7l.14.23.11.17c.09.13.17.3.27.4l.27.31c.08.1.22.2.32.3.91.81,2.1,1.37,3.3,1.84,1.21.46,2.48.81,3.76,1.11,2.57.59,5.2.98,7.84,1.26,1.32.14,2.64.25,3.97.33,1.33.09,2.65.17,3.98.2Z"/>
          <path class="cls-2" d="m556.45,418.86l-.14-.13s.04.03.07.05c.03.03.05.05.07.08Z"/>
        </g>
        <path class="cls-2" d="m478.02,417.15s.42-.05,1.17.16c.75.2,1.82.57,3.16,1.11,2.68,1.08,6.41,2.83,10.8,5.09,1.1.58,2.23,1.14,3.42,1.8.58.33,1.17.66,1.76,1,.3.17.6.34.9.51.3.19.6.38.9.57,1.21.77,2.47,1.54,3.68,2.4.61.42,1.23.85,1.86,1.29.61.45,1.23.91,1.85,1.37,1.25.91,2.49,1.89,3.74,2.88,1.27.97,2.48,2.02,3.74,3.06,2.47,2.11,4.94,4.29,7.36,6.54,2.41,2.25,4.77,4.55,7.05,6.86,1.14,1.15,2.26,2.31,3.35,3.48,1.06,1.17,2.14,2.23,3.25,3.27,2.23,2.05,4.51,3.92,6.77,5.55,2.27,1.61,4.51,3.01,6.67,4.12,2.16,1.11,4.22,1.96,6.11,2.56,1.88.59,3.58.94,4.99,1.14,1.41.17,2.54.24,3.31.23.77-.01,1.18-.02,1.18-.02,0,0-.41.05-1.17.14-.77.08-1.9.15-3.35.08-1.45-.09-3.21-.29-5.18-.77-1.97-.47-4.15-1.21-6.43-2.24-2.28-1.01-4.66-2.33-7.05-3.9-2.39-1.58-4.8-3.39-7.14-5.47-1.16-1.03-2.34-2.14-3.44-3.29-1.11-1.12-2.23-2.25-3.37-3.39-2.28-2.27-4.64-4.53-7.05-6.75-2.38-2.25-4.81-4.42-7.24-6.53-2.45-2.08-4.85-4.15-7.27-6.01-.6-.47-1.2-.94-1.79-1.4-.6-.45-1.2-.89-1.79-1.33-1.17-.9-2.35-1.69-3.5-2.48-.29-.2-.57-.39-.85-.59-.3-.18-.59-.37-.88-.55-.58-.36-1.15-.72-1.72-1.07-1.09-.69-2.23-1.33-3.28-1.96-4.25-2.47-7.82-4.49-10.37-5.79-1.28-.64-2.3-1.13-3.02-1.4-.71-.28-1.14-.31-1.13-.27Z"/>
        <g>
          <g>
            <path class="cls-7" d="m514.1,474.47s-24.36,22.81-42.42,10.35c-18.06-12.46-11.68-27.36-11.68-27.36l7.06-18.8s18.24-6.2,25.39,3.23c7.15,9.43,6.98,14.13,7.06,22.3,0,0,2.65,2.02,4.05,4.34.7,1.16,1.43,1.81,1.9,2.31,2.67,2.91,8.64,3.63,8.64,3.63Z"/>
            <path class="cls-9" d="m468.86,450.51s-5.41,8.96-.93,16.82c4.48,7.86,12.35,5.57,15.58-.51,0,0-12.77-7.78-14.65-16.32Z"/>
          </g>
          <path class="cls-2" d="m458.86,464.34c1.25-1.77,2.49-3.54,3.66-5.34,1.17-1.8,2.29-3.63,3.22-5.54.23-.48.45-.96.65-1.44.21-.5.35-.95.52-1.5l.26-.77c.1-.26.22-.53.33-.79.11-.27.25-.51.38-.76.12-.25.27-.49.42-.73.15-.24.29-.48.47-.7.17-.23.33-.45.52-.67.18-.22.36-.43.56-.63.19-.21.39-.4.6-.59.4-.39.85-.73,1.3-1.06.46-.32.93-.61,1.46-.87l-.1.06c1.08-.95,2.14-1.96,3.16-2.98.51-.52,1-1.05,1.48-1.59.46-.55.93-1.12,1.24-1.78-.22.7-.62,1.33-1.04,1.93-.42.61-.87,1.18-1.34,1.74-.47.56-.95,1.11-1.45,1.65-.5.54-1,1.07-1.53,1.58l-.03.03-.07.04c-.43.24-.87.54-1.27.87-.4.33-.79.68-1.16,1.05-.19.18-.36.37-.53.57-.18.19-.34.4-.49.6-.16.2-.31.42-.45.63-.15.21-.29.43-.42.65-.14.22-.27.44-.38.68-.11.23-.25.46-.33.69-.1.24-.2.46-.29.71l-.25.77c-.16.48-.34,1.06-.56,1.56-.21.52-.45,1.01-.7,1.51-.25.49-.52.97-.8,1.44-.28.47-.57.94-.87,1.39-.6.91-1.24,1.8-1.89,2.67-.67.86-1.34,1.71-2.06,2.53-.71.82-1.44,1.62-2.21,2.39Z"/>
        </g>
        <path class="cls-2" d="m495.06,476.09s.1-.17.28-.48c.18-.3.41-.75.69-1.28.28-.53.58-1.16.89-1.84.3-.68.63-1.41.9-2.16.29-.74.54-1.5.76-2.21.12-.36.2-.71.29-1.04.09-.33.17-.64.23-.94.07-.29.13-.56.19-.8.05-.24.08-.45.12-.62.07-.35.11-.54.11-.54,0,0,0,.2,0,.55-.01.35-.02.86-.1,1.46-.03.3-.07.63-.15.97-.07.34-.12.71-.23,1.07-.1.37-.18.75-.31,1.13-.12.38-.25.77-.39,1.15-.14.38-.3.75-.46,1.12-.15.37-.34.71-.51,1.06-.35.67-.71,1.29-1.06,1.79-.33.51-.65.9-.87,1.18-.22.28-.36.42-.36.42Z"/>
        <polygon class="cls-1" points="691.63 169.14 653.88 186.61 721.98 354.22 758.83 337.4 691.63 169.14"/>
      </g>
      <g>
        <polygon class="cls-1" points="307.51 167.73 346.16 183.1 287.38 353.26 249.62 339.42 307.51 167.73"/>
        <g>
          <polygon class="cls-5" points="1000 260.95 1000 131.45 713.34 253.54 760.65 363.83 1000 260.95"/>
          <polygon points="1000 0 666.03 143.26 713.34 253.54 1000 131.45 1000 0"/>
          <g>
            <circle class="cls-4" cx="781.52" cy="322.9" r="14.29"/>
            <circle class="cls-4" cx="816.55" cy="308.62" r="14.29" transform="translate(-56.24 323.85) rotate(-21.7)"/>
          </g>
        </g>
        <g>
          <polygon class="cls-6" points="245.78 372.53 288.1 260.24 0 151.67 0 279.91 245.78 372.53"/>
          <g>
            <circle class="cls-4" cx="187.13" cy="316.49" r="14.29" transform="translate(-139.34 147.39) rotate(-32.02)"/>
            <circle class="cls-4" cx="222.48" cy="329.99" r="14.29" transform="translate(-173.45 370.33) rotate(-61.83)"/>
          </g>
          <polygon class="cls-8" points="330.42 147.95 0 23.43 0 151.67 288.1 260.24 330.42 147.95"/>
        </g>
      </g>
    </g>
  </g>
</svg>