<?xml version="1.0" encoding="UTF-8"?>
<svg id="Capa_2" data-name="Capa 2" xmlns="http://www.w3.org/2000/svg" viewBox="0 0 748.99 710.16">
  <defs>
    <style>
      .cls-1 {
        fill: #76a7e2;
      }

      .cls-2 {
        fill: #fff;
      }

      .cls-3 {
        fill: #f7e3e4;
      }

      .cls-4 {
        fill: #c5c5c5;
      }

      .cls-5 {
        stroke: #8d7476;
      }

      .cls-5, .cls-6, .cls-7, .cls-8, .cls-9, .cls-10, .cls-11, .cls-12, .cls-13, .cls-14, .cls-15, .cls-16, .cls-17 {
        fill: none;
        stroke-width: 2px;
      }

      .cls-6 {
        stroke: #787473;
      }

      .cls-18 {
        fill: #00841f;
      }

      .cls-7 {
        stroke: #5a5872;
      }

      .cls-8 {
        stroke: #d9d8d9;
      }

      .cls-9 {
        stroke: #455ea5;
      }

      .cls-10 {
        stroke: #959190;
      }

      .cls-19 {
        fill: #2f77e0;
      }

      .cls-20 {
        fill: #7baf89;
      }

      .cls-21 {
        fill: #ecebec;
      }

      .cls-22 {
        fill: #dadada;
      }

      .cls-11 {
        stroke: #827e7d;
      }

      .cls-12 {
        stroke: #e3e3e3;
      }

      .cls-23 {
        fill: #f0c6cb;
      }

      .cls-13 {
        stroke: #152853;
      }

      .cls-14 {
        stroke: #f4d5d8;
      }

      .cls-15 {
        stroke: #8b8786;
      }

      .cls-16 {
        stroke: #bdaac7;
      }

      .cls-17 {
        stroke: #f6f5f6;
      }

      .cls-24 {
        fill: #2a2220;
      }

      .cls-25 {
        fill: #898ec3;
      }
    </style>
  </defs>
  <g id="Capa_1-2" data-name="Capa 1-2">
    <g>
      <path class="cls-10" d="m552.86,710.05c2.59-51.27,6.46-102.45,11.61-153.53.04-.39-.06-.75-.27-.94l-8.8-7.95c-.23-.21-.57-.27-.87-.14-12.76,5.35-38.33,14.14-45.59-4.26-.12-.29-.34-.56-.64-.75-3.4-2.18-5.58-5.25-6.55-9.2-.05-.2-.29-.52-.65-.85-2.92-2.68-4.93-5.91-6.04-9.69-.11-.36-.34-.63-.64-.74-5.78-2.15-9.28-7.55-10.57-13.23-.21-.95-1.01-1.66-1.99-1.76-6.16-.62-10.26-2.95-12.31-6.99-1.1-2.15-.44-4.8,2.09-5.33,4.66-.98,8.06-3.49,11.24-6.98.18-.2.17-.5-.02-.67-.02-.02-.04-.03-.06-.05l-17.49-11.27c-.17-.1-.39-.02-.49.18-.03.05-.04.1-.05.16-2.22,17.77-3.21,35.62-2.96,53.55.85,60.38,8.17,120.55,15.37,180.43" vector-effect="non-scaling-stroke"/>
      <path class="cls-10" d="m549.26,13.27c-19.78-9.81-50.99-4.24-54.09,22.16-.03.25.16.48.42.51h.03c31.02.71,61.85,8.79,86.24,28.68.25.21.36.15.31-.18-3.16-20.36-13.99-41.77-32.91-51.17" vector-effect="non-scaling-stroke"/>
      <path class="cls-10" d="m550.81,54.97c-17.84-8.62-36.16-11.18-56.57-11.68-1.49-.03-2.93.28-4.32.95-11.08,5.32-20.7,11.34-33.31,11.56-.75,0-.77.13-.06.37,16.44,5.43,32.77,10.93,50.02,13.11,17.15,2.18,31.91-2.49,44.28-14.01.08-.06.08-.18.02-.25-.02-.02-.04-.04-.06-.05" vector-effect="non-scaling-stroke"/>
      <path class="cls-5" d="m555.28,167.83c-7.27,23.72-29.4,32.65-51.32,38.18-.84.21-.92.58-.23,1.11,9.47,7.28,22.81,8.11,34.13,6.08,15.89-2.84,29.73-9.95,41.52-21.33.23-.22.33-.54.29-.85-.4-2.49-.61-4.09-.63-4.8-.43-14.48-1.13-28.96-2.08-43.45-.02-.28.19-.53.47-.57,1.45-.18,2.98.41,4.29.23,15.43-2.18,16.1-28.61,13.58-39.12-2.35-9.81-10.13-.94-12.35,3.07-.17.31-.33.29-.48-.06-6.78-15.61-16.73-28.82-29.86-39.65-.24-.2-.56-.23-.81-.08-20.25,13.09-40.73,12.74-64.02,7.52-.29-.07-.58.06-.74.32-.69,1.18-5.42,8.16-4.02,8.95.42.24.68.44.78.59,1.94,2.87,2.45,5.98,1.52,9.35-.21.75-.01.89.59.4l5.86-4.82c.39-.32.41-.3.08.06-5.49,5.89-15.09,17.24-16.04,24.94-1.09,8.84,5.33,10.29,12.35,8.84,7-1.45,13.19-4.55,18.57-9.3.72-.63.91-.5.57.39-4.24,11.19-16.64,16.12-27.8,14.74-6.15-.75-9.73-4.07-10.74-9.95-.05-.32-.1-.32-.13,0-1.85,17.2,3.19,32.51,11.09,47.48,3.15,5.96,6.27,10.28,9.38,12.97,9.71,8.4,24.54,10.14,36.64,7.18,11.77-2.89,21.56-9.06,29.37-18.51.21-.25.27-.22.17.1" vector-effect="non-scaling-stroke"/>
      <path class="cls-7" d="m469.95,112.54c-1.29,5.18-1.2,5.26.25.25" vector-effect="non-scaling-stroke"/>
      <path class="cls-5" d="m470.2,112.79c2.38-5.36,5.77-10.01,10.18-13.96.19-.17.25-.45.12-.61-.02-.03-.05-.06-.09-.08-1.77-.99-2.76-2.51-2.99-4.54-.07-.63-.26-.63-.57.01-3.03,6.19-5.33,12.5-6.9,18.93" vector-effect="non-scaling-stroke"/>
      <path class="cls-16" d="m470.2,112.79l-.25-.25" vector-effect="non-scaling-stroke"/>
      <path class="cls-6" d="m162.8,146.98c0-6.14-1.69-28.5-12.61-26.11-.24.06-.4.28-.35.49,0,.03,0,.05.02.08,3.81,7.96,3.83,15.88.07,23.75-.91,1.9-2.3,2.84-4.18,2.83l-65.76-.51c-.38,0-.72.11-.96.32l-16.89,14.6c-.31.27-.63.42-.9.41l-15.5-.36c-.27,0-.49.24-.5.55h0v4.76c0,.27.24.5.55.51,13.06.51,16.05,2.7,20.83,14.69.73,1.85,1.1,3.96,1.11,6.33.04,8.49.11,17.02.21,25.6,0,.33-.18.6-.44.66-8.98,1.99-17.48,5.24-25.5,9.75-.56.31-.56.63,0,.94,16.53,8.96,42.41,7.64,60.45,1.86.59-.19.6-.47.02-.83-8.71-5.42-18.04-9.45-27.97-12.08-.32-.08-.54-.36-.53-.68l.95-33.25c.01-.27.26-.48.56-.48l16.25.14c.35,0,.64.22.68.51,2.38,17.01,11.67,21.49,27.8,20.79.57-.03.67-.27.3-.74l-2.91-3.61c-.25-.31-.55-.53-.87-.62-8.21-2.24-12.33-7.65-12.38-16.24,0-.33.24-.6.54-.62,5.03-.24,13.68,1.02,18.1-.7,9.35-3.64,18.96-3.05,28.78-2.78,5.46.15,10.95-1.64,16.54-1.78,11.41-.27,22.82-.66,34.24-1.19.31-.02.56-.2.58-.44.94-8.35.39-16.57-1.66-24.68-.12-.46-.52-.78-.99-.78l-37.25-.53c-.24,0-.44-.25-.44-.56" vector-effect="non-scaling-stroke"/>
      <path class="cls-6" d="m40.56,162.65c-1.64-8.98-10.06-9.98-16.24-4.67-.27.23-.42.54-.39.82.54,6.53.35,13.05-.57,19.56-.06.4.07.75.3.81,5.32,1.34,10.66,1.46,16.02.36.32-.07.57-.35.65-.72,1.13-5.45,1.2-10.83.23-16.16" vector-effect="non-scaling-stroke"/>
      <path class="cls-11" d="m217.89,155.97c0-.15-.13-.27-.28-.26h0l-8.36.16c-.15,0-.27.13-.26.28l.16,8.42c0,.15.13.27.28.26l8.36-.16c.15,0,.27-.13.26-.28l-.16-8.42" vector-effect="non-scaling-stroke"/>
      <path class="cls-15" d="m16.99,161.92c0-.2-.16-.37-.37-.37h0l-11.36-.02c-.2,0-.37.16-.37.37v5.26c0,.2.16.37.36.37h0l11.36.02c.2,0,.37-.16.37-.37v-5.26" vector-effect="non-scaling-stroke"/>
      <path class="cls-13" d="m199.48,258.81c-1.35,2.47-8.86,4.24-11.47,4.64-.43.07-.52.26-.25.58l4.11,5.12c.17.22.52.33.91.29,14.8-1.53,28.39-12.98,23.81-28.87-.33-1.18-.7-1.19-1.09-.03-1.1,3.24-2.59,6.24-4.46,9.01-1.52,2.25-2.25,2.04-2.2-.63.37-20.01-6.91-52.91-23.77-64.85-4.5-3.19-8.97-3.6-14.27-2.95-7.94.97-15.91,1.29-23.9.98-15.09-.58-2.49,10.67,2.53,13,5.46,2.53,12.28,3.49,20.47,2.86.72-.06,1.39.22,1.74.73,3.53,5.13,4.82,10.83,3.88,17.12-.09.66-.13,1.01-.12,1.06,1.84,5.03,1.71,10.01-.39,14.92-.11.26-.1.61.03.95,1.71,4.72,3.41,10.01,2.3,15.07-.08.33-.06.67.06.96,3.96,9.89,12.26,11.16,21.78,9.66.37-.06.47.07.3.38" vector-effect="non-scaling-stroke"/>
      <path class="cls-13" d="m148.98,200.34c-7.35-1.85-12.17-6.37-14.46-13.56-.11-.34-.34-.62-.65-.77-3.86-2.01-10.94-2.38-13.01,2.41-.8,1.84-.47,3.69.98,5.56,4.86,6.26,19.21,7.52,27.08,6.83.95-.08.97-.24.06-.47" vector-effect="non-scaling-stroke"/>
      <path class="cls-10" d="m535.31,444.59c21.72-.79,45.89-4.99,64.88-16.16.28-.17.5-.42.63-.72,8.73-20.9,12.64-31.7,22.15-46.47.16-.24.12-.56-.09-.76-9.05-8.4-15.76-17.98-20.13-28.74-18.89-46.52-9.87-108.55,20.45-147.96.13-.18.1-.43-.08-.56h0c-33.17-25.8-52.34,46.24-56.86,64.43-.07.29-.33.5-.63.51-20.26,1.04-40.44.26-60.55-2.35-14.14-1.84-28.26-5.55-40.42-13.53-.27-.17-.46-.44-.54-.75-4.58-17.93,2.47-45.69,17.02-57.65.19-.15.18-.26-.04-.33-.09-.03-.2-.04-.32-.05-.18,0-.38.03-.59.13-7.61,3.52-14.46,8.96-20.54,16.33-21.62,26.22-32.54,63.41-36.03,96.86-1.95,18.71,2.9,40.8,9.35,59.36,10.21,29.39,23.6,57.88,37.08,85.91.14.29.17.61.09.87l-1.1,3.34c-.09.27.08.59.4.77,9.69,5.28,18.76,11.48,27.2,18.59.19.16.5.15.76-.03,23.58-16.12,48.01-7.35,70.38,5.23.2.11.47,0,.59-.24.01-.03.03-.06.04-.09,3.89-11.83,12.1-16.38,24.61-13.65.27.06.54-.08.6-.32v-.04l3.71-25.41c.06-.43-.16-.52-.65-.27-19.81,9.95-40.29,11.22-61.42,3.8-.1-.03-.09-.05.04-.05" vector-effect="non-scaling-stroke"/>
      <path class="cls-13" d="m476.71,245.26c25.14,10.93,53.51,13.57,80.62,11.87.34-.03.62-.25.72-.57,5.78-18.95,14.04-36.73,24.79-53.36.84-1.31.62-1.49-.66-.56-19.19,14.01-48.46,25.31-72.17,17.72-10.11-3.24-16.77-9.92-19.97-20.04-.06-.16-.25-.23-.44-.14-.06.03-.11.07-.16.11-11.59,12.4-16,27.18-13.24,44.33.05.28.24.52.51.64" vector-effect="non-scaling-stroke"/>
      <path class="cls-13" d="m166.59,204.34c-1.02-.87-2.22-1.14-3.6-.79-11.71,2.95-23.4,2.91-35.07-.14-.29-.08-.6,0-.8.21-4.63,4.82-1.91,11.42,3.18,14.38,10.39,6.03,26.05,3.38,36.66-.56,5.86-2.18,3.24-10.04-.37-13.1" vector-effect="non-scaling-stroke"/>
      <path class="cls-13" d="m413.18,344.23c-3.73-46.79,3.21-96.2,32.56-134.42.26-.34.18-.51-.24-.52-34.2-.92-52.74,34.21-63.27,61.23-.14.36-.43.63-.79.73-15.53,4.51-29.28,12.17-41.25,22.98-.29.26-.3.71-.02,1.02l.03.03c20.52,19.71,35.8,44.73,36.36,73.96,0,.26.24.46.51.44.08,0,.16-.03.23-.07,12.39-7.37,24.21-15.56,35.47-24.55.28-.23.43-.54.41-.83" vector-effect="non-scaling-stroke"/>
      <path class="cls-13" d="m128.48,223.54c-.88,12.33,21.86,12.69,29.57,11.99,7.92-.73,14.7-5.36,12.62-14.36-.06-.26-.33-.43-.6-.36-.02,0-.05,0-.07.02-13.23,5.34-26.74,6.02-40.53,2.03-.41-.12-.84.11-.96.52-.02.05-.02.11-.03.16" vector-effect="non-scaling-stroke"/>
      <path class="cls-13" d="m614.44,317.64c-.26-.65-.09-.75.5-.31,5.91,4.43,12.36,7.82,19.35,10.17.25.08.35.45.24.82-7,23.61.73,48.17,11.92,69.28.1.19.35.27.54.16.03-.02.06-.04.09-.06,20.32-19.17,48.1-20.57,74.9-18.26.19.02.36-.12.38-.31,0-.04,0-.08-.01-.12-6.43-23.32-16.89-45.32-34.23-62.59-2.89-2.88-5.82-5.72-8.78-8.52-.23-.22-.37-.52-.38-.84-.94-36.79-23.24-64.07-54.53-80.73-.13-.07-.29-.02-.37.11-23.6,41.63-27.05,85.15-10.23,130.04.11.3.45.45.75.34.09-.03.16-.08.22-.15,6.35-6.9,8.67-17.75,9.49-26.77.02-.25-.15-.53-.43-.71-4.33-2.84-7.47-6.69-9.42-11.55" vector-effect="non-scaling-stroke"/>
      <path class="cls-11" d="m40.04,244.6c22.42,8.64,45.61,9.19,67.84.03.3-.12.49-.36.49-.59l-.1-11.75c0-.22-.2-.39-.43-.39-.05,0-.09,0-.14.03-22.35,7.26-45.62,8.03-67.56-.81-.24-.1-.51,0-.61.25-.02.06-.04.12-.04.18v12.49c0,.21.22.43.55.56" vector-effect="non-scaling-stroke"/>
      <path class="cls-13" d="m132.7,236.74c-.55,15.69,29.54,15.68,37.33,8.54,2.36-2.15,2.25-4.81-.34-7.97-.19-.22-.48-.31-.73-.21-12.01,4.52-23.94,4.29-35.77-.68-.18-.08-.38,0-.46.18-.02.04-.03.09-.03.14" vector-effect="non-scaling-stroke"/>
      <path class="cls-13" d="m189.38,275.93c.15,5.48,8.9,6.53,12.73,5.92,10.19-1.64,18.52-6.45,25-14.42,7.32-9.02,7.08-20.03-2.01-27.36-.27-.21-.39-.14-.36.19,1.53,20.5-15.82,34.33-34.86,35.15-.29.01-.51.24-.5.52h0" vector-effect="non-scaling-stroke"/>
      <path class="cls-11" d="m55.43,318.6c18.82,3.82,36.44,1.22,52.87-7.81.26-.14.42-.43.41-.75l-.27-60.5c0-.17-.16-.29-.34-.28-.04,0-.09,0-.13.03-20.95,8.44-47,9.57-68.3.48-.18-.08-.39-.02-.47.14-.02.04-.03.09-.03.13l.62,60.25c0,.33.13.62.35.82,4.21,3.78,9.31,6.28,15.29,7.49" vector-effect="non-scaling-stroke"/>
      <path class="cls-6" d="m160.43,277.6c3.86,1.08,7.8,1.56,11.81,1.44.31,0,.59-.24.69-.57l3.83-12.68c.11-.37.08-.72-.08-.96-2.17-3.31-4.02-6.8-5.53-10.47-.17-.39-.54-.64-.91-.61l-18.74,1.36c-.32.02-.56.29-.54.6,0,.03,0,.06,0,.09,1.75,7.57,4.66,14.67,8.72,21.3.14.22.41.4.74.5" vector-effect="non-scaling-stroke"/>
      <path class="cls-5" d="m310.1,346.11c-25.13-27.86-53.01-52.76-73.36-77.88-.15-.18-.41-.2-.59-.06-.03.02-.06.05-.08.09-7.04,10.18-15.92,14.85-27.14,19.08-.27.1-.41.38-.34.65,8.83,32.25,23.98,61.17,45.46,86.76,6.96,8.29,20.37,22.31,30.69,22.79,27.93,1.29,54.44-6.4,78.37-20.47.28-.16.47-.43.51-.74,4.1-27.89-11.05-58.37-33.53-74.52-.28-.21-.57-.3-.8-.24-11.83,2.96-22.55,8.18-32.17,15.65-.22.17-.26.48-.08.7,0,0,0,.01.01.02,7.08,8.24,12.3,16.98,13.34,28.04.03.33-.07.38-.29.13" vector-effect="non-scaling-stroke"/>
      <path class="cls-6" d="m162.49,300.78l5.24-.02c.35,0,.69-.29.82-.71,1.52-4.99,2.57-10.07,3.15-15.26.04-.34-.17-.65-.47-.69l-10.73-1.4c-.21-.02-.4.19-.42.48v.1l1.55,16.77c.03.41.41.73.86.73" vector-effect="non-scaling-stroke"/>
      <path class="cls-6" d="m161.74,304.54c-.28,0-.5.3-.49.68v.07l.68,6.26c.04.42.29.74.56.74h3.5c.4,0,.75-.31.81-.74l.93-6.25c.04-.28-.19-.55-.51-.59h-.05l-5.43-.17" vector-effect="non-scaling-stroke"/>
      <path class="cls-11" d="m421.18,453.6c25.07,1.16,47.5,13.04,66.63,28.94.26.21.58.26.77.1l3.47-3.03c.16-.14.13-.43-.07-.64-.02-.02-.04-.04-.07-.06-23.08-18.85-50.68-30.52-80.65-29.35-17.82.69-36.75,5.79-53.52,12.23-43.06,16.53-85.14,37.71-132.75,34.62-23.18-1.5-42.01-18.1-50.85-39.07-8.43-20.02-11.69-43.28-12.1-65.8-.47-25.46,1.4-50.52,4.45-75.77.05-.38-.16-.72-.45-.76h-.04l-4.26-.19c-.19-.01-.38.33-.43.78-2.97,26.32-4.67,48.22-5.09,65.69-1.11,46.49,5.29,102.39,57.34,118.89,2.4.76,5.92,1.4,8,1.57,49.32,3.9,91.09-17.5,136.16-34.75,20.78-7.95,42.52-14.36,63.46-13.4" vector-effect="non-scaling-stroke"/>
      <path class="cls-5" d="m692.74,412.57c0,.13-.08.2-.27.2-19.88.37-37.75,12.46-53.46,25.79-12.05,10.23-24.1,20.44-36.16,30.64-.17.15-.18.41-.03.58.02.02.03.04.05.05,11.78,9.35,17.28,23.4,19.11,37.94.02.22.23.38.45.35.03,0,.06-.01.09-.02,20.8-7.39,41.56-14.89,62.28-22.49,10.37-3.81,48.72-17.48,50.71-29.3,3.93-23.31-.02-45.04-11.84-65.21-.27-.46-.71-.8-1.22-.95-23.95-7.04-47.35-.61-67.37,13.37-.27.18-.35.53-.19.78.01.02.03.04.04.05l8.23,9.01c.2.22.55.27.85.13,9.31-4.31,18.8-4.67,28.45-1.06.16.06.28.12.28.14" vector-effect="non-scaling-stroke"/>
      <path class="cls-13" d="m578.91,476.04c15.16-.59,24.76,20.21,26.25,32.41,1.16,9.55-2.18,16.74-10.01,21.57-.15.09-.19.28-.11.42.02.04.06.07.1.1,2.82,1.72,5.73,2.22,8.72,1.5,11.78-2.86,12.7-21.58,10.61-30.75-2.75-12.05-8.17-24.09-19.89-28.61-5.95-2.3-11.3-1.52-16.05,2.33-.9.73-.77,1.07.38,1.03" vector-effect="non-scaling-stroke"/>
      <path class="cls-13" d="m528.08,522.61c2.71-.98,2.91-.6.59,1.13-5.81,4.33-12.37,6.67-19.7,7.01-.55.03-.98.49-.95,1.03v.06c1.05,9.76,16.4,7.86,23.23,6.46.29-.06,1.67-.09.62.59-4.65,3.02-9.59,4.32-14.82,3.91-.93-.08-1.11.25-.53.98,6.15,7.81,18.95,3.65,27.29.33,11.47-4.57,22.69-9.72,33.64-15.45,6.96-3.65,7.64-15.78,7.54-22.63-.02-1.56.34-1.66,1.07-.29,3.4,6.37,4.11,13.04,2.12,20.01-.13.47.03.63.49.46,16.17-6.06,8.73-29.8.91-38.96-3.76-4.4-8.27-5.41-13.53-3.04-.31.14-.45.49-.32.8.03.06.06.11.11.16,2.69,2.9,4.88,6.13,6.57,9.68.39.81.2.98-.55.52-14.51-8.92-30.33-17.16-46.9-21.8-10.23-2.87-19.89-1.62-28.98,3.73-8.43,4.97-16.24,10.75-23.44,17.36-2.18,1.99-4.59,3.02-7.24,3.95-.54.19-.81.78-.62,1.32.02.07.06.13.09.19,1.79,2.91,7.65,2.72,10.73,2.69.32,0,.64-.13.9-.37,7.4-6.89,16.03-11.46,25.9-13.71.43-.09.44,0,.04.28-6.76,4.69-13.88,8.42-20.3,14.11-5.8,5.15.73,13.57,7.03,12.64,7.66-1.14,15.47-4.33,22.73-7.04.3-.11.61-.04.7.17,0,.02.01.03.02.05.03.19-.06.39-.29.59-6.31,5.49-13.44,8.82-21.4,9.97-.54.07-.92.58-.84,1.13,0,.02,0,.05.01.07,1.96,8.87,7.99,7.19,15.25,5.56,4.78-1.07,9.06-2.29,12.83-3.65" vector-effect="non-scaling-stroke"/>
      <path class="cls-11" d="m560.69,545.68c19.55,16.88,38.3,33.57,55.32,53.08,9.2,10.54,26.6,33.01,23.19,48.39-1.89,8.51-13.5,13.17-20.89,15.72-19.13,6.61-37.39,13.6-53.04,27.49-.29.26-.47.6-.5.93l-.37,3.93c-.05.49.14.59.57.29,16.72-11.61,37.17-19.95,56.17-27.14,8.83-3.34,18.56-8.47,22.51-17.38,5.85-13.14-7.22-35.48-15-45.38-18.08-23.03-39-43.95-62.77-62.76-.16-.13-.48-.11-.82.05l-4.25,1.96c-.25.11-.36.4-.25.65.03.07.07.13.13.17" vector-effect="non-scaling-stroke"/>
      <path class="cls-17" d="m560.32,26.99c-17.05-11.61-43.18-22-55.38,2.76-.09.2-.02.44.17.53.03.02.06.03.1.03,6.09,1.19,15.06-1.44,21.31-2.61,11.23-2.09,22.42-2.14,33.57-.15.95.17,1.02-.02.23-.56" vector-effect="non-scaling-stroke"/>
      <path class="cls-5" d="m525.01,104.34c2.39,0,4.33-3.44,4.33-7.68s-1.94-7.68-4.33-7.68-4.33,3.44-4.33,7.68h0c0,4.24,1.94,7.68,4.33,7.68h0" vector-effect="non-scaling-stroke"/>
      <path class="cls-14" d="m562.65,102.14c-12.72,19.05-8.12,43.61-22.05,61.57-.43.55-.3.73.37.54,27.91-7.86,26.94-39.39,22.69-61.91-.17-.89-.5-.95-1.01-.2" vector-effect="non-scaling-stroke"/>
      <path class="cls-5" d="m497.59,143.55c-3.84,0-8.06-.64-12.1-1.13-.33-.04-.34.02-.04.18,14.37,7.6,27.58,6.21,39.63-4.16.25-.21.22-.26-.09-.14-8.83,3.52-17.96,5.27-27.4,5.25" vector-effect="non-scaling-stroke"/>
      <path class="cls-5" d="m499.47,156.89c-5.03-.77-5.21-.28-.54,1.47,5.93,2.22,15.44,2.06,20.12-3.28.48-.55.37-.72-.33-.51-5.48,1.61-13.58,3.19-19.25,2.32" vector-effect="non-scaling-stroke"/>
      <path class="cls-6" d="m77.67,162.27c4.51.28,6.55-1.8,6.13-6.24-.04-.41-.21-.47-.51-.18l-5.86,5.88c-.33.33-.25.51.24.54" vector-effect="non-scaling-stroke"/>
      <path class="cls-6" d="m178.67,160.97c-18.99-.39-37.96-.1-56.93.87-1.24.07-2.47.24-3.7.51-.4.09-.42.14-.05.14l64,.64c.41,0,.74-.26.74-.57v-.02c-.05-2.56-.95-4.74-2.69-6.53-.11-.12-.52-.2-1.03-.2l-62.2.1c-.37,0-.37.02-.01.05,19.93,1.63,39.89,2.25,59.88,1.87.45,0,.81.06.87.17l1.41,2.56c.16.28.06.42-.29.41" vector-effect="non-scaling-stroke"/>
      <path class="cls-8" d="m121.06,168.91c-14.65-.33-29.33-.5-44.05-.51-.34,0-.37.1-.09.3,12.82,9.17,35.24,4.55,49.04.63.32-.09.31-.14-.03-.17-1.63-.13-3.25-.22-4.87-.25" vector-effect="non-scaling-stroke"/>
      <path class="cls-9" d="m198.36,220.16c-2.15-11.61-9.09-38.86-26.65-33.73-.33.09-.34.22-.05.39,12.74,7.5,16.29,23.14,25.96,33.71.67.73.92.61.74-.37" vector-effect="non-scaling-stroke"/>
      <path class="cls-17" d="m449.88,260.58c-27.4,57.23-5.34,118.83,27.4,168.02.19.28.29.25.31-.09.97-17.02-1.18-33.62-6.45-49.81-2.37-7.31-4.72-14.62-7.04-21.95-9.75-30.84-12.88-63.78-13.36-95.98-.02-1.29-.31-1.35-.86-.19" vector-effect="non-scaling-stroke"/>
      <path class="cls-9" d="m652.61,300.4c3.54,4.9,9.59,11.84,15.54,14.93.3.15.43.06.4-.28-2.27-22.14-9.95-67.28-42.01-60.68-.21.04-.34.24-.3.44,0,.04.02.08.04.12,8.41,15.24,16.15,31.35,26.33,45.47" vector-effect="non-scaling-stroke"/>
      <path class="cls-12" d="m58.89,239.57c-3.76-.39-7.3-1.18-10.99-2.09-.28-.07-.57.04-.64.24,0,.03,0,.05,0,.08l-.07,4.74c0,.73.39,1.36,1,1.57,3.5,1.21,7.1,1.96,10.8,2.27.41.04.77-.19.81-.51v-.09l-.34-5.74c0-.24-.25-.44-.56-.47" vector-effect="non-scaling-stroke"/>
      <path class="cls-12" d="m61.31,260.14c-5.08-.42-10.09-1.24-15.04-2.47-.23-.06-.46.16-.52.49,0,.04,0,.09,0,.13v50.75c0,.44.16.8.4.91,4.65,2.16,9.51,3.61,14.6,4.34.21.03.4-.27.43-.67v-.08l.29-53c0-.22-.07-.39-.15-.4" vector-effect="non-scaling-stroke"/>
      <path class="cls-14" d="m229.35,301.51c11.29,41.04,34.01,99.06,89.9,81.52.42-.13.46-.35.13-.64-10.08-8.74-24.29-10.51-35.68-17.38-23.78-14.32-41.34-39.86-53.8-63.81-.26-.51-.83-.69-.55.31" vector-effect="non-scaling-stroke"/>
      <path class="cls-14" d="m721.31,407.88c-10.22,26.95-31.77,39.78-52.34,56.37-5.1,4.11-8.37,9.29-9.81,15.53-.09.39.16.77.55.86.1.02.19.02.29,0,36.38-6.59,79.03-25.91,62.18-72.76-.28-.79-.57-.79-.87-.01" vector-effect="non-scaling-stroke"/>
      <path class="cls-9" d="m510.61,481.6c11.69,2.07,22.34,4.45,31.94,7.14,7.15,1.99,14.95,3.16,23.4,3.49.34.01.37-.08.09-.27-13.73-9.25-39.74-22.49-55.51-10.68-.23.17-.2.27.08.32" vector-effect="non-scaling-stroke"/>
      <path class="cls-10" d="m517.93,710.04c-.11-27.11-.37-54.21-.78-81.31-.28-18.48-.32-46.26-6.45-67.41-.09-.32-.15-.31-.16.02-2.26,49.55-2.71,99.12-1.36,148.7" vector-effect="non-scaling-stroke"/>
    </g>
    <path class="cls-24" d="m748.99,438.1l-.05,7.49c0,7.02-1.77,13.2-5.32,18.55-8.83,13.29-35.16,23.82-49.87,28.7-23.53,7.81-47.09,15.59-70.66,23.36-.29.09-.5.34-.56.64-4.65,23.99-20.34,25.34-40.79,18.6-.29-.09-.6.03-.69.28,0,.03-.02.06-.02.08l-1.11,10.23c-.03.27.13.6.42.86,15.89,14.33,30.72,29.68,44.49,46.04,11.43,13.58,23.15,30.26,26.32,48.34,2.92,16.66-15.12,27.33-27.68,32.54-23.06,9.56-41.7,15.85-58.9,29.35-.25.2-.39.49-.39.81,0,2.18-.33,4.2-1,6.07h-10.32c2.59-51.26,6.46-102.44,11.61-153.52.04-.39-.06-.75-.27-.94l-8.8-7.95c-.23-.21-.57-.27-.87-.14-12.76,5.35-38.33,14.14-45.59-4.26-.12-.29-.34-.56-.64-.75-3.4-2.18-5.58-5.25-6.55-9.2-.05-.2-.29-.52-.65-.85-2.92-2.68-4.93-5.91-6.04-9.69-.11-.36-.34-.63-.64-.74-5.78-2.15-9.28-7.55-10.57-13.23-.21-.95-1.01-1.66-1.99-1.76-6.16-.62-10.26-2.95-12.31-6.99-1.1-2.15-.44-4.8,2.09-5.33,4.66-.98,8.06-3.49,11.24-6.98.18-.2.17-.5-.02-.67-.02-.02-.04-.03-.06-.05l-17.49-11.27c-.17-.1-.39-.02-.49.18-.03.05-.04.1-.05.16-2.22,17.77-3.21,35.62-2.96,53.55.85,60.38,8.17,120.55,15.37,180.43h-12.53c-7.19-45.59-11.81-90.28-13.86-134.06-1.6-33.89-.87-70.39,3.87-105.19.04-.3-.11-.6-.37-.74-17.71-9.28-33.77-10.91-53.55-7.77-11.08,1.75-23.79,5.42-38.12,11.01-48.34,18.83-97.22,42.31-148.05,33.05-43.31-7.9-57.97-47.74-61.46-86.31-3.12-34.64-.36-69.66,4.58-104,.32-2.25.42-4.27.05-6.64-1.37-8.69-2.25-17.42-2.64-26.21-.06-1.42-.44-2.77-1.13-4.04-4.29-7.89-7.79-16.11-10.5-24.68-.09-.29-.33-.52-.63-.61-10.96-3.22-16.28-8.6-15.87-20.52.01-.32-.08-.63-.26-.9-2.17-3.14-3.4-6.59-3.69-10.34-.1-1.35-.42-2.62-.97-3.82-1.76-3.9-2.42-8.06-1.98-12.49.04-.32-.19-.61-.51-.64h-.15c-14.6,1.89-29.24-2.52-30.35-19.62-.02-.38-.19-.69-.38-.69l-8.76.04c-.25,0-.46.3-.46.67l-.08,25.25c0,.31.26.6.63.69,11.75,2.97,22.68,7.81,32.79,14.51.31.2.49.5.5.8l.83,86.25c0,.69-.33,1.33-.9,1.7-20.79,13.3-59.45,20.62-78.6-.12-.2-.22-.31-.51-.32-.83l-.36-88.75c0-.73.39-1.4,1.04-1.76,8.67-4.76,17.83-8.28,27.48-10.57.29-.07.5-.35.5-.67.03-7.95.03-15.87,0-23.74,0-4.06-3.76-9.12-5.96-12.43-2.39-3.61-7.49-3.84-11.31-3.2-.32.05-.56.28-.61.56l-1.26,7.39c-.22,1.29-1.03,2.08-2.42,2.37-6.73,1.36-13.48,1.41-20.26.16-1.22-.22-2.09-.94-2.6-2.17-1.29-3.09-1.89-6.32-1.8-9.69.01-.35-.21-.64-.5-.65h-.02l-15.25-.1c-.27,0-.5-.21-.54-.5-.66-3.73-.6-7.46.19-11.17.06-.3.31-.51.6-.52l16-.29c.31,0,.6-.13.79-.35,6.94-7.96,20.89-10.4,26.6.28.19.34.52.55.86.55h11.75c.15,0,.45-.18.78-.47l17.71-15.54c.24-.21.52-.33.76-.32l68.5.35c.27,0,.55-.14.74-.4,5.47-7.67,1.49-16.55-4.04-23.02-.19-.22-.18-.55.02-.75,2.53-2.57,5.4-3.89,8.62-3.98,13.24-.36,17.34,17.76,17.64,27.5,0,.33.24.59.52.59l35.5.47c.46,0,.83.13.99.34,1.99,2.48,3.15,5.31,3.49,8.48.05.43.38.75.77.75h10.5c.29,0,.55.22.62.52,1.07,4.57,1.12,9.14.15,13.73-.08.38-.33.66-.59.67l-8.93.32c-.85.03-1.52.7-1.5,1.51.07,3.08-.31,6.1-1.16,9.07-.06.21-.3.37-.59.38l-16.5.85c-.68.03-.73.24-.15.62,6.5,4.29,11.13,10.12,13.9,17.48,3.41,9.09,6.32,18.34,8.72,27.75.07.29.31.51.61.58,18.55,4.14,25.74,15.46,25.67,34.01,0,.33.11.64.33.86,15.65,16.5,30.84,34.46,47.98,49.35.34.3.84.32,1.18.06,12.26-9.39,25.85-16.07,40.78-20.04.34-.09.64-.27.88-.52,11.53-12.32,25.29-19.73,41.18-25.03.3-.1.54-.33.65-.62,13.81-35.2,38.15-69.48,81.25-65.11.31.03.61-.09.82-.33,6.85-7.96,17.74-14.04,28.52-11.9.74.15.87-.07.38-.64-26.79-31.81-32.48-69.75-9.69-105.94.59-.94.34-1.32-.75-1.14-10.58,1.7-22.77.69-32.52-3.28-5.54-2.27-13.22-7.21-14.29-13.51-1.37-8.09,8.45-12.13,15.3-12.45,12.41-.59,27.13-2.22,38.68-10.4.26-.19.44-.47.49-.79,2.9-17.13,12.2-28.8,27.89-35,25.02-9.89,54.93,1.56,69.95,22.7,13.37,18.82,17.47,41.72,16.08,64.43-.02.3.14.59.41.74,2.5,1.44,4.27,3.41,5.31,5.9,5.44,13.03,3.18,46.63-14.33,51.33-.28.08-.47.33-.47.62.27,11.63,1.23,23.18,2.86,34.64.38,2.69,1.03,5.31,1.96,7.84.1.26.39.4.66.31,19.39-6.47,51.01.56,45.8,27.63-.06.29.08.59.34.74,3,1.68,5.9,3.37,8.7,5.07,28.44,17.26,43.7,42.7,45.77,76.32.02.32.15.62.36.87,22.32,24.98,37.41,53.13,46.38,84.66,5,17.55,8.91,33.18,10.16,50.7h0ZM549.26,13.27c-19.78-9.81-50.99-4.24-54.09,22.16-.03.25.16.48.42.51h.03c31.02.71,61.85,8.79,86.24,28.68.25.21.36.15.31-.18-3.16-20.36-13.99-41.77-32.91-51.17h0Zm1.55,41.7c-17.84-8.62-36.16-11.18-56.57-11.68-1.49-.03-2.93.28-4.32.95-11.08,5.32-20.7,11.34-33.31,11.56-.75,0-.77.13-.06.37,16.44,5.43,32.77,10.93,50.02,13.11,17.15,2.18,31.91-2.49,44.28-14.01.08-.06.08-.18.02-.25-.02-.02-.04-.04-.06-.05Zm4.47,112.86c-7.27,23.72-29.4,32.65-51.32,38.18-.84.21-.92.58-.23,1.11,9.47,7.28,22.81,8.11,34.13,6.08,15.89-2.84,29.73-9.95,41.52-21.33.23-.22.33-.54.29-.85-.4-2.49-.61-4.09-.63-4.8-.43-14.48-1.13-28.96-2.08-43.45-.02-.28.19-.53.47-.57,1.45-.18,2.98.41,4.29.23,15.43-2.18,16.1-28.61,13.58-39.12-2.35-9.81-10.13-.94-12.35,3.07-.17.31-.33.29-.48-.06-6.78-15.61-16.73-28.82-29.86-39.65-.24-.2-.56-.23-.81-.08-20.25,13.09-40.73,12.74-64.02,7.52-.29-.07-.58.06-.74.32-.69,1.18-5.42,8.16-4.02,8.95.42.24.68.44.78.59,1.94,2.87,2.45,5.98,1.52,9.35-.21.75-.01.89.59.4l5.86-4.82c.39-.32.41-.3.08.06-5.49,5.89-15.09,17.24-16.04,24.94-1.09,8.84,5.33,10.29,12.35,8.84,7-1.45,13.19-4.55,18.57-9.3.72-.63.91-.5.57.39-4.24,11.19-16.64,16.12-27.8,14.74-6.15-.75-9.73-4.07-10.74-9.95-.05-.32-.1-.32-.13,0-1.85,17.2,3.19,32.51,11.09,47.48,3.15,5.96,6.27,10.28,9.38,12.97,9.71,8.4,24.54,10.14,36.64,7.18,11.77-2.89,21.56-9.06,29.37-18.51.21-.25.27-.22.17.1h0Zm-85.33-55.29c-1.29,5.18-1.2,5.26.25.25,2.38-5.36,5.77-10.01,10.18-13.96.19-.17.25-.45.12-.61-.02-.03-.05-.06-.09-.08-1.77-.99-2.76-2.51-2.99-4.54-.07-.63-.26-.63-.57.01-3.03,6.19-5.33,12.5-6.9,18.93Zm-307.15,34.44c0-6.14-1.69-28.5-12.61-26.11-.24.06-.4.28-.35.49,0,.03,0,.05.02.08,3.81,7.96,3.83,15.88.07,23.75-.91,1.9-2.3,2.84-4.18,2.83l-65.76-.51c-.38,0-.72.11-.96.32l-16.89,14.6c-.31.27-.63.42-.9.41l-15.5-.36c-.27,0-.49.24-.5.55h0v4.76c0,.27.24.5.55.51,13.06.51,16.05,2.7,20.83,14.69.73,1.85,1.1,3.96,1.11,6.33.04,8.49.11,17.02.21,25.6,0,.33-.18.6-.44.66-8.98,1.99-17.48,5.24-25.5,9.75-.56.31-.56.63,0,.94,16.53,8.96,42.41,7.64,60.45,1.86.59-.19.6-.47.02-.83-8.71-5.42-18.04-9.45-27.97-12.08-.32-.08-.54-.36-.53-.68l.95-33.25c.01-.27.26-.48.56-.48l16.25.14c.35,0,.64.22.68.51,2.38,17.01,11.67,21.49,27.8,20.79.57-.03.67-.27.3-.74l-2.91-3.61c-.25-.31-.55-.53-.87-.62-8.21-2.24-12.33-7.65-12.38-16.24,0-.33.24-.6.54-.62,5.03-.24,13.68,1.02,18.1-.7,9.35-3.64,18.96-3.05,28.78-2.78,5.46.15,10.95-1.64,16.54-1.78,11.41-.27,22.82-.66,34.24-1.19.31-.02.56-.2.58-.44.94-8.35.39-16.57-1.66-24.68-.12-.46-.52-.78-.99-.78l-37.25-.53c-.24,0-.44-.25-.44-.56h0Zm-122.24,15.67c-1.64-8.98-10.06-9.98-16.24-4.67-.27.23-.42.54-.39.82.54,6.53.35,13.05-.57,19.56-.06.4.07.75.3.81,5.32,1.34,10.66,1.46,16.02.36.32-.07.57-.35.65-.72,1.13-5.45,1.2-10.83.23-16.16Zm177.33-6.67c0-.15-.13-.27-.28-.26h0l-8.36.16c-.15,0-.27.13-.26.28l.16,8.42c0,.15.13.27.28.26l8.36-.16c.15,0,.27-.13.26-.28l-.16-8.42Zm-200.9,5.95c0-.2-.16-.37-.37-.37h0l-11.36-.02c-.2,0-.37.16-.37.37v5.26c0,.2.16.37.36.37h0l11.36.02c.2,0,.37-.16.37-.37v-5.26h.01Zm182.5,96.89c-1.35,2.47-8.86,4.24-11.47,4.64-.43.07-.52.26-.25.58l4.11,5.12c.17.22.52.33.91.29,14.8-1.53,28.39-12.98,23.81-28.87-.33-1.18-.7-1.19-1.09-.03-1.1,3.24-2.59,6.24-4.46,9.01-1.52,2.25-2.25,2.04-2.2-.63.37-20.01-6.91-52.91-23.77-64.85-4.5-3.19-8.97-3.6-14.27-2.95-7.94.97-15.91,1.29-23.9.98-15.09-.58-2.49,10.67,2.53,13,5.46,2.53,12.28,3.49,20.47,2.86.72-.06,1.39.22,1.74.73,3.53,5.13,4.82,10.83,3.88,17.12-.09.66-.13,1.01-.12,1.06,1.84,5.03,1.71,10.01-.39,14.92-.11.26-.1.61.03.95,1.71,4.72,3.41,10.01,2.3,15.07-.08.33-.06.67.06.96,3.96,9.89,12.26,11.16,21.78,9.66.37-.06.47.07.3.38h0Zm-86.8-67.21c3.06,2.33,1.26-.9,1.39-1.95.23-1.79.79-3.5,1.68-5.13.13-.23.09-.52-.08-.64-.06-.04-.12-.06-.19-.06l-6.75.11c-.26,0-.44.32-.41.72,0,.03,0,.07.01.1.46,2.71,1.91,5,4.35,6.85h0Zm36.3,8.74c-7.35-1.85-12.17-6.37-14.46-13.56-.11-.34-.34-.62-.65-.77-3.86-2.01-10.94-2.38-13.01,2.41-.8,1.84-.47,3.69.98,5.56,4.86,6.26,19.21,7.52,27.08,6.83.95-.08.97-.24.06-.47Zm386.33,244.25c21.72-.79,45.89-4.99,64.88-16.16.28-.17.5-.42.63-.72,8.73-20.9,12.64-31.7,22.15-46.47.16-.24.12-.56-.09-.76-9.05-8.4-15.76-17.98-20.13-28.74-18.89-46.52-9.87-108.55,20.45-147.96.13-.18.1-.43-.08-.56h0c-33.17-25.8-52.34,46.24-56.86,64.43-.07.29-.33.5-.63.51-20.26,1.04-40.44.26-60.55-2.35-14.14-1.84-28.26-5.55-40.42-13.53-.27-.17-.46-.44-.54-.75-4.58-17.93,2.47-45.69,17.02-57.65.19-.15.18-.26-.04-.33-.09-.03-.2-.04-.32-.05-.18,0-.38.03-.59.13-7.61,3.52-14.46,8.96-20.54,16.33-21.62,26.22-32.54,63.41-36.03,96.86-1.95,18.71,2.9,40.8,9.35,59.36,10.21,29.39,23.6,57.88,37.08,85.91.14.29.17.61.09.87l-1.1,3.34c-.09.27.08.59.4.77,9.69,5.28,18.76,11.48,27.2,18.59.19.16.5.15.76-.03,23.58-16.12,48.01-7.35,70.38,5.23.2.11.47,0,.59-.24.01-.03.03-.06.04-.09,3.89-11.83,12.1-16.38,24.61-13.65.27.06.54-.08.6-.32v-.04l3.71-25.41c.06-.43-.16-.52-.65-.27-19.81,9.95-40.29,11.22-61.42,3.8-.1-.03-.09-.05.04-.05h.01Zm-58.6-199.33c25.14,10.93,53.51,13.57,80.62,11.87.34-.03.62-.25.72-.57,5.78-18.95,14.04-36.73,24.79-53.36.84-1.31.62-1.49-.66-.56-19.19,14.01-48.46,25.31-72.17,17.72-10.11-3.24-16.77-9.92-19.97-20.04-.06-.16-.25-.23-.44-.14-.06.03-.11.07-.16.11-11.59,12.4-16,27.18-13.24,44.33.05.28.24.52.51.64h0Zm-310.12-40.92c-1.02-.87-2.22-1.14-3.6-.79-11.71,2.95-23.4,2.91-35.07-.14-.29-.08-.6,0-.8.21-4.63,4.82-1.91,11.42,3.18,14.38,10.39,6.03,26.05,3.38,36.66-.56,5.86-2.18,3.24-10.04-.37-13.1h0Zm246.59,139.89c-3.73-46.79,3.21-96.2,32.56-134.42.26-.34.18-.51-.24-.52-34.2-.92-52.74,34.21-63.27,61.23-.14.36-.43.63-.79.73-15.53,4.51-29.28,12.17-41.25,22.98-.29.26-.3.71-.02,1.02l.03.03c20.52,19.71,35.8,44.73,36.36,73.96,0,.26.24.46.51.44.08,0,.16-.03.23-.07,12.39-7.37,24.21-15.56,35.47-24.55.28-.23.43-.54.41-.83h0Zm-284.7-120.69c-.88,12.33,21.86,12.69,29.57,11.99,7.92-.73,14.7-5.36,12.62-14.36-.06-.26-.33-.43-.6-.36-.02,0-.05,0-.07.02-13.23,5.34-26.74,6.02-40.53,2.03-.41-.12-.84.11-.96.52-.02.05-.02.11-.03.16h0Zm485.96,94.1c-.26-.65-.09-.75.5-.31,5.91,4.43,12.36,7.82,19.35,10.17.25.08.35.45.24.82-7,23.61.73,48.17,11.92,69.28.1.19.35.27.54.16.03-.02.06-.04.09-.06,20.32-19.17,48.1-20.57,74.9-18.26.19.02.36-.12.38-.31,0-.04,0-.08-.01-.12-6.43-23.32-16.89-45.32-34.23-62.59-2.89-2.88-5.82-5.72-8.78-8.52-.23-.22-.37-.52-.38-.84-.94-36.79-23.24-64.07-54.53-80.73-.13-.07-.29-.02-.37.11-23.6,41.63-27.05,85.15-10.23,130.04.11.3.45.45.75.34.09-.03.16-.08.22-.15,6.35-6.9,8.67-17.75,9.49-26.77.02-.25-.15-.53-.43-.71-4.33-2.84-7.47-6.69-9.42-11.55h0ZM40.04,244.6c22.42,8.64,45.61,9.19,67.84.03.3-.12.49-.36.49-.59l-.1-11.75c0-.22-.2-.39-.43-.39-.05,0-.09,0-.14.03-22.35,7.26-45.62,8.03-67.56-.81-.24-.1-.51,0-.61.25-.02.06-.04.12-.04.18v12.49c0,.21.22.43.55.56Zm92.66-7.86c-.55,15.69,29.54,15.68,37.33,8.54,2.36-2.15,2.25-4.81-.34-7.97-.19-.22-.48-.31-.73-.21-12.01,4.52-23.94,4.29-35.77-.68-.18-.08-.38,0-.46.18-.02.04-.03.09-.03.14h0Zm56.68,39.19c.15,5.48,8.9,6.53,12.73,5.92,10.19-1.64,18.52-6.45,25-14.42,7.32-9.02,7.08-20.03-2.01-27.36-.27-.21-.39-.14-.36.19,1.53,20.5-15.82,34.33-34.86,35.15-.29.01-.51.24-.5.52h0Zm-133.95,42.67c18.82,3.82,36.44,1.22,52.87-7.81.26-.14.42-.43.41-.75l-.27-60.5c0-.17-.16-.29-.34-.28-.04,0-.09,0-.13.03-20.95,8.44-47,9.57-68.3.48-.18-.08-.39-.02-.47.14-.02.04-.03.09-.03.13l.62,60.25c0,.33.13.62.35.82,4.21,3.78,9.31,6.28,15.29,7.49Zm105-41c3.86,1.08,7.8,1.56,11.81,1.44.31,0,.59-.24.69-.57l3.83-12.68c.11-.37.08-.72-.08-.96-2.17-3.31-4.02-6.8-5.53-10.47-.17-.39-.54-.64-.91-.61l-18.74,1.36c-.32.02-.56.29-.54.6,0,.03,0,.06,0,.09,1.75,7.57,4.66,14.67,8.72,21.3.14.22.41.4.74.5Zm149.67,68.51c-25.13-27.86-53.01-52.76-73.36-77.88-.15-.18-.41-.2-.59-.06-.03.02-.06.05-.08.09-7.04,10.18-15.92,14.85-27.14,19.08-.27.1-.41.38-.34.65,8.83,32.25,23.98,61.17,45.46,86.76,6.96,8.29,20.37,22.31,30.69,22.79,27.93,1.29,54.44-6.4,78.37-20.47.28-.16.47-.43.51-.74,4.1-27.89-11.05-58.37-33.53-74.52-.28-.21-.57-.3-.8-.24-11.83,2.96-22.55,8.18-32.17,15.65-.22.17-.26.48-.08.7,0,0,0,.01.01.02,7.08,8.24,12.3,16.98,13.34,28.04.03.33-.07.38-.29.13h0Zm-69.88,146.17c74.76-2.63,138.45-72.57,215.37-41.61.66.27.88.06.66-.62-6.53-19.99-16.59-38.92-25.3-58.02-5.24-11.48-9.29-21.65-13.15-32.81-.1-.28-.4-.42-.68-.32-.05.02-.09.04-.13.07-33.57,24.63-77.51,48.61-120,50.99-12.12.67-22.27-.75-31.47-8.19-34.66-28.03-55.3-71.45-70.6-112.24-.37-1-1.11-1.73-1.95-1.93-6.64-1.55-10.82-5.57-12.53-12.06-.1-.38-.22-.39-.35-.04-3.1,8-3.51,14.44-5.29,21.88-1.26,5.25-2.08,9.37-2.46,12.34-5.83,45.78-17.76,165.7,48,181.09,5.38,1.26,12.01,1.75,19.88,1.47h0Zm-77.73-191.5l5.24-.02c.35,0,.69-.29.82-.71,1.52-4.99,2.57-10.07,3.15-15.26.04-.34-.17-.65-.47-.69l-10.73-1.4c-.21-.02-.4.19-.42.48v.1l1.55,16.77c.03.41.41.73.86.73h0Zm-.75,3.76c-.28,0-.5.3-.49.68v.07l.68,6.26c.04.42.29.74.56.74h3.5c.4,0,.75-.31.81-.74l.93-6.25c.04-.28-.19-.55-.51-.59h-.05l-5.43-.17h0Zm259.44,149.06c25.07,1.16,47.5,13.04,66.63,28.94.26.21.58.26.77.1l3.47-3.03c.16-.14.13-.43-.07-.64-.02-.02-.04-.04-.07-.06-23.08-18.85-50.68-30.52-80.65-29.35-17.82.69-36.75,5.79-53.52,12.23-43.06,16.53-85.14,37.71-132.75,34.62-23.18-1.5-42.01-18.1-50.85-39.07-8.43-20.02-11.69-43.28-12.1-65.8-.47-25.46,1.4-50.52,4.45-75.77.05-.38-.16-.72-.45-.76h-.04l-4.26-.19c-.19-.01-.38.33-.43.78-2.97,26.32-4.67,48.22-5.09,65.69-1.11,46.49,5.29,102.39,57.34,118.89,2.4.76,5.92,1.4,8,1.57,49.32,3.9,91.09-17.5,136.16-34.75,20.78-7.95,42.52-14.36,63.46-13.4h0Zm271.56-41.03c0,.13-.08.2-.27.2-19.88.37-37.75,12.46-53.46,25.79-12.05,10.23-24.1,20.44-36.16,30.64-.17.15-.18.41-.03.58.02.02.03.04.05.05,11.78,9.35,17.28,23.4,19.11,37.94.02.22.23.38.45.35.03,0,.06-.01.09-.02,20.8-7.39,41.56-14.89,62.28-22.49,10.37-3.81,48.72-17.48,50.71-29.3,3.93-23.31-.02-45.04-11.84-65.21-.27-.46-.71-.8-1.22-.95-23.95-7.04-47.35-.61-67.37,13.37-.27.18-.35.53-.19.78.01.02.03.04.04.05l8.23,9.01c.2.22.55.27.85.13,9.31-4.31,18.8-4.67,28.45-1.06.16.06.28.12.28.14h0Zm-62.75-24.87c-12.84,21.74-22.83,43.93-25.03,69.34-.07.89.21,1.03.86.42,14.21-13.36,27.91-27.88,44.84-38.02.22-.13.31-.41.19-.61-.01-.02-.03-.05-.05-.07-8.33-9.35-15.06-19.73-20.18-31.16-.17-.37-.38-.33-.63.1h0Zm-51.08,88.34c15.16-.59,24.76,20.21,26.25,32.41,1.16,9.55-2.18,16.74-10.01,21.57-.15.09-.19.28-.11.42.02.04.06.07.1.1,2.82,1.72,5.73,2.22,8.72,1.5,11.78-2.86,12.7-21.58,10.61-30.75-2.75-12.05-8.17-24.09-19.89-28.61-5.95-2.3-11.3-1.52-16.05,2.33-.9.73-.77,1.07.38,1.03h0Zm-50.83,46.57c2.71-.98,2.91-.6.59,1.13-5.81,4.33-12.37,6.67-19.7,7.01-.55.03-.98.49-.95,1.03v.06c1.05,9.76,16.4,7.86,23.23,6.46.29-.06,1.67-.09.62.59-4.65,3.02-9.59,4.32-14.82,3.91-.93-.08-1.11.25-.53.98,6.15,7.81,18.95,3.65,27.29.33,11.47-4.57,22.69-9.72,33.64-15.45,6.96-3.65,7.64-15.78,7.54-22.63-.02-1.56.34-1.66,1.07-.29,3.4,6.37,4.11,13.04,2.12,20.01-.13.47.03.63.49.46,16.17-6.06,8.73-29.8.91-38.96-3.76-4.4-8.27-5.41-13.53-3.04-.31.14-.45.49-.32.8.03.06.06.11.11.16,2.69,2.9,4.88,6.13,6.57,9.68.39.81.2.98-.55.52-14.51-8.92-30.33-17.16-46.9-21.8-10.23-2.87-19.89-1.62-28.98,3.73-8.43,4.97-16.24,10.75-23.44,17.36-2.18,1.99-4.59,3.02-7.24,3.95-.54.19-.81.78-.62,1.32.02.07.06.13.09.19,1.79,2.91,7.65,2.72,10.73,2.69.32,0,.64-.13.9-.37,7.4-6.89,16.03-11.46,25.9-13.71.43-.09.44,0,.04.28-6.76,4.69-13.88,8.42-20.3,14.11-5.8,5.15.73,13.57,7.03,12.64,7.66-1.14,15.47-4.33,22.73-7.04.3-.11.61-.04.7.17,0,.02.01.03.02.05.03.19-.06.39-.29.59-6.31,5.49-13.44,8.82-21.4,9.97-.54.07-.92.58-.84,1.13,0,.02,0,.05.01.07,1.96,8.87,7.99,7.19,15.25,5.56,4.78-1.07,9.06-2.29,12.83-3.65h0Zm32.61,23.07c19.55,16.88,38.3,33.57,55.32,53.08,9.2,10.54,26.6,33.01,23.19,48.39-1.89,8.51-13.5,13.17-20.89,15.72-19.13,6.61-37.39,13.6-53.04,27.49-.29.26-.47.6-.5.93l-.37,3.93c-.05.49.14.59.57.29,16.72-11.61,37.17-19.95,56.17-27.14,8.83-3.34,18.56-8.47,22.51-17.38,5.85-13.14-7.22-35.48-15-45.38-18.08-23.03-39-43.95-62.77-62.76-.16-.13-.48-.11-.82.05l-4.25,1.96c-.25.11-.36.4-.25.65.03.07.07.13.13.17h0Zm17.15,22.68c-.29-.26-.45-.2-.5.19-4.29,38.29-8.15,76.62-11.56,114.99-.03.31.1.35.38.12,16.39-13.44,33.61-19.09,54.52-26.36,5.42-1.89,14.36-5.8,13.81-12.91-1.19-15.22-12.93-30.51-22.74-41.6-10.33-11.67-21.63-23.14-33.91-34.43h0Z"/>
    <path class="cls-19" d="m495.17,35.43c3.1-26.4,34.31-31.97,54.09-22.16,18.92,9.4,29.75,30.81,32.91,51.17.05.33-.06.39-.31.18-24.39-19.89-55.22-27.97-86.24-28.68-.26,0-.46-.22-.45-.48v-.03h0Zm65.15-8.44c-17.05-11.61-43.18-22-55.38,2.76-.09.2-.02.44.17.53.03.02.06.03.1.03,6.09,1.19,15.06-1.44,21.31-2.61,11.23-2.09,22.42-2.14,33.57-.15.95.17,1.02-.02.23-.56Z"/>
    <path class="cls-1" d="m560.32,26.99c.79.54.72.73-.23.56-11.15-1.99-22.34-1.94-33.57.15-6.25,1.17-15.22,3.8-21.31,2.61-.21-.03-.34-.24-.3-.46,0-.04.02-.07.03-.1,12.2-24.76,38.33-14.37,55.38-2.76Z"/>
    <path class="cls-19" d="m550.81,54.97c.09.04.13.15.09.24-.01.02-.03.04-.05.06-12.37,11.52-27.13,16.19-44.28,14.01-17.25-2.18-33.58-7.68-50.02-13.11-.71-.24-.69-.36.06-.37,12.61-.22,22.23-6.24,33.31-11.56,1.39-.67,2.83-.98,4.32-.95,20.41.5,38.73,3.06,56.57,11.68h0Z"/>
    <path class="cls-23" d="m555.11,167.73c-7.81,9.45-17.6,15.62-29.37,18.51-12.1,2.96-26.93,1.22-36.64-7.18-3.11-2.69-6.23-7.01-9.38-12.97-7.9-14.97-12.94-30.28-11.09-47.48.03-.31.08-.31.13,0,1.01,5.88,4.59,9.2,10.74,9.95,11.16,1.38,23.56-3.55,27.8-14.74.34-.89.15-1.02-.57-.39-5.38,4.75-11.57,7.85-18.57,9.3-7.02,1.45-13.44,0-12.35-8.84.95-7.7,10.55-19.05,16.04-24.94.33-.36.31-.38-.08-.06l-5.86,4.82c-.6.49-.8.35-.59-.4.93-3.37.42-6.48-1.52-9.35-.1-.15-.36-.35-.78-.59-1.4-.79,3.33-7.77,4.02-8.95.16-.26.45-.39.74-.32,23.29,5.22,43.77,5.57,64.02-7.52.25-.15.57-.12.81.08,13.13,10.83,23.08,24.04,29.86,39.65.15.35.31.37.48.06,2.22-4.01,10-12.88,12.35-3.07,2.52,10.51,1.85,36.94-13.58,39.12-1.31.18-2.84-.41-4.29-.23-.28.04-.49.29-.47.57.95,14.49,1.65,28.97,2.08,43.45.02.71.23,2.31.63,4.8.04.31-.06.63-.29.85-11.79,11.38-25.63,18.49-41.52,21.33-11.32,2.03-24.66,1.2-34.13-6.08-.69-.53-.61-.9.23-1.11,21.92-5.53,44.05-14.46,51.32-38.18.1-.32.04-.35-.17-.1h0Zm-30.1-63.39c2.39,0,4.33-3.44,4.33-7.68s-1.94-7.68-4.33-7.68-4.33,3.44-4.33,7.68h0c0,4.24,1.94,7.68,4.33,7.68h0Zm37.64-2.2c-12.72,19.05-8.12,43.61-22.05,61.57-.43.55-.3.73.37.54,27.91-7.86,26.94-39.39,22.69-61.91-.17-.89-.5-.95-1.01-.2h0Zm-65.06,41.41c-3.84,0-8.06-.64-12.1-1.13-.33-.04-.34.02-.04.18,14.37,7.6,27.58,6.21,39.63-4.16.25-.21.22-.26-.09-.14-8.83,3.52-17.96,5.27-27.4,5.25h0Zm1.88,13.34c-5.03-.77-5.21-.28-.54,1.47,5.93,2.22,15.44,2.06,20.12-3.28.48-.55.37-.72-.33-.51-5.48,1.61-13.58,3.19-19.25,2.32h0Z"/>
    <ellipse class="cls-24" cx="525.01" cy="96.66" rx="4.33" ry="7.68"/>
    <path class="cls-23" d="m470.2,112.79l-.25-.25c1.57-6.43,3.87-12.74,6.9-18.93.31-.64.5-.64.57-.01.23,2.03,1.22,3.55,2.99,4.54.18.11.21.37.07.58-.03.04-.06.08-.1.11-4.41,3.95-7.8,8.6-10.18,13.96Z"/>
    <path class="cls-3" d="m562.65,102.14c.51-.75.84-.69,1.01.2,4.25,22.52,5.22,54.05-22.69,61.91-.67.19-.8,0-.37-.54,13.93-17.96,9.33-42.52,22.05-61.57Z"/>
    <path class="cls-25" d="m469.95,112.54l.25.25c-1.45,5.01-1.54,4.93-.25-.25Z"/>
    <path class="cls-4" d="m163.24,147.54l37.25.53c.47,0,.87.32.99.78,2.05,8.11,2.6,16.33,1.66,24.68-.02.24-.27.42-.58.44-11.42.53-22.83.92-34.24,1.19-5.59.14-11.08,1.93-16.54,1.78-9.82-.27-19.43-.86-28.78,2.78-4.42,1.72-13.07.46-18.1.7-.3.02-.54.29-.54.62.05,8.59,4.17,14,12.38,16.24.32.09.62.31.87.62l2.91,3.61c.37.47.27.71-.3.74-16.13.7-25.42-3.78-27.8-20.79-.04-.29-.33-.51-.68-.51l-16.25-.14c-.3,0-.55.21-.56.48l-.95,33.25c0,.32.21.6.53.68,9.93,2.63,19.26,6.66,27.97,12.08.58.36.57.64-.02.83-18.04,5.78-43.92,7.1-60.45-1.86-.57-.31-.57-.63,0-.94,8.02-4.51,16.52-7.76,25.5-9.75.26-.06.45-.33.44-.66-.1-8.58-.17-17.11-.21-25.6,0-2.37-.38-4.48-1.11-6.33-4.78-11.99-7.77-14.18-20.83-14.69-.31,0-.55-.24-.55-.51v-4.75c0-.31.22-.56.49-.56h0l15.5.36c.27,0,.59-.14.9-.41l16.89-14.6c.24-.21.58-.33.96-.32l65.76.51c1.88,0,3.27-.93,4.18-2.83,3.76-7.87,3.74-15.79-.07-23.75-.09-.2.02-.44.25-.54.03-.01.06-.02.08-.03,10.92-2.39,12.61,19.97,12.61,26.11,0,.31.2.55.44.56h0Zm-85.57,14.73c4.51.28,6.55-1.8,6.13-6.24-.04-.41-.21-.47-.51-.18l-5.86,5.88c-.33.33-.25.51.24.54Zm101-1.3c-18.99-.39-37.96-.1-56.93.87-1.24.07-2.47.24-3.7.51-.4.09-.42.14-.05.14l64,.64c.41,0,.74-.26.74-.57v-.02c-.05-2.56-.95-4.74-2.69-6.53-.11-.12-.52-.2-1.03-.2l-62.2.1c-.37,0-.37.02-.01.05,19.93,1.63,39.89,2.25,59.88,1.87.45,0,.81.06.87.17l1.41,2.56c.16.28.06.42-.29.41h0Zm-57.61,7.94c-14.65-.33-29.33-.5-44.05-.51-.34,0-.37.1-.09.3,12.82,9.17,35.24,4.55,49.04.63.32-.09.31-.14-.03-.17-1.63-.13-3.25-.22-4.87-.25h0Z"/>
    <path class="cls-24" d="m497.59,143.55c9.44.02,18.57-1.73,27.4-5.25.31-.12.34-.07.09.14-12.05,10.37-25.26,11.76-39.63,4.16-.3-.16-.29-.22.04-.18,4.04.49,8.26,1.12,12.1,1.13h0Z"/>
    <path class="cls-24" d="m499.47,156.89c5.67.87,13.77-.71,19.25-2.32.7-.21.81-.04.33.51-4.68,5.34-14.19,5.5-20.12,3.28-4.67-1.75-4.49-2.24.54-1.47h0Z"/>
    <path class="cls-4" d="m24.32,157.98c6.18-5.31,14.6-4.31,16.24,4.67.97,5.33.9,10.71-.23,16.16-.08.37-.33.65-.65.72-5.36,1.1-10.7.98-16.02-.36-.23-.06-.36-.41-.3-.81.92-6.51,1.11-13.03.57-19.56-.03-.28.12-.59.39-.82Z"/>
    <path class="cls-24" d="m77.43,161.73l5.86-5.88c.3-.29.47-.23.51.18.42,4.44-1.62,6.52-6.13,6.24-.49-.03-.57-.21-.24-.54Z"/>
    <path class="cls-24" d="m178.96,160.56l-1.41-2.56c-.06-.11-.42-.18-.87-.17-19.99.38-39.95-.24-59.88-1.87-.36-.03-.36-.05.01-.05l62.2-.1c.51,0,.92.08,1.03.2,1.74,1.79,2.64,3.97,2.69,6.53,0,.31-.31.58-.72.59h-.02l-64-.64c-.37,0-.35-.05.05-.14,1.23-.27,2.46-.44,3.7-.51,18.97-.97,37.94-1.26,56.93-.87.35,0,.45-.13.29-.41Z"/>
    <rect class="cls-22" x="209.07" y="155.79" width="8.9" height="8.96" rx=".27" ry=".27" transform="translate(-3.04 4.13) rotate(-1.1)"/>
    <rect class="cls-21" x="7.93" y="158.49" width="6" height="12.1" rx=".37" ry=".37" transform="translate(-153.62 175.18) rotate(-89.9)"/>
    <path class="cls-21" d="m121.06,168.91c1.62.03,3.24.12,4.87.25.34.03.35.08.03.17-13.8,3.92-36.22,8.54-49.04-.63-.28-.2-.25-.3.09-.3,14.72,0,29.4.18,44.05.51h0Z"/>
    <path class="cls-18" d="m199.18,258.43c-9.52,1.5-17.82.23-21.78-9.66-.12-.29-.14-.63-.06-.96,1.11-5.06-.59-10.35-2.3-15.07-.13-.35-.14-.69-.03-.95,2.1-4.91,2.23-9.89.39-14.92,0-.05.03-.4.12-1.06.94-6.29-.35-11.99-3.88-17.12-.35-.51-1.02-.79-1.74-.73-8.19.63-15.01-.33-20.47-2.86-5.02-2.33-17.62-13.58-2.53-13,7.99.31,15.96,0,23.9-.98,5.3-.65,9.77-.24,14.27,2.95,16.86,11.94,24.14,44.84,23.77,64.85-.05,2.67.68,2.88,2.2.63,1.87-2.77,3.36-5.77,4.46-9.01.39-1.16.76-1.15,1.09.03,4.58,15.89-9.01,27.34-23.81,28.87-.39.04-.74-.07-.91-.29l-4.11-5.12c-.27-.32-.18-.51.25-.58,2.61-.4,10.12-2.17,11.47-4.64.17-.31.07-.44-.3-.38h0Zm-.82-38.27c-2.15-11.61-9.09-38.86-26.65-33.73-.33.09-.34.22-.05.39,12.74,7.5,16.29,23.14,25.96,33.71.67.73.92.61.74-.37h0Z"/>
    <path class="cls-18" d="m148.98,200.34c.91.23.89.39-.06.47-7.87.69-22.22-.57-27.08-6.83-1.45-1.87-1.78-3.72-.98-5.56,2.07-4.79,9.15-4.42,13.01-2.41.31.15.54.43.65.77,2.29,7.19,7.11,11.71,14.46,13.56Z"/>
    <path class="cls-20" d="m171.71,186.43c17.56-5.13,24.5,22.12,26.65,33.73.18.98-.07,1.1-.74.37-9.67-10.57-13.22-26.21-25.96-33.71-.29-.17-.28-.3.05-.39h0Z"/>
    <path class="cls-2" d="m535.27,444.64c21.13,7.42,41.61,6.15,61.42-3.8.49-.25.71-.16.65.27l-3.71,25.41c-.04.25-.29.41-.57.37h-.04c-12.51-2.73-20.72,1.82-24.61,13.65-.08.26-.33.42-.56.36-.02,0-.05-.02-.07-.03-22.37-12.58-46.8-21.35-70.38-5.23-.26.18-.57.19-.76.03-8.44-7.11-17.51-13.31-27.2-18.59-.32-.18-.49-.5-.4-.77l1.1-3.34c.08-.26.05-.58-.09-.87-13.48-28.03-26.87-56.52-37.08-85.91-6.45-18.56-11.3-40.65-9.35-59.36,3.49-33.45,14.41-70.64,36.03-96.86,6.08-7.37,12.93-12.81,20.54-16.33.21-.1.41-.14.59-.13.12,0,.23.02.32.05.22.07.23.18.04.33-14.55,11.96-21.6,39.72-17.02,57.65.08.31.27.58.54.75,12.16,7.98,26.28,11.69,40.42,13.53,20.11,2.61,40.29,3.39,60.55,2.35.3-.01.56-.22.63-.51,4.52-18.19,23.69-90.23,56.86-64.43.18.13.21.38.08.56h0c-30.32,39.41-39.34,101.44-20.45,147.96,4.37,10.76,11.08,20.34,20.13,28.74.21.2.25.52.09.76-9.51,14.77-13.42,25.57-22.15,46.47-.13.3-.35.55-.63.72-18.99,11.17-43.16,15.37-64.88,16.16-.13,0-.14.02-.04.05h0Zm-85.39-184.06c-27.4,57.23-5.34,118.83,27.4,168.02.19.28.29.25.31-.09.97-17.02-1.18-33.62-6.45-49.81-2.37-7.31-4.72-14.62-7.04-21.95-9.75-30.84-12.88-63.78-13.36-95.98-.02-1.29-.31-1.35-.86-.19Z"/>
    <path class="cls-18" d="m476.71,245.26c-.27-.12-.46-.36-.51-.64-2.76-17.15,1.65-31.93,13.24-44.33.14-.16.36-.2.51-.1.04.03.08.08.09.13,3.2,10.12,9.86,16.8,19.97,20.04,23.71,7.59,52.98-3.71,72.17-17.72,1.28-.93,1.5-.75.66.56-10.75,16.63-19.01,34.41-24.79,53.36-.1.32-.38.54-.72.57-27.11,1.7-55.48-.94-80.62-11.87h0Z"/>
    <path class="cls-18" d="m166.59,204.34c3.61,3.06,6.23,10.92.37,13.1-10.61,3.94-26.27,6.59-36.66.56-5.09-2.96-7.81-9.56-3.18-14.38.2-.21.51-.29.8-.21,11.67,3.05,23.36,3.09,35.07.14,1.38-.35,2.58-.08,3.6.79h0Z"/>
    <path class="cls-18" d="m445.74,209.81c-29.35,38.22-36.29,87.63-32.56,134.42.02.29-.13.6-.41.83-11.26,8.99-23.08,17.18-35.47,24.55-.23.14-.53.07-.67-.15-.04-.07-.07-.14-.07-.22-.56-29.23-15.84-54.25-36.36-73.96-.29-.29-.31-.74-.04-1.02l.03-.03c11.97-10.81,25.72-18.47,41.25-22.98.36-.1.65-.37.79-.73,10.53-27.02,29.07-62.15,63.27-61.23.42,0,.5.18.24.52h0Z"/>
    <path class="cls-18" d="m158.05,235.53c-7.71.7-30.45.34-29.57-11.99.02-.42.39-.74.82-.71.06,0,.11,0,.17.03,13.79,3.99,27.3,3.31,40.53-2.03.26-.1.55.02.65.27,0,.02.02.05.02.07,2.08,9-4.7,13.63-12.62,14.36h0Z"/>
    <path class="cls-18" d="m614.44,317.64c1.95,4.86,5.09,8.71,9.42,11.55.28.18.45.46.43.71-.82,9.02-3.14,19.87-9.49,26.77-.22.24-.58.25-.82.03-.07-.06-.12-.14-.15-.22-16.82-44.89-13.37-88.41,10.23-130.04.08-.13.24-.18.37-.11,31.29,16.66,53.59,43.94,54.53,80.73.01.32.15.62.38.84,2.96,2.8,5.89,5.64,8.78,8.52,17.34,17.27,27.8,39.27,34.23,62.59.05.18-.06.37-.25.42-.04.01-.08.01-.12.01-26.8-2.31-54.58-.91-74.9,18.26-.16.15-.41.15-.57-.01-.03-.03-.05-.06-.06-.09-11.19-21.11-18.92-45.67-11.92-69.28.11-.37,0-.74-.24-.82-6.99-2.35-13.44-5.74-19.35-10.17-.59-.44-.76-.34-.5.31h0Zm38.17-17.24c3.54,4.9,9.59,11.84,15.54,14.93.3.15.43.06.4-.28-2.27-22.14-9.95-67.28-42.01-60.68-.21.04-.34.24-.3.44,0,.04.02.08.04.12,8.41,15.24,16.15,31.35,26.33,45.47Z"/>
    <path class="cls-22" d="m107.88,244.63c-22.23,9.16-45.42,8.61-67.84-.03-.33-.13-.55-.35-.55-.56v-12.49c0-.26.21-.47.47-.47.06,0,.12,0,.18.04,21.94,8.84,45.21,8.07,67.56.81.22-.08.47.03.55.23.02.04.02.08.02.13l.1,11.75c0,.23-.19.47-.49.59h0Zm-48.99-5.06c-3.76-.39-7.3-1.18-10.99-2.09-.28-.07-.57.04-.64.24,0,.03,0,.05,0,.08l-.07,4.74c0,.73.39,1.36,1,1.57,3.5,1.21,7.1,1.96,10.8,2.27.41.04.77-.19.81-.51v-.09l-.34-5.74c0-.24-.25-.44-.56-.47h0Z"/>
    <path class="cls-18" d="m170.03,245.28c-7.79,7.14-37.88,7.15-37.33-8.54,0-.19.16-.35.35-.35.05,0,.1,0,.14.03,11.83,4.97,23.76,5.2,35.77.68.25-.1.54,0,.73.21,2.59,3.16,2.7,5.82.34,7.97Z"/>
    <path class="cls-21" d="m47.9,237.48c3.69.91,7.23,1.7,10.99,2.09.31.03.55.23.56.47l.34,5.74c.02.32-.29.59-.7.6h-.11c-3.7-.31-7.3-1.06-10.8-2.27-.61-.21-1.01-.84-1-1.57l.07-4.74c0-.22.25-.37.54-.34.04,0,.07,0,.11.02Z"/>
    <path class="cls-18" d="m202.11,281.85c-3.83.61-12.58-.44-12.73-5.92,0-.28.21-.51.5-.52h0c19.04-.82,36.39-14.65,34.86-35.15-.03-.33.09-.4.36-.19,9.09,7.33,9.33,18.34,2.01,27.36-6.48,7.97-14.81,12.78-25,14.42Z"/>
    <path class="cls-22" d="m55.43,318.6c-5.98-1.21-11.08-3.71-15.29-7.49-.22-.2-.34-.49-.35-.82l-.62-60.25c0-.17.15-.31.34-.3.05,0,.11,0,.16.03,21.3,9.09,47.35,7.96,68.3-.48.17-.07.37,0,.44.14.02.03.03.07.03.11l.27,60.5c0,.32-.15.61-.41.75-16.43,9.03-34.05,11.63-52.87,7.81Zm5.88-58.46c-5.08-.42-10.09-1.24-15.04-2.47-.23-.06-.46.16-.52.49,0,.04,0,.09,0,.13v50.75c0,.44.16.8.4.91,4.65,2.16,9.51,3.61,14.6,4.34.21.03.4-.27.43-.67v-.08l.29-53c0-.22-.07-.39-.15-.4Z"/>
    <path class="cls-20" d="m668.15,315.33c-5.95-3.09-12-10.03-15.54-14.93-10.18-14.12-17.92-30.23-26.33-45.47-.1-.18-.04-.41.14-.52.04-.02.08-.03.12-.04,32.06-6.6,39.74,38.54,42.01,60.68.03.34-.1.43-.4.28Z"/>
    <path class="cls-4" d="m160.43,277.6c-.33-.1-.6-.28-.74-.5-4.06-6.63-6.97-13.73-8.72-21.3-.07-.3.12-.6.44-.68.03,0,.06,0,.09,0l18.74-1.36c.37-.03.74.22.91.61,1.51,3.67,3.36,7.16,5.53,10.47.16.24.19.59.08.96l-3.83,12.68c-.1.33-.38.56-.69.57-4.01.12-7.95-.36-11.81-1.44Z"/>
    <path class="cls-21" d="m61.31,260.14c.08,0,.15.18.15.4l-.29,53c0,.4-.18.74-.39.75h-.04c-5.09-.73-9.95-2.18-14.6-4.34-.24-.11-.4-.47-.4-.91v-50.75c0-.33.2-.61.43-.63h.1c4.95,1.23,9.96,2.05,15.04,2.47h0Z"/>
    <path class="cls-21" d="m449.88,260.58c.55-1.16.84-1.1.86.19.48,32.2,3.61,65.14,13.36,95.98,2.32,7.33,4.67,14.64,7.04,21.95,5.27,16.19,7.42,32.79,6.45,49.81-.02.34-.12.37-.31.09-32.74-49.19-54.8-110.79-27.4-168.02h0Z"/>
    <path class="cls-23" d="m310.39,345.98c-1.04-11.06-6.26-19.8-13.34-28.04-.18-.21-.16-.52.05-.71,0,0,.01-.01.02-.01,9.62-7.47,20.34-12.69,32.17-15.65.23-.06.52.03.8.24,22.48,16.15,37.63,46.63,33.53,74.52-.04.31-.23.58-.51.74-23.93,14.07-50.44,21.76-78.37,20.47-10.32-.48-23.73-14.5-30.69-22.79-21.48-25.59-36.63-54.51-45.46-86.76-.07-.27.07-.55.34-.65,11.22-4.23,20.1-8.9,27.14-19.08.13-.19.39-.24.58-.11.03.02.06.05.09.08,20.35,25.12,48.23,50.02,73.36,77.88.22.25.32.2.29-.13h0Zm-81.04-44.47c11.29,41.04,34.01,99.06,89.9,81.52.42-.13.46-.35.13-.64-10.08-8.74-24.29-10.51-35.68-17.38-23.78-14.32-41.34-39.86-53.8-63.81-.26-.51-.83-.69-.55.31h0Z"/>
    <path class="cls-4" d="m162.49,300.78c-.45,0-.83-.32-.86-.73l-1.55-16.77c-.02-.29.13-.55.35-.58h.07l10.73,1.4c.3.04.51.35.47.69-.58,5.19-1.63,10.27-3.15,15.26-.13.42-.47.71-.82.71l-5.24.02Z"/>
    <path class="cls-3" d="m319.25,383.03c-55.89,17.54-78.61-40.48-89.9-81.52-.28-1,.29-.82.55-.31,12.46,23.95,30.02,49.49,53.8,63.81,11.39,6.87,25.6,8.64,35.68,17.38.33.29.29.51-.13.64h0Z"/>
    <path class="cls-4" d="m161.74,304.54l5.43.17c.32.01.57.26.56.54v.05l-.93,6.25c-.06.43-.41.74-.81.74h-3.5c-.27,0-.52-.32-.56-.74l-.68-6.26c-.04-.37.16-.71.43-.75h.06Z"/>
    <path class="cls-22" d="m421.18,453.6c-20.94-.96-42.68,5.45-63.46,13.4-45.07,17.25-86.84,38.65-136.16,34.75-2.08-.17-5.6-.81-8-1.57-52.05-16.5-58.45-72.4-57.34-118.89.42-17.47,2.12-39.37,5.09-65.69.05-.45.24-.79.43-.78l4.26.19c.3.01.52.33.49.71v.05c-3.05,25.25-4.92,50.31-4.45,75.77.41,22.52,3.67,45.78,12.1,65.8,8.84,20.97,27.67,37.57,50.85,39.07,47.61,3.09,89.69-18.09,132.75-34.62,16.77-6.44,35.7-11.54,53.52-12.23,29.97-1.17,57.57,10.5,80.65,29.35.23.18.31.47.19.65-.01.02-.03.04-.05.05l-3.47,3.03c-.19.16-.51.11-.77-.1-19.13-15.9-41.56-27.78-66.63-28.94h0Z"/>
    <path class="cls-23" d="m692.46,412.43c-9.65-3.61-19.14-3.25-28.45,1.06-.3.14-.65.09-.85-.13l-8.23-9.01c-.2-.22-.16-.57.09-.78.02-.02.04-.03.06-.05,20.02-13.98,43.42-20.41,67.37-13.37.51.15.95.49,1.22.95,11.82,20.17,15.77,41.9,11.84,65.21-1.99,11.82-40.34,25.49-50.71,29.3-20.72,7.6-41.48,15.1-62.28,22.49-.21.07-.45-.03-.52-.24,0-.03-.02-.06-.02-.09-1.83-14.54-7.33-28.59-19.11-37.94-.18-.14-.21-.4-.07-.58.02-.02.03-.04.05-.05,12.06-10.2,24.11-20.41,36.16-30.64,15.71-13.33,33.58-25.42,53.46-25.79.19,0,.28-.07.27-.2,0-.02-.12-.08-.28-.14h0Zm28.85-4.55c-10.22,26.95-31.77,39.78-52.34,56.37-5.1,4.11-8.37,9.29-9.81,15.53-.09.39.16.77.55.86.1.02.19.02.29,0,36.38-6.59,79.03-25.91,62.18-72.76-.28-.79-.57-.79-.87-.01h0Z"/>
    <path class="cls-3" d="m721.31,407.88c.3-.78.59-.78.87.01,16.85,46.85-25.8,66.17-62.18,72.76-.4.07-.78-.19-.85-.58-.02-.1-.01-.19,0-.29,1.44-6.24,4.71-11.42,9.81-15.53,20.57-16.59,42.12-29.42,52.34-56.37h0Z"/>
    <path class="cls-18" d="m605.16,508.45c-1.49-12.2-11.09-33-26.25-32.41-1.15.04-1.28-.3-.38-1.03,4.75-3.85,10.1-4.63,16.05-2.33,11.72,4.52,17.14,16.56,19.89,28.61,2.09,9.17,1.17,27.89-10.61,30.75-2.99.72-5.9.22-8.72-1.5-.14-.09-.18-.27-.09-.42.03-.04.06-.08.1-.1,7.83-4.83,11.17-12.02,10.01-21.57h0Z"/>
    <path class="cls-18" d="m528.08,522.61c-3.77,1.36-8.05,2.58-12.83,3.65-7.26,1.63-13.29,3.31-15.25-5.56-.12-.54.22-1.07.76-1.19.02,0,.05,0,.07-.01,7.96-1.15,15.09-4.48,21.4-9.97.23-.2.32-.4.29-.59-.05-.22-.33-.33-.64-.24-.03,0-.05.01-.08.02-7.26,2.71-15.07,5.9-22.73,7.04-6.3.93-12.83-7.49-7.03-12.64,6.42-5.69,13.54-9.42,20.3-14.11.4-.28.39-.37-.04-.28-9.87,2.25-18.5,6.82-25.9,13.71-.26.24-.58.37-.9.37-3.08.03-8.94.22-10.73-2.69-.3-.48-.15-1.12.34-1.42.06-.04.13-.07.19-.09,2.65-.93,5.06-1.96,7.24-3.95,7.2-6.61,15.01-12.39,23.44-17.36,9.09-5.35,18.75-6.6,28.98-3.73,16.57,4.64,32.39,12.88,46.9,21.8.75.46.94.29.55-.52-1.69-3.55-3.88-6.78-6.57-9.68-.22-.24-.2-.63.04-.85.05-.04.1-.08.17-.11,5.26-2.37,9.77-1.36,13.53,3.04,7.82,9.16,15.26,32.9-.91,38.96-.46.17-.62.01-.49-.46,1.99-6.97,1.28-13.64-2.12-20.01-.73-1.37-1.09-1.27-1.07.29.1,6.85-.58,18.98-7.54,22.63-10.95,5.73-22.17,10.88-33.64,15.45-8.34,3.32-21.14,7.48-27.29-.33-.58-.73-.4-1.06.53-.98,5.23.41,10.17-.89,14.82-3.91,1.05-.68-.33-.65-.62-.59-6.83,1.4-22.18,3.3-23.23-6.46-.06-.54.34-1.03.89-1.09h.06c7.33-.34,13.89-2.68,19.7-7.01,2.32-1.73,2.12-2.11-.59-1.13h0Zm-17.47-41.01c11.69,2.07,22.34,4.45,31.94,7.14,7.15,1.99,14.95,3.16,23.4,3.49.34.01.37-.08.09-.27-13.73-9.25-39.74-22.49-55.51-10.68-.23.17-.2.27.08.32h0Z"/>
    <path class="cls-2" d="m552.86,710.05h-34.93c-.11-27.12-.37-54.22-.78-81.32-.28-18.48-.32-46.26-6.45-67.41-.09-.32-.15-.31-.16.02-2.26,49.55-2.71,99.12-1.36,148.7h-32c-7.2-59.88-14.52-120.05-15.37-180.43-.25-17.93.74-35.78,2.96-53.55.03-.22.21-.39.4-.38.05,0,.09.02.14.04l17.49,11.27c.22.14.27.44.13.66-.01.02-.03.04-.05.06-3.18,3.49-6.58,6-11.24,6.98-2.53.53-3.19,3.18-2.09,5.33,2.05,4.04,6.15,6.37,12.31,6.99.98.1,1.78.81,1.99,1.76,1.29,5.68,4.79,11.08,10.57,13.23.3.11.53.38.64.74,1.11,3.78,3.12,7.01,6.04,9.69.36.33.6.65.65.85.97,3.95,3.15,7.02,6.55,9.2.3.19.52.46.64.75,7.26,18.4,32.83,9.61,45.59,4.26.3-.13.64-.07.87.14l8.8,7.95c.21.19.31.55.27.94-5.15,51.08-9.02,102.26-11.61,153.53h0Z"/>
    <path class="cls-20" d="m510.61,481.6c-.28-.05-.31-.15-.08-.32,15.77-11.81,41.78,1.43,55.51,10.68.28.19.25.28-.09.27-8.45-.33-16.25-1.5-23.4-3.49-9.6-2.69-20.25-5.07-31.94-7.14h0Z"/>
    <path class="cls-22" d="m560.69,545.68c-.21-.18-.23-.49-.05-.69.05-.06.11-.1.17-.13l4.25-1.96c.34-.16.66-.18.82-.05,23.77,18.81,44.69,39.73,62.77,62.76,7.78,9.9,20.85,32.24,15,45.38-3.95,8.91-13.68,14.04-22.51,17.38-19,7.19-39.45,15.53-56.17,27.14-.43.3-.62.2-.57-.29l.37-3.93c.03-.33.21-.67.5-.93,15.65-13.89,33.91-20.88,53.04-27.49,7.39-2.55,19-7.21,20.89-15.72,3.41-15.38-13.99-37.85-23.19-48.39-17.02-19.51-35.77-36.2-55.32-53.08h0Z"/>
    <path class="cls-24" d="m517.93,710.04h-8.75c-1.35-49.58-.9-99.15,1.36-148.7.01-.33.07-.34.16-.02,6.13,21.15,6.17,48.93,6.45,67.41.41,27.1.67,54.2.78,81.31Z"/>
  </g>
</svg>