<?xml version="1.0" encoding="UTF-8"?>
<svg xmlns="http://www.w3.org/2000/svg" xmlns:xlink="http://www.w3.org/1999/xlink" viewBox="0 0 5000 5000">
  <defs>
    <style>
      .cls-1 {
        fill: #ecc19c;
      }

      .cls-2 {
        fill: url(#linear-gradient-2);
      }

      .cls-3 {
        fill: url(#radial-gradient-7);
      }

      .cls-4 {
        fill: #fff;
      }

      .cls-5 {
        fill: #f9c44f;
      }

      .cls-6, .cls-7 {
        fill: #f15a29;
      }

      .cls-8 {
        fill: url(#radial-gradient-8);
      }

      .cls-9 {
        fill: #9b8579;
      }

      .cls-10 {
        fill: url(#radial-gradient-5);
      }

      .cls-11 {
        fill: #5e151e;
      }

      .cls-12 {
        fill: #726658;
      }

      .cls-13 {
        fill: #c15c59;
      }

      .cls-14 {
        fill: url(#radial-gradient-4);
      }

      .cls-15 {
        isolation: isolate;
      }

      .cls-16 {
        fill: #be1e2d;
      }

      .cls-17 {
        fill: #f5e0cd;
        opacity: .28;
      }

      .cls-18 {
        fill: url(#radial-gradient-6);
      }

      .cls-19 {
        fill: url(#Degradado_sin_nombre_3);
      }

      .cls-20 {
        fill: #603913;
      }

      .cls-21 {
        fill: url(#radial-gradient);
      }

      .cls-22 {
        fill: #1a98ff;
      }

      .cls-22, .cls-23, .cls-24, .cls-25, .cls-26 {
        mix-blend-mode: multiply;
      }

      .cls-27 {
        fill: #3c2415;
      }

      .cls-28, .cls-23, .cls-24 {
        fill: #f1f2f2;
      }

      .cls-29 {
        fill: #fbb040;
      }

      .cls-30 {
        fill: #dfb28b;
      }

      .cls-31 {
        opacity: .27;
      }

      .cls-31, .cls-32 {
        fill: #58595b;
      }

      .cls-33 {
        fill: url(#radial-gradient-2);
      }

      .cls-34 {
        fill: none;
      }

      .cls-35 {
        fill: url(#radial-gradient-3);
      }

      .cls-36 {
        fill: #7a4836;
      }

      .cls-37 {
        fill: #b08874;
      }

      .cls-24 {
        opacity: .82;
      }

      .cls-38 {
        fill: #f7941d;
      }

      .cls-39 {
        fill: url(#linear-gradient-3);
      }

      .cls-40 {
        fill: url(#linear-gradient);
      }

      .cls-7 {
        stroke: #f1f2f2;
        stroke-miterlimit: 10;
      }

      .cls-25 {
        fill: #e2e8de;
      }

      .cls-26 {
        fill: #e6e7e8;
      }

      .cls-41 {
        fill: #ff0;
      }

      .cls-42 {
        fill: #fa7e7d;
      }

      .cls-43 {
        fill: #414042;
      }
    </style>
    <linearGradient id="Degradado_sin_nombre_3" data-name="Degradado sin nombre 3" x1="181.56" y1="2422.57" x2="4745.65" y2="2422.57" gradientUnits="userSpaceOnUse">
      <stop offset="0" stop-color="#fff"/>
      <stop offset=".09" stop-color="#fef4fa"/>
      <stop offset=".23" stop-color="#fcd9ee"/>
      <stop offset=".42" stop-color="#f8adda"/>
      <stop offset=".64" stop-color="#f470be"/>
      <stop offset=".89" stop-color="#ee249c"/>
      <stop offset="1" stop-color="#ec008c"/>
    </linearGradient>
    <linearGradient id="linear-gradient" x1="2896.82" y1="470.6" x2="2243.68" y2="812.6" gradientUnits="userSpaceOnUse">
      <stop offset="0" stop-color="#f15a29"/>
      <stop offset="1" stop-color="#fbb040"/>
    </linearGradient>
    <radialGradient id="radial-gradient" cx="1815.01" cy="1924.38" fx="1815.01" fy="1924.38" r="36.53" gradientUnits="userSpaceOnUse">
      <stop offset="0" stop-color="#ed1c24"/>
      <stop offset="1" stop-color="#f7931e"/>
    </radialGradient>
    <radialGradient id="radial-gradient-2" cx="715.7" cy="2274.76" fx="715.7" fy="2274.76" r="26.23" xlink:href="#radial-gradient"/>
    <radialGradient id="radial-gradient-3" cx="4120.7" cy="2195.44" fx="4120.7" fy="2195.44" r="26.23" xlink:href="#radial-gradient"/>
    <radialGradient id="radial-gradient-4" cx="997.97" cy="2074.84" fx="997.97" fy="2074.84" r="38.63" xlink:href="#radial-gradient"/>
    <radialGradient id="radial-gradient-5" cx="3711.05" cy="2620.11" fx="3711.05" fy="2620.11" r="38.63" xlink:href="#radial-gradient"/>
    <radialGradient id="radial-gradient-6" cx="2977.85" cy="1902.67" fx="2977.85" fy="1902.67" r="38.63" xlink:href="#radial-gradient"/>
    <radialGradient id="radial-gradient-7" cx="781.43" cy="2481.55" fx="781.43" fy="2481.55" r="40.51" xlink:href="#radial-gradient"/>
    <radialGradient id="radial-gradient-8" cx="4120.7" cy="1684.87" fx="4120.7" fy="1684.87" r="39.61" xlink:href="#radial-gradient"/>
    <linearGradient id="linear-gradient-2" x1="2809.6" y1="838.72" x2="2858.65" y2="965.31" gradientUnits="userSpaceOnUse">
      <stop offset="0" stop-color="#fff"/>
      <stop offset="1" stop-color="#f9ed32"/>
    </linearGradient>
    <linearGradient id="linear-gradient-3" x1="2686.78" y1="362.7" x2="2735.83" y2="489.29" xlink:href="#linear-gradient-2"/>
  </defs>
  <g class="cls-15">
    <g id="Capa_2" data-name="Capa 2">
      <g id="Layer_3" data-name="Layer 3">
        <path class="cls-19" d="m1947.75,174.05c1147.93-258.59,2751.43,773.26,2796.92,2125.5,37.12,1103.48-980.12,1919.32-1795.85,2216.54-654.29,238.4-1770.68,358.76-2345.14-246.86C-341.54,3272.76,384.62,526.17,1947.75,174.05Z"/>
      </g>
      <g id="Layer_2" data-name="Layer 2">
        <path class="cls-1" d="m2540.14,1803.43c-32.14,19.28-82.28,79.71-82.28,79.71-44,78.45-24,117-24,117,0,0-39.75,9.59-76.52,14.03-17.09,2.07-28.51-35.37-40.02-37-36.27-5.14-66.29-86.65-66.29-86.65,0,0,51.26-51.09,58.97-84.52,1.75-7.59,2.38-17.67,2.29-28.71-.17-23.02-3.41-50.22-5.89-67.82-1.57-11.11-2.83-18.39-2.83-18.39,6.91-2.52,23.52,2.28,44.91,11.11,70.12,28.94,191.66,101.24,191.66,101.24Z"/>
        <path class="cls-24" d="m2540.14,1803.43c-32.14,19.28-82.28,79.71-82.28,79.71-44,78.45-24,117-24,117,0,0-39.75,9.59-76.52,14.03.01-2.01.08-4.12.23-6.31,4.16-61.58-24.53-165.15-45.28-230.57-.17-23.02-3.41-50.22-5.89-67.82,9.99-2.61,24.6-5.12,42.08-7.28,70.12,28.94,191.66,101.24,191.66,101.24Z"/>
        <path class="cls-27" d="m2504.96,1548.86c1.44-6.68-33.05-77.14-102.06-30.86-69.01,46.29-99.33,101.57-99.33,101.57l54.04-24.43s-15.82,15.43-19.77,24.43,31.72-6.28,31.72-6.28c0,0,119.28,10.14,135.39-64.43Z"/>
        <path class="cls-27" d="m2500.04,1572s-12.61-70.71,65.81-99c78.43-28.29,106.71,41.14,135,99,28.29,57.86,29.57,145.29,29.57,145.29,0,0-42.43-88.71-39.86-84.86,2.57,3.86,33.43,43.71,12.86,114.43-20.57,70.71-36,69.58-36,69.58,0,0,12.86-24.58,3.86-56.72,0,0-15.43,66.86-42.43,90,0,0,11.57-31.84-1.29-33.28,0,0-10.29,65.42-56.57,73.13l18-38.57s-57.1,22.87-82.29,45c-22.22,19.52-40.31,14.14-40.31,14.14l13.31-33.43-21.86,6.43,69.47-77.35s18.07,21.15,61.3-2.11c0,0,40.89-17.5,24.35-38.16l-4.55-8.52-54.86,16s38.86-34.86,44.57-64l5.71-22.77s16.57,5.63,24-6.94c7.43-12.57,0-33.71-10.86-53.14-10.86-19.43-54.29-51.43-72-56-17.71-4.57-44.96,1.86-44.96,1.86Z"/>
        <path class="cls-1" d="m2507.91,1559.29c-3.37,1.04-80.08,5.71-86.55,21.14-6.48,15.43-11.19,12-11.19,12,0,0-55.49,14.71-82.43,45.57-26.94,30.86-53.91,41.49-45.49,56.57,21.32,38.14,163.83,117,249.06,111,0,0,1.32,18.43,33.56,7.29,32.24-11.14,59.62-29.14,50.34-43.71-9.27-14.57-37.09-8.14-30.47-12,6.62-3.86,56.53-78.86,56.97-89.14s-53.88-133.43-133.81-108.71Z"/>
        <path class="cls-16" d="m2422.14,1594.47s28.86-22.04,41.43,8.53c0,0-10.86-23.06-41.43-8.53Z"/>
        <path class="cls-16" d="m2500,1618.29s44-20.57,66.71,32.14c0,0-14.71-33-66.71-32.14Z"/>
        <path class="cls-37" d="m2446.71,1626c-1.71-6.86-3.43-25.86-12.86-23-9.43,2.86-20.57,10.38-21.43,11.33-.86.95,34.29,11.67,34.29,11.67Z"/>
        <path class="cls-17" d="m2478,1596.86c-2.14,0-44.14,6.14-44.14,6.14,0,0,9-4.43,12.86,23l31.29-29.14Z"/>
        <path class="cls-42" d="m2452.95,1679.07c-5.95,6.4-16.6,13.19-30.81,14.64-7.17.73-15.67,1.4-24.43,1.76-21.94.89-45.46-.16-53.42-6.9-11.15-9.43-8.95-36.38,0-42.86,8.94-6.47,9.67-21,53.48-18.42,3.34.19,56.66,36,60.09,40.28,1.49,1.87-.31,6.57-4.91,11.5Z"/>
        <path class="cls-28" d="m2363.57,1657.29s-8.57-27.86,34.71-6.86l44.57,23.57,2.14-4.71s-34.55-32.14-41.06-34.71c-6.51-2.57-25.37-6.43-34.8-4.29-9.43,2.14-20.14,9.86-18.43,16.29,1.71,6.43,12.86,10.71,12.86,10.71Z"/>
        <path class="cls-28" d="m2347.71,1682.57s40.68,14.87,64.7,8.51v3.51s-46.27,7.7-68.13-6.02l3.43-6Z"/>
        <path class="cls-13" d="m2452.95,1679.07c-5.95,6.4-16.6,13.19-30.81,14.64-7.17.73-15.67,1.4-24.43,1.76-1.79-1.2-2.94-2.23-3.22-2.91-1.57-3.77,31.65-20.7,31.65-20.7,0,0,14.32,1.83,26.81,7.21Z"/>
        <path class="cls-32" d="m2635.13,3535.74l-82.62-92.34-26.69-29.83,309.07-279.43c-237.13-155.16-444.46-147.56-542.43-130.97-9.15,1.55-17.35,3.18-24.53,4.76-22.96,5.06-35.5,9.64-35.5,9.64,0,0-102.86,291.43-140.57,582.86-27.65,213.63,36.82,430.93,73.21,546.59l-21.01,2.08-118.5,11.72c-52.7-117.54-147.56-341.49-211.42-563.82-71.01-247.24-56.35-619.57-45.66-779.57.38-5.71.78-11.36,1.19-16.89,3.08-41.51,6.76-76.11,6.76-76.11,260.87-184.27,679.98-122.39,705.1-118.48.34.06.62.1.81.13.25.04.37.06.37.06l-4.71,68.57c300.43,30.86,663,401.15,714.43,507.43,38.6,79.77-357.35,265.77-557.3,353.6Z"/>
        <path class="cls-26" d="m2267.93,3007.93c-22.96,5.06-35.5,9.64-35.5,9.64,0,0-102.86,291.43-140.57,582.86-27.65,213.63,36.82,430.93,73.21,546.59l-21.01,2.08c-8.49-13.45-14.03-28.88-19.39-43.99-48.01-135.48-96.58-274-98.35-417.73-.68-55.28,5.61-110.4,13.52-165.11,20.23-139.95,51.09-278.37,92.24-413.65,15.98-52.55,46.31-138.01,114.74-127.21,1.18.19,2.34.39,3.49.62,20.59,3.37,25.83,3.72,61.17,5.3-1.3-.06-41.93,19.05-43.55,20.6Z"/>
        <path class="cls-26" d="m2890.45,3184.52c-1.33,11.11-9.53,19.99-17.31,28.03-52.1,53.8-104.75,108.06-167.3,149.26-48.38,31.86-101.69,55.25-153.33,81.59l-26.69-29.83,309.07-279.43c-237.13-155.16-444.46-147.56-542.43-130.97-16.49,2.64-5.84,3.39-26.72,5.25,70.22-38.15,159.14-56.08,234.11-52.49,66.98,3.2,134.72,7.83,198.54,28.42,63.82,20.59,124.21,58.92,158.79,116.38,11.13,18.48,19.38,38.52,27.58,58.48,3.33,8.09,6.72,16.62,5.69,25.31Z"/>
        <path class="cls-25" d="m2482.34,2606.08c.25.04.37.06.37.06l-4.71,68.57s-243.18-51.69-703.41,123.96c-1.65.63-3.29,1.25-4.92,1.87,3.08-41.51,6.76-76.11,6.76-76.11,0,0,219.06-199.73,705.1-118.48.27.04.54.08.81.13Z"/>
        <path class="cls-22" d="m2906.42,2434.53c-4.45,20.29-9.14,41.31-13.95,62.43-28.74,126.25-61.8,256.39-75.47,260.04-25.71,6.86-250.29-68.57-291.43-387.43,0,0-1.97.96-5.27,3.43-12.68,9.5-44.88,41.38-59.1,127l14.66,30.71-18,39.43,26.57,11.86-1.72,24.14s-87.02-13.78-206.1-13.25c-152.63.65-357.95,24.79-500.18,131.54,0,0-59.12-889.98,493.57-1546.33l148.01,74.74c-6.03,9.25-12.06,18.57-18.06,27.9-62.82,97.8-121.96,197.81-133.24,243.69-21.07,85.72-62.89,212.22-48.48,294.03,3.16,18,9.05,33.84,18.48,46.6l.41.62,35.23,54.18,56.08,86.25,49.92-38.11,60.66,28.21,17.16,7.98,95.15,44.26c22.68,13.64,47.7,33.51,63.39,60.55,34.62,59.67,147.43,334.29,147.43,334.29l35.51-75.04,108.77,66.28Z"/>
        <path class="cls-26" d="m2906.42,2434.53c-4.45,20.29-9.14,41.31-13.95,62.43-5.19,3.45-10.11,7.26-14.71,11.54-11.28,10.49-20.45,23.7-34.01,31.02-29.69,16.01-93.04,33.02-120.24,13.08-101.98-74.77-123.59-335.94-168.53-454.15-10.6,7.47-49,138.57-53.77,150.63,3.2-43.33-2.8-87.31-17.48-128.19-9.69,21.11-20.27,41.81-31.7,62.03,13.9-49.98,13.64-103.65.28-153.72-3.06-11.48-8.08-22.31-13.3-32.99l17.16,7.98,95.15,44.26c22.68,13.64,47.7,33.51,63.39,60.55,34.62,59.67,147.43,334.29,147.43,334.29l35.51-75.04,108.77,66.28Z"/>
        <path class="cls-27" d="m2509.29,1599c5.14-.86,48.43-15.86,70.29,12.43l8.14,32.14-18.86-24.65s-21.43-20.78-59.57-12.63v-7.29Z"/>
        <path class="cls-27" d="m2481,1594.27l7.71-7.48s-24.51-23.43-39.63-17.78l-10.59,3.49s29.65,5.89,42.51,21.77Z"/>
        <polygon class="cls-11" points="2371.25 2014.26 2410.36 2008.71 2378.35 1968 2344.29 1980.86 2371.25 2014.26"/>
        <path class="cls-9" d="m2364.49,2025.4s188.36,217.1,330.65,45.67c0,0,30.86-44.57,37.71-154.29l120-85.71s18.86,129.35,10.29,152.96c-8.57,23.61-274.29,376.75-510.86,41.37h12.21Z"/>
        <path class="cls-5" d="m2569.06,375.8s8.39-108.4-92.84-119.54c-101.23-11.14-221.13,99.92-199.91,285.21,0,0,28.97,105.24-62.07,122.38,0,0-25.2,11.52-37.71-6.86l-19.54,10.29,26.96,45.27,59.31-28.17s105.13-26.08,65.7-151.99c0,0-31.41-162.68,106.75-232.71,0,0,57.93-20.25,97.65,12.52,0,0,48.27,48.59-12.6,89.98,0,0-27.64-28.08-37.68,4.54,0,0-24.5,23.22,27.18,31.35,0,0,80.91-30.43,78.79-62.27Z"/>
        <path class="cls-1" d="m2566.71,1034.14s43.29,11.84,71.14,9.27c27.86-2.57,2.75-32.69,12-51.7,7.71-15.86-14.14-44.76-9.43-47.76,4.71-3-141-72.24-153.86-56.38-12.86,15.86-6.43,98.14-6.43,98.14l-173.43,150.14c-12.53,13.96-24.76,28.05-36.72,42.25l148.01,74.73c74.72-114.66,148.7-218.7,148.7-218.7Z"/>
        <path class="cls-6" d="m2488.71,1955.14h-100.29l-44.14,25.71,9.35,9.29,24.72-22.15s26.78,73.29,51.21,77.14l70.44-20.57-11.29-69.43Z"/>
        <path class="cls-12" d="m2318.31,1984.62s-7.7,50.78,19.77,52.4c27.46,1.62,50.1-4.75,49.13-28.75s-33.97-46.58-33.97-46.58c0,0-39.64-3.67-34.93,22.93Z"/>
        <path class="cls-6" d="m2260.65,1853.4c28.29,18.35,80.64,106.45,80.64,106.45l-45.78,62.78s-33.08-83.35-58.79-152.78l23.94-16.45Z"/>
        <path class="cls-1" d="m2942.14,2261.57c-1.57,10.47-11.45,60.06-25.14,124.12-3.32,15.55-6.87,31.94-10.58,48.84l-108.77-66.28,16.83-35.57,38.52-81.39s-60-45.43-61.71-75c0,0-1.11.72-2.92,1.75-5.99,3.42-19.65,10.34-26.23,6.39-7.04-4.22-40.54-12.55-14.38-51.54,5.67-8.46,14.15-18.36,26.32-29.97,0,0,135.49-50.49,149.21-28.21,13.71,22.29,24,152.58,18.85,186.86Z"/>
        <path class="cls-7" d="m2303.57,1104.43l-107.14,132s124.29-36,207.86,77.14l59.32-116.57s-32.32-121.71-160.03-92.57Z"/>
        <path class="cls-6" d="m2791.29,2318.14s80.57,58.29,140.57,48l-46.29,160.83s-98.65,4.46-147.65-126.54l53.37-82.29Z"/>
        <polygon class="cls-36" points="1912.71 629.57 2167.29 1156.71 2330.02 1079.57 2064.43 560.14 1912.71 629.57"/>
        <polygon class="cls-20" points="2121.36 593.57 2087.99 606.22 2304.22 1029.12 2340.51 1010.14 2176.54 698.46 2121.36 593.57"/>
        <path class="cls-40" d="m2581.29,367.29s-133.71,61.71-131.14,226.29c0,0-31.15,110.57-180.14,110.57,0,0-63.63-21.66-93.46-5.69l112.91,214.64s28.44-39.92,40.56-79.44c12.13-39.51,78.98-96.08,189.56-83.23,0,0,128.57,113.14,267.43,46.29l-205.71-429.43Z"/>
        <path class="cls-38" d="m2843.99,772.64c0,7.88-3.38,15.52-9.36,20.81-2.1,1.86-4.52,3.44-7.23,4.63-16.81,7.41-42.65,2.3-50.69-14.22l-193.79-412.68c-6.64-13.63-1.24-30.06,12.19-37.09,8.68-4.55,18.44-4.82,26.9-1.6,7.51,2.85,13.99,8.45,17.81,16.25l201.34,411.72c1.92,3.93,2.83,8.09,2.83,12.18Z"/>
        <path class="cls-29" d="m2847.86,780.43c0,7.88-7.25,7.73-13.23,13.02-8.11-2.92-15.13-8.88-19.18-17.21l-199.96-410.58c-5.61-11.5-2.63-25.01,6.52-33.17,7.51,2.85,13.99,8.45,17.81,16.25l201.34,411.72c1.92,3.93,6.7,15.88,6.7,19.97Z"/>
        <path class="cls-43" d="m2112.3,4265.18c-58.15,18.99-47.87-20.18-47.87-20.18,0,0-102.86,318.86-24,315.43,78.86-3.43,147.43-294.86,147.43-332.57,0-3.74-1.32-10.05-3.65-18.65,0,0-13.76,36.98-71.91,55.97Z"/>
        <path class="cls-43" d="m2451.86,3480.43s-85.71-6.86-85.71,41.14,147.43,260.57,192,267.43c44.57,6.86,67.38,20.57,64.55-6.86-2.83-27.43-98.83-198.86-98.83-198.86-129.23-27.16-72-102.86-72-102.86Z"/>
        <path class="cls-1" d="m2451.86,3480.43s-57.23,75.69,72,102.86c0,0,24.25-41.33,90.72-70.52l-88.76-99.2-73.96,66.86Z"/>
        <path class="cls-1" d="m2064.43,4245s-10.29,39.17,47.87,20.18c58.15-18.99,71.91-55.97,71.91-55.97-3.95-14.56-10.8-35.71-19.14-62.18l-106.97,7.78c23.69,52.84,6.33,90.2,6.33,90.2Z"/>
        <polygon class="cls-4" points="3189.3 1400.22 3153.65 1379.02 3117.03 1399.44 3140.17 1365.54 3117.81 1327.17 3153.65 1350.38 3190.08 1327.95 3167.13 1365.54 3189.3 1400.22"/>
        <polygon class="cls-4" points="1228.17 2430.11 1192.52 2408.91 1155.9 2429.33 1179.04 2395.43 1156.68 2357.06 1192.52 2380.27 1228.95 2357.84 1206 2395.43 1228.17 2430.11"/>
        <polygon class="cls-21" points="1850.76 1960.91 1815.1 1939.71 1778.49 1960.13 1801.62 1926.23 1779.27 1887.86 1815.1 1911.07 1851.54 1888.64 1828.58 1926.23 1850.76 1960.91"/>
        <polygon class="cls-41" points="2042.95 504.19 1997.42 477.12 1950.65 503.19 1980.2 459.9 1951.65 410.89 1997.42 440.53 2043.95 411.89 2014.63 459.9 2042.95 504.19"/>
        <polygon class="cls-41" points="1818.02 909.15 1762.8 874.8 1697.81 877.2 1732.09 819.15 1731.16 751.73 1786.38 786.08 1851.37 783.68 1817.09 841.74 1818.02 909.15"/>
        <polygon class="cls-4" points="883.51 1288.36 843.35 1264.03 796.4 1265.21 820.73 1225.05 819.55 1178.1 859.72 1202.43 906.66 1201.25 882.33 1241.42 883.51 1288.36"/>
        <polygon class="cls-4" points="811.61 1945.9 792.51 1934.32 770.17 1934.89 781.75 1915.78 781.19 1893.44 800.29 1905.02 822.63 1904.46 811.05 1923.57 811.61 1945.9"/>
        <polygon class="cls-33" points="730.91 2300.99 711.8 2289.41 689.47 2289.97 701.05 2270.86 700.48 2248.53 719.59 2260.11 741.93 2259.54 730.35 2278.65 730.91 2300.99"/>
        <polygon class="cls-35" points="4135.91 2221.67 4116.81 2210.1 4094.47 2210.66 4106.05 2191.55 4105.49 2169.22 4124.59 2180.79 4146.93 2180.23 4135.35 2199.34 4135.91 2221.67"/>
        <polygon class="cls-14" points="1020.38 2113.46 992.24 2096.42 959.35 2097.24 976.39 2069.1 975.57 2036.21 1003.71 2053.26 1036.6 2052.43 1019.55 2080.57 1020.38 2113.46"/>
        <polygon class="cls-10" points="3733.45 2658.74 3705.31 2641.69 3672.42 2642.52 3689.47 2614.38 3688.64 2581.48 3716.78 2598.53 3749.67 2597.71 3732.63 2625.85 3733.45 2658.74"/>
        <polygon class="cls-4" points="2051.21 1440.95 2023.07 1423.9 1990.18 1424.73 2007.22 1396.59 2006.4 1363.7 2034.54 1380.75 2067.43 1379.92 2050.38 1408.06 2051.21 1440.95"/>
        <polygon class="cls-4" points="3656.2 2038.77 3628.06 2021.72 3595.17 2022.55 3612.22 1994.41 3611.39 1961.52 3639.53 1978.57 3672.42 1977.74 3655.37 2005.88 3656.2 2038.77"/>
        <polygon class="cls-4" points="3694.83 1540.98 3666.69 1523.93 3633.8 1524.75 3650.84 1496.61 3650.02 1463.72 3678.16 1480.77 3711.05 1479.94 3694 1508.08 3694.83 1540.98"/>
        <polygon class="cls-4" points="3996.16 2600.27 3968.02 2583.22 3935.13 2584.04 3952.18 2555.9 3951.35 2523.01 3979.49 2540.06 4012.38 2539.23 3995.34 2567.37 3996.16 2600.27"/>
        <polygon class="cls-18" points="3000.26 1941.3 2972.12 1924.25 2939.23 1925.08 2956.27 1896.94 2955.45 1864.05 2983.59 1881.1 3016.48 1880.27 2999.43 1908.41 3000.26 1941.3"/>
        <polygon class="cls-3" points="804.93 2522.07 775.41 2504.19 740.91 2505.05 758.8 2475.54 757.93 2441.04 787.44 2458.92 821.94 2458.05 804.06 2487.57 804.93 2522.07"/>
        <polygon class="cls-41" points="3216.04 615.07 3187.23 597.62 3153.56 598.47 3171.01 569.66 3170.17 535.98 3198.98 553.44 3232.65 552.59 3215.2 581.4 3216.04 615.07"/>
        <polygon class="cls-41" points="3332.27 1070.16 3303.46 1052.71 3269.79 1053.55 3287.24 1024.74 3286.39 991.07 3315.2 1008.52 3348.88 1007.68 3331.42 1036.49 3332.27 1070.16"/>
        <polygon class="cls-4" points="3875.15 1148.31 3817.29 1113.26 3749.67 1114.96 3784.72 1057.1 3783.02 989.48 3840.87 1024.53 3908.49 1022.83 3873.45 1080.69 3875.15 1148.31"/>
        <polygon class="cls-4" points="1521.12 1332.25 1463.27 1297.2 1395.65 1298.9 1430.69 1241.05 1428.99 1173.43 1486.85 1208.48 1554.47 1206.78 1519.42 1264.63 1521.12 1332.25"/>
        <polygon class="cls-8" points="4143.68 1724.48 4114.82 1707 4081.09 1707.85 4098.57 1678.99 4097.72 1645.26 4126.58 1662.74 4160.31 1661.89 4142.83 1690.75 4143.68 1724.48"/>
        <path class="cls-26" d="m2257.09,1930.71c13.23,30.74,26.63,56.22,23.9,89.58-.43,5.3-1.11,11.12-5,14.74-3.9,3.63-12.01,2.41-12.53-2.89-.54,19.73-1.08,39.44-1.62,59.16-2.9-50.8-39.51-96.44-59.52-144.99-31.15-75.59-21.88-161.11-9.66-241.95,14.25-94.33,32.21-188.92,65.32-278.67,16.31-44.23,36.16-87.56,61.23-127.55,12.56-20.05,15.54-28.14,37.34-30.09,4.64-.42,26.14,7.3,43.4,12.69-62.82,97.8-121.96,197.81-133.24,243.69-21.07,85.72-62.89,212.22-48.48,294.03,3.16,18,9.05,33.84,18.48,46.6l.41.62,6.91,30.62c.21.47,12.86,33.95,13.05,34.42Z"/>
        <path class="cls-25" d="m2461.2,2500l14.66,30.71-18,39.43,26.57,11.86-1.72,24.14s-87.02-13.78-206.1-13.25c-114.6-11.65-228.51-30.01-340.95-54.99,134.64-46.47,290.74-4.47,419.91-64.48-73.07,10.87-148.32,6.79-219.78-11.89,141.48-7.78,258.21-38.1,379.21-110.53,2.04,2.94,3.8,10.79,5.3,22-12.68,9.5-44.88,41.38-59.1,127Z"/>
        <path class="cls-23" d="m2865.37,2259.07c-2.31,4.74-6.68,20.08-7.36,25.31-2.7,20.93-19.16,28.2-27.33,47.65-.99,2.36-2.37,4.99-4.87,5.5-1.83.36-3.64-.56-5.27-1.45-2.03-1.11-4.06-2.22-6.06-3.4l38.52-81.39s-60-45.43-61.71-75c0,0-1.11.72-2.92,1.75.75-1.58,1.33-3.23,1.62-4.99,1.69-10.36-9.1-20.91-19.08-20.88-.41,1.92-1.31,3.73-2.58,5.23-2.33-5.59.23-12.75,5.57-15.59,5.35-2.85,12.72-.97,16.05,4.09,1.23,1.86,1.93,4.04,3.22,5.87,3.83,5.42,15.17,1.72,17.8,7.82,18.29,42.51,1.53,40.64,32.01,58.33,8.64,5.01,18.34,7.94,22.39,26.9.86,4.01,1.8,10.56,0,14.25Z"/>
        <path class="cls-5" d="m2777.56,800.99s85.73,66.87,25.73,149.15c-60,82.29-222.86,96-345.43-44.57,0,0-73.11-87.43-127.84-32.57,0,0-15.3,18.47-10.16,40.09l-22.19,15.62-27.67-52.6,60.02-42.46s90.13-60.08,156.56,53.92c0,0,99,132.86,243.86,78,0,0,54-29.14,56.57-80.57,0,0-3.36-68.4-74.96-51.34,0,0,2.11,39.34-28.75,24.77,0,0-33.67,2.44-4.83-41.21,0,0,77.02-39.26,99.11-16.23Z"/>
        <path class="cls-31" d="m2493.26,937.26c1.22,4.51,10.14,9.2,14.81,9.26,3.06.04,4.89-1.37,6.95-3.63,4.64-5.11,8.98-27.01,12.68-32.84-.57,7.46-2.09,29.86,1.16,36.59,3.25,6.74,10.69,11.21,17.41,7.91,2.94-1.45,5.92-4.52,7.91-7.12.89,4.23-.32,11.63,2.73,14.7,1.6,1.61,3.64,2.7,5.65,3.74,20.26,10.49,76.22,17.36,74.99,11.75-15.5-1.08-30.64-7.84-45.64-11.9-7.97-2.16-16.03-4.36-23.23-8.4-7.46-4.2-13.7-10.22-19.65-16.36-7.92-8.16-15.52-16.65-22.75-25.43-3.22-3.9-6.48-7.97-10.93-10.37-5.67-3.05-8.59-4.15-13.77-7.97-2.77-2.05-8.18-8.17-10.03-3.52-1.29,3.22-1.07,12.6-.71,16.07.99,9.47-.06,18.31,2.44,27.51Z"/>
        <path class="cls-1" d="m2493.39,920.74c-.11,5.04-.16,10.32,2.13,14.81,2.57,5.04,8.11,8.42,13.76,8.4,1.7,0,3.53-.36,4.72-1.58.65-.67,1.05-1.54,1.42-2.39,8.01-18.16,12.23-37.98,12.29-57.83,0-2.53-.06-5.12-.92-7.5-4.51-12.47-24.17-19.01-30.74-5.64-6.58,13.38-2.35,37.24-2.65,51.73Z"/>
        <path class="cls-1" d="m2528.01,927.38c-.41,5.36-.77,10.97,1.4,15.89,2.44,5.52,8.14,9.44,14.16,9.74,1.81.09,3.78-.18,5.11-1.41.73-.67,1.2-1.57,1.65-2.46,9.59-18.86,15.22-39.72,16.45-60.84.16-2.69.23-5.45-.55-8.04-4.08-13.53-24.62-21.64-32.4-7.79-7.78,13.86-4.67,39.5-5.83,54.91Z"/>
        <path class="cls-1" d="m2558.85,933.55c-1.96,6.08-3.95,12.46-2.81,18.74,1.28,7.05,6.77,13.17,13.64,15.2,2.07.61,4.41.85,6.3-.21,1.03-.58,1.83-1.48,2.59-2.38,16.33-19.11,28.65-41.63,35.94-65.68.93-3.07,1.79-6.23,1.61-9.43-.94-16.77-22.4-31.85-35.25-18.02-12.85,13.83-16.39,44.32-22.03,61.79Z"/>
        <path class="cls-1" d="m2600.68,952.39c-2.27,5.97-4.58,12.24-3.76,18.57.92,7.11,6.09,13.5,12.85,15.88,2.04.72,4.36,1.07,6.3.12,1.06-.52,1.9-1.39,2.71-2.25,17.28-18.25,30.74-40.11,39.26-63.75,1.09-3.02,2.11-6.13,2.09-9.34-.08-16.79-20.74-32.96-34.28-19.81-13.54,13.16-18.64,43.42-25.17,60.58Z"/>
        <path class="cls-30" d="m2639.76,991.31s-66.85-101.57-79.92-56.35c-13.26,45.85,16.77,83.22,52.63,91.39,22.92,5.22,14.63,6.11,27.29-35.05Z"/>
        <path class="cls-1" d="m2644.65,998.19s-72.96-105.62-80.08-63.69c-7.12,41.93,17.74,76.71,36.4,86.24,23.37,11.95,37.26,21.05,43.69-22.55Z"/>
        <polygon class="cls-2" points="2871.63 933.56 2829.88 908.73 2787 932.64 2814.1 892.95 2787.92 848.01 2829.88 875.19 2872.55 848.93 2845.67 892.95 2871.63 933.56"/>
        <polygon class="cls-39" points="2748.81 457.54 2707.06 432.72 2664.18 456.63 2691.28 416.93 2665.1 372 2707.06 399.17 2749.73 372.91 2722.85 416.93 2748.81 457.54"/>
        <rect class="cls-34" width="5000" height="5000"/>
      </g>
    </g>
  </g>
</svg>